G04 #@! TF.GenerationSoftware,KiCad,Pcbnew,8.0.7*
G04 #@! TF.CreationDate,2025-01-10T00:35:48-06:00*
G04 #@! TF.ProjectId,OpenFlops,4f70656e-466c-46f7-9073-2e6b69636164,1.0*
G04 #@! TF.SameCoordinates,PX72b28c8PY7654b98*
G04 #@! TF.FileFunction,Paste,Top*
G04 #@! TF.FilePolarity,Positive*
%FSLAX46Y46*%
G04 Gerber Fmt 4.6, Leading zero omitted, Abs format (unit mm)*
G04 Created by KiCad (PCBNEW 8.0.7) date 2025-01-10 00:35:48*
%MOMM*%
%LPD*%
G01*
G04 APERTURE LIST*
G04 Aperture macros list*
%AMRoundRect*
0 Rectangle with rounded corners*
0 $1 Rounding radius*
0 $2 $3 $4 $5 $6 $7 $8 $9 X,Y pos of 4 corners*
0 Add a 4 corners polygon primitive as box body*
4,1,4,$2,$3,$4,$5,$6,$7,$8,$9,$2,$3,0*
0 Add four circle primitives for the rounded corners*
1,1,$1+$1,$2,$3*
1,1,$1+$1,$4,$5*
1,1,$1+$1,$6,$7*
1,1,$1+$1,$8,$9*
0 Add four rect primitives between the rounded corners*
20,1,$1+$1,$2,$3,$4,$5,0*
20,1,$1+$1,$4,$5,$6,$7,0*
20,1,$1+$1,$6,$7,$8,$9,0*
20,1,$1+$1,$8,$9,$2,$3,0*%
G04 Aperture macros list end*
%ADD10RoundRect,0.250000X-0.262500X-0.450000X0.262500X-0.450000X0.262500X0.450000X-0.262500X0.450000X0*%
%ADD11RoundRect,0.250000X-0.450000X0.262500X-0.450000X-0.262500X0.450000X-0.262500X0.450000X0.262500X0*%
%ADD12RoundRect,0.150000X0.150000X-0.587500X0.150000X0.587500X-0.150000X0.587500X-0.150000X-0.587500X0*%
%ADD13RoundRect,0.250000X-0.600000X0.400000X-0.600000X-0.400000X0.600000X-0.400000X0.600000X0.400000X0*%
%ADD14RoundRect,0.150000X-0.150000X0.587500X-0.150000X-0.587500X0.150000X-0.587500X0.150000X0.587500X0*%
%ADD15RoundRect,0.250000X0.475000X-0.250000X0.475000X0.250000X-0.475000X0.250000X-0.475000X-0.250000X0*%
%ADD16RoundRect,0.150000X-0.825000X-0.150000X0.825000X-0.150000X0.825000X0.150000X-0.825000X0.150000X0*%
%ADD17RoundRect,0.250000X-0.250000X-0.475000X0.250000X-0.475000X0.250000X0.475000X-0.250000X0.475000X0*%
%ADD18RoundRect,0.250000X0.537500X0.425000X-0.537500X0.425000X-0.537500X-0.425000X0.537500X-0.425000X0*%
%ADD19R,2.000000X1.500000*%
%ADD20R,2.000000X3.800000*%
%ADD21RoundRect,0.250000X0.450000X-0.262500X0.450000X0.262500X-0.450000X0.262500X-0.450000X-0.262500X0*%
%ADD22RoundRect,0.250000X0.250000X0.475000X-0.250000X0.475000X-0.250000X-0.475000X0.250000X-0.475000X0*%
%ADD23RoundRect,0.250000X0.425000X-0.537500X0.425000X0.537500X-0.425000X0.537500X-0.425000X-0.537500X0*%
%ADD24RoundRect,0.200000X0.800000X-0.200000X0.800000X0.200000X-0.800000X0.200000X-0.800000X-0.200000X0*%
%ADD25RoundRect,0.250000X0.262500X0.450000X-0.262500X0.450000X-0.262500X-0.450000X0.262500X-0.450000X0*%
%ADD26RoundRect,0.075000X-0.700000X-0.075000X0.700000X-0.075000X0.700000X0.075000X-0.700000X0.075000X0*%
%ADD27RoundRect,0.075000X-0.075000X-0.700000X0.075000X-0.700000X0.075000X0.700000X-0.075000X0.700000X0*%
%ADD28RoundRect,0.250001X0.499999X0.924999X-0.499999X0.924999X-0.499999X-0.924999X0.499999X-0.924999X0*%
%ADD29R,0.700000X1.600000*%
%ADD30R,1.400000X1.600000*%
%ADD31R,1.400000X2.200000*%
%ADD32R,1.800000X1.400000*%
%ADD33R,1.200000X1.400000*%
G04 APERTURE END LIST*
D10*
X12549500Y17018000D03*
X14374500Y17018000D03*
D11*
X27686000Y7262500D03*
X27686000Y5437500D03*
D12*
X21402000Y7396000D03*
X23302000Y7396000D03*
X22352000Y9271000D03*
D13*
X21844000Y11303000D03*
X21844000Y14803000D03*
D14*
X57211000Y11019000D03*
X55311000Y11019000D03*
X56261000Y9144000D03*
D15*
X41031000Y13979000D03*
X41031000Y15879000D03*
D16*
X31115000Y19685000D03*
X31115000Y18415000D03*
X31115000Y17145000D03*
X31115000Y15875000D03*
X31115000Y14605000D03*
X31115000Y13335000D03*
X31115000Y12065000D03*
X36065000Y12065000D03*
X36065000Y13335000D03*
X36065000Y14605000D03*
X36065000Y15875000D03*
X36065000Y17145000D03*
X36065000Y18415000D03*
X36065000Y19685000D03*
D17*
X36431000Y9731000D03*
X38331000Y9731000D03*
D18*
X8717000Y22479000D03*
X5842000Y22479000D03*
D11*
X42545000Y23518500D03*
X42545000Y21693500D03*
D19*
X8763000Y15353000D03*
X8763000Y17653000D03*
D20*
X2463000Y17653000D03*
D19*
X8763000Y19953000D03*
D11*
X31115000Y23280500D03*
X31115000Y21455500D03*
D21*
X3175000Y2484500D03*
X3175000Y4309500D03*
D10*
X35640000Y35560000D03*
X37465000Y35560000D03*
D11*
X50165000Y23518500D03*
X50165000Y21693500D03*
D15*
X53721000Y14163000D03*
X53721000Y16063000D03*
D11*
X47625000Y23518500D03*
X47625000Y21693500D03*
D22*
X42281000Y2379000D03*
X40381000Y2379000D03*
D17*
X36431000Y7318000D03*
X38331000Y7318000D03*
D10*
X35663500Y40894000D03*
X37488500Y40894000D03*
D15*
X25294200Y8841500D03*
X25294200Y10741500D03*
X36195000Y21402000D03*
X36195000Y23302000D03*
D11*
X45085000Y23518500D03*
X45085000Y21693500D03*
D18*
X8803500Y12827000D03*
X5928500Y12827000D03*
D23*
X55880000Y14143000D03*
X55880000Y17018000D03*
D11*
X22098000Y23518500D03*
X22098000Y21693500D03*
X57785000Y23518500D03*
X57785000Y21693500D03*
D10*
X26773500Y14605000D03*
X28598500Y14605000D03*
D24*
X17780000Y16628000D03*
X17780000Y20828000D03*
D17*
X52481000Y2379000D03*
X54381000Y2379000D03*
D25*
X37488500Y43053000D03*
X35663500Y43053000D03*
D11*
X52705000Y23518500D03*
X52705000Y21693500D03*
X55245000Y23518500D03*
X55245000Y21693500D03*
D26*
X41696000Y12513000D03*
X41696000Y12013000D03*
X41696000Y11513000D03*
X41696000Y11013000D03*
X41696000Y10513000D03*
X41696000Y10013000D03*
X41696000Y9513000D03*
X41696000Y9013000D03*
X41696000Y8513000D03*
X41696000Y8013000D03*
X41696000Y7513000D03*
X41696000Y7013000D03*
X41696000Y6513000D03*
X41696000Y6013000D03*
X41696000Y5513000D03*
X41696000Y5013000D03*
D27*
X43621000Y3088000D03*
X44121000Y3088000D03*
X44621000Y3088000D03*
X45121000Y3088000D03*
X45621000Y3088000D03*
X46121000Y3088000D03*
X46621000Y3088000D03*
X47121000Y3088000D03*
X47621000Y3088000D03*
X48121000Y3088000D03*
X48621000Y3088000D03*
X49121000Y3088000D03*
X49621000Y3088000D03*
X50121000Y3088000D03*
X50621000Y3088000D03*
X51121000Y3088000D03*
D26*
X53046000Y5013000D03*
X53046000Y5513000D03*
X53046000Y6013000D03*
X53046000Y6513000D03*
X53046000Y7013000D03*
X53046000Y7513000D03*
X53046000Y8013000D03*
X53046000Y8513000D03*
X53046000Y9013000D03*
X53046000Y9513000D03*
X53046000Y10013000D03*
X53046000Y10513000D03*
X53046000Y11013000D03*
X53046000Y11513000D03*
X53046000Y12013000D03*
X53046000Y12513000D03*
D27*
X51121000Y14438000D03*
X50621000Y14438000D03*
X50121000Y14438000D03*
X49621000Y14438000D03*
X49121000Y14438000D03*
X48621000Y14438000D03*
X48121000Y14438000D03*
X47621000Y14438000D03*
X47121000Y14438000D03*
X46621000Y14438000D03*
X46121000Y14438000D03*
X45621000Y14438000D03*
X45121000Y14438000D03*
X44621000Y14438000D03*
X44121000Y14438000D03*
X43621000Y14438000D03*
D28*
X37312000Y38227000D03*
X34062000Y38227000D03*
D29*
X52975000Y31909000D03*
X54075000Y31909000D03*
X55175000Y31909000D03*
X56275000Y31909000D03*
X57375000Y31909000D03*
X58475000Y31909000D03*
X59575000Y31909000D03*
X60675000Y31909000D03*
X61775000Y31909000D03*
D30*
X63075000Y32509000D03*
D31*
X63075000Y42009000D03*
X47375000Y42009000D03*
D32*
X48275000Y32409000D03*
D11*
X33655000Y23280500D03*
X33655000Y21455500D03*
D25*
X37465000Y33401000D03*
X35640000Y33401000D03*
D11*
X24765000Y23495000D03*
X24765000Y21670000D03*
X27631000Y10704000D03*
X27631000Y8879000D03*
X5588000Y4309500D03*
X5588000Y2484500D03*
D10*
X59920500Y22098000D03*
X61745500Y22098000D03*
D33*
X34482000Y7361000D03*
X34482000Y9561000D03*
X32782000Y9561000D03*
X32782000Y7361000D03*
D11*
X27305000Y23518500D03*
X27305000Y21693500D03*
M02*
