G04 #@! TF.GenerationSoftware,KiCad,Pcbnew,8.0.7*
G04 #@! TF.CreationDate,2025-01-10T00:35:48-06:00*
G04 #@! TF.ProjectId,OpenFlops,4f70656e-466c-46f7-9073-2e6b69636164,1.0*
G04 #@! TF.SameCoordinates,PX72b28c8PY7654b98*
G04 #@! TF.FileFunction,Legend,Top*
G04 #@! TF.FilePolarity,Positive*
%FSLAX46Y46*%
G04 Gerber Fmt 4.6, Leading zero omitted, Abs format (unit mm)*
G04 Created by KiCad (PCBNEW 8.0.7) date 2025-01-10 00:35:48*
%MOMM*%
%LPD*%
G01*
G04 APERTURE LIST*
%ADD10C,0.239605*%
%ADD11C,0.150000*%
%ADD12C,0.120000*%
%ADD13C,0.127000*%
G04 APERTURE END LIST*
D10*
X40378802Y12954000D02*
G75*
G02*
X40139198Y12954000I-119802J0D01*
G01*
X40139198Y12954000D02*
G75*
G02*
X40378802Y12954000I119802J0D01*
G01*
X35298802Y6096000D02*
G75*
G02*
X35059198Y6096000I-119802J0D01*
G01*
X35059198Y6096000D02*
G75*
G02*
X35298802Y6096000I119802J0D01*
G01*
X29710802Y19759395D02*
G75*
G02*
X29471198Y19759395I-119802J0D01*
G01*
X29471198Y19759395D02*
G75*
G02*
X29710802Y19759395I119802J0D01*
G01*
X10459407Y15367000D02*
G75*
G02*
X10219803Y15367000I-119802J0D01*
G01*
X10219803Y15367000D02*
G75*
G02*
X10459407Y15367000I119802J0D01*
G01*
D11*
X50914493Y39865181D02*
X50914493Y39150896D01*
X50914493Y39150896D02*
X50866874Y39008039D01*
X50866874Y39008039D02*
X50771636Y38912800D01*
X50771636Y38912800D02*
X50628779Y38865181D01*
X50628779Y38865181D02*
X50533541Y38865181D01*
X51866874Y38865181D02*
X51390684Y38865181D01*
X51390684Y38865181D02*
X51390684Y39865181D01*
X52771636Y38960420D02*
X52724017Y38912800D01*
X52724017Y38912800D02*
X52581160Y38865181D01*
X52581160Y38865181D02*
X52485922Y38865181D01*
X52485922Y38865181D02*
X52343065Y38912800D01*
X52343065Y38912800D02*
X52247827Y39008039D01*
X52247827Y39008039D02*
X52200208Y39103277D01*
X52200208Y39103277D02*
X52152589Y39293753D01*
X52152589Y39293753D02*
X52152589Y39436610D01*
X52152589Y39436610D02*
X52200208Y39627086D01*
X52200208Y39627086D02*
X52247827Y39722324D01*
X52247827Y39722324D02*
X52343065Y39817562D01*
X52343065Y39817562D02*
X52485922Y39865181D01*
X52485922Y39865181D02*
X52581160Y39865181D01*
X52581160Y39865181D02*
X52724017Y39817562D01*
X52724017Y39817562D02*
X52771636Y39769943D01*
X53485922Y39865181D02*
X53485922Y39150896D01*
X53485922Y39150896D02*
X53438303Y39008039D01*
X53438303Y39008039D02*
X53343065Y38912800D01*
X53343065Y38912800D02*
X53200208Y38865181D01*
X53200208Y38865181D02*
X53104970Y38865181D01*
X54438303Y38865181D02*
X53962113Y38865181D01*
X53962113Y38865181D02*
X53962113Y39865181D01*
X55343065Y38960420D02*
X55295446Y38912800D01*
X55295446Y38912800D02*
X55152589Y38865181D01*
X55152589Y38865181D02*
X55057351Y38865181D01*
X55057351Y38865181D02*
X54914494Y38912800D01*
X54914494Y38912800D02*
X54819256Y39008039D01*
X54819256Y39008039D02*
X54771637Y39103277D01*
X54771637Y39103277D02*
X54724018Y39293753D01*
X54724018Y39293753D02*
X54724018Y39436610D01*
X54724018Y39436610D02*
X54771637Y39627086D01*
X54771637Y39627086D02*
X54819256Y39722324D01*
X54819256Y39722324D02*
X54914494Y39817562D01*
X54914494Y39817562D02*
X55057351Y39865181D01*
X55057351Y39865181D02*
X55152589Y39865181D01*
X55152589Y39865181D02*
X55295446Y39817562D01*
X55295446Y39817562D02*
X55343065Y39769943D01*
X56057351Y39865181D02*
X56057351Y39150896D01*
X56057351Y39150896D02*
X56009732Y39008039D01*
X56009732Y39008039D02*
X55914494Y38912800D01*
X55914494Y38912800D02*
X55771637Y38865181D01*
X55771637Y38865181D02*
X55676399Y38865181D01*
X57009732Y38865181D02*
X56533542Y38865181D01*
X56533542Y38865181D02*
X56533542Y39865181D01*
X57914494Y38960420D02*
X57866875Y38912800D01*
X57866875Y38912800D02*
X57724018Y38865181D01*
X57724018Y38865181D02*
X57628780Y38865181D01*
X57628780Y38865181D02*
X57485923Y38912800D01*
X57485923Y38912800D02*
X57390685Y39008039D01*
X57390685Y39008039D02*
X57343066Y39103277D01*
X57343066Y39103277D02*
X57295447Y39293753D01*
X57295447Y39293753D02*
X57295447Y39436610D01*
X57295447Y39436610D02*
X57343066Y39627086D01*
X57343066Y39627086D02*
X57390685Y39722324D01*
X57390685Y39722324D02*
X57485923Y39817562D01*
X57485923Y39817562D02*
X57628780Y39865181D01*
X57628780Y39865181D02*
X57724018Y39865181D01*
X57724018Y39865181D02*
X57866875Y39817562D01*
X57866875Y39817562D02*
X57914494Y39769943D01*
X58628780Y39865181D02*
X58628780Y39150896D01*
X58628780Y39150896D02*
X58581161Y39008039D01*
X58581161Y39008039D02*
X58485923Y38912800D01*
X58485923Y38912800D02*
X58343066Y38865181D01*
X58343066Y38865181D02*
X58247828Y38865181D01*
X59581161Y38865181D02*
X59104971Y38865181D01*
X59104971Y38865181D02*
X59104971Y39865181D01*
X60485923Y38960420D02*
X60438304Y38912800D01*
X60438304Y38912800D02*
X60295447Y38865181D01*
X60295447Y38865181D02*
X60200209Y38865181D01*
X60200209Y38865181D02*
X60057352Y38912800D01*
X60057352Y38912800D02*
X59962114Y39008039D01*
X59962114Y39008039D02*
X59914495Y39103277D01*
X59914495Y39103277D02*
X59866876Y39293753D01*
X59866876Y39293753D02*
X59866876Y39436610D01*
X59866876Y39436610D02*
X59914495Y39627086D01*
X59914495Y39627086D02*
X59962114Y39722324D01*
X59962114Y39722324D02*
X60057352Y39817562D01*
X60057352Y39817562D02*
X60200209Y39865181D01*
X60200209Y39865181D02*
X60295447Y39865181D01*
X60295447Y39865181D02*
X60438304Y39817562D01*
X60438304Y39817562D02*
X60485923Y39769943D01*
X55499048Y12499134D02*
X56260953Y12499134D01*
X55880000Y12118181D02*
X55880000Y12880086D01*
X12154819Y368542D02*
X12154819Y987589D01*
X12154819Y987589D02*
X12535771Y654256D01*
X12535771Y654256D02*
X12535771Y797113D01*
X12535771Y797113D02*
X12583390Y892351D01*
X12583390Y892351D02*
X12631009Y939970D01*
X12631009Y939970D02*
X12726247Y987589D01*
X12726247Y987589D02*
X12964342Y987589D01*
X12964342Y987589D02*
X13059580Y939970D01*
X13059580Y939970D02*
X13107200Y892351D01*
X13107200Y892351D02*
X13154819Y797113D01*
X13154819Y797113D02*
X13154819Y511399D01*
X13154819Y511399D02*
X13107200Y416161D01*
X13107200Y416161D02*
X13059580Y368542D01*
X13059580Y1416161D02*
X13107200Y1463780D01*
X13107200Y1463780D02*
X13154819Y1416161D01*
X13154819Y1416161D02*
X13107200Y1368542D01*
X13107200Y1368542D02*
X13059580Y1416161D01*
X13059580Y1416161D02*
X13154819Y1416161D01*
X12154819Y1797113D02*
X12154819Y2416160D01*
X12154819Y2416160D02*
X12535771Y2082827D01*
X12535771Y2082827D02*
X12535771Y2225684D01*
X12535771Y2225684D02*
X12583390Y2320922D01*
X12583390Y2320922D02*
X12631009Y2368541D01*
X12631009Y2368541D02*
X12726247Y2416160D01*
X12726247Y2416160D02*
X12964342Y2416160D01*
X12964342Y2416160D02*
X13059580Y2368541D01*
X13059580Y2368541D02*
X13107200Y2320922D01*
X13107200Y2320922D02*
X13154819Y2225684D01*
X13154819Y2225684D02*
X13154819Y1939970D01*
X13154819Y1939970D02*
X13107200Y1844732D01*
X13107200Y1844732D02*
X13059580Y1797113D01*
X12154819Y2701875D02*
X13154819Y3035208D01*
X13154819Y3035208D02*
X12154819Y3368541D01*
X18187200Y289161D02*
X18234819Y432018D01*
X18234819Y432018D02*
X18234819Y670113D01*
X18234819Y670113D02*
X18187200Y765351D01*
X18187200Y765351D02*
X18139580Y812970D01*
X18139580Y812970D02*
X18044342Y860589D01*
X18044342Y860589D02*
X17949104Y860589D01*
X17949104Y860589D02*
X17853866Y812970D01*
X17853866Y812970D02*
X17806247Y765351D01*
X17806247Y765351D02*
X17758628Y670113D01*
X17758628Y670113D02*
X17711009Y479637D01*
X17711009Y479637D02*
X17663390Y384399D01*
X17663390Y384399D02*
X17615771Y336780D01*
X17615771Y336780D02*
X17520533Y289161D01*
X17520533Y289161D02*
X17425295Y289161D01*
X17425295Y289161D02*
X17330057Y336780D01*
X17330057Y336780D02*
X17282438Y384399D01*
X17282438Y384399D02*
X17234819Y479637D01*
X17234819Y479637D02*
X17234819Y717732D01*
X17234819Y717732D02*
X17282438Y860589D01*
X17234819Y1193923D02*
X18234819Y1432018D01*
X18234819Y1432018D02*
X17520533Y1622494D01*
X17520533Y1622494D02*
X18234819Y1812970D01*
X18234819Y1812970D02*
X17234819Y2051065D01*
X18139580Y3003446D02*
X18187200Y2955827D01*
X18187200Y2955827D02*
X18234819Y2812970D01*
X18234819Y2812970D02*
X18234819Y2717732D01*
X18234819Y2717732D02*
X18187200Y2574875D01*
X18187200Y2574875D02*
X18091961Y2479637D01*
X18091961Y2479637D02*
X17996723Y2432018D01*
X17996723Y2432018D02*
X17806247Y2384399D01*
X17806247Y2384399D02*
X17663390Y2384399D01*
X17663390Y2384399D02*
X17472914Y2432018D01*
X17472914Y2432018D02*
X17377676Y2479637D01*
X17377676Y2479637D02*
X17282438Y2574875D01*
X17282438Y2574875D02*
X17234819Y2717732D01*
X17234819Y2717732D02*
X17234819Y2812970D01*
X17234819Y2812970D02*
X17282438Y2955827D01*
X17282438Y2955827D02*
X17330057Y3003446D01*
X18234819Y3908208D02*
X18234819Y3432018D01*
X18234819Y3432018D02*
X17234819Y3432018D01*
X18234819Y4241542D02*
X17234819Y4241542D01*
X18234819Y4812970D02*
X17663390Y4384399D01*
X17234819Y4812970D02*
X17806247Y4241542D01*
X19695438Y860589D02*
X19647819Y765351D01*
X19647819Y765351D02*
X19647819Y622494D01*
X19647819Y622494D02*
X19695438Y479637D01*
X19695438Y479637D02*
X19790676Y384399D01*
X19790676Y384399D02*
X19885914Y336780D01*
X19885914Y336780D02*
X20076390Y289161D01*
X20076390Y289161D02*
X20219247Y289161D01*
X20219247Y289161D02*
X20409723Y336780D01*
X20409723Y336780D02*
X20504961Y384399D01*
X20504961Y384399D02*
X20600200Y479637D01*
X20600200Y479637D02*
X20647819Y622494D01*
X20647819Y622494D02*
X20647819Y717732D01*
X20647819Y717732D02*
X20600200Y860589D01*
X20600200Y860589D02*
X20552580Y908208D01*
X20552580Y908208D02*
X20219247Y908208D01*
X20219247Y908208D02*
X20219247Y717732D01*
X20647819Y1336780D02*
X19647819Y1336780D01*
X19647819Y1336780D02*
X20647819Y1908208D01*
X20647819Y1908208D02*
X19647819Y1908208D01*
X20647819Y2384399D02*
X19647819Y2384399D01*
X19647819Y2384399D02*
X19647819Y2622494D01*
X19647819Y2622494D02*
X19695438Y2765351D01*
X19695438Y2765351D02*
X19790676Y2860589D01*
X19790676Y2860589D02*
X19885914Y2908208D01*
X19885914Y2908208D02*
X20076390Y2955827D01*
X20076390Y2955827D02*
X20219247Y2955827D01*
X20219247Y2955827D02*
X20409723Y2908208D01*
X20409723Y2908208D02*
X20504961Y2860589D01*
X20504961Y2860589D02*
X20600200Y2765351D01*
X20600200Y2765351D02*
X20647819Y2622494D01*
X20647819Y2622494D02*
X20647819Y2384399D01*
X1597819Y7492715D02*
X1597819Y6921287D01*
X1597819Y7207001D02*
X597819Y7207001D01*
X597819Y7207001D02*
X740676Y7111763D01*
X740676Y7111763D02*
X835914Y7016525D01*
X835914Y7016525D02*
X883533Y6921287D01*
X38989048Y38280134D02*
X39750953Y38280134D01*
X39370000Y37899181D02*
X39370000Y38661086D01*
X597819Y9191382D02*
X597819Y9286620D01*
X597819Y9286620D02*
X645438Y9381858D01*
X645438Y9381858D02*
X693057Y9429477D01*
X693057Y9429477D02*
X788295Y9477096D01*
X788295Y9477096D02*
X978771Y9524715D01*
X978771Y9524715D02*
X1216866Y9524715D01*
X1216866Y9524715D02*
X1407342Y9477096D01*
X1407342Y9477096D02*
X1502580Y9429477D01*
X1502580Y9429477D02*
X1550200Y9381858D01*
X1550200Y9381858D02*
X1597819Y9286620D01*
X1597819Y9286620D02*
X1597819Y9191382D01*
X1597819Y9191382D02*
X1550200Y9096144D01*
X1550200Y9096144D02*
X1502580Y9048525D01*
X1502580Y9048525D02*
X1407342Y9000906D01*
X1407342Y9000906D02*
X1216866Y8953287D01*
X1216866Y8953287D02*
X978771Y8953287D01*
X978771Y8953287D02*
X788295Y9000906D01*
X788295Y9000906D02*
X693057Y9048525D01*
X693057Y9048525D02*
X645438Y9096144D01*
X645438Y9096144D02*
X597819Y9191382D01*
X15647200Y289161D02*
X15694819Y432018D01*
X15694819Y432018D02*
X15694819Y670113D01*
X15694819Y670113D02*
X15647200Y765351D01*
X15647200Y765351D02*
X15599580Y812970D01*
X15599580Y812970D02*
X15504342Y860589D01*
X15504342Y860589D02*
X15409104Y860589D01*
X15409104Y860589D02*
X15313866Y812970D01*
X15313866Y812970D02*
X15266247Y765351D01*
X15266247Y765351D02*
X15218628Y670113D01*
X15218628Y670113D02*
X15171009Y479637D01*
X15171009Y479637D02*
X15123390Y384399D01*
X15123390Y384399D02*
X15075771Y336780D01*
X15075771Y336780D02*
X14980533Y289161D01*
X14980533Y289161D02*
X14885295Y289161D01*
X14885295Y289161D02*
X14790057Y336780D01*
X14790057Y336780D02*
X14742438Y384399D01*
X14742438Y384399D02*
X14694819Y479637D01*
X14694819Y479637D02*
X14694819Y717732D01*
X14694819Y717732D02*
X14742438Y860589D01*
X14694819Y1193923D02*
X15694819Y1432018D01*
X15694819Y1432018D02*
X14980533Y1622494D01*
X14980533Y1622494D02*
X15694819Y1812970D01*
X15694819Y1812970D02*
X14694819Y2051065D01*
X15694819Y2432018D02*
X14694819Y2432018D01*
X14694819Y2432018D02*
X14694819Y2670113D01*
X14694819Y2670113D02*
X14742438Y2812970D01*
X14742438Y2812970D02*
X14837676Y2908208D01*
X14837676Y2908208D02*
X14932914Y2955827D01*
X14932914Y2955827D02*
X15123390Y3003446D01*
X15123390Y3003446D02*
X15266247Y3003446D01*
X15266247Y3003446D02*
X15456723Y2955827D01*
X15456723Y2955827D02*
X15551961Y2908208D01*
X15551961Y2908208D02*
X15647200Y2812970D01*
X15647200Y2812970D02*
X15694819Y2670113D01*
X15694819Y2670113D02*
X15694819Y2432018D01*
X15694819Y3432018D02*
X14694819Y3432018D01*
X14694819Y4098684D02*
X14694819Y4289160D01*
X14694819Y4289160D02*
X14742438Y4384398D01*
X14742438Y4384398D02*
X14837676Y4479636D01*
X14837676Y4479636D02*
X15028152Y4527255D01*
X15028152Y4527255D02*
X15361485Y4527255D01*
X15361485Y4527255D02*
X15551961Y4479636D01*
X15551961Y4479636D02*
X15647200Y4384398D01*
X15647200Y4384398D02*
X15694819Y4289160D01*
X15694819Y4289160D02*
X15694819Y4098684D01*
X15694819Y4098684D02*
X15647200Y4003446D01*
X15647200Y4003446D02*
X15551961Y3908208D01*
X15551961Y3908208D02*
X15361485Y3860589D01*
X15361485Y3860589D02*
X15028152Y3860589D01*
X15028152Y3860589D02*
X14837676Y3908208D01*
X14837676Y3908208D02*
X14742438Y4003446D01*
X14742438Y4003446D02*
X14694819Y4098684D01*
X10033048Y22532134D02*
X10794953Y22532134D01*
X10414000Y22151181D02*
X10414000Y22913086D01*
X10160048Y12880134D02*
X10921953Y12880134D01*
X10541000Y12499181D02*
X10541000Y13261086D01*
X1055857Y11244991D02*
X1198714Y11197372D01*
X1198714Y11197372D02*
X1246333Y11149753D01*
X1246333Y11149753D02*
X1293952Y11054515D01*
X1293952Y11054515D02*
X1293952Y10911658D01*
X1293952Y10911658D02*
X1246333Y10816420D01*
X1246333Y10816420D02*
X1198714Y10768800D01*
X1198714Y10768800D02*
X1103476Y10721181D01*
X1103476Y10721181D02*
X722524Y10721181D01*
X722524Y10721181D02*
X722524Y11721181D01*
X722524Y11721181D02*
X1055857Y11721181D01*
X1055857Y11721181D02*
X1151095Y11673562D01*
X1151095Y11673562D02*
X1198714Y11625943D01*
X1198714Y11625943D02*
X1246333Y11530705D01*
X1246333Y11530705D02*
X1246333Y11435467D01*
X1246333Y11435467D02*
X1198714Y11340229D01*
X1198714Y11340229D02*
X1151095Y11292610D01*
X1151095Y11292610D02*
X1055857Y11244991D01*
X1055857Y11244991D02*
X722524Y11244991D01*
X1913000Y11721181D02*
X2103476Y11721181D01*
X2103476Y11721181D02*
X2198714Y11673562D01*
X2198714Y11673562D02*
X2293952Y11578324D01*
X2293952Y11578324D02*
X2341571Y11387848D01*
X2341571Y11387848D02*
X2341571Y11054515D01*
X2341571Y11054515D02*
X2293952Y10864039D01*
X2293952Y10864039D02*
X2198714Y10768800D01*
X2198714Y10768800D02*
X2103476Y10721181D01*
X2103476Y10721181D02*
X1913000Y10721181D01*
X1913000Y10721181D02*
X1817762Y10768800D01*
X1817762Y10768800D02*
X1722524Y10864039D01*
X1722524Y10864039D02*
X1674905Y11054515D01*
X1674905Y11054515D02*
X1674905Y11387848D01*
X1674905Y11387848D02*
X1722524Y11578324D01*
X1722524Y11578324D02*
X1817762Y11673562D01*
X1817762Y11673562D02*
X1913000Y11721181D01*
X2960619Y11721181D02*
X3151095Y11721181D01*
X3151095Y11721181D02*
X3246333Y11673562D01*
X3246333Y11673562D02*
X3341571Y11578324D01*
X3341571Y11578324D02*
X3389190Y11387848D01*
X3389190Y11387848D02*
X3389190Y11054515D01*
X3389190Y11054515D02*
X3341571Y10864039D01*
X3341571Y10864039D02*
X3246333Y10768800D01*
X3246333Y10768800D02*
X3151095Y10721181D01*
X3151095Y10721181D02*
X2960619Y10721181D01*
X2960619Y10721181D02*
X2865381Y10768800D01*
X2865381Y10768800D02*
X2770143Y10864039D01*
X2770143Y10864039D02*
X2722524Y11054515D01*
X2722524Y11054515D02*
X2722524Y11387848D01*
X2722524Y11387848D02*
X2770143Y11578324D01*
X2770143Y11578324D02*
X2865381Y11673562D01*
X2865381Y11673562D02*
X2960619Y11721181D01*
X3674905Y11721181D02*
X4246333Y11721181D01*
X3960619Y10721181D02*
X3960619Y11721181D01*
X12819142Y18213181D02*
X12485809Y18689372D01*
X12247714Y18213181D02*
X12247714Y19213181D01*
X12247714Y19213181D02*
X12628666Y19213181D01*
X12628666Y19213181D02*
X12723904Y19165562D01*
X12723904Y19165562D02*
X12771523Y19117943D01*
X12771523Y19117943D02*
X12819142Y19022705D01*
X12819142Y19022705D02*
X12819142Y18879848D01*
X12819142Y18879848D02*
X12771523Y18784610D01*
X12771523Y18784610D02*
X12723904Y18736991D01*
X12723904Y18736991D02*
X12628666Y18689372D01*
X12628666Y18689372D02*
X12247714Y18689372D01*
X13200095Y19117943D02*
X13247714Y19165562D01*
X13247714Y19165562D02*
X13342952Y19213181D01*
X13342952Y19213181D02*
X13581047Y19213181D01*
X13581047Y19213181D02*
X13676285Y19165562D01*
X13676285Y19165562D02*
X13723904Y19117943D01*
X13723904Y19117943D02*
X13771523Y19022705D01*
X13771523Y19022705D02*
X13771523Y18927467D01*
X13771523Y18927467D02*
X13723904Y18784610D01*
X13723904Y18784610D02*
X13152476Y18213181D01*
X13152476Y18213181D02*
X13771523Y18213181D01*
X14104857Y19213181D02*
X14723904Y19213181D01*
X14723904Y19213181D02*
X14390571Y18832229D01*
X14390571Y18832229D02*
X14533428Y18832229D01*
X14533428Y18832229D02*
X14628666Y18784610D01*
X14628666Y18784610D02*
X14676285Y18736991D01*
X14676285Y18736991D02*
X14723904Y18641753D01*
X14723904Y18641753D02*
X14723904Y18403658D01*
X14723904Y18403658D02*
X14676285Y18308420D01*
X14676285Y18308420D02*
X14628666Y18260800D01*
X14628666Y18260800D02*
X14533428Y18213181D01*
X14533428Y18213181D02*
X14247714Y18213181D01*
X14247714Y18213181D02*
X14152476Y18260800D01*
X14152476Y18260800D02*
X14104857Y18308420D01*
X26489819Y5707143D02*
X26013628Y5373810D01*
X26489819Y5135715D02*
X25489819Y5135715D01*
X25489819Y5135715D02*
X25489819Y5516667D01*
X25489819Y5516667D02*
X25537438Y5611905D01*
X25537438Y5611905D02*
X25585057Y5659524D01*
X25585057Y5659524D02*
X25680295Y5707143D01*
X25680295Y5707143D02*
X25823152Y5707143D01*
X25823152Y5707143D02*
X25918390Y5659524D01*
X25918390Y5659524D02*
X25966009Y5611905D01*
X25966009Y5611905D02*
X26013628Y5516667D01*
X26013628Y5516667D02*
X26013628Y5135715D01*
X25585057Y6088096D02*
X25537438Y6135715D01*
X25537438Y6135715D02*
X25489819Y6230953D01*
X25489819Y6230953D02*
X25489819Y6469048D01*
X25489819Y6469048D02*
X25537438Y6564286D01*
X25537438Y6564286D02*
X25585057Y6611905D01*
X25585057Y6611905D02*
X25680295Y6659524D01*
X25680295Y6659524D02*
X25775533Y6659524D01*
X25775533Y6659524D02*
X25918390Y6611905D01*
X25918390Y6611905D02*
X26489819Y6040477D01*
X26489819Y6040477D02*
X26489819Y6659524D01*
X25585057Y7040477D02*
X25537438Y7088096D01*
X25537438Y7088096D02*
X25489819Y7183334D01*
X25489819Y7183334D02*
X25489819Y7421429D01*
X25489819Y7421429D02*
X25537438Y7516667D01*
X25537438Y7516667D02*
X25585057Y7564286D01*
X25585057Y7564286D02*
X25680295Y7611905D01*
X25680295Y7611905D02*
X25775533Y7611905D01*
X25775533Y7611905D02*
X25918390Y7564286D01*
X25918390Y7564286D02*
X26489819Y6992858D01*
X26489819Y6992858D02*
X26489819Y7611905D01*
X20235057Y7016762D02*
X20187438Y6921524D01*
X20187438Y6921524D02*
X20092200Y6826286D01*
X20092200Y6826286D02*
X19949342Y6683429D01*
X19949342Y6683429D02*
X19901723Y6588191D01*
X19901723Y6588191D02*
X19901723Y6492953D01*
X20139819Y6540572D02*
X20092200Y6445334D01*
X20092200Y6445334D02*
X19996961Y6350096D01*
X19996961Y6350096D02*
X19806485Y6302477D01*
X19806485Y6302477D02*
X19473152Y6302477D01*
X19473152Y6302477D02*
X19282676Y6350096D01*
X19282676Y6350096D02*
X19187438Y6445334D01*
X19187438Y6445334D02*
X19139819Y6540572D01*
X19139819Y6540572D02*
X19139819Y6731048D01*
X19139819Y6731048D02*
X19187438Y6826286D01*
X19187438Y6826286D02*
X19282676Y6921524D01*
X19282676Y6921524D02*
X19473152Y6969143D01*
X19473152Y6969143D02*
X19806485Y6969143D01*
X19806485Y6969143D02*
X19996961Y6921524D01*
X19996961Y6921524D02*
X20092200Y6826286D01*
X20092200Y6826286D02*
X20139819Y6731048D01*
X20139819Y6731048D02*
X20139819Y6540572D01*
X19235057Y7350096D02*
X19187438Y7397715D01*
X19187438Y7397715D02*
X19139819Y7492953D01*
X19139819Y7492953D02*
X19139819Y7731048D01*
X19139819Y7731048D02*
X19187438Y7826286D01*
X19187438Y7826286D02*
X19235057Y7873905D01*
X19235057Y7873905D02*
X19330295Y7921524D01*
X19330295Y7921524D02*
X19425533Y7921524D01*
X19425533Y7921524D02*
X19568390Y7873905D01*
X19568390Y7873905D02*
X20139819Y7302477D01*
X20139819Y7302477D02*
X20139819Y7921524D01*
X23247819Y3603667D02*
X23962104Y3603667D01*
X23962104Y3603667D02*
X24104961Y3556048D01*
X24104961Y3556048D02*
X24200200Y3460810D01*
X24200200Y3460810D02*
X24247819Y3317953D01*
X24247819Y3317953D02*
X24247819Y3222715D01*
X23343057Y4032239D02*
X23295438Y4079858D01*
X23295438Y4079858D02*
X23247819Y4175096D01*
X23247819Y4175096D02*
X23247819Y4413191D01*
X23247819Y4413191D02*
X23295438Y4508429D01*
X23295438Y4508429D02*
X23343057Y4556048D01*
X23343057Y4556048D02*
X23438295Y4603667D01*
X23438295Y4603667D02*
X23533533Y4603667D01*
X23533533Y4603667D02*
X23676390Y4556048D01*
X23676390Y4556048D02*
X24247819Y3984620D01*
X24247819Y3984620D02*
X24247819Y4603667D01*
X20393819Y14120906D02*
X19393819Y14120906D01*
X19393819Y14120906D02*
X19393819Y14359001D01*
X19393819Y14359001D02*
X19441438Y14501858D01*
X19441438Y14501858D02*
X19536676Y14597096D01*
X19536676Y14597096D02*
X19631914Y14644715D01*
X19631914Y14644715D02*
X19822390Y14692334D01*
X19822390Y14692334D02*
X19965247Y14692334D01*
X19965247Y14692334D02*
X20155723Y14644715D01*
X20155723Y14644715D02*
X20250961Y14597096D01*
X20250961Y14597096D02*
X20346200Y14501858D01*
X20346200Y14501858D02*
X20393819Y14359001D01*
X20393819Y14359001D02*
X20393819Y14120906D01*
X20393819Y15644715D02*
X20393819Y15073287D01*
X20393819Y15359001D02*
X19393819Y15359001D01*
X19393819Y15359001D02*
X19536676Y15263763D01*
X19536676Y15263763D02*
X19631914Y15168525D01*
X19631914Y15168525D02*
X19679533Y15073287D01*
X14930047Y8958991D02*
X15072904Y8911372D01*
X15072904Y8911372D02*
X15120523Y8863753D01*
X15120523Y8863753D02*
X15168142Y8768515D01*
X15168142Y8768515D02*
X15168142Y8625658D01*
X15168142Y8625658D02*
X15120523Y8530420D01*
X15120523Y8530420D02*
X15072904Y8482800D01*
X15072904Y8482800D02*
X14977666Y8435181D01*
X14977666Y8435181D02*
X14596714Y8435181D01*
X14596714Y8435181D02*
X14596714Y9435181D01*
X14596714Y9435181D02*
X14930047Y9435181D01*
X14930047Y9435181D02*
X15025285Y9387562D01*
X15025285Y9387562D02*
X15072904Y9339943D01*
X15072904Y9339943D02*
X15120523Y9244705D01*
X15120523Y9244705D02*
X15120523Y9149467D01*
X15120523Y9149467D02*
X15072904Y9054229D01*
X15072904Y9054229D02*
X15025285Y9006610D01*
X15025285Y9006610D02*
X14930047Y8958991D01*
X14930047Y8958991D02*
X14596714Y8958991D01*
X15501476Y9435181D02*
X16168142Y9435181D01*
X16168142Y9435181D02*
X15501476Y8435181D01*
X15501476Y8435181D02*
X16168142Y8435181D01*
X17072904Y8435181D02*
X16501476Y8435181D01*
X16787190Y8435181D02*
X16787190Y9435181D01*
X16787190Y9435181D02*
X16691952Y9292324D01*
X16691952Y9292324D02*
X16596714Y9197086D01*
X16596714Y9197086D02*
X16501476Y9149467D01*
X11835048Y11075134D02*
X12596953Y11075134D01*
X12216000Y10694181D02*
X12216000Y11456086D01*
X55149761Y6815943D02*
X55054523Y6863562D01*
X55054523Y6863562D02*
X54959285Y6958800D01*
X54959285Y6958800D02*
X54816428Y7101658D01*
X54816428Y7101658D02*
X54721190Y7149277D01*
X54721190Y7149277D02*
X54625952Y7149277D01*
X54673571Y6911181D02*
X54578333Y6958800D01*
X54578333Y6958800D02*
X54483095Y7054039D01*
X54483095Y7054039D02*
X54435476Y7244515D01*
X54435476Y7244515D02*
X54435476Y7577848D01*
X54435476Y7577848D02*
X54483095Y7768324D01*
X54483095Y7768324D02*
X54578333Y7863562D01*
X54578333Y7863562D02*
X54673571Y7911181D01*
X54673571Y7911181D02*
X54864047Y7911181D01*
X54864047Y7911181D02*
X54959285Y7863562D01*
X54959285Y7863562D02*
X55054523Y7768324D01*
X55054523Y7768324D02*
X55102142Y7577848D01*
X55102142Y7577848D02*
X55102142Y7244515D01*
X55102142Y7244515D02*
X55054523Y7054039D01*
X55054523Y7054039D02*
X54959285Y6958800D01*
X54959285Y6958800D02*
X54864047Y6911181D01*
X54864047Y6911181D02*
X54673571Y6911181D01*
X56054523Y6911181D02*
X55483095Y6911181D01*
X55768809Y6911181D02*
X55768809Y7911181D01*
X55768809Y7911181D02*
X55673571Y7768324D01*
X55673571Y7768324D02*
X55578333Y7673086D01*
X55578333Y7673086D02*
X55483095Y7625467D01*
X40600333Y17039420D02*
X40552714Y16991800D01*
X40552714Y16991800D02*
X40409857Y16944181D01*
X40409857Y16944181D02*
X40314619Y16944181D01*
X40314619Y16944181D02*
X40171762Y16991800D01*
X40171762Y16991800D02*
X40076524Y17087039D01*
X40076524Y17087039D02*
X40028905Y17182277D01*
X40028905Y17182277D02*
X39981286Y17372753D01*
X39981286Y17372753D02*
X39981286Y17515610D01*
X39981286Y17515610D02*
X40028905Y17706086D01*
X40028905Y17706086D02*
X40076524Y17801324D01*
X40076524Y17801324D02*
X40171762Y17896562D01*
X40171762Y17896562D02*
X40314619Y17944181D01*
X40314619Y17944181D02*
X40409857Y17944181D01*
X40409857Y17944181D02*
X40552714Y17896562D01*
X40552714Y17896562D02*
X40600333Y17848943D01*
X41171762Y17515610D02*
X41076524Y17563229D01*
X41076524Y17563229D02*
X41028905Y17610848D01*
X41028905Y17610848D02*
X40981286Y17706086D01*
X40981286Y17706086D02*
X40981286Y17753705D01*
X40981286Y17753705D02*
X41028905Y17848943D01*
X41028905Y17848943D02*
X41076524Y17896562D01*
X41076524Y17896562D02*
X41171762Y17944181D01*
X41171762Y17944181D02*
X41362238Y17944181D01*
X41362238Y17944181D02*
X41457476Y17896562D01*
X41457476Y17896562D02*
X41505095Y17848943D01*
X41505095Y17848943D02*
X41552714Y17753705D01*
X41552714Y17753705D02*
X41552714Y17706086D01*
X41552714Y17706086D02*
X41505095Y17610848D01*
X41505095Y17610848D02*
X41457476Y17563229D01*
X41457476Y17563229D02*
X41362238Y17515610D01*
X41362238Y17515610D02*
X41171762Y17515610D01*
X41171762Y17515610D02*
X41076524Y17467991D01*
X41076524Y17467991D02*
X41028905Y17420372D01*
X41028905Y17420372D02*
X40981286Y17325134D01*
X40981286Y17325134D02*
X40981286Y17134658D01*
X40981286Y17134658D02*
X41028905Y17039420D01*
X41028905Y17039420D02*
X41076524Y16991800D01*
X41076524Y16991800D02*
X41171762Y16944181D01*
X41171762Y16944181D02*
X41362238Y16944181D01*
X41362238Y16944181D02*
X41457476Y16991800D01*
X41457476Y16991800D02*
X41505095Y17039420D01*
X41505095Y17039420D02*
X41552714Y17134658D01*
X41552714Y17134658D02*
X41552714Y17325134D01*
X41552714Y17325134D02*
X41505095Y17420372D01*
X41505095Y17420372D02*
X41457476Y17467991D01*
X41457476Y17467991D02*
X41362238Y17515610D01*
X37719095Y18960181D02*
X37719095Y18150658D01*
X37719095Y18150658D02*
X37766714Y18055420D01*
X37766714Y18055420D02*
X37814333Y18007800D01*
X37814333Y18007800D02*
X37909571Y17960181D01*
X37909571Y17960181D02*
X38100047Y17960181D01*
X38100047Y17960181D02*
X38195285Y18007800D01*
X38195285Y18007800D02*
X38242904Y18055420D01*
X38242904Y18055420D02*
X38290523Y18150658D01*
X38290523Y18150658D02*
X38290523Y18960181D01*
X38671476Y18960181D02*
X39290523Y18960181D01*
X39290523Y18960181D02*
X38957190Y18579229D01*
X38957190Y18579229D02*
X39100047Y18579229D01*
X39100047Y18579229D02*
X39195285Y18531610D01*
X39195285Y18531610D02*
X39242904Y18483991D01*
X39242904Y18483991D02*
X39290523Y18388753D01*
X39290523Y18388753D02*
X39290523Y18150658D01*
X39290523Y18150658D02*
X39242904Y18055420D01*
X39242904Y18055420D02*
X39195285Y18007800D01*
X39195285Y18007800D02*
X39100047Y17960181D01*
X39100047Y17960181D02*
X38814333Y17960181D01*
X38814333Y17960181D02*
X38719095Y18007800D01*
X38719095Y18007800D02*
X38671476Y18055420D01*
X38187333Y10943420D02*
X38139714Y10895800D01*
X38139714Y10895800D02*
X37996857Y10848181D01*
X37996857Y10848181D02*
X37901619Y10848181D01*
X37901619Y10848181D02*
X37758762Y10895800D01*
X37758762Y10895800D02*
X37663524Y10991039D01*
X37663524Y10991039D02*
X37615905Y11086277D01*
X37615905Y11086277D02*
X37568286Y11276753D01*
X37568286Y11276753D02*
X37568286Y11419610D01*
X37568286Y11419610D02*
X37615905Y11610086D01*
X37615905Y11610086D02*
X37663524Y11705324D01*
X37663524Y11705324D02*
X37758762Y11800562D01*
X37758762Y11800562D02*
X37901619Y11848181D01*
X37901619Y11848181D02*
X37996857Y11848181D01*
X37996857Y11848181D02*
X38139714Y11800562D01*
X38139714Y11800562D02*
X38187333Y11752943D01*
X39044476Y11514848D02*
X39044476Y10848181D01*
X38806381Y11895800D02*
X38568286Y11181515D01*
X38568286Y11181515D02*
X39187333Y11181515D01*
X2500333Y22119420D02*
X2452714Y22071800D01*
X2452714Y22071800D02*
X2309857Y22024181D01*
X2309857Y22024181D02*
X2214619Y22024181D01*
X2214619Y22024181D02*
X2071762Y22071800D01*
X2071762Y22071800D02*
X1976524Y22167039D01*
X1976524Y22167039D02*
X1928905Y22262277D01*
X1928905Y22262277D02*
X1881286Y22452753D01*
X1881286Y22452753D02*
X1881286Y22595610D01*
X1881286Y22595610D02*
X1928905Y22786086D01*
X1928905Y22786086D02*
X1976524Y22881324D01*
X1976524Y22881324D02*
X2071762Y22976562D01*
X2071762Y22976562D02*
X2214619Y23024181D01*
X2214619Y23024181D02*
X2309857Y23024181D01*
X2309857Y23024181D02*
X2452714Y22976562D01*
X2452714Y22976562D02*
X2500333Y22928943D01*
X2881286Y22928943D02*
X2928905Y22976562D01*
X2928905Y22976562D02*
X3024143Y23024181D01*
X3024143Y23024181D02*
X3262238Y23024181D01*
X3262238Y23024181D02*
X3357476Y22976562D01*
X3357476Y22976562D02*
X3405095Y22928943D01*
X3405095Y22928943D02*
X3452714Y22833705D01*
X3452714Y22833705D02*
X3452714Y22738467D01*
X3452714Y22738467D02*
X3405095Y22595610D01*
X3405095Y22595610D02*
X2833667Y22024181D01*
X2833667Y22024181D02*
X3452714Y22024181D01*
X42999819Y19899334D02*
X42523628Y19566001D01*
X42999819Y19327906D02*
X41999819Y19327906D01*
X41999819Y19327906D02*
X41999819Y19708858D01*
X41999819Y19708858D02*
X42047438Y19804096D01*
X42047438Y19804096D02*
X42095057Y19851715D01*
X42095057Y19851715D02*
X42190295Y19899334D01*
X42190295Y19899334D02*
X42333152Y19899334D01*
X42333152Y19899334D02*
X42428390Y19851715D01*
X42428390Y19851715D02*
X42476009Y19804096D01*
X42476009Y19804096D02*
X42523628Y19708858D01*
X42523628Y19708858D02*
X42523628Y19327906D01*
X42999819Y20375525D02*
X42999819Y20566001D01*
X42999819Y20566001D02*
X42952200Y20661239D01*
X42952200Y20661239D02*
X42904580Y20708858D01*
X42904580Y20708858D02*
X42761723Y20804096D01*
X42761723Y20804096D02*
X42571247Y20851715D01*
X42571247Y20851715D02*
X42190295Y20851715D01*
X42190295Y20851715D02*
X42095057Y20804096D01*
X42095057Y20804096D02*
X42047438Y20756477D01*
X42047438Y20756477D02*
X41999819Y20661239D01*
X41999819Y20661239D02*
X41999819Y20470763D01*
X41999819Y20470763D02*
X42047438Y20375525D01*
X42047438Y20375525D02*
X42095057Y20327906D01*
X42095057Y20327906D02*
X42190295Y20280287D01*
X42190295Y20280287D02*
X42428390Y20280287D01*
X42428390Y20280287D02*
X42523628Y20327906D01*
X42523628Y20327906D02*
X42571247Y20375525D01*
X42571247Y20375525D02*
X42618866Y20470763D01*
X42618866Y20470763D02*
X42618866Y20661239D01*
X42618866Y20661239D02*
X42571247Y20756477D01*
X42571247Y20756477D02*
X42523628Y20804096D01*
X42523628Y20804096D02*
X42428390Y20851715D01*
X216819Y17018096D02*
X1026342Y17018096D01*
X1026342Y17018096D02*
X1121580Y17065715D01*
X1121580Y17065715D02*
X1169200Y17113334D01*
X1169200Y17113334D02*
X1216819Y17208572D01*
X1216819Y17208572D02*
X1216819Y17399048D01*
X1216819Y17399048D02*
X1169200Y17494286D01*
X1169200Y17494286D02*
X1121580Y17541905D01*
X1121580Y17541905D02*
X1026342Y17589524D01*
X1026342Y17589524D02*
X216819Y17589524D01*
X1216819Y18589524D02*
X1216819Y18018096D01*
X1216819Y18303810D02*
X216819Y18303810D01*
X216819Y18303810D02*
X359676Y18208572D01*
X359676Y18208572D02*
X454914Y18113334D01*
X454914Y18113334D02*
X502533Y18018096D01*
X30948333Y24056181D02*
X30615000Y24532372D01*
X30376905Y24056181D02*
X30376905Y25056181D01*
X30376905Y25056181D02*
X30757857Y25056181D01*
X30757857Y25056181D02*
X30853095Y25008562D01*
X30853095Y25008562D02*
X30900714Y24960943D01*
X30900714Y24960943D02*
X30948333Y24865705D01*
X30948333Y24865705D02*
X30948333Y24722848D01*
X30948333Y24722848D02*
X30900714Y24627610D01*
X30900714Y24627610D02*
X30853095Y24579991D01*
X30853095Y24579991D02*
X30757857Y24532372D01*
X30757857Y24532372D02*
X30376905Y24532372D01*
X31329286Y24960943D02*
X31376905Y25008562D01*
X31376905Y25008562D02*
X31472143Y25056181D01*
X31472143Y25056181D02*
X31710238Y25056181D01*
X31710238Y25056181D02*
X31805476Y25008562D01*
X31805476Y25008562D02*
X31853095Y24960943D01*
X31853095Y24960943D02*
X31900714Y24865705D01*
X31900714Y24865705D02*
X31900714Y24770467D01*
X31900714Y24770467D02*
X31853095Y24627610D01*
X31853095Y24627610D02*
X31281667Y24056181D01*
X31281667Y24056181D02*
X31900714Y24056181D01*
X1851819Y2754143D02*
X1375628Y2420810D01*
X1851819Y2182715D02*
X851819Y2182715D01*
X851819Y2182715D02*
X851819Y2563667D01*
X851819Y2563667D02*
X899438Y2658905D01*
X899438Y2658905D02*
X947057Y2706524D01*
X947057Y2706524D02*
X1042295Y2754143D01*
X1042295Y2754143D02*
X1185152Y2754143D01*
X1185152Y2754143D02*
X1280390Y2706524D01*
X1280390Y2706524D02*
X1328009Y2658905D01*
X1328009Y2658905D02*
X1375628Y2563667D01*
X1375628Y2563667D02*
X1375628Y2182715D01*
X1851819Y3706524D02*
X1851819Y3135096D01*
X1851819Y3420810D02*
X851819Y3420810D01*
X851819Y3420810D02*
X994676Y3325572D01*
X994676Y3325572D02*
X1089914Y3230334D01*
X1089914Y3230334D02*
X1137533Y3135096D01*
X1280390Y4277953D02*
X1232771Y4182715D01*
X1232771Y4182715D02*
X1185152Y4135096D01*
X1185152Y4135096D02*
X1089914Y4087477D01*
X1089914Y4087477D02*
X1042295Y4087477D01*
X1042295Y4087477D02*
X947057Y4135096D01*
X947057Y4135096D02*
X899438Y4182715D01*
X899438Y4182715D02*
X851819Y4277953D01*
X851819Y4277953D02*
X851819Y4468429D01*
X851819Y4468429D02*
X899438Y4563667D01*
X899438Y4563667D02*
X947057Y4611286D01*
X947057Y4611286D02*
X1042295Y4658905D01*
X1042295Y4658905D02*
X1089914Y4658905D01*
X1089914Y4658905D02*
X1185152Y4611286D01*
X1185152Y4611286D02*
X1232771Y4563667D01*
X1232771Y4563667D02*
X1280390Y4468429D01*
X1280390Y4468429D02*
X1280390Y4277953D01*
X1280390Y4277953D02*
X1328009Y4182715D01*
X1328009Y4182715D02*
X1375628Y4135096D01*
X1375628Y4135096D02*
X1470866Y4087477D01*
X1470866Y4087477D02*
X1661342Y4087477D01*
X1661342Y4087477D02*
X1756580Y4135096D01*
X1756580Y4135096D02*
X1804200Y4182715D01*
X1804200Y4182715D02*
X1851819Y4277953D01*
X1851819Y4277953D02*
X1851819Y4468429D01*
X1851819Y4468429D02*
X1804200Y4563667D01*
X1804200Y4563667D02*
X1756580Y4611286D01*
X1756580Y4611286D02*
X1661342Y4658905D01*
X1661342Y4658905D02*
X1470866Y4658905D01*
X1470866Y4658905D02*
X1375628Y4611286D01*
X1375628Y4611286D02*
X1328009Y4563667D01*
X1328009Y4563667D02*
X1280390Y4468429D01*
X32631142Y35105181D02*
X32297809Y35581372D01*
X32059714Y35105181D02*
X32059714Y36105181D01*
X32059714Y36105181D02*
X32440666Y36105181D01*
X32440666Y36105181D02*
X32535904Y36057562D01*
X32535904Y36057562D02*
X32583523Y36009943D01*
X32583523Y36009943D02*
X32631142Y35914705D01*
X32631142Y35914705D02*
X32631142Y35771848D01*
X32631142Y35771848D02*
X32583523Y35676610D01*
X32583523Y35676610D02*
X32535904Y35628991D01*
X32535904Y35628991D02*
X32440666Y35581372D01*
X32440666Y35581372D02*
X32059714Y35581372D01*
X33583523Y35105181D02*
X33012095Y35105181D01*
X33297809Y35105181D02*
X33297809Y36105181D01*
X33297809Y36105181D02*
X33202571Y35962324D01*
X33202571Y35962324D02*
X33107333Y35867086D01*
X33107333Y35867086D02*
X33012095Y35819467D01*
X34440666Y36105181D02*
X34250190Y36105181D01*
X34250190Y36105181D02*
X34154952Y36057562D01*
X34154952Y36057562D02*
X34107333Y36009943D01*
X34107333Y36009943D02*
X34012095Y35867086D01*
X34012095Y35867086D02*
X33964476Y35676610D01*
X33964476Y35676610D02*
X33964476Y35295658D01*
X33964476Y35295658D02*
X34012095Y35200420D01*
X34012095Y35200420D02*
X34059714Y35152800D01*
X34059714Y35152800D02*
X34154952Y35105181D01*
X34154952Y35105181D02*
X34345428Y35105181D01*
X34345428Y35105181D02*
X34440666Y35152800D01*
X34440666Y35152800D02*
X34488285Y35200420D01*
X34488285Y35200420D02*
X34535904Y35295658D01*
X34535904Y35295658D02*
X34535904Y35533753D01*
X34535904Y35533753D02*
X34488285Y35628991D01*
X34488285Y35628991D02*
X34440666Y35676610D01*
X34440666Y35676610D02*
X34345428Y35724229D01*
X34345428Y35724229D02*
X34154952Y35724229D01*
X34154952Y35724229D02*
X34059714Y35676610D01*
X34059714Y35676610D02*
X34012095Y35628991D01*
X34012095Y35628991D02*
X33964476Y35533753D01*
X50619819Y18915143D02*
X50143628Y18581810D01*
X50619819Y18343715D02*
X49619819Y18343715D01*
X49619819Y18343715D02*
X49619819Y18724667D01*
X49619819Y18724667D02*
X49667438Y18819905D01*
X49667438Y18819905D02*
X49715057Y18867524D01*
X49715057Y18867524D02*
X49810295Y18915143D01*
X49810295Y18915143D02*
X49953152Y18915143D01*
X49953152Y18915143D02*
X50048390Y18867524D01*
X50048390Y18867524D02*
X50096009Y18819905D01*
X50096009Y18819905D02*
X50143628Y18724667D01*
X50143628Y18724667D02*
X50143628Y18343715D01*
X50619819Y19867524D02*
X50619819Y19296096D01*
X50619819Y19581810D02*
X49619819Y19581810D01*
X49619819Y19581810D02*
X49762676Y19486572D01*
X49762676Y19486572D02*
X49857914Y19391334D01*
X49857914Y19391334D02*
X49905533Y19296096D01*
X49715057Y20248477D02*
X49667438Y20296096D01*
X49667438Y20296096D02*
X49619819Y20391334D01*
X49619819Y20391334D02*
X49619819Y20629429D01*
X49619819Y20629429D02*
X49667438Y20724667D01*
X49667438Y20724667D02*
X49715057Y20772286D01*
X49715057Y20772286D02*
X49810295Y20819905D01*
X49810295Y20819905D02*
X49905533Y20819905D01*
X49905533Y20819905D02*
X50048390Y20772286D01*
X50048390Y20772286D02*
X50619819Y20200858D01*
X50619819Y20200858D02*
X50619819Y20819905D01*
X51522333Y16023420D02*
X51474714Y15975800D01*
X51474714Y15975800D02*
X51331857Y15928181D01*
X51331857Y15928181D02*
X51236619Y15928181D01*
X51236619Y15928181D02*
X51093762Y15975800D01*
X51093762Y15975800D02*
X50998524Y16071039D01*
X50998524Y16071039D02*
X50950905Y16166277D01*
X50950905Y16166277D02*
X50903286Y16356753D01*
X50903286Y16356753D02*
X50903286Y16499610D01*
X50903286Y16499610D02*
X50950905Y16690086D01*
X50950905Y16690086D02*
X50998524Y16785324D01*
X50998524Y16785324D02*
X51093762Y16880562D01*
X51093762Y16880562D02*
X51236619Y16928181D01*
X51236619Y16928181D02*
X51331857Y16928181D01*
X51331857Y16928181D02*
X51474714Y16880562D01*
X51474714Y16880562D02*
X51522333Y16832943D01*
X51855667Y16928181D02*
X52522333Y16928181D01*
X52522333Y16928181D02*
X52093762Y15928181D01*
X48079819Y18915143D02*
X47603628Y18581810D01*
X48079819Y18343715D02*
X47079819Y18343715D01*
X47079819Y18343715D02*
X47079819Y18724667D01*
X47079819Y18724667D02*
X47127438Y18819905D01*
X47127438Y18819905D02*
X47175057Y18867524D01*
X47175057Y18867524D02*
X47270295Y18915143D01*
X47270295Y18915143D02*
X47413152Y18915143D01*
X47413152Y18915143D02*
X47508390Y18867524D01*
X47508390Y18867524D02*
X47556009Y18819905D01*
X47556009Y18819905D02*
X47603628Y18724667D01*
X47603628Y18724667D02*
X47603628Y18343715D01*
X48079819Y19867524D02*
X48079819Y19296096D01*
X48079819Y19581810D02*
X47079819Y19581810D01*
X47079819Y19581810D02*
X47222676Y19486572D01*
X47222676Y19486572D02*
X47317914Y19391334D01*
X47317914Y19391334D02*
X47365533Y19296096D01*
X48079819Y20819905D02*
X48079819Y20248477D01*
X48079819Y20534191D02*
X47079819Y20534191D01*
X47079819Y20534191D02*
X47222676Y20438953D01*
X47222676Y20438953D02*
X47317914Y20343715D01*
X47317914Y20343715D02*
X47365533Y20248477D01*
X39203333Y3958420D02*
X39155714Y3910800D01*
X39155714Y3910800D02*
X39012857Y3863181D01*
X39012857Y3863181D02*
X38917619Y3863181D01*
X38917619Y3863181D02*
X38774762Y3910800D01*
X38774762Y3910800D02*
X38679524Y4006039D01*
X38679524Y4006039D02*
X38631905Y4101277D01*
X38631905Y4101277D02*
X38584286Y4291753D01*
X38584286Y4291753D02*
X38584286Y4434610D01*
X38584286Y4434610D02*
X38631905Y4625086D01*
X38631905Y4625086D02*
X38679524Y4720324D01*
X38679524Y4720324D02*
X38774762Y4815562D01*
X38774762Y4815562D02*
X38917619Y4863181D01*
X38917619Y4863181D02*
X39012857Y4863181D01*
X39012857Y4863181D02*
X39155714Y4815562D01*
X39155714Y4815562D02*
X39203333Y4767943D01*
X40060476Y4863181D02*
X39870000Y4863181D01*
X39870000Y4863181D02*
X39774762Y4815562D01*
X39774762Y4815562D02*
X39727143Y4767943D01*
X39727143Y4767943D02*
X39631905Y4625086D01*
X39631905Y4625086D02*
X39584286Y4434610D01*
X39584286Y4434610D02*
X39584286Y4053658D01*
X39584286Y4053658D02*
X39631905Y3958420D01*
X39631905Y3958420D02*
X39679524Y3910800D01*
X39679524Y3910800D02*
X39774762Y3863181D01*
X39774762Y3863181D02*
X39965238Y3863181D01*
X39965238Y3863181D02*
X40060476Y3910800D01*
X40060476Y3910800D02*
X40108095Y3958420D01*
X40108095Y3958420D02*
X40155714Y4053658D01*
X40155714Y4053658D02*
X40155714Y4291753D01*
X40155714Y4291753D02*
X40108095Y4386991D01*
X40108095Y4386991D02*
X40060476Y4434610D01*
X40060476Y4434610D02*
X39965238Y4482229D01*
X39965238Y4482229D02*
X39774762Y4482229D01*
X39774762Y4482229D02*
X39679524Y4434610D01*
X39679524Y4434610D02*
X39631905Y4386991D01*
X39631905Y4386991D02*
X39584286Y4291753D01*
X37171333Y5228420D02*
X37123714Y5180800D01*
X37123714Y5180800D02*
X36980857Y5133181D01*
X36980857Y5133181D02*
X36885619Y5133181D01*
X36885619Y5133181D02*
X36742762Y5180800D01*
X36742762Y5180800D02*
X36647524Y5276039D01*
X36647524Y5276039D02*
X36599905Y5371277D01*
X36599905Y5371277D02*
X36552286Y5561753D01*
X36552286Y5561753D02*
X36552286Y5704610D01*
X36552286Y5704610D02*
X36599905Y5895086D01*
X36599905Y5895086D02*
X36647524Y5990324D01*
X36647524Y5990324D02*
X36742762Y6085562D01*
X36742762Y6085562D02*
X36885619Y6133181D01*
X36885619Y6133181D02*
X36980857Y6133181D01*
X36980857Y6133181D02*
X37123714Y6085562D01*
X37123714Y6085562D02*
X37171333Y6037943D01*
X38076095Y6133181D02*
X37599905Y6133181D01*
X37599905Y6133181D02*
X37552286Y5656991D01*
X37552286Y5656991D02*
X37599905Y5704610D01*
X37599905Y5704610D02*
X37695143Y5752229D01*
X37695143Y5752229D02*
X37933238Y5752229D01*
X37933238Y5752229D02*
X38028476Y5704610D01*
X38028476Y5704610D02*
X38076095Y5656991D01*
X38076095Y5656991D02*
X38123714Y5561753D01*
X38123714Y5561753D02*
X38123714Y5323658D01*
X38123714Y5323658D02*
X38076095Y5228420D01*
X38076095Y5228420D02*
X38028476Y5180800D01*
X38028476Y5180800D02*
X37933238Y5133181D01*
X37933238Y5133181D02*
X37695143Y5133181D01*
X37695143Y5133181D02*
X37599905Y5180800D01*
X37599905Y5180800D02*
X37552286Y5228420D01*
X32654642Y40439181D02*
X32321309Y40915372D01*
X32083214Y40439181D02*
X32083214Y41439181D01*
X32083214Y41439181D02*
X32464166Y41439181D01*
X32464166Y41439181D02*
X32559404Y41391562D01*
X32559404Y41391562D02*
X32607023Y41343943D01*
X32607023Y41343943D02*
X32654642Y41248705D01*
X32654642Y41248705D02*
X32654642Y41105848D01*
X32654642Y41105848D02*
X32607023Y41010610D01*
X32607023Y41010610D02*
X32559404Y40962991D01*
X32559404Y40962991D02*
X32464166Y40915372D01*
X32464166Y40915372D02*
X32083214Y40915372D01*
X33607023Y40439181D02*
X33035595Y40439181D01*
X33321309Y40439181D02*
X33321309Y41439181D01*
X33321309Y41439181D02*
X33226071Y41296324D01*
X33226071Y41296324D02*
X33130833Y41201086D01*
X33130833Y41201086D02*
X33035595Y41153467D01*
X33940357Y41439181D02*
X34607023Y41439181D01*
X34607023Y41439181D02*
X34178452Y40439181D01*
X25106333Y11832420D02*
X25058714Y11784800D01*
X25058714Y11784800D02*
X24915857Y11737181D01*
X24915857Y11737181D02*
X24820619Y11737181D01*
X24820619Y11737181D02*
X24677762Y11784800D01*
X24677762Y11784800D02*
X24582524Y11880039D01*
X24582524Y11880039D02*
X24534905Y11975277D01*
X24534905Y11975277D02*
X24487286Y12165753D01*
X24487286Y12165753D02*
X24487286Y12308610D01*
X24487286Y12308610D02*
X24534905Y12499086D01*
X24534905Y12499086D02*
X24582524Y12594324D01*
X24582524Y12594324D02*
X24677762Y12689562D01*
X24677762Y12689562D02*
X24820619Y12737181D01*
X24820619Y12737181D02*
X24915857Y12737181D01*
X24915857Y12737181D02*
X25058714Y12689562D01*
X25058714Y12689562D02*
X25106333Y12641943D01*
X26058714Y11737181D02*
X25487286Y11737181D01*
X25773000Y11737181D02*
X25773000Y12737181D01*
X25773000Y12737181D02*
X25677762Y12594324D01*
X25677762Y12594324D02*
X25582524Y12499086D01*
X25582524Y12499086D02*
X25487286Y12451467D01*
X38459580Y21709143D02*
X38507200Y21661524D01*
X38507200Y21661524D02*
X38554819Y21518667D01*
X38554819Y21518667D02*
X38554819Y21423429D01*
X38554819Y21423429D02*
X38507200Y21280572D01*
X38507200Y21280572D02*
X38411961Y21185334D01*
X38411961Y21185334D02*
X38316723Y21137715D01*
X38316723Y21137715D02*
X38126247Y21090096D01*
X38126247Y21090096D02*
X37983390Y21090096D01*
X37983390Y21090096D02*
X37792914Y21137715D01*
X37792914Y21137715D02*
X37697676Y21185334D01*
X37697676Y21185334D02*
X37602438Y21280572D01*
X37602438Y21280572D02*
X37554819Y21423429D01*
X37554819Y21423429D02*
X37554819Y21518667D01*
X37554819Y21518667D02*
X37602438Y21661524D01*
X37602438Y21661524D02*
X37650057Y21709143D01*
X38554819Y22661524D02*
X38554819Y22090096D01*
X38554819Y22375810D02*
X37554819Y22375810D01*
X37554819Y22375810D02*
X37697676Y22280572D01*
X37697676Y22280572D02*
X37792914Y22185334D01*
X37792914Y22185334D02*
X37840533Y22090096D01*
X38554819Y23613905D02*
X38554819Y23042477D01*
X38554819Y23328191D02*
X37554819Y23328191D01*
X37554819Y23328191D02*
X37697676Y23232953D01*
X37697676Y23232953D02*
X37792914Y23137715D01*
X37792914Y23137715D02*
X37840533Y23042477D01*
X45539819Y18915143D02*
X45063628Y18581810D01*
X45539819Y18343715D02*
X44539819Y18343715D01*
X44539819Y18343715D02*
X44539819Y18724667D01*
X44539819Y18724667D02*
X44587438Y18819905D01*
X44587438Y18819905D02*
X44635057Y18867524D01*
X44635057Y18867524D02*
X44730295Y18915143D01*
X44730295Y18915143D02*
X44873152Y18915143D01*
X44873152Y18915143D02*
X44968390Y18867524D01*
X44968390Y18867524D02*
X45016009Y18819905D01*
X45016009Y18819905D02*
X45063628Y18724667D01*
X45063628Y18724667D02*
X45063628Y18343715D01*
X45539819Y19867524D02*
X45539819Y19296096D01*
X45539819Y19581810D02*
X44539819Y19581810D01*
X44539819Y19581810D02*
X44682676Y19486572D01*
X44682676Y19486572D02*
X44777914Y19391334D01*
X44777914Y19391334D02*
X44825533Y19296096D01*
X44539819Y20486572D02*
X44539819Y20581810D01*
X44539819Y20581810D02*
X44587438Y20677048D01*
X44587438Y20677048D02*
X44635057Y20724667D01*
X44635057Y20724667D02*
X44730295Y20772286D01*
X44730295Y20772286D02*
X44920771Y20819905D01*
X44920771Y20819905D02*
X45158866Y20819905D01*
X45158866Y20819905D02*
X45349342Y20772286D01*
X45349342Y20772286D02*
X45444580Y20724667D01*
X45444580Y20724667D02*
X45492200Y20677048D01*
X45492200Y20677048D02*
X45539819Y20581810D01*
X45539819Y20581810D02*
X45539819Y20486572D01*
X45539819Y20486572D02*
X45492200Y20391334D01*
X45492200Y20391334D02*
X45444580Y20343715D01*
X45444580Y20343715D02*
X45349342Y20296096D01*
X45349342Y20296096D02*
X45158866Y20248477D01*
X45158866Y20248477D02*
X44920771Y20248477D01*
X44920771Y20248477D02*
X44730295Y20296096D01*
X44730295Y20296096D02*
X44635057Y20343715D01*
X44635057Y20343715D02*
X44587438Y20391334D01*
X44587438Y20391334D02*
X44539819Y20486572D01*
X2627333Y12467420D02*
X2579714Y12419800D01*
X2579714Y12419800D02*
X2436857Y12372181D01*
X2436857Y12372181D02*
X2341619Y12372181D01*
X2341619Y12372181D02*
X2198762Y12419800D01*
X2198762Y12419800D02*
X2103524Y12515039D01*
X2103524Y12515039D02*
X2055905Y12610277D01*
X2055905Y12610277D02*
X2008286Y12800753D01*
X2008286Y12800753D02*
X2008286Y12943610D01*
X2008286Y12943610D02*
X2055905Y13134086D01*
X2055905Y13134086D02*
X2103524Y13229324D01*
X2103524Y13229324D02*
X2198762Y13324562D01*
X2198762Y13324562D02*
X2341619Y13372181D01*
X2341619Y13372181D02*
X2436857Y13372181D01*
X2436857Y13372181D02*
X2579714Y13324562D01*
X2579714Y13324562D02*
X2627333Y13276943D01*
X2960667Y13372181D02*
X3579714Y13372181D01*
X3579714Y13372181D02*
X3246381Y12991229D01*
X3246381Y12991229D02*
X3389238Y12991229D01*
X3389238Y12991229D02*
X3484476Y12943610D01*
X3484476Y12943610D02*
X3532095Y12895991D01*
X3532095Y12895991D02*
X3579714Y12800753D01*
X3579714Y12800753D02*
X3579714Y12562658D01*
X3579714Y12562658D02*
X3532095Y12467420D01*
X3532095Y12467420D02*
X3484476Y12419800D01*
X3484476Y12419800D02*
X3389238Y12372181D01*
X3389238Y12372181D02*
X3103524Y12372181D01*
X3103524Y12372181D02*
X3008286Y12419800D01*
X3008286Y12419800D02*
X2960667Y12467420D01*
X57890580Y14978143D02*
X57938200Y14930524D01*
X57938200Y14930524D02*
X57985819Y14787667D01*
X57985819Y14787667D02*
X57985819Y14692429D01*
X57985819Y14692429D02*
X57938200Y14549572D01*
X57938200Y14549572D02*
X57842961Y14454334D01*
X57842961Y14454334D02*
X57747723Y14406715D01*
X57747723Y14406715D02*
X57557247Y14359096D01*
X57557247Y14359096D02*
X57414390Y14359096D01*
X57414390Y14359096D02*
X57223914Y14406715D01*
X57223914Y14406715D02*
X57128676Y14454334D01*
X57128676Y14454334D02*
X57033438Y14549572D01*
X57033438Y14549572D02*
X56985819Y14692429D01*
X56985819Y14692429D02*
X56985819Y14787667D01*
X56985819Y14787667D02*
X57033438Y14930524D01*
X57033438Y14930524D02*
X57081057Y14978143D01*
X57985819Y15930524D02*
X57985819Y15359096D01*
X57985819Y15644810D02*
X56985819Y15644810D01*
X56985819Y15644810D02*
X57128676Y15549572D01*
X57128676Y15549572D02*
X57223914Y15454334D01*
X57223914Y15454334D02*
X57271533Y15359096D01*
X57081057Y16311477D02*
X57033438Y16359096D01*
X57033438Y16359096D02*
X56985819Y16454334D01*
X56985819Y16454334D02*
X56985819Y16692429D01*
X56985819Y16692429D02*
X57033438Y16787667D01*
X57033438Y16787667D02*
X57081057Y16835286D01*
X57081057Y16835286D02*
X57176295Y16882905D01*
X57176295Y16882905D02*
X57271533Y16882905D01*
X57271533Y16882905D02*
X57414390Y16835286D01*
X57414390Y16835286D02*
X57985819Y16263858D01*
X57985819Y16263858D02*
X57985819Y16882905D01*
X64161200Y15494096D02*
X64208819Y15636953D01*
X64208819Y15636953D02*
X64208819Y15875048D01*
X64208819Y15875048D02*
X64161200Y15970286D01*
X64161200Y15970286D02*
X64113580Y16017905D01*
X64113580Y16017905D02*
X64018342Y16065524D01*
X64018342Y16065524D02*
X63923104Y16065524D01*
X63923104Y16065524D02*
X63827866Y16017905D01*
X63827866Y16017905D02*
X63780247Y15970286D01*
X63780247Y15970286D02*
X63732628Y15875048D01*
X63732628Y15875048D02*
X63685009Y15684572D01*
X63685009Y15684572D02*
X63637390Y15589334D01*
X63637390Y15589334D02*
X63589771Y15541715D01*
X63589771Y15541715D02*
X63494533Y15494096D01*
X63494533Y15494096D02*
X63399295Y15494096D01*
X63399295Y15494096D02*
X63304057Y15541715D01*
X63304057Y15541715D02*
X63256438Y15589334D01*
X63256438Y15589334D02*
X63208819Y15684572D01*
X63208819Y15684572D02*
X63208819Y15922667D01*
X63208819Y15922667D02*
X63256438Y16065524D01*
X64208819Y17017905D02*
X64208819Y16446477D01*
X64208819Y16732191D02*
X63208819Y16732191D01*
X63208819Y16732191D02*
X63351676Y16636953D01*
X63351676Y16636953D02*
X63446914Y16541715D01*
X63446914Y16541715D02*
X63494533Y16446477D01*
X59636819Y14922667D02*
X59160628Y14589334D01*
X59636819Y14351239D02*
X58636819Y14351239D01*
X58636819Y14351239D02*
X58636819Y14732191D01*
X58636819Y14732191D02*
X58684438Y14827429D01*
X58684438Y14827429D02*
X58732057Y14875048D01*
X58732057Y14875048D02*
X58827295Y14922667D01*
X58827295Y14922667D02*
X58970152Y14922667D01*
X58970152Y14922667D02*
X59065390Y14875048D01*
X59065390Y14875048D02*
X59113009Y14827429D01*
X59113009Y14827429D02*
X59160628Y14732191D01*
X59160628Y14732191D02*
X59160628Y14351239D01*
X59636819Y15351239D02*
X58636819Y15351239D01*
X58684438Y16351238D02*
X58636819Y16256000D01*
X58636819Y16256000D02*
X58636819Y16113143D01*
X58636819Y16113143D02*
X58684438Y15970286D01*
X58684438Y15970286D02*
X58779676Y15875048D01*
X58779676Y15875048D02*
X58874914Y15827429D01*
X58874914Y15827429D02*
X59065390Y15779810D01*
X59065390Y15779810D02*
X59208247Y15779810D01*
X59208247Y15779810D02*
X59398723Y15827429D01*
X59398723Y15827429D02*
X59493961Y15875048D01*
X59493961Y15875048D02*
X59589200Y15970286D01*
X59589200Y15970286D02*
X59636819Y16113143D01*
X59636819Y16113143D02*
X59636819Y16208381D01*
X59636819Y16208381D02*
X59589200Y16351238D01*
X59589200Y16351238D02*
X59541580Y16398857D01*
X59541580Y16398857D02*
X59208247Y16398857D01*
X59208247Y16398857D02*
X59208247Y16208381D01*
X59636819Y16827429D02*
X58636819Y16827429D01*
X59113009Y16827429D02*
X59113009Y17398857D01*
X59636819Y17398857D02*
X58636819Y17398857D01*
X58636819Y17732191D02*
X58636819Y18303619D01*
X59636819Y18017905D02*
X58636819Y18017905D01*
X22552819Y19772334D02*
X22076628Y19439001D01*
X22552819Y19200906D02*
X21552819Y19200906D01*
X21552819Y19200906D02*
X21552819Y19581858D01*
X21552819Y19581858D02*
X21600438Y19677096D01*
X21600438Y19677096D02*
X21648057Y19724715D01*
X21648057Y19724715D02*
X21743295Y19772334D01*
X21743295Y19772334D02*
X21886152Y19772334D01*
X21886152Y19772334D02*
X21981390Y19724715D01*
X21981390Y19724715D02*
X22029009Y19677096D01*
X22029009Y19677096D02*
X22076628Y19581858D01*
X22076628Y19581858D02*
X22076628Y19200906D01*
X21552819Y20629477D02*
X21552819Y20439001D01*
X21552819Y20439001D02*
X21600438Y20343763D01*
X21600438Y20343763D02*
X21648057Y20296144D01*
X21648057Y20296144D02*
X21790914Y20200906D01*
X21790914Y20200906D02*
X21981390Y20153287D01*
X21981390Y20153287D02*
X22362342Y20153287D01*
X22362342Y20153287D02*
X22457580Y20200906D01*
X22457580Y20200906D02*
X22505200Y20248525D01*
X22505200Y20248525D02*
X22552819Y20343763D01*
X22552819Y20343763D02*
X22552819Y20534239D01*
X22552819Y20534239D02*
X22505200Y20629477D01*
X22505200Y20629477D02*
X22457580Y20677096D01*
X22457580Y20677096D02*
X22362342Y20724715D01*
X22362342Y20724715D02*
X22124247Y20724715D01*
X22124247Y20724715D02*
X22029009Y20677096D01*
X22029009Y20677096D02*
X21981390Y20629477D01*
X21981390Y20629477D02*
X21933771Y20534239D01*
X21933771Y20534239D02*
X21933771Y20343763D01*
X21933771Y20343763D02*
X21981390Y20248525D01*
X21981390Y20248525D02*
X22029009Y20200906D01*
X22029009Y20200906D02*
X22124247Y20153287D01*
X43507819Y40100334D02*
X43507819Y39624144D01*
X43507819Y39624144D02*
X42507819Y39624144D01*
X43507819Y40433668D02*
X42507819Y40433668D01*
X42507819Y40433668D02*
X42507819Y40671763D01*
X42507819Y40671763D02*
X42555438Y40814620D01*
X42555438Y40814620D02*
X42650676Y40909858D01*
X42650676Y40909858D02*
X42745914Y40957477D01*
X42745914Y40957477D02*
X42936390Y41005096D01*
X42936390Y41005096D02*
X43079247Y41005096D01*
X43079247Y41005096D02*
X43269723Y40957477D01*
X43269723Y40957477D02*
X43364961Y40909858D01*
X43364961Y40909858D02*
X43460200Y40814620D01*
X43460200Y40814620D02*
X43507819Y40671763D01*
X43507819Y40671763D02*
X43507819Y40433668D01*
X43507819Y41957477D02*
X43507819Y41386049D01*
X43507819Y41671763D02*
X42507819Y41671763D01*
X42507819Y41671763D02*
X42650676Y41576525D01*
X42650676Y41576525D02*
X42745914Y41481287D01*
X42745914Y41481287D02*
X42793533Y41386049D01*
X40695857Y43360181D02*
X40695857Y44360181D01*
X40695857Y44360181D02*
X40933952Y44360181D01*
X40933952Y44360181D02*
X41076809Y44312562D01*
X41076809Y44312562D02*
X41172047Y44217324D01*
X41172047Y44217324D02*
X41219666Y44122086D01*
X41219666Y44122086D02*
X41267285Y43931610D01*
X41267285Y43931610D02*
X41267285Y43788753D01*
X41267285Y43788753D02*
X41219666Y43598277D01*
X41219666Y43598277D02*
X41172047Y43503039D01*
X41172047Y43503039D02*
X41076809Y43407800D01*
X41076809Y43407800D02*
X40933952Y43360181D01*
X40933952Y43360181D02*
X40695857Y43360181D01*
X42267285Y43360181D02*
X41933952Y43836372D01*
X41695857Y43360181D02*
X41695857Y44360181D01*
X41695857Y44360181D02*
X42076809Y44360181D01*
X42076809Y44360181D02*
X42172047Y44312562D01*
X42172047Y44312562D02*
X42219666Y44264943D01*
X42219666Y44264943D02*
X42267285Y44169705D01*
X42267285Y44169705D02*
X42267285Y44026848D01*
X42267285Y44026848D02*
X42219666Y43931610D01*
X42219666Y43931610D02*
X42172047Y43883991D01*
X42172047Y43883991D02*
X42076809Y43836372D01*
X42076809Y43836372D02*
X41695857Y43836372D01*
X42695857Y43360181D02*
X42695857Y44360181D01*
X43029190Y44360181D02*
X43362523Y43360181D01*
X43362523Y43360181D02*
X43695856Y44360181D01*
X44029190Y43883991D02*
X44362523Y43883991D01*
X44505380Y43360181D02*
X44029190Y43360181D01*
X44029190Y43360181D02*
X44029190Y44360181D01*
X44029190Y44360181D02*
X44505380Y44360181D01*
X45124428Y44360181D02*
X45219666Y44360181D01*
X45219666Y44360181D02*
X45314904Y44312562D01*
X45314904Y44312562D02*
X45362523Y44264943D01*
X45362523Y44264943D02*
X45410142Y44169705D01*
X45410142Y44169705D02*
X45457761Y43979229D01*
X45457761Y43979229D02*
X45457761Y43741134D01*
X45457761Y43741134D02*
X45410142Y43550658D01*
X45410142Y43550658D02*
X45362523Y43455420D01*
X45362523Y43455420D02*
X45314904Y43407800D01*
X45314904Y43407800D02*
X45219666Y43360181D01*
X45219666Y43360181D02*
X45124428Y43360181D01*
X45124428Y43360181D02*
X45029190Y43407800D01*
X45029190Y43407800D02*
X44981571Y43455420D01*
X44981571Y43455420D02*
X44933952Y43550658D01*
X44933952Y43550658D02*
X44886333Y43741134D01*
X44886333Y43741134D02*
X44886333Y43979229D01*
X44886333Y43979229D02*
X44933952Y44169705D01*
X44933952Y44169705D02*
X44981571Y44264943D01*
X44981571Y44264943D02*
X45029190Y44312562D01*
X45029190Y44312562D02*
X45124428Y44360181D01*
X57858819Y18915143D02*
X57382628Y18581810D01*
X57858819Y18343715D02*
X56858819Y18343715D01*
X56858819Y18343715D02*
X56858819Y18724667D01*
X56858819Y18724667D02*
X56906438Y18819905D01*
X56906438Y18819905D02*
X56954057Y18867524D01*
X56954057Y18867524D02*
X57049295Y18915143D01*
X57049295Y18915143D02*
X57192152Y18915143D01*
X57192152Y18915143D02*
X57287390Y18867524D01*
X57287390Y18867524D02*
X57335009Y18819905D01*
X57335009Y18819905D02*
X57382628Y18724667D01*
X57382628Y18724667D02*
X57382628Y18343715D01*
X57858819Y19867524D02*
X57858819Y19296096D01*
X57858819Y19581810D02*
X56858819Y19581810D01*
X56858819Y19581810D02*
X57001676Y19486572D01*
X57001676Y19486572D02*
X57096914Y19391334D01*
X57096914Y19391334D02*
X57144533Y19296096D01*
X56858819Y20772286D02*
X56858819Y20296096D01*
X56858819Y20296096D02*
X57335009Y20248477D01*
X57335009Y20248477D02*
X57287390Y20296096D01*
X57287390Y20296096D02*
X57239771Y20391334D01*
X57239771Y20391334D02*
X57239771Y20629429D01*
X57239771Y20629429D02*
X57287390Y20724667D01*
X57287390Y20724667D02*
X57335009Y20772286D01*
X57335009Y20772286D02*
X57430247Y20819905D01*
X57430247Y20819905D02*
X57668342Y20819905D01*
X57668342Y20819905D02*
X57763580Y20772286D01*
X57763580Y20772286D02*
X57811200Y20724667D01*
X57811200Y20724667D02*
X57858819Y20629429D01*
X57858819Y20629429D02*
X57858819Y20391334D01*
X57858819Y20391334D02*
X57811200Y20296096D01*
X57811200Y20296096D02*
X57763580Y20248477D01*
X27043142Y15800181D02*
X26709809Y16276372D01*
X26471714Y15800181D02*
X26471714Y16800181D01*
X26471714Y16800181D02*
X26852666Y16800181D01*
X26852666Y16800181D02*
X26947904Y16752562D01*
X26947904Y16752562D02*
X26995523Y16704943D01*
X26995523Y16704943D02*
X27043142Y16609705D01*
X27043142Y16609705D02*
X27043142Y16466848D01*
X27043142Y16466848D02*
X26995523Y16371610D01*
X26995523Y16371610D02*
X26947904Y16323991D01*
X26947904Y16323991D02*
X26852666Y16276372D01*
X26852666Y16276372D02*
X26471714Y16276372D01*
X27424095Y16704943D02*
X27471714Y16752562D01*
X27471714Y16752562D02*
X27566952Y16800181D01*
X27566952Y16800181D02*
X27805047Y16800181D01*
X27805047Y16800181D02*
X27900285Y16752562D01*
X27900285Y16752562D02*
X27947904Y16704943D01*
X27947904Y16704943D02*
X27995523Y16609705D01*
X27995523Y16609705D02*
X27995523Y16514467D01*
X27995523Y16514467D02*
X27947904Y16371610D01*
X27947904Y16371610D02*
X27376476Y15800181D01*
X27376476Y15800181D02*
X27995523Y15800181D01*
X28614571Y16800181D02*
X28709809Y16800181D01*
X28709809Y16800181D02*
X28805047Y16752562D01*
X28805047Y16752562D02*
X28852666Y16704943D01*
X28852666Y16704943D02*
X28900285Y16609705D01*
X28900285Y16609705D02*
X28947904Y16419229D01*
X28947904Y16419229D02*
X28947904Y16181134D01*
X28947904Y16181134D02*
X28900285Y15990658D01*
X28900285Y15990658D02*
X28852666Y15895420D01*
X28852666Y15895420D02*
X28805047Y15847800D01*
X28805047Y15847800D02*
X28709809Y15800181D01*
X28709809Y15800181D02*
X28614571Y15800181D01*
X28614571Y15800181D02*
X28519333Y15847800D01*
X28519333Y15847800D02*
X28471714Y15895420D01*
X28471714Y15895420D02*
X28424095Y15990658D01*
X28424095Y15990658D02*
X28376476Y16181134D01*
X28376476Y16181134D02*
X28376476Y16419229D01*
X28376476Y16419229D02*
X28424095Y16609705D01*
X28424095Y16609705D02*
X28471714Y16704943D01*
X28471714Y16704943D02*
X28519333Y16752562D01*
X28519333Y16752562D02*
X28614571Y16800181D01*
X18187200Y17394668D02*
X18234819Y17537525D01*
X18234819Y17537525D02*
X18234819Y17775620D01*
X18234819Y17775620D02*
X18187200Y17870858D01*
X18187200Y17870858D02*
X18139580Y17918477D01*
X18139580Y17918477D02*
X18044342Y17966096D01*
X18044342Y17966096D02*
X17949104Y17966096D01*
X17949104Y17966096D02*
X17853866Y17918477D01*
X17853866Y17918477D02*
X17806247Y17870858D01*
X17806247Y17870858D02*
X17758628Y17775620D01*
X17758628Y17775620D02*
X17711009Y17585144D01*
X17711009Y17585144D02*
X17663390Y17489906D01*
X17663390Y17489906D02*
X17615771Y17442287D01*
X17615771Y17442287D02*
X17520533Y17394668D01*
X17520533Y17394668D02*
X17425295Y17394668D01*
X17425295Y17394668D02*
X17330057Y17442287D01*
X17330057Y17442287D02*
X17282438Y17489906D01*
X17282438Y17489906D02*
X17234819Y17585144D01*
X17234819Y17585144D02*
X17234819Y17823239D01*
X17234819Y17823239D02*
X17282438Y17966096D01*
X17234819Y18299430D02*
X18234819Y18537525D01*
X18234819Y18537525D02*
X17520533Y18728001D01*
X17520533Y18728001D02*
X18234819Y18918477D01*
X18234819Y18918477D02*
X17234819Y19156572D01*
X18234819Y20061334D02*
X18234819Y19489906D01*
X18234819Y19775620D02*
X17234819Y19775620D01*
X17234819Y19775620D02*
X17377676Y19680382D01*
X17377676Y19680382D02*
X17472914Y19585144D01*
X17472914Y19585144D02*
X17520533Y19489906D01*
X16327618Y22913181D02*
X15994285Y23389372D01*
X15756190Y22913181D02*
X15756190Y23913181D01*
X15756190Y23913181D02*
X16137142Y23913181D01*
X16137142Y23913181D02*
X16232380Y23865562D01*
X16232380Y23865562D02*
X16279999Y23817943D01*
X16279999Y23817943D02*
X16327618Y23722705D01*
X16327618Y23722705D02*
X16327618Y23579848D01*
X16327618Y23579848D02*
X16279999Y23484610D01*
X16279999Y23484610D02*
X16232380Y23436991D01*
X16232380Y23436991D02*
X16137142Y23389372D01*
X16137142Y23389372D02*
X15756190Y23389372D01*
X16756190Y23436991D02*
X17089523Y23436991D01*
X17232380Y22913181D02*
X16756190Y22913181D01*
X16756190Y22913181D02*
X16756190Y23913181D01*
X16756190Y23913181D02*
X17232380Y23913181D01*
X17613333Y22960800D02*
X17756190Y22913181D01*
X17756190Y22913181D02*
X17994285Y22913181D01*
X17994285Y22913181D02*
X18089523Y22960800D01*
X18089523Y22960800D02*
X18137142Y23008420D01*
X18137142Y23008420D02*
X18184761Y23103658D01*
X18184761Y23103658D02*
X18184761Y23198896D01*
X18184761Y23198896D02*
X18137142Y23294134D01*
X18137142Y23294134D02*
X18089523Y23341753D01*
X18089523Y23341753D02*
X17994285Y23389372D01*
X17994285Y23389372D02*
X17803809Y23436991D01*
X17803809Y23436991D02*
X17708571Y23484610D01*
X17708571Y23484610D02*
X17660952Y23532229D01*
X17660952Y23532229D02*
X17613333Y23627467D01*
X17613333Y23627467D02*
X17613333Y23722705D01*
X17613333Y23722705D02*
X17660952Y23817943D01*
X17660952Y23817943D02*
X17708571Y23865562D01*
X17708571Y23865562D02*
X17803809Y23913181D01*
X17803809Y23913181D02*
X18041904Y23913181D01*
X18041904Y23913181D02*
X18184761Y23865562D01*
X18613333Y23436991D02*
X18946666Y23436991D01*
X19089523Y22913181D02*
X18613333Y22913181D01*
X18613333Y22913181D02*
X18613333Y23913181D01*
X18613333Y23913181D02*
X19089523Y23913181D01*
X19375238Y23913181D02*
X19946666Y23913181D01*
X19660952Y22913181D02*
X19660952Y23913181D01*
X56475333Y2053420D02*
X56427714Y2005800D01*
X56427714Y2005800D02*
X56284857Y1958181D01*
X56284857Y1958181D02*
X56189619Y1958181D01*
X56189619Y1958181D02*
X56046762Y2005800D01*
X56046762Y2005800D02*
X55951524Y2101039D01*
X55951524Y2101039D02*
X55903905Y2196277D01*
X55903905Y2196277D02*
X55856286Y2386753D01*
X55856286Y2386753D02*
X55856286Y2529610D01*
X55856286Y2529610D02*
X55903905Y2720086D01*
X55903905Y2720086D02*
X55951524Y2815324D01*
X55951524Y2815324D02*
X56046762Y2910562D01*
X56046762Y2910562D02*
X56189619Y2958181D01*
X56189619Y2958181D02*
X56284857Y2958181D01*
X56284857Y2958181D02*
X56427714Y2910562D01*
X56427714Y2910562D02*
X56475333Y2862943D01*
X56951524Y1958181D02*
X57142000Y1958181D01*
X57142000Y1958181D02*
X57237238Y2005800D01*
X57237238Y2005800D02*
X57284857Y2053420D01*
X57284857Y2053420D02*
X57380095Y2196277D01*
X57380095Y2196277D02*
X57427714Y2386753D01*
X57427714Y2386753D02*
X57427714Y2767705D01*
X57427714Y2767705D02*
X57380095Y2862943D01*
X57380095Y2862943D02*
X57332476Y2910562D01*
X57332476Y2910562D02*
X57237238Y2958181D01*
X57237238Y2958181D02*
X57046762Y2958181D01*
X57046762Y2958181D02*
X56951524Y2910562D01*
X56951524Y2910562D02*
X56903905Y2862943D01*
X56903905Y2862943D02*
X56856286Y2767705D01*
X56856286Y2767705D02*
X56856286Y2529610D01*
X56856286Y2529610D02*
X56903905Y2434372D01*
X56903905Y2434372D02*
X56951524Y2386753D01*
X56951524Y2386753D02*
X57046762Y2339134D01*
X57046762Y2339134D02*
X57237238Y2339134D01*
X57237238Y2339134D02*
X57332476Y2386753D01*
X57332476Y2386753D02*
X57380095Y2434372D01*
X57380095Y2434372D02*
X57427714Y2529610D01*
X33638833Y42640515D02*
X33305500Y43116706D01*
X33067405Y42640515D02*
X33067405Y43640515D01*
X33067405Y43640515D02*
X33448357Y43640515D01*
X33448357Y43640515D02*
X33543595Y43592896D01*
X33543595Y43592896D02*
X33591214Y43545277D01*
X33591214Y43545277D02*
X33638833Y43450039D01*
X33638833Y43450039D02*
X33638833Y43307182D01*
X33638833Y43307182D02*
X33591214Y43211944D01*
X33591214Y43211944D02*
X33543595Y43164325D01*
X33543595Y43164325D02*
X33448357Y43116706D01*
X33448357Y43116706D02*
X33067405Y43116706D01*
X34495976Y43307182D02*
X34495976Y42640515D01*
X34257881Y43688134D02*
X34019786Y42973849D01*
X34019786Y42973849D02*
X34638833Y42973849D01*
X53159819Y18915143D02*
X52683628Y18581810D01*
X53159819Y18343715D02*
X52159819Y18343715D01*
X52159819Y18343715D02*
X52159819Y18724667D01*
X52159819Y18724667D02*
X52207438Y18819905D01*
X52207438Y18819905D02*
X52255057Y18867524D01*
X52255057Y18867524D02*
X52350295Y18915143D01*
X52350295Y18915143D02*
X52493152Y18915143D01*
X52493152Y18915143D02*
X52588390Y18867524D01*
X52588390Y18867524D02*
X52636009Y18819905D01*
X52636009Y18819905D02*
X52683628Y18724667D01*
X52683628Y18724667D02*
X52683628Y18343715D01*
X53159819Y19867524D02*
X53159819Y19296096D01*
X53159819Y19581810D02*
X52159819Y19581810D01*
X52159819Y19581810D02*
X52302676Y19486572D01*
X52302676Y19486572D02*
X52397914Y19391334D01*
X52397914Y19391334D02*
X52445533Y19296096D01*
X52159819Y20200858D02*
X52159819Y20819905D01*
X52159819Y20819905D02*
X52540771Y20486572D01*
X52540771Y20486572D02*
X52540771Y20629429D01*
X52540771Y20629429D02*
X52588390Y20724667D01*
X52588390Y20724667D02*
X52636009Y20772286D01*
X52636009Y20772286D02*
X52731247Y20819905D01*
X52731247Y20819905D02*
X52969342Y20819905D01*
X52969342Y20819905D02*
X53064580Y20772286D01*
X53064580Y20772286D02*
X53112200Y20724667D01*
X53112200Y20724667D02*
X53159819Y20629429D01*
X53159819Y20629429D02*
X53159819Y20343715D01*
X53159819Y20343715D02*
X53112200Y20248477D01*
X53112200Y20248477D02*
X53064580Y20200858D01*
X55699819Y18915143D02*
X55223628Y18581810D01*
X55699819Y18343715D02*
X54699819Y18343715D01*
X54699819Y18343715D02*
X54699819Y18724667D01*
X54699819Y18724667D02*
X54747438Y18819905D01*
X54747438Y18819905D02*
X54795057Y18867524D01*
X54795057Y18867524D02*
X54890295Y18915143D01*
X54890295Y18915143D02*
X55033152Y18915143D01*
X55033152Y18915143D02*
X55128390Y18867524D01*
X55128390Y18867524D02*
X55176009Y18819905D01*
X55176009Y18819905D02*
X55223628Y18724667D01*
X55223628Y18724667D02*
X55223628Y18343715D01*
X55699819Y19867524D02*
X55699819Y19296096D01*
X55699819Y19581810D02*
X54699819Y19581810D01*
X54699819Y19581810D02*
X54842676Y19486572D01*
X54842676Y19486572D02*
X54937914Y19391334D01*
X54937914Y19391334D02*
X54985533Y19296096D01*
X55033152Y20724667D02*
X55699819Y20724667D01*
X54652200Y20486572D02*
X55366485Y20248477D01*
X55366485Y20248477D02*
X55366485Y20867524D01*
X64288200Y5207096D02*
X64335819Y5349953D01*
X64335819Y5349953D02*
X64335819Y5588048D01*
X64335819Y5588048D02*
X64288200Y5683286D01*
X64288200Y5683286D02*
X64240580Y5730905D01*
X64240580Y5730905D02*
X64145342Y5778524D01*
X64145342Y5778524D02*
X64050104Y5778524D01*
X64050104Y5778524D02*
X63954866Y5730905D01*
X63954866Y5730905D02*
X63907247Y5683286D01*
X63907247Y5683286D02*
X63859628Y5588048D01*
X63859628Y5588048D02*
X63812009Y5397572D01*
X63812009Y5397572D02*
X63764390Y5302334D01*
X63764390Y5302334D02*
X63716771Y5254715D01*
X63716771Y5254715D02*
X63621533Y5207096D01*
X63621533Y5207096D02*
X63526295Y5207096D01*
X63526295Y5207096D02*
X63431057Y5254715D01*
X63431057Y5254715D02*
X63383438Y5302334D01*
X63383438Y5302334D02*
X63335819Y5397572D01*
X63335819Y5397572D02*
X63335819Y5635667D01*
X63335819Y5635667D02*
X63383438Y5778524D01*
X63431057Y6159477D02*
X63383438Y6207096D01*
X63383438Y6207096D02*
X63335819Y6302334D01*
X63335819Y6302334D02*
X63335819Y6540429D01*
X63335819Y6540429D02*
X63383438Y6635667D01*
X63383438Y6635667D02*
X63431057Y6683286D01*
X63431057Y6683286D02*
X63526295Y6730905D01*
X63526295Y6730905D02*
X63621533Y6730905D01*
X63621533Y6730905D02*
X63764390Y6683286D01*
X63764390Y6683286D02*
X64335819Y6111858D01*
X64335819Y6111858D02*
X64335819Y6730905D01*
X59636819Y5016619D02*
X59636819Y4540429D01*
X59636819Y4540429D02*
X58636819Y4540429D01*
X59113009Y5349953D02*
X59113009Y5683286D01*
X59636819Y5826143D02*
X59636819Y5349953D01*
X59636819Y5349953D02*
X58636819Y5349953D01*
X58636819Y5349953D02*
X58636819Y5826143D01*
X59113009Y6588048D02*
X59113009Y6254715D01*
X59636819Y6254715D02*
X58636819Y6254715D01*
X58636819Y6254715D02*
X58636819Y6730905D01*
X58636819Y6969001D02*
X58636819Y7540429D01*
X59636819Y7254715D02*
X58636819Y7254715D01*
X21513095Y42582181D02*
X21513095Y41772658D01*
X21513095Y41772658D02*
X21560714Y41677420D01*
X21560714Y41677420D02*
X21608333Y41629800D01*
X21608333Y41629800D02*
X21703571Y41582181D01*
X21703571Y41582181D02*
X21894047Y41582181D01*
X21894047Y41582181D02*
X21989285Y41629800D01*
X21989285Y41629800D02*
X22036904Y41677420D01*
X22036904Y41677420D02*
X22084523Y41772658D01*
X22084523Y41772658D02*
X22084523Y42582181D01*
X22989285Y42248848D02*
X22989285Y41582181D01*
X22751190Y42629800D02*
X22513095Y41915515D01*
X22513095Y41915515D02*
X23132142Y41915515D01*
X3514160Y41629800D02*
X3657017Y41582181D01*
X3657017Y41582181D02*
X3895112Y41582181D01*
X3895112Y41582181D02*
X3990350Y41629800D01*
X3990350Y41629800D02*
X4037969Y41677420D01*
X4037969Y41677420D02*
X4085588Y41772658D01*
X4085588Y41772658D02*
X4085588Y41867896D01*
X4085588Y41867896D02*
X4037969Y41963134D01*
X4037969Y41963134D02*
X3990350Y42010753D01*
X3990350Y42010753D02*
X3895112Y42058372D01*
X3895112Y42058372D02*
X3704636Y42105991D01*
X3704636Y42105991D02*
X3609398Y42153610D01*
X3609398Y42153610D02*
X3561779Y42201229D01*
X3561779Y42201229D02*
X3514160Y42296467D01*
X3514160Y42296467D02*
X3514160Y42391705D01*
X3514160Y42391705D02*
X3561779Y42486943D01*
X3561779Y42486943D02*
X3609398Y42534562D01*
X3609398Y42534562D02*
X3704636Y42582181D01*
X3704636Y42582181D02*
X3942731Y42582181D01*
X3942731Y42582181D02*
X4085588Y42534562D01*
X4514160Y41582181D02*
X4514160Y42582181D01*
X4514160Y42582181D02*
X4752255Y42582181D01*
X4752255Y42582181D02*
X4895112Y42534562D01*
X4895112Y42534562D02*
X4990350Y42439324D01*
X4990350Y42439324D02*
X5037969Y42344086D01*
X5037969Y42344086D02*
X5085588Y42153610D01*
X5085588Y42153610D02*
X5085588Y42010753D01*
X5085588Y42010753D02*
X5037969Y41820277D01*
X5037969Y41820277D02*
X4990350Y41725039D01*
X4990350Y41725039D02*
X4895112Y41629800D01*
X4895112Y41629800D02*
X4752255Y41582181D01*
X4752255Y41582181D02*
X4514160Y41582181D01*
X5466541Y41867896D02*
X5942731Y41867896D01*
X5371303Y41582181D02*
X5704636Y42582181D01*
X5704636Y42582181D02*
X6037969Y41582181D01*
X3418922Y37502181D02*
X3752255Y36502181D01*
X3752255Y36502181D02*
X4085588Y37502181D01*
X4990350Y36597420D02*
X4942731Y36549800D01*
X4942731Y36549800D02*
X4799874Y36502181D01*
X4799874Y36502181D02*
X4704636Y36502181D01*
X4704636Y36502181D02*
X4561779Y36549800D01*
X4561779Y36549800D02*
X4466541Y36645039D01*
X4466541Y36645039D02*
X4418922Y36740277D01*
X4418922Y36740277D02*
X4371303Y36930753D01*
X4371303Y36930753D02*
X4371303Y37073610D01*
X4371303Y37073610D02*
X4418922Y37264086D01*
X4418922Y37264086D02*
X4466541Y37359324D01*
X4466541Y37359324D02*
X4561779Y37454562D01*
X4561779Y37454562D02*
X4704636Y37502181D01*
X4704636Y37502181D02*
X4799874Y37502181D01*
X4799874Y37502181D02*
X4942731Y37454562D01*
X4942731Y37454562D02*
X4990350Y37406943D01*
X5990350Y36597420D02*
X5942731Y36549800D01*
X5942731Y36549800D02*
X5799874Y36502181D01*
X5799874Y36502181D02*
X5704636Y36502181D01*
X5704636Y36502181D02*
X5561779Y36549800D01*
X5561779Y36549800D02*
X5466541Y36645039D01*
X5466541Y36645039D02*
X5418922Y36740277D01*
X5418922Y36740277D02*
X5371303Y36930753D01*
X5371303Y36930753D02*
X5371303Y37073610D01*
X5371303Y37073610D02*
X5418922Y37264086D01*
X5418922Y37264086D02*
X5466541Y37359324D01*
X5466541Y37359324D02*
X5561779Y37454562D01*
X5561779Y37454562D02*
X5704636Y37502181D01*
X5704636Y37502181D02*
X5799874Y37502181D01*
X5799874Y37502181D02*
X5942731Y37454562D01*
X5942731Y37454562D02*
X5990350Y37406943D01*
X4085588Y34914562D02*
X3990350Y34962181D01*
X3990350Y34962181D02*
X3847493Y34962181D01*
X3847493Y34962181D02*
X3704636Y34914562D01*
X3704636Y34914562D02*
X3609398Y34819324D01*
X3609398Y34819324D02*
X3561779Y34724086D01*
X3561779Y34724086D02*
X3514160Y34533610D01*
X3514160Y34533610D02*
X3514160Y34390753D01*
X3514160Y34390753D02*
X3561779Y34200277D01*
X3561779Y34200277D02*
X3609398Y34105039D01*
X3609398Y34105039D02*
X3704636Y34009800D01*
X3704636Y34009800D02*
X3847493Y33962181D01*
X3847493Y33962181D02*
X3942731Y33962181D01*
X3942731Y33962181D02*
X4085588Y34009800D01*
X4085588Y34009800D02*
X4133207Y34057420D01*
X4133207Y34057420D02*
X4133207Y34390753D01*
X4133207Y34390753D02*
X3942731Y34390753D01*
X4561779Y33962181D02*
X4561779Y34962181D01*
X4561779Y34962181D02*
X5133207Y33962181D01*
X5133207Y33962181D02*
X5133207Y34962181D01*
X5609398Y33962181D02*
X5609398Y34962181D01*
X5609398Y34962181D02*
X5847493Y34962181D01*
X5847493Y34962181D02*
X5990350Y34914562D01*
X5990350Y34914562D02*
X6085588Y34819324D01*
X6085588Y34819324D02*
X6133207Y34724086D01*
X6133207Y34724086D02*
X6180826Y34533610D01*
X6180826Y34533610D02*
X6180826Y34390753D01*
X6180826Y34390753D02*
X6133207Y34200277D01*
X6133207Y34200277D02*
X6085588Y34105039D01*
X6085588Y34105039D02*
X5990350Y34009800D01*
X5990350Y34009800D02*
X5847493Y33962181D01*
X5847493Y33962181D02*
X5609398Y33962181D01*
X3514160Y39089800D02*
X3657017Y39042181D01*
X3657017Y39042181D02*
X3895112Y39042181D01*
X3895112Y39042181D02*
X3990350Y39089800D01*
X3990350Y39089800D02*
X4037969Y39137420D01*
X4037969Y39137420D02*
X4085588Y39232658D01*
X4085588Y39232658D02*
X4085588Y39327896D01*
X4085588Y39327896D02*
X4037969Y39423134D01*
X4037969Y39423134D02*
X3990350Y39470753D01*
X3990350Y39470753D02*
X3895112Y39518372D01*
X3895112Y39518372D02*
X3704636Y39565991D01*
X3704636Y39565991D02*
X3609398Y39613610D01*
X3609398Y39613610D02*
X3561779Y39661229D01*
X3561779Y39661229D02*
X3514160Y39756467D01*
X3514160Y39756467D02*
X3514160Y39851705D01*
X3514160Y39851705D02*
X3561779Y39946943D01*
X3561779Y39946943D02*
X3609398Y39994562D01*
X3609398Y39994562D02*
X3704636Y40042181D01*
X3704636Y40042181D02*
X3942731Y40042181D01*
X3942731Y40042181D02*
X4085588Y39994562D01*
X5085588Y39137420D02*
X5037969Y39089800D01*
X5037969Y39089800D02*
X4895112Y39042181D01*
X4895112Y39042181D02*
X4799874Y39042181D01*
X4799874Y39042181D02*
X4657017Y39089800D01*
X4657017Y39089800D02*
X4561779Y39185039D01*
X4561779Y39185039D02*
X4514160Y39280277D01*
X4514160Y39280277D02*
X4466541Y39470753D01*
X4466541Y39470753D02*
X4466541Y39613610D01*
X4466541Y39613610D02*
X4514160Y39804086D01*
X4514160Y39804086D02*
X4561779Y39899324D01*
X4561779Y39899324D02*
X4657017Y39994562D01*
X4657017Y39994562D02*
X4799874Y40042181D01*
X4799874Y40042181D02*
X4895112Y40042181D01*
X4895112Y40042181D02*
X5037969Y39994562D01*
X5037969Y39994562D02*
X5085588Y39946943D01*
X5990350Y39042181D02*
X5514160Y39042181D01*
X5514160Y39042181D02*
X5514160Y40042181D01*
X46609095Y17309181D02*
X46609095Y16499658D01*
X46609095Y16499658D02*
X46656714Y16404420D01*
X46656714Y16404420D02*
X46704333Y16356800D01*
X46704333Y16356800D02*
X46799571Y16309181D01*
X46799571Y16309181D02*
X46990047Y16309181D01*
X46990047Y16309181D02*
X47085285Y16356800D01*
X47085285Y16356800D02*
X47132904Y16404420D01*
X47132904Y16404420D02*
X47180523Y16499658D01*
X47180523Y16499658D02*
X47180523Y17309181D01*
X47609095Y17213943D02*
X47656714Y17261562D01*
X47656714Y17261562D02*
X47751952Y17309181D01*
X47751952Y17309181D02*
X47990047Y17309181D01*
X47990047Y17309181D02*
X48085285Y17261562D01*
X48085285Y17261562D02*
X48132904Y17213943D01*
X48132904Y17213943D02*
X48180523Y17118705D01*
X48180523Y17118705D02*
X48180523Y17023467D01*
X48180523Y17023467D02*
X48132904Y16880610D01*
X48132904Y16880610D02*
X47561476Y16309181D01*
X47561476Y16309181D02*
X48180523Y16309181D01*
X30091142Y37867420D02*
X30043523Y37819800D01*
X30043523Y37819800D02*
X29900666Y37772181D01*
X29900666Y37772181D02*
X29805428Y37772181D01*
X29805428Y37772181D02*
X29662571Y37819800D01*
X29662571Y37819800D02*
X29567333Y37915039D01*
X29567333Y37915039D02*
X29519714Y38010277D01*
X29519714Y38010277D02*
X29472095Y38200753D01*
X29472095Y38200753D02*
X29472095Y38343610D01*
X29472095Y38343610D02*
X29519714Y38534086D01*
X29519714Y38534086D02*
X29567333Y38629324D01*
X29567333Y38629324D02*
X29662571Y38724562D01*
X29662571Y38724562D02*
X29805428Y38772181D01*
X29805428Y38772181D02*
X29900666Y38772181D01*
X29900666Y38772181D02*
X30043523Y38724562D01*
X30043523Y38724562D02*
X30091142Y38676943D01*
X31043523Y37772181D02*
X30472095Y37772181D01*
X30757809Y37772181D02*
X30757809Y38772181D01*
X30757809Y38772181D02*
X30662571Y38629324D01*
X30662571Y38629324D02*
X30567333Y38534086D01*
X30567333Y38534086D02*
X30472095Y38486467D01*
X31662571Y38772181D02*
X31757809Y38772181D01*
X31757809Y38772181D02*
X31853047Y38724562D01*
X31853047Y38724562D02*
X31900666Y38676943D01*
X31900666Y38676943D02*
X31948285Y38581705D01*
X31948285Y38581705D02*
X31995904Y38391229D01*
X31995904Y38391229D02*
X31995904Y38153134D01*
X31995904Y38153134D02*
X31948285Y37962658D01*
X31948285Y37962658D02*
X31900666Y37867420D01*
X31900666Y37867420D02*
X31853047Y37819800D01*
X31853047Y37819800D02*
X31757809Y37772181D01*
X31757809Y37772181D02*
X31662571Y37772181D01*
X31662571Y37772181D02*
X31567333Y37819800D01*
X31567333Y37819800D02*
X31519714Y37867420D01*
X31519714Y37867420D02*
X31472095Y37962658D01*
X31472095Y37962658D02*
X31424476Y38153134D01*
X31424476Y38153134D02*
X31424476Y38391229D01*
X31424476Y38391229D02*
X31472095Y38581705D01*
X31472095Y38581705D02*
X31519714Y38676943D01*
X31519714Y38676943D02*
X31567333Y38724562D01*
X31567333Y38724562D02*
X31662571Y38772181D01*
X55776905Y41963181D02*
X55776905Y42963181D01*
X55776905Y42963181D02*
X56157857Y42963181D01*
X56157857Y42963181D02*
X56253095Y42915562D01*
X56253095Y42915562D02*
X56300714Y42867943D01*
X56300714Y42867943D02*
X56348333Y42772705D01*
X56348333Y42772705D02*
X56348333Y42629848D01*
X56348333Y42629848D02*
X56300714Y42534610D01*
X56300714Y42534610D02*
X56253095Y42486991D01*
X56253095Y42486991D02*
X56157857Y42439372D01*
X56157857Y42439372D02*
X55776905Y42439372D01*
X57300714Y41963181D02*
X56729286Y41963181D01*
X57015000Y41963181D02*
X57015000Y42963181D01*
X57015000Y42963181D02*
X56919762Y42820324D01*
X56919762Y42820324D02*
X56824524Y42725086D01*
X56824524Y42725086D02*
X56729286Y42677467D01*
X33488333Y24056181D02*
X33155000Y24532372D01*
X32916905Y24056181D02*
X32916905Y25056181D01*
X32916905Y25056181D02*
X33297857Y25056181D01*
X33297857Y25056181D02*
X33393095Y25008562D01*
X33393095Y25008562D02*
X33440714Y24960943D01*
X33440714Y24960943D02*
X33488333Y24865705D01*
X33488333Y24865705D02*
X33488333Y24722848D01*
X33488333Y24722848D02*
X33440714Y24627610D01*
X33440714Y24627610D02*
X33393095Y24579991D01*
X33393095Y24579991D02*
X33297857Y24532372D01*
X33297857Y24532372D02*
X32916905Y24532372D01*
X33821667Y25056181D02*
X34440714Y25056181D01*
X34440714Y25056181D02*
X34107381Y24675229D01*
X34107381Y24675229D02*
X34250238Y24675229D01*
X34250238Y24675229D02*
X34345476Y24627610D01*
X34345476Y24627610D02*
X34393095Y24579991D01*
X34393095Y24579991D02*
X34440714Y24484753D01*
X34440714Y24484753D02*
X34440714Y24246658D01*
X34440714Y24246658D02*
X34393095Y24151420D01*
X34393095Y24151420D02*
X34345476Y24103800D01*
X34345476Y24103800D02*
X34250238Y24056181D01*
X34250238Y24056181D02*
X33964524Y24056181D01*
X33964524Y24056181D02*
X33869286Y24103800D01*
X33869286Y24103800D02*
X33821667Y24151420D01*
X33615333Y32946181D02*
X33282000Y33422372D01*
X33043905Y32946181D02*
X33043905Y33946181D01*
X33043905Y33946181D02*
X33424857Y33946181D01*
X33424857Y33946181D02*
X33520095Y33898562D01*
X33520095Y33898562D02*
X33567714Y33850943D01*
X33567714Y33850943D02*
X33615333Y33755705D01*
X33615333Y33755705D02*
X33615333Y33612848D01*
X33615333Y33612848D02*
X33567714Y33517610D01*
X33567714Y33517610D02*
X33520095Y33469991D01*
X33520095Y33469991D02*
X33424857Y33422372D01*
X33424857Y33422372D02*
X33043905Y33422372D01*
X34520095Y33946181D02*
X34043905Y33946181D01*
X34043905Y33946181D02*
X33996286Y33469991D01*
X33996286Y33469991D02*
X34043905Y33517610D01*
X34043905Y33517610D02*
X34139143Y33565229D01*
X34139143Y33565229D02*
X34377238Y33565229D01*
X34377238Y33565229D02*
X34472476Y33517610D01*
X34472476Y33517610D02*
X34520095Y33469991D01*
X34520095Y33469991D02*
X34567714Y33374753D01*
X34567714Y33374753D02*
X34567714Y33136658D01*
X34567714Y33136658D02*
X34520095Y33041420D01*
X34520095Y33041420D02*
X34472476Y32993800D01*
X34472476Y32993800D02*
X34377238Y32946181D01*
X34377238Y32946181D02*
X34139143Y32946181D01*
X34139143Y32946181D02*
X34043905Y32993800D01*
X34043905Y32993800D02*
X33996286Y33041420D01*
X25219819Y19772334D02*
X24743628Y19439001D01*
X25219819Y19200906D02*
X24219819Y19200906D01*
X24219819Y19200906D02*
X24219819Y19581858D01*
X24219819Y19581858D02*
X24267438Y19677096D01*
X24267438Y19677096D02*
X24315057Y19724715D01*
X24315057Y19724715D02*
X24410295Y19772334D01*
X24410295Y19772334D02*
X24553152Y19772334D01*
X24553152Y19772334D02*
X24648390Y19724715D01*
X24648390Y19724715D02*
X24696009Y19677096D01*
X24696009Y19677096D02*
X24743628Y19581858D01*
X24743628Y19581858D02*
X24743628Y19200906D01*
X24219819Y20105668D02*
X24219819Y20772334D01*
X24219819Y20772334D02*
X25219819Y20343763D01*
X43507819Y33496334D02*
X43507819Y33020144D01*
X43507819Y33020144D02*
X42507819Y33020144D01*
X43507819Y33829668D02*
X42507819Y33829668D01*
X42507819Y33829668D02*
X42507819Y34067763D01*
X42507819Y34067763D02*
X42555438Y34210620D01*
X42555438Y34210620D02*
X42650676Y34305858D01*
X42650676Y34305858D02*
X42745914Y34353477D01*
X42745914Y34353477D02*
X42936390Y34401096D01*
X42936390Y34401096D02*
X43079247Y34401096D01*
X43079247Y34401096D02*
X43269723Y34353477D01*
X43269723Y34353477D02*
X43364961Y34305858D01*
X43364961Y34305858D02*
X43460200Y34210620D01*
X43460200Y34210620D02*
X43507819Y34067763D01*
X43507819Y34067763D02*
X43507819Y33829668D01*
X42603057Y34782049D02*
X42555438Y34829668D01*
X42555438Y34829668D02*
X42507819Y34924906D01*
X42507819Y34924906D02*
X42507819Y35163001D01*
X42507819Y35163001D02*
X42555438Y35258239D01*
X42555438Y35258239D02*
X42603057Y35305858D01*
X42603057Y35305858D02*
X42698295Y35353477D01*
X42698295Y35353477D02*
X42793533Y35353477D01*
X42793533Y35353477D02*
X42936390Y35305858D01*
X42936390Y35305858D02*
X43507819Y34734430D01*
X43507819Y34734430D02*
X43507819Y35353477D01*
X40695857Y36756181D02*
X40695857Y37756181D01*
X40695857Y37756181D02*
X40933952Y37756181D01*
X40933952Y37756181D02*
X41076809Y37708562D01*
X41076809Y37708562D02*
X41172047Y37613324D01*
X41172047Y37613324D02*
X41219666Y37518086D01*
X41219666Y37518086D02*
X41267285Y37327610D01*
X41267285Y37327610D02*
X41267285Y37184753D01*
X41267285Y37184753D02*
X41219666Y36994277D01*
X41219666Y36994277D02*
X41172047Y36899039D01*
X41172047Y36899039D02*
X41076809Y36803800D01*
X41076809Y36803800D02*
X40933952Y36756181D01*
X40933952Y36756181D02*
X40695857Y36756181D01*
X42267285Y36756181D02*
X41933952Y37232372D01*
X41695857Y36756181D02*
X41695857Y37756181D01*
X41695857Y37756181D02*
X42076809Y37756181D01*
X42076809Y37756181D02*
X42172047Y37708562D01*
X42172047Y37708562D02*
X42219666Y37660943D01*
X42219666Y37660943D02*
X42267285Y37565705D01*
X42267285Y37565705D02*
X42267285Y37422848D01*
X42267285Y37422848D02*
X42219666Y37327610D01*
X42219666Y37327610D02*
X42172047Y37279991D01*
X42172047Y37279991D02*
X42076809Y37232372D01*
X42076809Y37232372D02*
X41695857Y37232372D01*
X42695857Y36756181D02*
X42695857Y37756181D01*
X43029190Y37756181D02*
X43362523Y36756181D01*
X43362523Y36756181D02*
X43695856Y37756181D01*
X44029190Y37279991D02*
X44362523Y37279991D01*
X44505380Y36756181D02*
X44029190Y36756181D01*
X44029190Y36756181D02*
X44029190Y37756181D01*
X44029190Y37756181D02*
X44505380Y37756181D01*
X45457761Y36756181D02*
X44886333Y36756181D01*
X45172047Y36756181D02*
X45172047Y37756181D01*
X45172047Y37756181D02*
X45076809Y37613324D01*
X45076809Y37613324D02*
X44981571Y37518086D01*
X44981571Y37518086D02*
X44886333Y37470467D01*
X9159666Y6736181D02*
X9159666Y6021896D01*
X9159666Y6021896D02*
X9112047Y5879039D01*
X9112047Y5879039D02*
X9016809Y5783800D01*
X9016809Y5783800D02*
X8873952Y5736181D01*
X8873952Y5736181D02*
X8778714Y5736181D01*
X9540619Y6736181D02*
X10159666Y6736181D01*
X10159666Y6736181D02*
X9826333Y6355229D01*
X9826333Y6355229D02*
X9969190Y6355229D01*
X9969190Y6355229D02*
X10064428Y6307610D01*
X10064428Y6307610D02*
X10112047Y6259991D01*
X10112047Y6259991D02*
X10159666Y6164753D01*
X10159666Y6164753D02*
X10159666Y5926658D01*
X10159666Y5926658D02*
X10112047Y5831420D01*
X10112047Y5831420D02*
X10064428Y5783800D01*
X10064428Y5783800D02*
X9969190Y5736181D01*
X9969190Y5736181D02*
X9683476Y5736181D01*
X9683476Y5736181D02*
X9588238Y5783800D01*
X9588238Y5783800D02*
X9540619Y5831420D01*
X27519333Y11737181D02*
X27186000Y12213372D01*
X26947905Y11737181D02*
X26947905Y12737181D01*
X26947905Y12737181D02*
X27328857Y12737181D01*
X27328857Y12737181D02*
X27424095Y12689562D01*
X27424095Y12689562D02*
X27471714Y12641943D01*
X27471714Y12641943D02*
X27519333Y12546705D01*
X27519333Y12546705D02*
X27519333Y12403848D01*
X27519333Y12403848D02*
X27471714Y12308610D01*
X27471714Y12308610D02*
X27424095Y12260991D01*
X27424095Y12260991D02*
X27328857Y12213372D01*
X27328857Y12213372D02*
X26947905Y12213372D01*
X28471714Y11737181D02*
X27900286Y11737181D01*
X28186000Y11737181D02*
X28186000Y12737181D01*
X28186000Y12737181D02*
X28090762Y12594324D01*
X28090762Y12594324D02*
X27995524Y12499086D01*
X27995524Y12499086D02*
X27900286Y12451467D01*
X7820819Y2754143D02*
X7344628Y2420810D01*
X7820819Y2182715D02*
X6820819Y2182715D01*
X6820819Y2182715D02*
X6820819Y2563667D01*
X6820819Y2563667D02*
X6868438Y2658905D01*
X6868438Y2658905D02*
X6916057Y2706524D01*
X6916057Y2706524D02*
X7011295Y2754143D01*
X7011295Y2754143D02*
X7154152Y2754143D01*
X7154152Y2754143D02*
X7249390Y2706524D01*
X7249390Y2706524D02*
X7297009Y2658905D01*
X7297009Y2658905D02*
X7344628Y2563667D01*
X7344628Y2563667D02*
X7344628Y2182715D01*
X7820819Y3706524D02*
X7820819Y3135096D01*
X7820819Y3420810D02*
X6820819Y3420810D01*
X6820819Y3420810D02*
X6963676Y3325572D01*
X6963676Y3325572D02*
X7058914Y3230334D01*
X7058914Y3230334D02*
X7106533Y3135096D01*
X7820819Y4182715D02*
X7820819Y4373191D01*
X7820819Y4373191D02*
X7773200Y4468429D01*
X7773200Y4468429D02*
X7725580Y4516048D01*
X7725580Y4516048D02*
X7582723Y4611286D01*
X7582723Y4611286D02*
X7392247Y4658905D01*
X7392247Y4658905D02*
X7011295Y4658905D01*
X7011295Y4658905D02*
X6916057Y4611286D01*
X6916057Y4611286D02*
X6868438Y4563667D01*
X6868438Y4563667D02*
X6820819Y4468429D01*
X6820819Y4468429D02*
X6820819Y4277953D01*
X6820819Y4277953D02*
X6868438Y4182715D01*
X6868438Y4182715D02*
X6916057Y4135096D01*
X6916057Y4135096D02*
X7011295Y4087477D01*
X7011295Y4087477D02*
X7249390Y4087477D01*
X7249390Y4087477D02*
X7344628Y4135096D01*
X7344628Y4135096D02*
X7392247Y4182715D01*
X7392247Y4182715D02*
X7439866Y4277953D01*
X7439866Y4277953D02*
X7439866Y4468429D01*
X7439866Y4468429D02*
X7392247Y4563667D01*
X7392247Y4563667D02*
X7344628Y4611286D01*
X7344628Y4611286D02*
X7249390Y4658905D01*
X63827819Y21582143D02*
X63351628Y21248810D01*
X63827819Y21010715D02*
X62827819Y21010715D01*
X62827819Y21010715D02*
X62827819Y21391667D01*
X62827819Y21391667D02*
X62875438Y21486905D01*
X62875438Y21486905D02*
X62923057Y21534524D01*
X62923057Y21534524D02*
X63018295Y21582143D01*
X63018295Y21582143D02*
X63161152Y21582143D01*
X63161152Y21582143D02*
X63256390Y21534524D01*
X63256390Y21534524D02*
X63304009Y21486905D01*
X63304009Y21486905D02*
X63351628Y21391667D01*
X63351628Y21391667D02*
X63351628Y21010715D01*
X62923057Y21963096D02*
X62875438Y22010715D01*
X62875438Y22010715D02*
X62827819Y22105953D01*
X62827819Y22105953D02*
X62827819Y22344048D01*
X62827819Y22344048D02*
X62875438Y22439286D01*
X62875438Y22439286D02*
X62923057Y22486905D01*
X62923057Y22486905D02*
X63018295Y22534524D01*
X63018295Y22534524D02*
X63113533Y22534524D01*
X63113533Y22534524D02*
X63256390Y22486905D01*
X63256390Y22486905D02*
X63827819Y21915477D01*
X63827819Y21915477D02*
X63827819Y22534524D01*
X63827819Y23486905D02*
X63827819Y22915477D01*
X63827819Y23201191D02*
X62827819Y23201191D01*
X62827819Y23201191D02*
X62970676Y23105953D01*
X62970676Y23105953D02*
X63065914Y23010715D01*
X63065914Y23010715D02*
X63113533Y22915477D01*
X31160628Y7984810D02*
X31636819Y7984810D01*
X30636819Y7651477D02*
X31160628Y7984810D01*
X31160628Y7984810D02*
X30636819Y8318143D01*
X31636819Y9175286D02*
X31636819Y8603858D01*
X31636819Y8889572D02*
X30636819Y8889572D01*
X30636819Y8889572D02*
X30779676Y8794334D01*
X30779676Y8794334D02*
X30874914Y8699096D01*
X30874914Y8699096D02*
X30922533Y8603858D01*
X27759819Y19772334D02*
X27283628Y19439001D01*
X27759819Y19200906D02*
X26759819Y19200906D01*
X26759819Y19200906D02*
X26759819Y19581858D01*
X26759819Y19581858D02*
X26807438Y19677096D01*
X26807438Y19677096D02*
X26855057Y19724715D01*
X26855057Y19724715D02*
X26950295Y19772334D01*
X26950295Y19772334D02*
X27093152Y19772334D01*
X27093152Y19772334D02*
X27188390Y19724715D01*
X27188390Y19724715D02*
X27236009Y19677096D01*
X27236009Y19677096D02*
X27283628Y19581858D01*
X27283628Y19581858D02*
X27283628Y19200906D01*
X27188390Y20343763D02*
X27140771Y20248525D01*
X27140771Y20248525D02*
X27093152Y20200906D01*
X27093152Y20200906D02*
X26997914Y20153287D01*
X26997914Y20153287D02*
X26950295Y20153287D01*
X26950295Y20153287D02*
X26855057Y20200906D01*
X26855057Y20200906D02*
X26807438Y20248525D01*
X26807438Y20248525D02*
X26759819Y20343763D01*
X26759819Y20343763D02*
X26759819Y20534239D01*
X26759819Y20534239D02*
X26807438Y20629477D01*
X26807438Y20629477D02*
X26855057Y20677096D01*
X26855057Y20677096D02*
X26950295Y20724715D01*
X26950295Y20724715D02*
X26997914Y20724715D01*
X26997914Y20724715D02*
X27093152Y20677096D01*
X27093152Y20677096D02*
X27140771Y20629477D01*
X27140771Y20629477D02*
X27188390Y20534239D01*
X27188390Y20534239D02*
X27188390Y20343763D01*
X27188390Y20343763D02*
X27236009Y20248525D01*
X27236009Y20248525D02*
X27283628Y20200906D01*
X27283628Y20200906D02*
X27378866Y20153287D01*
X27378866Y20153287D02*
X27569342Y20153287D01*
X27569342Y20153287D02*
X27664580Y20200906D01*
X27664580Y20200906D02*
X27712200Y20248525D01*
X27712200Y20248525D02*
X27759819Y20343763D01*
X27759819Y20343763D02*
X27759819Y20534239D01*
X27759819Y20534239D02*
X27712200Y20629477D01*
X27712200Y20629477D02*
X27664580Y20677096D01*
X27664580Y20677096D02*
X27569342Y20724715D01*
X27569342Y20724715D02*
X27378866Y20724715D01*
X27378866Y20724715D02*
X27283628Y20677096D01*
X27283628Y20677096D02*
X27236009Y20629477D01*
X27236009Y20629477D02*
X27188390Y20534239D01*
D12*
X13234936Y17753000D02*
X13689064Y17753000D01*
X13234936Y16283000D02*
X13689064Y16283000D01*
X28421000Y6577064D02*
X28421000Y6122936D01*
X26951000Y6577064D02*
X26951000Y6122936D01*
X20792000Y8333500D02*
X20792000Y7683500D01*
X20792000Y8333500D02*
X20792000Y8983500D01*
X23912000Y8333500D02*
X23912000Y7683500D01*
X23912000Y8333500D02*
X23912000Y8983500D01*
X20842000Y7171000D02*
X20512000Y6931000D01*
X20512000Y7411000D01*
X20842000Y7171000D01*
G36*
X20842000Y7171000D02*
G01*
X20512000Y6931000D01*
X20512000Y7411000D01*
X20842000Y7171000D01*
G37*
X22793000Y5267000D02*
X22793000Y3937000D01*
X21463000Y5267000D02*
X22793000Y5267000D01*
X20193000Y5267000D02*
X12513000Y5267000D01*
X20193000Y5267000D02*
X20193000Y2607000D01*
X12513000Y5267000D02*
X12513000Y2607000D01*
X20193000Y2607000D02*
X12513000Y2607000D01*
X22954000Y11303000D02*
X22954000Y15713000D01*
X20734000Y15713000D02*
X20734000Y11303000D01*
X22954000Y15713000D02*
X20734000Y15713000D01*
X20336000Y11049000D02*
G75*
G02*
X11096000Y11049000I-4620000J0D01*
G01*
X11096000Y11049000D02*
G75*
G02*
X20336000Y11049000I4620000J0D01*
G01*
X57821000Y10081500D02*
X57821000Y11756500D01*
X57821000Y10081500D02*
X57821000Y9431500D01*
X54701000Y10081500D02*
X54701000Y10731500D01*
X54701000Y10081500D02*
X54701000Y9431500D01*
X40296000Y14667748D02*
X40296000Y15190252D01*
X41766000Y14667748D02*
X41766000Y15190252D01*
X33590000Y20310000D02*
X30140000Y20310000D01*
X33590000Y20310000D02*
X35540000Y20310000D01*
X33590000Y11440000D02*
X31640000Y11440000D01*
X33590000Y11440000D02*
X35540000Y11440000D01*
X37119748Y10466000D02*
X37642252Y10466000D01*
X37119748Y8996000D02*
X37642252Y8996000D01*
X9764500Y21544000D02*
X9764500Y23414000D01*
X9764500Y23414000D02*
X5679500Y23414000D01*
X5679500Y21544000D02*
X9764500Y21544000D01*
X43280000Y22833064D02*
X43280000Y22378936D01*
X41810000Y22833064D02*
X41810000Y22378936D01*
X9713000Y14243000D02*
X3703000Y14243000D01*
X7463000Y21063000D02*
X3703000Y21063000D01*
X3703000Y14243000D02*
X3703000Y15503000D01*
X3703000Y21063000D02*
X3703000Y19803000D01*
X31850000Y22595064D02*
X31850000Y22140936D01*
X30380000Y22595064D02*
X30380000Y22140936D01*
X2440000Y3169936D02*
X2440000Y3624064D01*
X3910000Y3169936D02*
X3910000Y3624064D01*
X36325436Y36295000D02*
X36779564Y36295000D01*
X36325436Y34825000D02*
X36779564Y34825000D01*
X50900000Y22833064D02*
X50900000Y22378936D01*
X49430000Y22833064D02*
X49430000Y22378936D01*
X52986000Y14851748D02*
X52986000Y15374252D01*
X54456000Y14851748D02*
X54456000Y15374252D01*
X48360000Y22833064D02*
X48360000Y22378936D01*
X46890000Y22833064D02*
X46890000Y22378936D01*
X41592252Y1644000D02*
X41069748Y1644000D01*
X41592252Y3114000D02*
X41069748Y3114000D01*
X37119748Y8053000D02*
X37642252Y8053000D01*
X37119748Y6583000D02*
X37642252Y6583000D01*
X36348936Y41629000D02*
X36803064Y41629000D01*
X36348936Y40159000D02*
X36803064Y40159000D01*
X24559200Y9530248D02*
X24559200Y10052752D01*
X26029200Y9530248D02*
X26029200Y10052752D01*
X35460000Y22090748D02*
X35460000Y22613252D01*
X36930000Y22090748D02*
X36930000Y22613252D01*
X45820000Y22833064D02*
X45820000Y22378936D01*
X44350000Y22833064D02*
X44350000Y22378936D01*
X9851000Y11892000D02*
X9851000Y13762000D01*
X9851000Y13762000D02*
X5766000Y13762000D01*
X5766000Y11892000D02*
X9851000Y11892000D01*
X54945000Y13095500D02*
X56815000Y13095500D01*
X56815000Y13095500D02*
X56815000Y17180500D01*
X54945000Y17180500D02*
X54945000Y13095500D01*
D13*
X58103000Y12656000D02*
X58303000Y12656000D01*
X58103000Y12656000D02*
X58103000Y19856000D01*
X64603000Y12656000D02*
X60903000Y12656000D01*
X58103000Y19856000D02*
X58303000Y19856000D01*
X64603000Y19856000D02*
X64603000Y12656000D01*
X64603000Y19856000D02*
X60903000Y19856000D01*
D12*
X22833000Y22833064D02*
X22833000Y22378936D01*
X21363000Y22833064D02*
X21363000Y22378936D01*
X41493000Y42003000D02*
X41493000Y41847000D01*
X41493000Y39687000D02*
X41493000Y39531000D01*
X41493000Y42002516D02*
G75*
G02*
X44725335Y41845608I1560000J-1235516D01*
G01*
X42012039Y41847000D02*
G75*
G02*
X44094130Y41846837I1040961J-1080000D01*
G01*
X44094130Y39687163D02*
G75*
G02*
X42012039Y39687000I-1041130J1079837D01*
G01*
X44725335Y39688392D02*
G75*
G02*
X41493000Y39531484I-1672335J1078608D01*
G01*
X58520000Y22833064D02*
X58520000Y22378936D01*
X57050000Y22833064D02*
X57050000Y22378936D01*
X27458936Y15340000D02*
X27913064Y15340000D01*
X27458936Y13870000D02*
X27913064Y13870000D01*
X16210000Y16658000D02*
X16210000Y20798000D01*
X16510000Y16658000D02*
X16210000Y16658000D01*
X19350000Y16658000D02*
X19050000Y16658000D01*
X16210000Y20798000D02*
X16510000Y20798000D01*
X19050000Y20798000D02*
X19350000Y20798000D01*
X19350000Y20798000D02*
X19350000Y16658000D01*
X53169748Y3114000D02*
X53692252Y3114000D01*
X53169748Y1644000D02*
X53692252Y1644000D01*
X36803064Y42318000D02*
X36348936Y42318000D01*
X36803064Y43788000D02*
X36348936Y43788000D01*
X53440000Y22833064D02*
X53440000Y22378936D01*
X51970000Y22833064D02*
X51970000Y22378936D01*
X55980000Y22833064D02*
X55980000Y22378936D01*
X54510000Y22833064D02*
X54510000Y22378936D01*
D13*
X58198000Y2369000D02*
X58398000Y2369000D01*
X58198000Y2369000D02*
X58198000Y9569000D01*
X64698000Y2369000D02*
X60998000Y2369000D01*
X58198000Y9569000D02*
X58398000Y9569000D01*
X64698000Y9569000D02*
X64698000Y2369000D01*
X64698000Y9569000D02*
X60998000Y9569000D01*
D12*
X685000Y44227000D02*
X38685000Y44227000D01*
X38685000Y32227000D01*
X685000Y32227000D01*
X685000Y44227000D01*
X42261000Y13873000D02*
X42261000Y12923000D01*
X42261000Y12923000D02*
X40921000Y12923000D01*
X42261000Y3653000D02*
X42261000Y4603000D01*
X43211000Y13873000D02*
X42261000Y13873000D01*
X43211000Y3653000D02*
X42261000Y3653000D01*
X51531000Y13873000D02*
X52481000Y13873000D01*
X51531000Y3653000D02*
X52481000Y3653000D01*
X52481000Y13873000D02*
X52481000Y12923000D01*
X52481000Y3653000D02*
X52481000Y4603000D01*
X38322000Y36717000D02*
X38322000Y39737000D01*
X38322000Y39737000D02*
X33937000Y39737000D01*
X33937000Y36717000D02*
X38322000Y36717000D01*
D13*
X55848100Y45879000D02*
X62782000Y45879000D01*
X49325000Y31909000D02*
X52425000Y31909000D01*
X47796000Y46895000D02*
X50327100Y46895000D01*
X55848100Y45879000D02*
G75*
G02*
X51327000Y46711001I60J12700170D01*
G01*
X50327100Y46895000D02*
G75*
G02*
X51326994Y46710985I0J-2808600D01*
G01*
D12*
X34390000Y22595064D02*
X34390000Y22140936D01*
X32920000Y22595064D02*
X32920000Y22140936D01*
X36779564Y32666000D02*
X36325436Y32666000D01*
X36779564Y34136000D02*
X36325436Y34136000D01*
X25500000Y22809564D02*
X25500000Y22355436D01*
X24030000Y22809564D02*
X24030000Y22355436D01*
X41488000Y35399000D02*
X41488000Y35243000D01*
X41488000Y33083000D02*
X41488000Y32927000D01*
X41488000Y35398516D02*
G75*
G02*
X44720335Y35241608I1560000J-1235516D01*
G01*
X42007039Y35243000D02*
G75*
G02*
X44089130Y35242837I1040961J-1080000D01*
G01*
X44089130Y33083163D02*
G75*
G02*
X42007039Y33083000I-1041130J1079837D01*
G01*
X44720335Y33084392D02*
G75*
G02*
X41488000Y32927484I-1672335J1078608D01*
G01*
X8140000Y10299000D02*
X8140000Y9239000D01*
X7080000Y10299000D02*
X8140000Y10299000D01*
X6080000Y10299000D02*
X2020000Y10299000D01*
X6080000Y10299000D02*
X6080000Y8239000D01*
X2020000Y10299000D02*
X2020000Y6179000D01*
X8140000Y8239000D02*
X8140000Y6179000D01*
X6080000Y8239000D02*
X8140000Y8239000D01*
X8140000Y6179000D02*
X2020000Y6179000D01*
X28366000Y10018564D02*
X28366000Y9564436D01*
X26896000Y10018564D02*
X26896000Y9564436D01*
X6323000Y3624064D02*
X6323000Y3169936D01*
X4853000Y3624064D02*
X4853000Y3169936D01*
X60605936Y22833000D02*
X61060064Y22833000D01*
X60605936Y21363000D02*
X61060064Y21363000D01*
X31982000Y6461000D02*
X35282000Y6461000D01*
X35282000Y6461000D02*
X35282000Y10461000D01*
X28040000Y22833064D02*
X28040000Y22378936D01*
X26570000Y22833064D02*
X26570000Y22378936D01*
M02*
