G04 #@! TF.GenerationSoftware,KiCad,Pcbnew,7.0.10*
G04 #@! TF.CreationDate,2024-01-22T14:27:09-06:00*
G04 #@! TF.ProjectId,OpenFlops,4f70656e-466c-46f7-9073-2e6b69636164,1.0*
G04 #@! TF.SameCoordinates,PX72b28c8PY7654b98*
G04 #@! TF.FileFunction,Legend,Bot*
G04 #@! TF.FilePolarity,Positive*
%FSLAX46Y46*%
G04 Gerber Fmt 4.6, Leading zero omitted, Abs format (unit mm)*
G04 Created by KiCad (PCBNEW 7.0.10) date 2024-01-22 14:27:09*
%MOMM*%
%LPD*%
G01*
G04 APERTURE LIST*
%ADD10C,0.150000*%
%ADD11C,0.120000*%
G04 APERTURE END LIST*
D10*
X37429887Y36512991D02*
X37763220Y36512991D01*
X37763220Y35989181D02*
X37763220Y36989181D01*
X37763220Y36989181D02*
X37287030Y36989181D01*
X36763220Y35989181D02*
X36858458Y36036800D01*
X36858458Y36036800D02*
X36906077Y36132039D01*
X36906077Y36132039D02*
X36906077Y36989181D01*
X35953696Y35989181D02*
X35953696Y36512991D01*
X35953696Y36512991D02*
X36001315Y36608229D01*
X36001315Y36608229D02*
X36096553Y36655848D01*
X36096553Y36655848D02*
X36287029Y36655848D01*
X36287029Y36655848D02*
X36382267Y36608229D01*
X35953696Y36036800D02*
X36048934Y35989181D01*
X36048934Y35989181D02*
X36287029Y35989181D01*
X36287029Y35989181D02*
X36382267Y36036800D01*
X36382267Y36036800D02*
X36429886Y36132039D01*
X36429886Y36132039D02*
X36429886Y36227277D01*
X36429886Y36227277D02*
X36382267Y36322515D01*
X36382267Y36322515D02*
X36287029Y36370134D01*
X36287029Y36370134D02*
X36048934Y36370134D01*
X36048934Y36370134D02*
X35953696Y36417753D01*
X35525124Y36036800D02*
X35429886Y35989181D01*
X35429886Y35989181D02*
X35239410Y35989181D01*
X35239410Y35989181D02*
X35144172Y36036800D01*
X35144172Y36036800D02*
X35096553Y36132039D01*
X35096553Y36132039D02*
X35096553Y36179658D01*
X35096553Y36179658D02*
X35144172Y36274896D01*
X35144172Y36274896D02*
X35239410Y36322515D01*
X35239410Y36322515D02*
X35382267Y36322515D01*
X35382267Y36322515D02*
X35477505Y36370134D01*
X35477505Y36370134D02*
X35525124Y36465372D01*
X35525124Y36465372D02*
X35525124Y36512991D01*
X35525124Y36512991D02*
X35477505Y36608229D01*
X35477505Y36608229D02*
X35382267Y36655848D01*
X35382267Y36655848D02*
X35239410Y36655848D01*
X35239410Y36655848D02*
X35144172Y36608229D01*
X34667981Y35989181D02*
X34667981Y36989181D01*
X34239410Y35989181D02*
X34239410Y36512991D01*
X34239410Y36512991D02*
X34287029Y36608229D01*
X34287029Y36608229D02*
X34382267Y36655848D01*
X34382267Y36655848D02*
X34525124Y36655848D01*
X34525124Y36655848D02*
X34620362Y36608229D01*
X34620362Y36608229D02*
X34667981Y36560610D01*
X33429886Y36512991D02*
X33763219Y36512991D01*
X33763219Y35989181D02*
X33763219Y36989181D01*
X33763219Y36989181D02*
X33287029Y36989181D01*
X32763219Y35989181D02*
X32858457Y36036800D01*
X32858457Y36036800D02*
X32906076Y36132039D01*
X32906076Y36132039D02*
X32906076Y36989181D01*
X32239409Y35989181D02*
X32334647Y36036800D01*
X32334647Y36036800D02*
X32382266Y36084420D01*
X32382266Y36084420D02*
X32429885Y36179658D01*
X32429885Y36179658D02*
X32429885Y36465372D01*
X32429885Y36465372D02*
X32382266Y36560610D01*
X32382266Y36560610D02*
X32334647Y36608229D01*
X32334647Y36608229D02*
X32239409Y36655848D01*
X32239409Y36655848D02*
X32096552Y36655848D01*
X32096552Y36655848D02*
X32001314Y36608229D01*
X32001314Y36608229D02*
X31953695Y36560610D01*
X31953695Y36560610D02*
X31906076Y36465372D01*
X31906076Y36465372D02*
X31906076Y36179658D01*
X31906076Y36179658D02*
X31953695Y36084420D01*
X31953695Y36084420D02*
X32001314Y36036800D01*
X32001314Y36036800D02*
X32096552Y35989181D01*
X32096552Y35989181D02*
X32239409Y35989181D01*
X31477504Y36655848D02*
X31477504Y35655848D01*
X31477504Y36608229D02*
X31382266Y36655848D01*
X31382266Y36655848D02*
X31191790Y36655848D01*
X31191790Y36655848D02*
X31096552Y36608229D01*
X31096552Y36608229D02*
X31048933Y36560610D01*
X31048933Y36560610D02*
X31001314Y36465372D01*
X31001314Y36465372D02*
X31001314Y36179658D01*
X31001314Y36179658D02*
X31048933Y36084420D01*
X31048933Y36084420D02*
X31096552Y36036800D01*
X31096552Y36036800D02*
X31191790Y35989181D01*
X31191790Y35989181D02*
X31382266Y35989181D01*
X31382266Y35989181D02*
X31477504Y36036800D01*
X30572742Y36655848D02*
X30572742Y35655848D01*
X30572742Y36608229D02*
X30477504Y36655848D01*
X30477504Y36655848D02*
X30287028Y36655848D01*
X30287028Y36655848D02*
X30191790Y36608229D01*
X30191790Y36608229D02*
X30144171Y36560610D01*
X30144171Y36560610D02*
X30096552Y36465372D01*
X30096552Y36465372D02*
X30096552Y36179658D01*
X30096552Y36179658D02*
X30144171Y36084420D01*
X30144171Y36084420D02*
X30191790Y36036800D01*
X30191790Y36036800D02*
X30287028Y35989181D01*
X30287028Y35989181D02*
X30477504Y35989181D01*
X30477504Y35989181D02*
X30572742Y36036800D01*
X29763218Y36655848D02*
X29525123Y35989181D01*
X29287028Y36655848D02*
X29525123Y35989181D01*
X29525123Y35989181D02*
X29620361Y35751086D01*
X29620361Y35751086D02*
X29667980Y35703467D01*
X29667980Y35703467D02*
X29763218Y35655848D01*
X28287027Y36655848D02*
X27906075Y36655848D01*
X28144170Y35989181D02*
X28144170Y36846324D01*
X28144170Y36846324D02*
X28096551Y36941562D01*
X28096551Y36941562D02*
X28001313Y36989181D01*
X28001313Y36989181D02*
X27906075Y36989181D01*
X27429884Y35989181D02*
X27525122Y36036800D01*
X27525122Y36036800D02*
X27572741Y36084420D01*
X27572741Y36084420D02*
X27620360Y36179658D01*
X27620360Y36179658D02*
X27620360Y36465372D01*
X27620360Y36465372D02*
X27572741Y36560610D01*
X27572741Y36560610D02*
X27525122Y36608229D01*
X27525122Y36608229D02*
X27429884Y36655848D01*
X27429884Y36655848D02*
X27287027Y36655848D01*
X27287027Y36655848D02*
X27191789Y36608229D01*
X27191789Y36608229D02*
X27144170Y36560610D01*
X27144170Y36560610D02*
X27096551Y36465372D01*
X27096551Y36465372D02*
X27096551Y36179658D01*
X27096551Y36179658D02*
X27144170Y36084420D01*
X27144170Y36084420D02*
X27191789Y36036800D01*
X27191789Y36036800D02*
X27287027Y35989181D01*
X27287027Y35989181D02*
X27429884Y35989181D01*
X26667979Y35989181D02*
X26667979Y36655848D01*
X26667979Y36465372D02*
X26620360Y36560610D01*
X26620360Y36560610D02*
X26572741Y36608229D01*
X26572741Y36608229D02*
X26477503Y36655848D01*
X26477503Y36655848D02*
X26382265Y36655848D01*
X24953693Y36512991D02*
X25287026Y36512991D01*
X25287026Y35989181D02*
X25287026Y36989181D01*
X25287026Y36989181D02*
X24810836Y36989181D01*
X24048931Y36036800D02*
X24144169Y35989181D01*
X24144169Y35989181D02*
X24334645Y35989181D01*
X24334645Y35989181D02*
X24429883Y36036800D01*
X24429883Y36036800D02*
X24477502Y36132039D01*
X24477502Y36132039D02*
X24477502Y36512991D01*
X24477502Y36512991D02*
X24429883Y36608229D01*
X24429883Y36608229D02*
X24334645Y36655848D01*
X24334645Y36655848D02*
X24144169Y36655848D01*
X24144169Y36655848D02*
X24048931Y36608229D01*
X24048931Y36608229D02*
X24001312Y36512991D01*
X24001312Y36512991D02*
X24001312Y36417753D01*
X24001312Y36417753D02*
X24477502Y36322515D01*
X23572740Y35989181D02*
X23572740Y36655848D01*
X23572740Y36465372D02*
X23525121Y36560610D01*
X23525121Y36560610D02*
X23477502Y36608229D01*
X23477502Y36608229D02*
X23382264Y36655848D01*
X23382264Y36655848D02*
X23287026Y36655848D01*
X22525121Y36655848D02*
X22525121Y35846324D01*
X22525121Y35846324D02*
X22572740Y35751086D01*
X22572740Y35751086D02*
X22620359Y35703467D01*
X22620359Y35703467D02*
X22715597Y35655848D01*
X22715597Y35655848D02*
X22858454Y35655848D01*
X22858454Y35655848D02*
X22953692Y35703467D01*
X22525121Y36036800D02*
X22620359Y35989181D01*
X22620359Y35989181D02*
X22810835Y35989181D01*
X22810835Y35989181D02*
X22906073Y36036800D01*
X22906073Y36036800D02*
X22953692Y36084420D01*
X22953692Y36084420D02*
X23001311Y36179658D01*
X23001311Y36179658D02*
X23001311Y36465372D01*
X23001311Y36465372D02*
X22953692Y36560610D01*
X22953692Y36560610D02*
X22906073Y36608229D01*
X22906073Y36608229D02*
X22810835Y36655848D01*
X22810835Y36655848D02*
X22620359Y36655848D01*
X22620359Y36655848D02*
X22525121Y36608229D01*
X21620359Y36655848D02*
X21620359Y35989181D01*
X22048930Y36655848D02*
X22048930Y36132039D01*
X22048930Y36132039D02*
X22001311Y36036800D01*
X22001311Y36036800D02*
X21906073Y35989181D01*
X21906073Y35989181D02*
X21763216Y35989181D01*
X21763216Y35989181D02*
X21667978Y36036800D01*
X21667978Y36036800D02*
X21620359Y36084420D01*
X21191787Y36036800D02*
X21096549Y35989181D01*
X21096549Y35989181D02*
X20906073Y35989181D01*
X20906073Y35989181D02*
X20810835Y36036800D01*
X20810835Y36036800D02*
X20763216Y36132039D01*
X20763216Y36132039D02*
X20763216Y36179658D01*
X20763216Y36179658D02*
X20810835Y36274896D01*
X20810835Y36274896D02*
X20906073Y36322515D01*
X20906073Y36322515D02*
X21048930Y36322515D01*
X21048930Y36322515D02*
X21144168Y36370134D01*
X21144168Y36370134D02*
X21191787Y36465372D01*
X21191787Y36465372D02*
X21191787Y36512991D01*
X21191787Y36512991D02*
X21144168Y36608229D01*
X21144168Y36608229D02*
X21048930Y36655848D01*
X21048930Y36655848D02*
X20906073Y36655848D01*
X20906073Y36655848D02*
X20810835Y36608229D01*
X20191787Y35989181D02*
X20287025Y36036800D01*
X20287025Y36036800D02*
X20334644Y36084420D01*
X20334644Y36084420D02*
X20382263Y36179658D01*
X20382263Y36179658D02*
X20382263Y36465372D01*
X20382263Y36465372D02*
X20334644Y36560610D01*
X20334644Y36560610D02*
X20287025Y36608229D01*
X20287025Y36608229D02*
X20191787Y36655848D01*
X20191787Y36655848D02*
X20048930Y36655848D01*
X20048930Y36655848D02*
X19953692Y36608229D01*
X19953692Y36608229D02*
X19906073Y36560610D01*
X19906073Y36560610D02*
X19858454Y36465372D01*
X19858454Y36465372D02*
X19858454Y36179658D01*
X19858454Y36179658D02*
X19906073Y36084420D01*
X19906073Y36084420D02*
X19953692Y36036800D01*
X19953692Y36036800D02*
X20048930Y35989181D01*
X20048930Y35989181D02*
X20191787Y35989181D01*
X19429882Y36655848D02*
X19429882Y35989181D01*
X19429882Y36560610D02*
X19382263Y36608229D01*
X19382263Y36608229D02*
X19287025Y36655848D01*
X19287025Y36655848D02*
X19144168Y36655848D01*
X19144168Y36655848D02*
X19048930Y36608229D01*
X19048930Y36608229D02*
X19001311Y36512991D01*
X19001311Y36512991D02*
X19001311Y35989181D01*
X17858453Y36655848D02*
X17620358Y35989181D01*
X17620358Y35989181D02*
X17382263Y36655848D01*
X16477501Y35989181D02*
X17048929Y35989181D01*
X16763215Y35989181D02*
X16763215Y36989181D01*
X16763215Y36989181D02*
X16858453Y36846324D01*
X16858453Y36846324D02*
X16953691Y36751086D01*
X16953691Y36751086D02*
X17048929Y36703467D01*
X16048929Y36084420D02*
X16001310Y36036800D01*
X16001310Y36036800D02*
X16048929Y35989181D01*
X16048929Y35989181D02*
X16096548Y36036800D01*
X16096548Y36036800D02*
X16048929Y36084420D01*
X16048929Y36084420D02*
X16048929Y35989181D01*
X15382263Y36989181D02*
X15287025Y36989181D01*
X15287025Y36989181D02*
X15191787Y36941562D01*
X15191787Y36941562D02*
X15144168Y36893943D01*
X15144168Y36893943D02*
X15096549Y36798705D01*
X15096549Y36798705D02*
X15048930Y36608229D01*
X15048930Y36608229D02*
X15048930Y36370134D01*
X15048930Y36370134D02*
X15096549Y36179658D01*
X15096549Y36179658D02*
X15144168Y36084420D01*
X15144168Y36084420D02*
X15191787Y36036800D01*
X15191787Y36036800D02*
X15287025Y35989181D01*
X15287025Y35989181D02*
X15382263Y35989181D01*
X15382263Y35989181D02*
X15477501Y36036800D01*
X15477501Y36036800D02*
X15525120Y36084420D01*
X15525120Y36084420D02*
X15572739Y36179658D01*
X15572739Y36179658D02*
X15620358Y36370134D01*
X15620358Y36370134D02*
X15620358Y36608229D01*
X15620358Y36608229D02*
X15572739Y36798705D01*
X15572739Y36798705D02*
X15525120Y36893943D01*
X15525120Y36893943D02*
X15477501Y36941562D01*
X15477501Y36941562D02*
X15382263Y36989181D01*
X37763220Y34379181D02*
X37763220Y35379181D01*
X37763220Y35379181D02*
X37382268Y35379181D01*
X37382268Y35379181D02*
X37287030Y35331562D01*
X37287030Y35331562D02*
X37239411Y35283943D01*
X37239411Y35283943D02*
X37191792Y35188705D01*
X37191792Y35188705D02*
X37191792Y35045848D01*
X37191792Y35045848D02*
X37239411Y34950610D01*
X37239411Y34950610D02*
X37287030Y34902991D01*
X37287030Y34902991D02*
X37382268Y34855372D01*
X37382268Y34855372D02*
X37763220Y34855372D01*
X36191792Y34474420D02*
X36239411Y34426800D01*
X36239411Y34426800D02*
X36382268Y34379181D01*
X36382268Y34379181D02*
X36477506Y34379181D01*
X36477506Y34379181D02*
X36620363Y34426800D01*
X36620363Y34426800D02*
X36715601Y34522039D01*
X36715601Y34522039D02*
X36763220Y34617277D01*
X36763220Y34617277D02*
X36810839Y34807753D01*
X36810839Y34807753D02*
X36810839Y34950610D01*
X36810839Y34950610D02*
X36763220Y35141086D01*
X36763220Y35141086D02*
X36715601Y35236324D01*
X36715601Y35236324D02*
X36620363Y35331562D01*
X36620363Y35331562D02*
X36477506Y35379181D01*
X36477506Y35379181D02*
X36382268Y35379181D01*
X36382268Y35379181D02*
X36239411Y35331562D01*
X36239411Y35331562D02*
X36191792Y35283943D01*
X35429887Y34902991D02*
X35287030Y34855372D01*
X35287030Y34855372D02*
X35239411Y34807753D01*
X35239411Y34807753D02*
X35191792Y34712515D01*
X35191792Y34712515D02*
X35191792Y34569658D01*
X35191792Y34569658D02*
X35239411Y34474420D01*
X35239411Y34474420D02*
X35287030Y34426800D01*
X35287030Y34426800D02*
X35382268Y34379181D01*
X35382268Y34379181D02*
X35763220Y34379181D01*
X35763220Y34379181D02*
X35763220Y35379181D01*
X35763220Y35379181D02*
X35429887Y35379181D01*
X35429887Y35379181D02*
X35334649Y35331562D01*
X35334649Y35331562D02*
X35287030Y35283943D01*
X35287030Y35283943D02*
X35239411Y35188705D01*
X35239411Y35188705D02*
X35239411Y35093467D01*
X35239411Y35093467D02*
X35287030Y34998229D01*
X35287030Y34998229D02*
X35334649Y34950610D01*
X35334649Y34950610D02*
X35429887Y34902991D01*
X35429887Y34902991D02*
X35763220Y34902991D01*
X34001315Y34379181D02*
X34001315Y35379181D01*
X34001315Y34998229D02*
X33906077Y35045848D01*
X33906077Y35045848D02*
X33715601Y35045848D01*
X33715601Y35045848D02*
X33620363Y34998229D01*
X33620363Y34998229D02*
X33572744Y34950610D01*
X33572744Y34950610D02*
X33525125Y34855372D01*
X33525125Y34855372D02*
X33525125Y34569658D01*
X33525125Y34569658D02*
X33572744Y34474420D01*
X33572744Y34474420D02*
X33620363Y34426800D01*
X33620363Y34426800D02*
X33715601Y34379181D01*
X33715601Y34379181D02*
X33906077Y34379181D01*
X33906077Y34379181D02*
X34001315Y34426800D01*
X33191791Y35045848D02*
X32953696Y34379181D01*
X32715601Y35045848D02*
X32953696Y34379181D01*
X32953696Y34379181D02*
X33048934Y34141086D01*
X33048934Y34141086D02*
X33096553Y34093467D01*
X33096553Y34093467D02*
X33191791Y34045848D01*
X31001315Y34474420D02*
X31048934Y34426800D01*
X31048934Y34426800D02*
X31191791Y34379181D01*
X31191791Y34379181D02*
X31287029Y34379181D01*
X31287029Y34379181D02*
X31429886Y34426800D01*
X31429886Y34426800D02*
X31525124Y34522039D01*
X31525124Y34522039D02*
X31572743Y34617277D01*
X31572743Y34617277D02*
X31620362Y34807753D01*
X31620362Y34807753D02*
X31620362Y34950610D01*
X31620362Y34950610D02*
X31572743Y35141086D01*
X31572743Y35141086D02*
X31525124Y35236324D01*
X31525124Y35236324D02*
X31429886Y35331562D01*
X31429886Y35331562D02*
X31287029Y35379181D01*
X31287029Y35379181D02*
X31191791Y35379181D01*
X31191791Y35379181D02*
X31048934Y35331562D01*
X31048934Y35331562D02*
X31001315Y35283943D01*
X30572743Y34379181D02*
X30572743Y35379181D01*
X30144172Y34379181D02*
X30144172Y34902991D01*
X30144172Y34902991D02*
X30191791Y34998229D01*
X30191791Y34998229D02*
X30287029Y35045848D01*
X30287029Y35045848D02*
X30429886Y35045848D01*
X30429886Y35045848D02*
X30525124Y34998229D01*
X30525124Y34998229D02*
X30572743Y34950610D01*
X29667981Y34379181D02*
X29667981Y35045848D01*
X29667981Y34855372D02*
X29620362Y34950610D01*
X29620362Y34950610D02*
X29572743Y34998229D01*
X29572743Y34998229D02*
X29477505Y35045848D01*
X29477505Y35045848D02*
X29382267Y35045848D01*
X29048933Y34379181D02*
X29048933Y35045848D01*
X29048933Y35379181D02*
X29096552Y35331562D01*
X29096552Y35331562D02*
X29048933Y35283943D01*
X29048933Y35283943D02*
X29001314Y35331562D01*
X29001314Y35331562D02*
X29048933Y35379181D01*
X29048933Y35379181D02*
X29048933Y35283943D01*
X28620362Y34426800D02*
X28525124Y34379181D01*
X28525124Y34379181D02*
X28334648Y34379181D01*
X28334648Y34379181D02*
X28239410Y34426800D01*
X28239410Y34426800D02*
X28191791Y34522039D01*
X28191791Y34522039D02*
X28191791Y34569658D01*
X28191791Y34569658D02*
X28239410Y34664896D01*
X28239410Y34664896D02*
X28334648Y34712515D01*
X28334648Y34712515D02*
X28477505Y34712515D01*
X28477505Y34712515D02*
X28572743Y34760134D01*
X28572743Y34760134D02*
X28620362Y34855372D01*
X28620362Y34855372D02*
X28620362Y34902991D01*
X28620362Y34902991D02*
X28572743Y34998229D01*
X28572743Y34998229D02*
X28477505Y35045848D01*
X28477505Y35045848D02*
X28334648Y35045848D01*
X28334648Y35045848D02*
X28239410Y34998229D01*
X27144171Y35379181D02*
X26572743Y35379181D01*
X26858457Y34379181D02*
X26858457Y35379181D01*
X25858457Y34426800D02*
X25953695Y34379181D01*
X25953695Y34379181D02*
X26144171Y34379181D01*
X26144171Y34379181D02*
X26239409Y34426800D01*
X26239409Y34426800D02*
X26287028Y34522039D01*
X26287028Y34522039D02*
X26287028Y34902991D01*
X26287028Y34902991D02*
X26239409Y34998229D01*
X26239409Y34998229D02*
X26144171Y35045848D01*
X26144171Y35045848D02*
X25953695Y35045848D01*
X25953695Y35045848D02*
X25858457Y34998229D01*
X25858457Y34998229D02*
X25810838Y34902991D01*
X25810838Y34902991D02*
X25810838Y34807753D01*
X25810838Y34807753D02*
X26287028Y34712515D01*
X25382266Y34379181D02*
X25382266Y35045848D01*
X25382266Y34855372D02*
X25334647Y34950610D01*
X25334647Y34950610D02*
X25287028Y34998229D01*
X25287028Y34998229D02*
X25191790Y35045848D01*
X25191790Y35045848D02*
X25096552Y35045848D01*
X24810837Y34426800D02*
X24715599Y34379181D01*
X24715599Y34379181D02*
X24525123Y34379181D01*
X24525123Y34379181D02*
X24429885Y34426800D01*
X24429885Y34426800D02*
X24382266Y34522039D01*
X24382266Y34522039D02*
X24382266Y34569658D01*
X24382266Y34569658D02*
X24429885Y34664896D01*
X24429885Y34664896D02*
X24525123Y34712515D01*
X24525123Y34712515D02*
X24667980Y34712515D01*
X24667980Y34712515D02*
X24763218Y34760134D01*
X24763218Y34760134D02*
X24810837Y34855372D01*
X24810837Y34855372D02*
X24810837Y34902991D01*
X24810837Y34902991D02*
X24763218Y34998229D01*
X24763218Y34998229D02*
X24667980Y35045848D01*
X24667980Y35045848D02*
X24525123Y35045848D01*
X24525123Y35045848D02*
X24429885Y34998229D01*
X24096551Y35045848D02*
X23715599Y35045848D01*
X23953694Y35379181D02*
X23953694Y34522039D01*
X23953694Y34522039D02*
X23906075Y34426800D01*
X23906075Y34426800D02*
X23810837Y34379181D01*
X23810837Y34379181D02*
X23715599Y34379181D01*
X23001313Y34426800D02*
X23096551Y34379181D01*
X23096551Y34379181D02*
X23287027Y34379181D01*
X23287027Y34379181D02*
X23382265Y34426800D01*
X23382265Y34426800D02*
X23429884Y34522039D01*
X23429884Y34522039D02*
X23429884Y34902991D01*
X23429884Y34902991D02*
X23382265Y34998229D01*
X23382265Y34998229D02*
X23287027Y35045848D01*
X23287027Y35045848D02*
X23096551Y35045848D01*
X23096551Y35045848D02*
X23001313Y34998229D01*
X23001313Y34998229D02*
X22953694Y34902991D01*
X22953694Y34902991D02*
X22953694Y34807753D01*
X22953694Y34807753D02*
X23429884Y34712515D01*
X22144170Y34426800D02*
X22239408Y34379181D01*
X22239408Y34379181D02*
X22429884Y34379181D01*
X22429884Y34379181D02*
X22525122Y34426800D01*
X22525122Y34426800D02*
X22572741Y34522039D01*
X22572741Y34522039D02*
X22572741Y34902991D01*
X22572741Y34902991D02*
X22525122Y34998229D01*
X22525122Y34998229D02*
X22429884Y35045848D01*
X22429884Y35045848D02*
X22239408Y35045848D01*
X22239408Y35045848D02*
X22144170Y34998229D01*
X22144170Y34998229D02*
X22096551Y34902991D01*
X22096551Y34902991D02*
X22096551Y34807753D01*
X22096551Y34807753D02*
X22572741Y34712515D01*
X21239408Y35045848D02*
X21239408Y34236324D01*
X21239408Y34236324D02*
X21287027Y34141086D01*
X21287027Y34141086D02*
X21334646Y34093467D01*
X21334646Y34093467D02*
X21429884Y34045848D01*
X21429884Y34045848D02*
X21572741Y34045848D01*
X21572741Y34045848D02*
X21667979Y34093467D01*
X21239408Y34426800D02*
X21334646Y34379181D01*
X21334646Y34379181D02*
X21525122Y34379181D01*
X21525122Y34379181D02*
X21620360Y34426800D01*
X21620360Y34426800D02*
X21667979Y34474420D01*
X21667979Y34474420D02*
X21715598Y34569658D01*
X21715598Y34569658D02*
X21715598Y34855372D01*
X21715598Y34855372D02*
X21667979Y34950610D01*
X21667979Y34950610D02*
X21620360Y34998229D01*
X21620360Y34998229D02*
X21525122Y35045848D01*
X21525122Y35045848D02*
X21334646Y35045848D01*
X21334646Y35045848D02*
X21239408Y34998229D01*
X37334649Y33435848D02*
X37334649Y32626324D01*
X37334649Y32626324D02*
X37382268Y32531086D01*
X37382268Y32531086D02*
X37429887Y32483467D01*
X37429887Y32483467D02*
X37525125Y32435848D01*
X37525125Y32435848D02*
X37667982Y32435848D01*
X37667982Y32435848D02*
X37763220Y32483467D01*
X37334649Y32816800D02*
X37429887Y32769181D01*
X37429887Y32769181D02*
X37620363Y32769181D01*
X37620363Y32769181D02*
X37715601Y32816800D01*
X37715601Y32816800D02*
X37763220Y32864420D01*
X37763220Y32864420D02*
X37810839Y32959658D01*
X37810839Y32959658D02*
X37810839Y33245372D01*
X37810839Y33245372D02*
X37763220Y33340610D01*
X37763220Y33340610D02*
X37715601Y33388229D01*
X37715601Y33388229D02*
X37620363Y33435848D01*
X37620363Y33435848D02*
X37429887Y33435848D01*
X37429887Y33435848D02*
X37334649Y33388229D01*
X36858458Y32769181D02*
X36858458Y33435848D01*
X36858458Y33769181D02*
X36906077Y33721562D01*
X36906077Y33721562D02*
X36858458Y33673943D01*
X36858458Y33673943D02*
X36810839Y33721562D01*
X36810839Y33721562D02*
X36858458Y33769181D01*
X36858458Y33769181D02*
X36858458Y33673943D01*
X36525125Y33435848D02*
X36144173Y33435848D01*
X36382268Y33769181D02*
X36382268Y32912039D01*
X36382268Y32912039D02*
X36334649Y32816800D01*
X36334649Y32816800D02*
X36239411Y32769181D01*
X36239411Y32769181D02*
X36144173Y32769181D01*
X35810839Y32769181D02*
X35810839Y33769181D01*
X35382268Y32769181D02*
X35382268Y33292991D01*
X35382268Y33292991D02*
X35429887Y33388229D01*
X35429887Y33388229D02*
X35525125Y33435848D01*
X35525125Y33435848D02*
X35667982Y33435848D01*
X35667982Y33435848D02*
X35763220Y33388229D01*
X35763220Y33388229D02*
X35810839Y33340610D01*
X34477506Y33435848D02*
X34477506Y32769181D01*
X34906077Y33435848D02*
X34906077Y32912039D01*
X34906077Y32912039D02*
X34858458Y32816800D01*
X34858458Y32816800D02*
X34763220Y32769181D01*
X34763220Y32769181D02*
X34620363Y32769181D01*
X34620363Y32769181D02*
X34525125Y32816800D01*
X34525125Y32816800D02*
X34477506Y32864420D01*
X34001315Y32769181D02*
X34001315Y33769181D01*
X34001315Y33388229D02*
X33906077Y33435848D01*
X33906077Y33435848D02*
X33715601Y33435848D01*
X33715601Y33435848D02*
X33620363Y33388229D01*
X33620363Y33388229D02*
X33572744Y33340610D01*
X33572744Y33340610D02*
X33525125Y33245372D01*
X33525125Y33245372D02*
X33525125Y32959658D01*
X33525125Y32959658D02*
X33572744Y32864420D01*
X33572744Y32864420D02*
X33620363Y32816800D01*
X33620363Y32816800D02*
X33715601Y32769181D01*
X33715601Y32769181D02*
X33906077Y32769181D01*
X33906077Y32769181D02*
X34001315Y32816800D01*
X33096553Y32864420D02*
X33048934Y32816800D01*
X33048934Y32816800D02*
X33096553Y32769181D01*
X33096553Y32769181D02*
X33144172Y32816800D01*
X33144172Y32816800D02*
X33096553Y32864420D01*
X33096553Y32864420D02*
X33096553Y32769181D01*
X32191792Y32816800D02*
X32287030Y32769181D01*
X32287030Y32769181D02*
X32477506Y32769181D01*
X32477506Y32769181D02*
X32572744Y32816800D01*
X32572744Y32816800D02*
X32620363Y32864420D01*
X32620363Y32864420D02*
X32667982Y32959658D01*
X32667982Y32959658D02*
X32667982Y33245372D01*
X32667982Y33245372D02*
X32620363Y33340610D01*
X32620363Y33340610D02*
X32572744Y33388229D01*
X32572744Y33388229D02*
X32477506Y33435848D01*
X32477506Y33435848D02*
X32287030Y33435848D01*
X32287030Y33435848D02*
X32191792Y33388229D01*
X31620363Y32769181D02*
X31715601Y32816800D01*
X31715601Y32816800D02*
X31763220Y32864420D01*
X31763220Y32864420D02*
X31810839Y32959658D01*
X31810839Y32959658D02*
X31810839Y33245372D01*
X31810839Y33245372D02*
X31763220Y33340610D01*
X31763220Y33340610D02*
X31715601Y33388229D01*
X31715601Y33388229D02*
X31620363Y33435848D01*
X31620363Y33435848D02*
X31477506Y33435848D01*
X31477506Y33435848D02*
X31382268Y33388229D01*
X31382268Y33388229D02*
X31334649Y33340610D01*
X31334649Y33340610D02*
X31287030Y33245372D01*
X31287030Y33245372D02*
X31287030Y32959658D01*
X31287030Y32959658D02*
X31334649Y32864420D01*
X31334649Y32864420D02*
X31382268Y32816800D01*
X31382268Y32816800D02*
X31477506Y32769181D01*
X31477506Y32769181D02*
X31620363Y32769181D01*
X30858458Y32769181D02*
X30858458Y33435848D01*
X30858458Y33340610D02*
X30810839Y33388229D01*
X30810839Y33388229D02*
X30715601Y33435848D01*
X30715601Y33435848D02*
X30572744Y33435848D01*
X30572744Y33435848D02*
X30477506Y33388229D01*
X30477506Y33388229D02*
X30429887Y33292991D01*
X30429887Y33292991D02*
X30429887Y32769181D01*
X30429887Y33292991D02*
X30382268Y33388229D01*
X30382268Y33388229D02*
X30287030Y33435848D01*
X30287030Y33435848D02*
X30144173Y33435848D01*
X30144173Y33435848D02*
X30048934Y33388229D01*
X30048934Y33388229D02*
X30001315Y33292991D01*
X30001315Y33292991D02*
X30001315Y32769181D01*
X28810840Y33816800D02*
X29667982Y32531086D01*
X28048935Y32769181D02*
X28048935Y33769181D01*
X28048935Y32816800D02*
X28144173Y32769181D01*
X28144173Y32769181D02*
X28334649Y32769181D01*
X28334649Y32769181D02*
X28429887Y32816800D01*
X28429887Y32816800D02*
X28477506Y32864420D01*
X28477506Y32864420D02*
X28525125Y32959658D01*
X28525125Y32959658D02*
X28525125Y33245372D01*
X28525125Y33245372D02*
X28477506Y33340610D01*
X28477506Y33340610D02*
X28429887Y33388229D01*
X28429887Y33388229D02*
X28334649Y33435848D01*
X28334649Y33435848D02*
X28144173Y33435848D01*
X28144173Y33435848D02*
X28048935Y33388229D01*
X27572744Y33435848D02*
X27572744Y32578705D01*
X27572744Y32578705D02*
X27620363Y32483467D01*
X27620363Y32483467D02*
X27715601Y32435848D01*
X27715601Y32435848D02*
X27763220Y32435848D01*
X27572744Y33769181D02*
X27620363Y33721562D01*
X27620363Y33721562D02*
X27572744Y33673943D01*
X27572744Y33673943D02*
X27525125Y33721562D01*
X27525125Y33721562D02*
X27572744Y33769181D01*
X27572744Y33769181D02*
X27572744Y33673943D01*
X27239411Y33435848D02*
X26858459Y33435848D01*
X27096554Y33769181D02*
X27096554Y32912039D01*
X27096554Y32912039D02*
X27048935Y32816800D01*
X27048935Y32816800D02*
X26953697Y32769181D01*
X26953697Y32769181D02*
X26858459Y32769181D01*
X26144173Y32816800D02*
X26239411Y32769181D01*
X26239411Y32769181D02*
X26429887Y32769181D01*
X26429887Y32769181D02*
X26525125Y32816800D01*
X26525125Y32816800D02*
X26572744Y32912039D01*
X26572744Y32912039D02*
X26572744Y33292991D01*
X26572744Y33292991D02*
X26525125Y33388229D01*
X26525125Y33388229D02*
X26429887Y33435848D01*
X26429887Y33435848D02*
X26239411Y33435848D01*
X26239411Y33435848D02*
X26144173Y33388229D01*
X26144173Y33388229D02*
X26096554Y33292991D01*
X26096554Y33292991D02*
X26096554Y33197753D01*
X26096554Y33197753D02*
X26572744Y33102515D01*
X25667982Y32769181D02*
X25667982Y33435848D01*
X25667982Y33245372D02*
X25620363Y33340610D01*
X25620363Y33340610D02*
X25572744Y33388229D01*
X25572744Y33388229D02*
X25477506Y33435848D01*
X25477506Y33435848D02*
X25382268Y33435848D01*
X25096553Y32816800D02*
X25001315Y32769181D01*
X25001315Y32769181D02*
X24810839Y32769181D01*
X24810839Y32769181D02*
X24715601Y32816800D01*
X24715601Y32816800D02*
X24667982Y32912039D01*
X24667982Y32912039D02*
X24667982Y32959658D01*
X24667982Y32959658D02*
X24715601Y33054896D01*
X24715601Y33054896D02*
X24810839Y33102515D01*
X24810839Y33102515D02*
X24953696Y33102515D01*
X24953696Y33102515D02*
X25048934Y33150134D01*
X25048934Y33150134D02*
X25096553Y33245372D01*
X25096553Y33245372D02*
X25096553Y33292991D01*
X25096553Y33292991D02*
X25048934Y33388229D01*
X25048934Y33388229D02*
X24953696Y33435848D01*
X24953696Y33435848D02*
X24810839Y33435848D01*
X24810839Y33435848D02*
X24715601Y33388229D01*
X24382267Y33435848D02*
X24001315Y33435848D01*
X24239410Y33769181D02*
X24239410Y32912039D01*
X24239410Y32912039D02*
X24191791Y32816800D01*
X24191791Y32816800D02*
X24096553Y32769181D01*
X24096553Y32769181D02*
X24001315Y32769181D01*
X23287029Y32816800D02*
X23382267Y32769181D01*
X23382267Y32769181D02*
X23572743Y32769181D01*
X23572743Y32769181D02*
X23667981Y32816800D01*
X23667981Y32816800D02*
X23715600Y32912039D01*
X23715600Y32912039D02*
X23715600Y33292991D01*
X23715600Y33292991D02*
X23667981Y33388229D01*
X23667981Y33388229D02*
X23572743Y33435848D01*
X23572743Y33435848D02*
X23382267Y33435848D01*
X23382267Y33435848D02*
X23287029Y33388229D01*
X23287029Y33388229D02*
X23239410Y33292991D01*
X23239410Y33292991D02*
X23239410Y33197753D01*
X23239410Y33197753D02*
X23715600Y33102515D01*
X22429886Y32816800D02*
X22525124Y32769181D01*
X22525124Y32769181D02*
X22715600Y32769181D01*
X22715600Y32769181D02*
X22810838Y32816800D01*
X22810838Y32816800D02*
X22858457Y32912039D01*
X22858457Y32912039D02*
X22858457Y33292991D01*
X22858457Y33292991D02*
X22810838Y33388229D01*
X22810838Y33388229D02*
X22715600Y33435848D01*
X22715600Y33435848D02*
X22525124Y33435848D01*
X22525124Y33435848D02*
X22429886Y33388229D01*
X22429886Y33388229D02*
X22382267Y33292991D01*
X22382267Y33292991D02*
X22382267Y33197753D01*
X22382267Y33197753D02*
X22858457Y33102515D01*
X21525124Y33435848D02*
X21525124Y32626324D01*
X21525124Y32626324D02*
X21572743Y32531086D01*
X21572743Y32531086D02*
X21620362Y32483467D01*
X21620362Y32483467D02*
X21715600Y32435848D01*
X21715600Y32435848D02*
X21858457Y32435848D01*
X21858457Y32435848D02*
X21953695Y32483467D01*
X21525124Y32816800D02*
X21620362Y32769181D01*
X21620362Y32769181D02*
X21810838Y32769181D01*
X21810838Y32769181D02*
X21906076Y32816800D01*
X21906076Y32816800D02*
X21953695Y32864420D01*
X21953695Y32864420D02*
X22001314Y32959658D01*
X22001314Y32959658D02*
X22001314Y33245372D01*
X22001314Y33245372D02*
X21953695Y33340610D01*
X21953695Y33340610D02*
X21906076Y33388229D01*
X21906076Y33388229D02*
X21810838Y33435848D01*
X21810838Y33435848D02*
X21620362Y33435848D01*
X21620362Y33435848D02*
X21525124Y33388229D01*
X20620362Y32816800D02*
X20715600Y32769181D01*
X20715600Y32769181D02*
X20906076Y32769181D01*
X20906076Y32769181D02*
X21001314Y32816800D01*
X21001314Y32816800D02*
X21048933Y32864420D01*
X21048933Y32864420D02*
X21096552Y32959658D01*
X21096552Y32959658D02*
X21096552Y33245372D01*
X21096552Y33245372D02*
X21048933Y33340610D01*
X21048933Y33340610D02*
X21001314Y33388229D01*
X21001314Y33388229D02*
X20906076Y33435848D01*
X20906076Y33435848D02*
X20715600Y33435848D01*
X20715600Y33435848D02*
X20620362Y33388229D01*
X19477505Y33816800D02*
X20334647Y32531086D01*
X18953695Y33769181D02*
X18763219Y33769181D01*
X18763219Y33769181D02*
X18667981Y33721562D01*
X18667981Y33721562D02*
X18572743Y33626324D01*
X18572743Y33626324D02*
X18525124Y33435848D01*
X18525124Y33435848D02*
X18525124Y33102515D01*
X18525124Y33102515D02*
X18572743Y32912039D01*
X18572743Y32912039D02*
X18667981Y32816800D01*
X18667981Y32816800D02*
X18763219Y32769181D01*
X18763219Y32769181D02*
X18953695Y32769181D01*
X18953695Y32769181D02*
X19048933Y32816800D01*
X19048933Y32816800D02*
X19144171Y32912039D01*
X19144171Y32912039D02*
X19191790Y33102515D01*
X19191790Y33102515D02*
X19191790Y33435848D01*
X19191790Y33435848D02*
X19144171Y33626324D01*
X19144171Y33626324D02*
X19048933Y33721562D01*
X19048933Y33721562D02*
X18953695Y33769181D01*
X18096552Y33435848D02*
X18096552Y32435848D01*
X18096552Y33388229D02*
X18001314Y33435848D01*
X18001314Y33435848D02*
X17810838Y33435848D01*
X17810838Y33435848D02*
X17715600Y33388229D01*
X17715600Y33388229D02*
X17667981Y33340610D01*
X17667981Y33340610D02*
X17620362Y33245372D01*
X17620362Y33245372D02*
X17620362Y32959658D01*
X17620362Y32959658D02*
X17667981Y32864420D01*
X17667981Y32864420D02*
X17715600Y32816800D01*
X17715600Y32816800D02*
X17810838Y32769181D01*
X17810838Y32769181D02*
X18001314Y32769181D01*
X18001314Y32769181D02*
X18096552Y32816800D01*
X16810838Y32816800D02*
X16906076Y32769181D01*
X16906076Y32769181D02*
X17096552Y32769181D01*
X17096552Y32769181D02*
X17191790Y32816800D01*
X17191790Y32816800D02*
X17239409Y32912039D01*
X17239409Y32912039D02*
X17239409Y33292991D01*
X17239409Y33292991D02*
X17191790Y33388229D01*
X17191790Y33388229D02*
X17096552Y33435848D01*
X17096552Y33435848D02*
X16906076Y33435848D01*
X16906076Y33435848D02*
X16810838Y33388229D01*
X16810838Y33388229D02*
X16763219Y33292991D01*
X16763219Y33292991D02*
X16763219Y33197753D01*
X16763219Y33197753D02*
X17239409Y33102515D01*
X16334647Y33435848D02*
X16334647Y32769181D01*
X16334647Y33340610D02*
X16287028Y33388229D01*
X16287028Y33388229D02*
X16191790Y33435848D01*
X16191790Y33435848D02*
X16048933Y33435848D01*
X16048933Y33435848D02*
X15953695Y33388229D01*
X15953695Y33388229D02*
X15906076Y33292991D01*
X15906076Y33292991D02*
X15906076Y32769181D01*
X15096552Y33292991D02*
X15429885Y33292991D01*
X15429885Y32769181D02*
X15429885Y33769181D01*
X15429885Y33769181D02*
X14953695Y33769181D01*
X14429885Y32769181D02*
X14525123Y32816800D01*
X14525123Y32816800D02*
X14572742Y32912039D01*
X14572742Y32912039D02*
X14572742Y33769181D01*
X13906075Y32769181D02*
X14001313Y32816800D01*
X14001313Y32816800D02*
X14048932Y32864420D01*
X14048932Y32864420D02*
X14096551Y32959658D01*
X14096551Y32959658D02*
X14096551Y33245372D01*
X14096551Y33245372D02*
X14048932Y33340610D01*
X14048932Y33340610D02*
X14001313Y33388229D01*
X14001313Y33388229D02*
X13906075Y33435848D01*
X13906075Y33435848D02*
X13763218Y33435848D01*
X13763218Y33435848D02*
X13667980Y33388229D01*
X13667980Y33388229D02*
X13620361Y33340610D01*
X13620361Y33340610D02*
X13572742Y33245372D01*
X13572742Y33245372D02*
X13572742Y32959658D01*
X13572742Y32959658D02*
X13620361Y32864420D01*
X13620361Y32864420D02*
X13667980Y32816800D01*
X13667980Y32816800D02*
X13763218Y32769181D01*
X13763218Y32769181D02*
X13906075Y32769181D01*
X13144170Y33435848D02*
X13144170Y32435848D01*
X13144170Y33388229D02*
X13048932Y33435848D01*
X13048932Y33435848D02*
X12858456Y33435848D01*
X12858456Y33435848D02*
X12763218Y33388229D01*
X12763218Y33388229D02*
X12715599Y33340610D01*
X12715599Y33340610D02*
X12667980Y33245372D01*
X12667980Y33245372D02*
X12667980Y32959658D01*
X12667980Y32959658D02*
X12715599Y32864420D01*
X12715599Y32864420D02*
X12763218Y32816800D01*
X12763218Y32816800D02*
X12858456Y32769181D01*
X12858456Y32769181D02*
X13048932Y32769181D01*
X13048932Y32769181D02*
X13144170Y32816800D01*
X12287027Y32816800D02*
X12191789Y32769181D01*
X12191789Y32769181D02*
X12001313Y32769181D01*
X12001313Y32769181D02*
X11906075Y32816800D01*
X11906075Y32816800D02*
X11858456Y32912039D01*
X11858456Y32912039D02*
X11858456Y32959658D01*
X11858456Y32959658D02*
X11906075Y33054896D01*
X11906075Y33054896D02*
X12001313Y33102515D01*
X12001313Y33102515D02*
X12144170Y33102515D01*
X12144170Y33102515D02*
X12239408Y33150134D01*
X12239408Y33150134D02*
X12287027Y33245372D01*
X12287027Y33245372D02*
X12287027Y33292991D01*
X12287027Y33292991D02*
X12239408Y33388229D01*
X12239408Y33388229D02*
X12144170Y33435848D01*
X12144170Y33435848D02*
X12001313Y33435848D01*
X12001313Y33435848D02*
X11906075Y33388229D01*
X11429884Y33150134D02*
X10667980Y33150134D01*
X9858456Y33292991D02*
X10191789Y33292991D01*
X10191789Y32769181D02*
X10191789Y33769181D01*
X10191789Y33769181D02*
X9715599Y33769181D01*
X8953694Y32816800D02*
X9048932Y32769181D01*
X9048932Y32769181D02*
X9239408Y32769181D01*
X9239408Y32769181D02*
X9334646Y32816800D01*
X9334646Y32816800D02*
X9382265Y32912039D01*
X9382265Y32912039D02*
X9382265Y33292991D01*
X9382265Y33292991D02*
X9334646Y33388229D01*
X9334646Y33388229D02*
X9239408Y33435848D01*
X9239408Y33435848D02*
X9048932Y33435848D01*
X9048932Y33435848D02*
X8953694Y33388229D01*
X8953694Y33388229D02*
X8906075Y33292991D01*
X8906075Y33292991D02*
X8906075Y33197753D01*
X8906075Y33197753D02*
X9382265Y33102515D01*
X8477503Y32769181D02*
X8477503Y33435848D01*
X8477503Y33245372D02*
X8429884Y33340610D01*
X8429884Y33340610D02*
X8382265Y33388229D01*
X8382265Y33388229D02*
X8287027Y33435848D01*
X8287027Y33435848D02*
X8191789Y33435848D01*
X7429884Y33435848D02*
X7429884Y32626324D01*
X7429884Y32626324D02*
X7477503Y32531086D01*
X7477503Y32531086D02*
X7525122Y32483467D01*
X7525122Y32483467D02*
X7620360Y32435848D01*
X7620360Y32435848D02*
X7763217Y32435848D01*
X7763217Y32435848D02*
X7858455Y32483467D01*
X7429884Y32816800D02*
X7525122Y32769181D01*
X7525122Y32769181D02*
X7715598Y32769181D01*
X7715598Y32769181D02*
X7810836Y32816800D01*
X7810836Y32816800D02*
X7858455Y32864420D01*
X7858455Y32864420D02*
X7906074Y32959658D01*
X7906074Y32959658D02*
X7906074Y33245372D01*
X7906074Y33245372D02*
X7858455Y33340610D01*
X7858455Y33340610D02*
X7810836Y33388229D01*
X7810836Y33388229D02*
X7715598Y33435848D01*
X7715598Y33435848D02*
X7525122Y33435848D01*
X7525122Y33435848D02*
X7429884Y33388229D01*
X6525122Y33435848D02*
X6525122Y32769181D01*
X6953693Y33435848D02*
X6953693Y32912039D01*
X6953693Y32912039D02*
X6906074Y32816800D01*
X6906074Y32816800D02*
X6810836Y32769181D01*
X6810836Y32769181D02*
X6667979Y32769181D01*
X6667979Y32769181D02*
X6572741Y32816800D01*
X6572741Y32816800D02*
X6525122Y32864420D01*
X6096550Y32816800D02*
X6001312Y32769181D01*
X6001312Y32769181D02*
X5810836Y32769181D01*
X5810836Y32769181D02*
X5715598Y32816800D01*
X5715598Y32816800D02*
X5667979Y32912039D01*
X5667979Y32912039D02*
X5667979Y32959658D01*
X5667979Y32959658D02*
X5715598Y33054896D01*
X5715598Y33054896D02*
X5810836Y33102515D01*
X5810836Y33102515D02*
X5953693Y33102515D01*
X5953693Y33102515D02*
X6048931Y33150134D01*
X6048931Y33150134D02*
X6096550Y33245372D01*
X6096550Y33245372D02*
X6096550Y33292991D01*
X6096550Y33292991D02*
X6048931Y33388229D01*
X6048931Y33388229D02*
X5953693Y33435848D01*
X5953693Y33435848D02*
X5810836Y33435848D01*
X5810836Y33435848D02*
X5715598Y33388229D01*
X5096550Y32769181D02*
X5191788Y32816800D01*
X5191788Y32816800D02*
X5239407Y32864420D01*
X5239407Y32864420D02*
X5287026Y32959658D01*
X5287026Y32959658D02*
X5287026Y33245372D01*
X5287026Y33245372D02*
X5239407Y33340610D01*
X5239407Y33340610D02*
X5191788Y33388229D01*
X5191788Y33388229D02*
X5096550Y33435848D01*
X5096550Y33435848D02*
X4953693Y33435848D01*
X4953693Y33435848D02*
X4858455Y33388229D01*
X4858455Y33388229D02*
X4810836Y33340610D01*
X4810836Y33340610D02*
X4763217Y33245372D01*
X4763217Y33245372D02*
X4763217Y32959658D01*
X4763217Y32959658D02*
X4810836Y32864420D01*
X4810836Y32864420D02*
X4858455Y32816800D01*
X4858455Y32816800D02*
X4953693Y32769181D01*
X4953693Y32769181D02*
X5096550Y32769181D01*
X4334645Y33435848D02*
X4334645Y32769181D01*
X4334645Y33340610D02*
X4287026Y33388229D01*
X4287026Y33388229D02*
X4191788Y33435848D01*
X4191788Y33435848D02*
X4048931Y33435848D01*
X4048931Y33435848D02*
X3953693Y33388229D01*
X3953693Y33388229D02*
X3906074Y33292991D01*
X3906074Y33292991D02*
X3906074Y32769181D01*
X1359819Y31321334D02*
X2074104Y31321334D01*
X2074104Y31321334D02*
X2216961Y31368953D01*
X2216961Y31368953D02*
X2312200Y31464191D01*
X2312200Y31464191D02*
X2359819Y31607048D01*
X2359819Y31607048D02*
X2359819Y31702286D01*
X2359819Y30321334D02*
X2359819Y30892762D01*
X2359819Y30607048D02*
X1359819Y30607048D01*
X1359819Y30607048D02*
X1502676Y30702286D01*
X1502676Y30702286D02*
X1597914Y30797524D01*
X1597914Y30797524D02*
X1645533Y30892762D01*
D11*
X64195000Y29905000D02*
X64195000Y24705000D01*
X575000Y29905000D02*
X64195000Y29905000D01*
X575000Y29905000D02*
X575000Y27305000D01*
X3175000Y27305000D02*
X3175000Y24705000D01*
X575000Y27305000D02*
X3175000Y27305000D01*
X575000Y26035000D02*
X575000Y24705000D01*
X3175000Y24705000D02*
X64195000Y24705000D01*
X575000Y24705000D02*
X1905000Y24705000D01*
M02*
