G04 #@! TF.GenerationSoftware,KiCad,Pcbnew,7.0.10*
G04 #@! TF.CreationDate,2024-01-22T14:27:09-06:00*
G04 #@! TF.ProjectId,OpenFlops,4f70656e-466c-46f7-9073-2e6b69636164,1.0*
G04 #@! TF.SameCoordinates,PX72b28c8PY7654b98*
G04 #@! TF.FileFunction,Copper,L2,Bot*
G04 #@! TF.FilePolarity,Positive*
%FSLAX46Y46*%
G04 Gerber Fmt 4.6, Leading zero omitted, Abs format (unit mm)*
G04 Created by KiCad (PCBNEW 7.0.10) date 2024-01-22 14:27:09*
%MOMM*%
%LPD*%
G01*
G04 APERTURE LIST*
G04 #@! TA.AperFunction,ComponentPad*
%ADD10C,1.950000*%
G04 #@! TD*
G04 #@! TA.AperFunction,ComponentPad*
%ADD11C,1.508000*%
G04 #@! TD*
G04 #@! TA.AperFunction,ComponentPad*
%ADD12R,1.700000X1.700000*%
G04 #@! TD*
G04 #@! TA.AperFunction,ComponentPad*
%ADD13O,1.700000X1.700000*%
G04 #@! TD*
G04 #@! TA.AperFunction,ComponentPad*
%ADD14R,1.800000X1.800000*%
G04 #@! TD*
G04 #@! TA.AperFunction,ComponentPad*
%ADD15C,1.800000*%
G04 #@! TD*
G04 #@! TA.AperFunction,ComponentPad*
%ADD16C,1.524000*%
G04 #@! TD*
G04 #@! TA.AperFunction,ComponentPad*
%ADD17R,1.350000X1.350000*%
G04 #@! TD*
G04 #@! TA.AperFunction,ComponentPad*
%ADD18O,1.350000X1.350000*%
G04 #@! TD*
G04 #@! TA.AperFunction,ViaPad*
%ADD19C,0.800000*%
G04 #@! TD*
G04 #@! TA.AperFunction,ViaPad*
%ADD20C,0.600000*%
G04 #@! TD*
G04 #@! TA.AperFunction,Conductor*
%ADD21C,0.250000*%
G04 #@! TD*
G04 #@! TA.AperFunction,Conductor*
%ADD22C,0.500000*%
G04 #@! TD*
G04 #@! TA.AperFunction,Conductor*
%ADD23C,0.300000*%
G04 #@! TD*
G04 #@! TA.AperFunction,Conductor*
%ADD24C,0.200000*%
G04 #@! TD*
G04 #@! TA.AperFunction,Conductor*
%ADD25C,0.127000*%
G04 #@! TD*
G04 APERTURE END LIST*
D10*
X59603000Y12756000D03*
X59603000Y19756000D03*
D11*
X62103000Y13981000D03*
X62103000Y18531000D03*
D12*
X21463000Y12192000D03*
D13*
X18923000Y12192000D03*
X16383000Y12192000D03*
X13843000Y12192000D03*
D14*
X41783000Y40767000D03*
D15*
X44323000Y40767000D03*
D10*
X59698000Y2469000D03*
X59698000Y9469000D03*
D11*
X62198000Y3694000D03*
X62198000Y8244000D03*
D16*
X1955000Y34417000D03*
X1955000Y36957000D03*
X1955000Y39497000D03*
X1955000Y42037000D03*
D14*
X41778000Y34163000D03*
D15*
X44318000Y34163000D03*
D17*
X9144000Y9398000D03*
D18*
X9144000Y7398000D03*
X7144000Y9398000D03*
X7144000Y7398000D03*
X5144000Y9398000D03*
X5144000Y7398000D03*
D12*
X1905000Y26035000D03*
D13*
X1905000Y28575000D03*
X4445000Y26035000D03*
X4445000Y28575000D03*
X6985000Y26035000D03*
X6985000Y28575000D03*
X9525000Y26035000D03*
X9525000Y28575000D03*
X12065000Y26035000D03*
X12065000Y28575000D03*
X14605000Y26035000D03*
X14605000Y28575000D03*
X17145000Y26035000D03*
X17145000Y28575000D03*
X19685000Y26035000D03*
X19685000Y28575000D03*
X22225000Y26035000D03*
X22225000Y28575000D03*
X24765000Y26035000D03*
X24765000Y28575000D03*
X27305000Y26035000D03*
X27305000Y28575000D03*
X29845000Y26035000D03*
X29845000Y28575000D03*
X32385000Y26035000D03*
X32385000Y28575000D03*
X34925000Y26035000D03*
X34925000Y28575000D03*
X37465000Y26035000D03*
X37465000Y28575000D03*
X40005000Y26035000D03*
X40005000Y28575000D03*
X42545000Y26035000D03*
X42545000Y28575000D03*
X45085000Y26035000D03*
X45085000Y28575000D03*
X47625000Y26035000D03*
X47625000Y28575000D03*
X50165000Y26035000D03*
X50165000Y28575000D03*
X52705000Y26035000D03*
X52705000Y28575000D03*
X55245000Y26035000D03*
X55245000Y28575000D03*
X57785000Y26035000D03*
X57785000Y28575000D03*
X60325000Y26035000D03*
X60325000Y28575000D03*
X62865000Y26035000D03*
X62865000Y28575000D03*
D19*
X4749800Y12827000D03*
D20*
X44931000Y7479000D03*
D19*
X31572200Y7366000D03*
X4648200Y22479000D03*
D20*
X40513000Y21590000D03*
D19*
X4572000Y18923000D03*
D20*
X33274000Y19812000D03*
X37631000Y9679000D03*
X40386000Y3403600D03*
X47931000Y10979000D03*
D19*
X54406800Y12014200D03*
D20*
X43942000Y30099000D03*
D19*
X4572000Y20320000D03*
X27305000Y18034000D03*
D20*
X41031000Y15113000D03*
X44069000Y4318000D03*
X37631000Y7279000D03*
D19*
X2413000Y14859000D03*
X55270400Y2413000D03*
X55880000Y18161000D03*
X32918400Y38227000D03*
X6477000Y16256000D03*
X43180000Y11506200D03*
D20*
X33147000Y17145000D03*
D19*
X62357000Y11557000D03*
X6477000Y14859000D03*
D20*
X28956000Y20574000D03*
X47931000Y7679000D03*
D19*
X29743400Y12065000D03*
X53721000Y16967200D03*
X25298400Y11633200D03*
X62103000Y15875000D03*
D20*
X42831000Y15279000D03*
D19*
X2413000Y20574000D03*
X6604000Y20320000D03*
X6604000Y18923000D03*
X58470800Y33121600D03*
D20*
X44931000Y10979000D03*
D19*
X4445000Y14986000D03*
D20*
X33147000Y18415000D03*
D19*
X4445000Y16383000D03*
X18415000Y30988000D03*
X40031000Y12179000D03*
X15875000Y30988000D03*
X56261000Y33096200D03*
X18331500Y22225000D03*
D20*
X29131000Y10679000D03*
D19*
X15875000Y22225000D03*
X35687000Y38227000D03*
X13335000Y22225000D03*
X13335000Y30988000D03*
X40031000Y6479000D03*
X39274904Y3129500D03*
D20*
X29131000Y4699000D03*
X48895000Y24384000D03*
X25146000Y39497000D03*
X25146000Y30353000D03*
X49276000Y5479000D03*
X26035000Y42037000D03*
X50038000Y4953000D03*
X50911790Y24522918D03*
X26035000Y30904500D03*
X24765000Y22483000D03*
X24765000Y15875000D03*
X32385000Y5552500D03*
X31115000Y22606000D03*
X33655000Y22517500D03*
X33990000Y4445000D03*
X22098000Y22506500D03*
X22098000Y16510000D03*
X48133000Y6350000D03*
X43942000Y6350000D03*
X48133000Y4318000D03*
X42545000Y22456500D03*
X46482000Y5461000D03*
X45085000Y22456500D03*
X47625000Y22456500D03*
X46990000Y18505000D03*
X51689000Y18542000D03*
X51831000Y9017000D03*
X50165000Y22456500D03*
X50165000Y17907000D03*
X45085000Y13081000D03*
X44577000Y17907000D03*
X37719000Y20447000D03*
X37719000Y17145000D03*
X52705000Y22456500D03*
X55245000Y22456500D03*
X38354000Y14605000D03*
X38354000Y19685000D03*
X39370000Y14605000D03*
X57785000Y22456500D03*
X39370000Y19561500D03*
X27305000Y22506500D03*
X45931000Y13080500D03*
X38354000Y2504500D03*
X42672000Y17907000D03*
X42672000Y16364500D03*
X45618400Y16364500D03*
X45618400Y18465800D03*
X48133000Y15748000D03*
X48133000Y19031500D03*
X34544000Y5188500D03*
X34544000Y13208000D03*
X37465000Y2413000D03*
X49022000Y4318000D03*
X52975000Y33020000D03*
X39116000Y35814000D03*
X59690000Y23495000D03*
X58131000Y4952500D03*
X60931000Y6541500D03*
X61214000Y23622000D03*
X61214000Y5479000D03*
X62230000Y23622000D03*
X59575000Y33020000D03*
X62611000Y6096000D03*
X60675000Y33020000D03*
X39370000Y40640000D03*
X18923000Y3556000D03*
X35941000Y2540000D03*
X50651023Y13102977D03*
X16383000Y3556000D03*
X51304500Y11479000D03*
X35179000Y2013500D03*
D21*
X39878000Y36576000D02*
X39116000Y35814000D01*
X49403000Y36576000D02*
X39878000Y36576000D01*
X52959000Y33020000D02*
X49403000Y36576000D01*
X52975000Y33020000D02*
X52959000Y33020000D01*
X40513000Y39497000D02*
X39370000Y40640000D01*
X59690000Y39497000D02*
X40513000Y39497000D01*
X60675000Y38512000D02*
X59690000Y39497000D01*
X60675000Y33020000D02*
X60675000Y38512000D01*
X63831000Y7316000D02*
X62611000Y6096000D01*
X63831000Y24810500D02*
X63831000Y7316000D01*
X64090000Y25069500D02*
X63831000Y24810500D01*
X64090000Y29382000D02*
X64090000Y25069500D01*
X61214000Y32258000D02*
X64090000Y29382000D01*
X60337000Y32258000D02*
X61214000Y32258000D01*
X59575000Y33020000D02*
X60337000Y32258000D01*
D22*
X40031000Y6479000D02*
X40031000Y4348500D01*
X56261000Y35052000D02*
X56261000Y33096200D01*
D23*
X15855000Y30968000D02*
X15875000Y30988000D01*
D22*
X40031000Y6479000D02*
X40031000Y12179000D01*
D23*
X15875000Y22225000D02*
X15855000Y22245000D01*
D22*
X53086000Y38227000D02*
X56261000Y35052000D01*
D23*
X15855000Y22245000D02*
X15855000Y30968000D01*
D22*
X39274904Y3592404D02*
X39274904Y3129500D01*
D23*
X13335000Y22225000D02*
X13335000Y30988000D01*
D22*
X35687000Y38227000D02*
X53086000Y38227000D01*
D24*
X29131000Y10679000D02*
X29131000Y4699000D01*
D23*
X18415000Y22308500D02*
X18415000Y31031500D01*
D22*
X40031000Y4348500D02*
X39274904Y3592404D01*
D23*
X18331500Y22225000D02*
X18415000Y22308500D01*
D24*
X48895000Y19177000D02*
X48895000Y24384000D01*
D21*
X25146000Y30353000D02*
X25146000Y39497000D01*
D24*
X49276000Y5479000D02*
X49276000Y18796000D01*
X49276000Y18796000D02*
X48895000Y19177000D01*
X50911790Y17510790D02*
X50911790Y24522918D01*
X49892000Y5099000D02*
X49892000Y16491000D01*
D21*
X26035000Y30904500D02*
X26035000Y42037000D01*
D24*
X49892000Y16491000D02*
X49911000Y16510000D01*
X49911000Y16510000D02*
X50911790Y17510790D01*
X50038000Y4953000D02*
X49892000Y5099000D01*
D23*
X23495000Y24765000D02*
X23495000Y27305000D01*
X24765000Y15875000D02*
X24765000Y22483000D01*
X24765000Y22483000D02*
X24765000Y23495000D01*
X23495000Y27305000D02*
X24765000Y28575000D01*
X24765000Y23495000D02*
X23495000Y24765000D01*
D24*
X32385000Y5552500D02*
X32385000Y22098000D01*
D21*
X40640000Y41910000D02*
X41021000Y41529000D01*
D24*
X31877000Y22606000D02*
X31115000Y22606000D01*
X32385000Y22098000D02*
X31877000Y22606000D01*
D21*
X34925000Y41910000D02*
X40640000Y41910000D01*
X34163000Y30353000D02*
X34163000Y41148000D01*
X34163000Y41148000D02*
X34925000Y41910000D01*
X32385000Y28575000D02*
X34163000Y30353000D01*
D24*
X34798000Y22098000D02*
X34378500Y22517500D01*
X34378500Y22517500D02*
X33655000Y22517500D01*
X33990000Y4445000D02*
X33990000Y19512000D01*
D21*
X40513000Y34163000D02*
X41778000Y34163000D01*
X34925000Y28575000D02*
X40513000Y34163000D01*
D24*
X33990000Y19512000D02*
X34798000Y20320000D01*
X34798000Y20320000D02*
X34798000Y22098000D01*
D23*
X22098000Y23495000D02*
X20955000Y24638000D01*
X20955000Y24638000D02*
X20955000Y27305000D01*
X20955000Y27305000D02*
X22225000Y28575000D01*
X22098000Y22506500D02*
X22098000Y23495000D01*
D25*
X22098000Y16510000D02*
X22098000Y22506500D01*
D21*
X42545000Y23495000D02*
X42545000Y22456500D01*
D24*
X42118000Y14143000D02*
X43942000Y12319000D01*
D21*
X41275000Y24765000D02*
X42545000Y23495000D01*
D24*
X42118000Y22029500D02*
X42118000Y14143000D01*
X43942000Y12319000D02*
X43942000Y6350000D01*
X48133000Y6350000D02*
X48133000Y4318000D01*
D21*
X42545000Y28575000D02*
X41275000Y27305000D01*
D24*
X42545000Y22456500D02*
X42118000Y22029500D01*
D21*
X41275000Y27305000D02*
X41275000Y24765000D01*
D24*
X46463000Y21078500D02*
X46463000Y5480000D01*
D21*
X43815000Y24765000D02*
X43815000Y27305000D01*
D24*
X46463000Y5480000D02*
X46482000Y5461000D01*
X45085000Y22456500D02*
X46463000Y21078500D01*
D21*
X43815000Y27305000D02*
X45085000Y28575000D01*
X45085000Y23495000D02*
X43815000Y24765000D01*
X45085000Y22456500D02*
X45085000Y23495000D01*
X46355000Y27305000D02*
X46355000Y24765000D01*
D24*
X51831000Y18400000D02*
X51689000Y18542000D01*
D21*
X46355000Y24765000D02*
X47625000Y23495000D01*
X47625000Y28575000D02*
X46355000Y27305000D01*
D24*
X47625000Y22456500D02*
X46990000Y21821500D01*
X46990000Y21821500D02*
X46990000Y18505000D01*
X51831000Y9017000D02*
X51831000Y18400000D01*
D21*
X47625000Y23495000D02*
X47625000Y22456500D01*
X48895000Y27305000D02*
X48895000Y25527000D01*
D24*
X50165000Y17907000D02*
X50165000Y22456500D01*
D21*
X50165000Y24257000D02*
X50165000Y22456500D01*
X50165000Y28575000D02*
X48895000Y27305000D01*
X48895000Y25527000D02*
X50165000Y24257000D01*
D24*
X45085000Y13081000D02*
X44577000Y13589000D01*
X44577000Y13589000D02*
X44577000Y17907000D01*
D21*
X52705000Y23495000D02*
X52705000Y22456500D01*
X52705000Y28575000D02*
X51435000Y27305000D01*
X51435000Y24765000D02*
X52705000Y23495000D01*
D24*
X37719000Y17145000D02*
X37719000Y20447000D01*
D21*
X51435000Y27305000D02*
X51435000Y24765000D01*
X53975000Y24765000D02*
X55245000Y23495000D01*
X55245000Y28575000D02*
X53975000Y27305000D01*
X55245000Y23495000D02*
X55245000Y22456500D01*
D24*
X38354000Y19685000D02*
X38354000Y14605000D01*
D21*
X53975000Y27305000D02*
X53975000Y24765000D01*
X56495000Y27285000D02*
X56495000Y24785000D01*
D24*
X39370000Y19561500D02*
X39370000Y14605000D01*
D21*
X57785000Y28575000D02*
X56495000Y27285000D01*
X56495000Y24785000D02*
X57785000Y23495000D01*
X57785000Y23495000D02*
X57785000Y22456500D01*
D23*
X27305000Y22506500D02*
X27305000Y23495000D01*
X26035000Y27305000D02*
X27305000Y28575000D01*
X26035000Y24765000D02*
X26035000Y27305000D01*
X27305000Y23495000D02*
X26035000Y24765000D01*
D24*
X45931000Y2379000D02*
X45731000Y2179000D01*
X38715000Y2179000D02*
X38354000Y2540000D01*
X38354000Y2540000D02*
X38354000Y2504500D01*
X45931000Y13080500D02*
X45931000Y2379000D01*
X45731000Y2179000D02*
X38715000Y2179000D01*
X42672000Y16364500D02*
X42672000Y17907000D01*
X45618400Y16364500D02*
X45618400Y18465800D01*
X48133000Y15748000D02*
X48133000Y19031500D01*
X34544000Y13208000D02*
X34544000Y5188500D01*
X48588000Y1852000D02*
X38026000Y1852000D01*
X49022000Y4318000D02*
X49022000Y2286000D01*
X49022000Y2286000D02*
X48588000Y1852000D01*
X38026000Y1852000D02*
X37465000Y2413000D01*
D21*
X59690000Y22638000D02*
X59690000Y23495000D01*
X58131000Y4952500D02*
X58131000Y21079000D01*
X58131000Y21079000D02*
X59690000Y22638000D01*
X60974000Y23382000D02*
X60974000Y6584500D01*
X60974000Y6584500D02*
X60931000Y6541500D01*
X61214000Y23622000D02*
X60974000Y23382000D01*
X63431000Y22421000D02*
X62230000Y23622000D01*
X63431000Y7696000D02*
X63431000Y22421000D01*
X61214000Y5479000D02*
X63431000Y7696000D01*
D24*
X18923000Y3556000D02*
X18923000Y12192000D01*
X35941000Y2540000D02*
X36956000Y1525000D01*
X50651023Y2010023D02*
X50651023Y13102977D01*
X36956000Y1525000D02*
X50166000Y1525000D01*
X50166000Y1525000D02*
X50651023Y2010023D01*
X36013000Y1198000D02*
X50474000Y1198000D01*
X35179000Y2032000D02*
X35179000Y2013500D01*
X50474000Y1198000D02*
X51304500Y2028500D01*
X51304500Y2028500D02*
X51304500Y11479000D01*
X35179000Y2032000D02*
X36013000Y1198000D01*
X16383000Y3556000D02*
X16383000Y12192000D01*
G04 #@! TA.AperFunction,Conductor*
G36*
X5394000Y7713686D02*
G01*
X5382045Y7725641D01*
X5269148Y7783165D01*
X5175481Y7798000D01*
X5112519Y7798000D01*
X5018852Y7783165D01*
X4905955Y7725641D01*
X4894000Y7713686D01*
X4894000Y9082314D01*
X4905955Y9070359D01*
X5018852Y9012835D01*
X5112519Y8998000D01*
X5175481Y8998000D01*
X5269148Y9012835D01*
X5382045Y9070359D01*
X5394000Y9082314D01*
X5394000Y7713686D01*
G37*
G04 #@! TD.AperFunction*
G04 #@! TA.AperFunction,Conductor*
G36*
X64412539Y44510815D02*
G01*
X64458294Y44458011D01*
X64469500Y44406500D01*
X64469500Y29838556D01*
X64449815Y29771517D01*
X64397011Y29725762D01*
X64327853Y29715818D01*
X64264297Y29744843D01*
X64257819Y29750875D01*
X61519271Y32489423D01*
X61503143Y32509284D01*
X61497070Y32518579D01*
X61497068Y32518582D01*
X61471755Y32538284D01*
X61460245Y32548449D01*
X61460114Y32548580D01*
X61453082Y32553601D01*
X61442975Y32560818D01*
X61438879Y32563873D01*
X61397123Y32596372D01*
X61397122Y32596373D01*
X61397119Y32596375D01*
X61397114Y32596377D01*
X61390127Y32600159D01*
X61382979Y32603653D01*
X61332266Y32618751D01*
X61327385Y32620315D01*
X61267608Y32640837D01*
X61268351Y32643002D01*
X61218080Y32667346D01*
X61181642Y32726962D01*
X61183219Y32796813D01*
X61186811Y32806643D01*
X61215228Y32875246D01*
X61229790Y32985858D01*
X61234285Y33019999D01*
X61234285Y33020002D01*
X61215228Y33164753D01*
X61215228Y33164754D01*
X61159355Y33299642D01*
X61126624Y33342298D01*
X61080124Y33402899D01*
X61054930Y33468068D01*
X61054500Y33478385D01*
X61054500Y38459785D01*
X61057139Y38485230D01*
X61057600Y38487434D01*
X61059418Y38496100D01*
X61055452Y38527919D01*
X61054500Y38543256D01*
X61054500Y38543441D01*
X61054499Y38543451D01*
X61051607Y38560775D01*
X61051034Y38564210D01*
X61050299Y38569247D01*
X61043752Y38621783D01*
X61043750Y38621786D01*
X61041486Y38629396D01*
X61038901Y38636925D01*
X61013720Y38683456D01*
X61011375Y38688013D01*
X60988127Y38735568D01*
X60983541Y38741991D01*
X60978620Y38748314D01*
X60978619Y38748316D01*
X60975502Y38751185D01*
X60963011Y38762684D01*
X60939676Y38784166D01*
X60936002Y38787692D01*
X59995271Y39728423D01*
X59979143Y39748284D01*
X59973070Y39757579D01*
X59973068Y39757582D01*
X59947755Y39777284D01*
X59936245Y39787449D01*
X59936114Y39787580D01*
X59918984Y39799811D01*
X59914879Y39802873D01*
X59873123Y39835372D01*
X59873122Y39835373D01*
X59873119Y39835375D01*
X59873114Y39835377D01*
X59866127Y39839159D01*
X59858979Y39842653D01*
X59808266Y39857751D01*
X59803385Y39859315D01*
X59753326Y39876501D01*
X59745516Y39877804D01*
X59737586Y39878793D01*
X59684738Y39876606D01*
X59679613Y39876500D01*
X45346262Y39876500D01*
X45279223Y39896185D01*
X45233468Y39948989D01*
X45223524Y40018147D01*
X45247308Y40075227D01*
X45308781Y40156630D01*
X45404151Y40348160D01*
X45404151Y40348163D01*
X45404153Y40348165D01*
X45446001Y40495248D01*
X45462704Y40553952D01*
X45482446Y40767000D01*
X45471698Y40882983D01*
X45462704Y40980048D01*
X45462703Y40980051D01*
X45404153Y41185836D01*
X45404150Y41185842D01*
X45391460Y41211327D01*
X45308781Y41377370D01*
X45179841Y41548114D01*
X45021722Y41692258D01*
X45021716Y41692262D01*
X45021713Y41692264D01*
X44839813Y41804892D01*
X44839807Y41804894D01*
X44640297Y41882185D01*
X44429980Y41921500D01*
X44216020Y41921500D01*
X44005703Y41882185D01*
X43923876Y41850485D01*
X43806192Y41804894D01*
X43806186Y41804892D01*
X43624286Y41692264D01*
X43624283Y41692262D01*
X43624279Y41692260D01*
X43624278Y41692258D01*
X43555182Y41629269D01*
X43466158Y41548113D01*
X43337219Y41377371D01*
X43241849Y41185842D01*
X43241846Y41185836D01*
X43181727Y40974534D01*
X43180513Y40974880D01*
X43151710Y40918249D01*
X43091394Y40882983D01*
X43021586Y40885924D01*
X42964450Y40926140D01*
X42938127Y40990861D01*
X42937499Y41003325D01*
X42937499Y41692064D01*
X42937499Y41692066D01*
X42922734Y41766301D01*
X42875007Y41837729D01*
X42866484Y41850485D01*
X42803988Y41892243D01*
X42782301Y41906734D01*
X42782299Y41906735D01*
X42782296Y41906736D01*
X42708071Y41921500D01*
X42708067Y41921500D01*
X41216556Y41921500D01*
X41149517Y41941185D01*
X41128875Y41957819D01*
X40945271Y42141423D01*
X40929143Y42161284D01*
X40923070Y42170579D01*
X40923068Y42170582D01*
X40908714Y42181754D01*
X40897755Y42190284D01*
X40886245Y42200449D01*
X40886114Y42200580D01*
X40868984Y42212811D01*
X40864879Y42215873D01*
X40823123Y42248372D01*
X40823122Y42248373D01*
X40823119Y42248375D01*
X40823114Y42248377D01*
X40816127Y42252159D01*
X40808979Y42255653D01*
X40758266Y42270751D01*
X40753385Y42272315D01*
X40703326Y42289501D01*
X40695516Y42290804D01*
X40687586Y42291793D01*
X40634738Y42289606D01*
X40629613Y42289500D01*
X34977220Y42289500D01*
X34951775Y42292139D01*
X34940901Y42294419D01*
X34940898Y42294419D01*
X34909076Y42290452D01*
X34893738Y42289500D01*
X34893557Y42289500D01*
X34884006Y42287907D01*
X34872784Y42286035D01*
X34867725Y42285299D01*
X34815222Y42278754D01*
X34807608Y42276487D01*
X34800070Y42273899D01*
X34753548Y42248723D01*
X34748995Y42246379D01*
X34701432Y42223127D01*
X34694969Y42218513D01*
X34688684Y42213621D01*
X34652845Y42174690D01*
X34649299Y42170995D01*
X33931577Y41453273D01*
X33911727Y41437152D01*
X33902419Y41431071D01*
X33882715Y41405755D01*
X33872569Y41394263D01*
X33872425Y41394120D01*
X33872417Y41394110D01*
X33860186Y41376982D01*
X33857131Y41372886D01*
X33824625Y41331120D01*
X33820849Y41324143D01*
X33817345Y41316977D01*
X33802247Y41266261D01*
X33800683Y41261380D01*
X33783499Y41211328D01*
X33782195Y41203513D01*
X33781207Y41195587D01*
X33783394Y41142739D01*
X33783500Y41137614D01*
X33783500Y30561557D01*
X33763815Y30494518D01*
X33747181Y30473876D01*
X32909043Y29635739D01*
X32847720Y29602254D01*
X32778028Y29607238D01*
X32776569Y29607793D01*
X32688561Y29641887D01*
X32688556Y29641888D01*
X32487347Y29679500D01*
X32282653Y29679500D01*
X32081444Y29641888D01*
X32081441Y29641888D01*
X32081441Y29641887D01*
X31890575Y29567946D01*
X31890569Y29567943D01*
X31716539Y29460188D01*
X31716537Y29460186D01*
X31565269Y29322288D01*
X31441912Y29158936D01*
X31350673Y28975705D01*
X31294654Y28778817D01*
X31275768Y28575001D01*
X31275768Y28575000D01*
X31294654Y28371184D01*
X31350673Y28174296D01*
X31441912Y27991065D01*
X31565269Y27827713D01*
X31716537Y27689815D01*
X31716539Y27689813D01*
X31890569Y27582058D01*
X31890571Y27582057D01*
X31890573Y27582056D01*
X31941313Y27562399D01*
X31966737Y27552550D01*
X32022139Y27509977D01*
X32045730Y27444211D01*
X32030019Y27376130D01*
X31979996Y27327351D01*
X31954040Y27317149D01*
X31921519Y27308435D01*
X31921507Y27308430D01*
X31707422Y27208601D01*
X31707420Y27208600D01*
X31513926Y27073114D01*
X31513920Y27073109D01*
X31346891Y26906080D01*
X31346890Y26906078D01*
X31216575Y26719969D01*
X31161998Y26676345D01*
X31092499Y26669152D01*
X31030145Y26700674D01*
X31013425Y26719969D01*
X30883109Y26906078D01*
X30883108Y26906080D01*
X30716082Y27073106D01*
X30522578Y27208601D01*
X30308492Y27308430D01*
X30308477Y27308436D01*
X30275960Y27317149D01*
X30216300Y27353514D01*
X30185772Y27416362D01*
X30194067Y27485737D01*
X30238553Y27539614D01*
X30263257Y27552548D01*
X30339427Y27582056D01*
X30513462Y27689814D01*
X30664732Y27827715D01*
X30788088Y27991065D01*
X30879328Y28174299D01*
X30935345Y28371179D01*
X30954232Y28575000D01*
X30935345Y28778821D01*
X30879328Y28975701D01*
X30788088Y29158935D01*
X30728904Y29237307D01*
X30664730Y29322288D01*
X30513462Y29460186D01*
X30513460Y29460188D01*
X30339430Y29567943D01*
X30339424Y29567946D01*
X30164428Y29635739D01*
X30148556Y29641888D01*
X29947347Y29679500D01*
X29742653Y29679500D01*
X29541444Y29641888D01*
X29541441Y29641888D01*
X29541441Y29641887D01*
X29350575Y29567946D01*
X29350569Y29567943D01*
X29176539Y29460188D01*
X29176537Y29460186D01*
X29025269Y29322288D01*
X28901912Y29158936D01*
X28810673Y28975705D01*
X28754654Y28778817D01*
X28735768Y28575001D01*
X28735768Y28575000D01*
X28754654Y28371184D01*
X28810673Y28174296D01*
X28901912Y27991065D01*
X29025269Y27827713D01*
X29176537Y27689815D01*
X29176539Y27689813D01*
X29350569Y27582058D01*
X29350571Y27582057D01*
X29350573Y27582056D01*
X29401313Y27562399D01*
X29426737Y27552550D01*
X29482139Y27509977D01*
X29505730Y27444211D01*
X29490019Y27376130D01*
X29439996Y27327351D01*
X29414040Y27317149D01*
X29381519Y27308435D01*
X29381507Y27308430D01*
X29167422Y27208601D01*
X29167420Y27208600D01*
X28973926Y27073114D01*
X28973920Y27073109D01*
X28806891Y26906080D01*
X28806890Y26906078D01*
X28676575Y26719969D01*
X28621998Y26676345D01*
X28552499Y26669152D01*
X28490145Y26700674D01*
X28473425Y26719969D01*
X28343109Y26906078D01*
X28343108Y26906080D01*
X28176082Y27073106D01*
X27982578Y27208601D01*
X27768492Y27308430D01*
X27768477Y27308436D01*
X27735960Y27317149D01*
X27676300Y27353514D01*
X27645772Y27416362D01*
X27654067Y27485737D01*
X27698553Y27539614D01*
X27723257Y27552548D01*
X27799427Y27582056D01*
X27973462Y27689814D01*
X28124732Y27827715D01*
X28248088Y27991065D01*
X28339328Y28174299D01*
X28395345Y28371179D01*
X28414232Y28575000D01*
X28395345Y28778821D01*
X28339328Y28975701D01*
X28248088Y29158935D01*
X28188904Y29237307D01*
X28124730Y29322288D01*
X27973462Y29460186D01*
X27973460Y29460188D01*
X27799430Y29567943D01*
X27799424Y29567946D01*
X27624428Y29635739D01*
X27608556Y29641888D01*
X27407347Y29679500D01*
X27202653Y29679500D01*
X27001444Y29641888D01*
X27001441Y29641888D01*
X27001441Y29641887D01*
X26810575Y29567946D01*
X26810569Y29567943D01*
X26636539Y29460188D01*
X26636537Y29460186D01*
X26485269Y29322288D01*
X26361912Y29158936D01*
X26270673Y28975705D01*
X26214654Y28778817D01*
X26195768Y28575001D01*
X26195768Y28575000D01*
X26214654Y28371182D01*
X26264369Y28196449D01*
X26263781Y28126582D01*
X26232783Y28074835D01*
X25726465Y27568515D01*
X25726462Y27568513D01*
X25726462Y27568512D01*
X25715067Y27557118D01*
X25703671Y27545721D01*
X25693473Y27525705D01*
X25683310Y27509120D01*
X25670097Y27490934D01*
X25670094Y27490929D01*
X25663149Y27469553D01*
X25655705Y27451582D01*
X25645503Y27431560D01*
X25645500Y27431550D01*
X25641984Y27409354D01*
X25637445Y27390446D01*
X25630500Y27369068D01*
X25630500Y27314878D01*
X25610815Y27247839D01*
X25558011Y27202084D01*
X25488853Y27192140D01*
X25447543Y27206437D01*
X25447485Y27206312D01*
X25446279Y27206875D01*
X25444503Y27207489D01*
X25442579Y27208600D01*
X25228492Y27308430D01*
X25228477Y27308436D01*
X25195960Y27317149D01*
X25136300Y27353514D01*
X25105772Y27416362D01*
X25114067Y27485737D01*
X25158553Y27539614D01*
X25183257Y27552548D01*
X25259427Y27582056D01*
X25433462Y27689814D01*
X25584732Y27827715D01*
X25708088Y27991065D01*
X25799328Y28174299D01*
X25855345Y28371179D01*
X25874232Y28575000D01*
X25855345Y28778821D01*
X25799328Y28975701D01*
X25708088Y29158935D01*
X25648904Y29237307D01*
X25584730Y29322288D01*
X25433462Y29460186D01*
X25433460Y29460188D01*
X25259430Y29567943D01*
X25259421Y29567947D01*
X25248052Y29572351D01*
X25192650Y29614923D01*
X25169059Y29680690D01*
X25184770Y29748771D01*
X25234793Y29797550D01*
X25276660Y29810917D01*
X25290754Y29812772D01*
X25425643Y29868645D01*
X25541474Y29957526D01*
X25630355Y30073357D01*
X25686228Y30208246D01*
X25695164Y30276125D01*
X25723430Y30340021D01*
X25781755Y30378492D01*
X25851619Y30379323D01*
X25865545Y30374504D01*
X25890246Y30364272D01*
X25962623Y30354744D01*
X26034999Y30345215D01*
X26035000Y30345215D01*
X26035001Y30345215D01*
X26094126Y30352999D01*
X26179754Y30364272D01*
X26314643Y30420145D01*
X26430474Y30509026D01*
X26519355Y30624857D01*
X26575228Y30759746D01*
X26594285Y30904500D01*
X26575228Y31049254D01*
X26519355Y31184142D01*
X26502563Y31206025D01*
X26440124Y31287399D01*
X26414930Y31352568D01*
X26414500Y31362885D01*
X26414500Y41578616D01*
X26434185Y41645655D01*
X26440115Y41654092D01*
X26519355Y41757357D01*
X26575228Y41892246D01*
X26594285Y42037000D01*
X26575228Y42181754D01*
X26519355Y42316642D01*
X26514125Y42323458D01*
X51470500Y42323458D01*
X51511441Y42157350D01*
X51511442Y42157347D01*
X51511443Y42157346D01*
X51590950Y42005859D01*
X51704399Y41877801D01*
X51845198Y41780615D01*
X51932472Y41747517D01*
X52005160Y41719949D01*
X52005162Y41719949D01*
X52005164Y41719948D01*
X52047572Y41714799D01*
X52132387Y41704500D01*
X52132389Y41704500D01*
X52217613Y41704500D01*
X52281223Y41712224D01*
X52344836Y41719948D01*
X52504802Y41780615D01*
X52645601Y41877801D01*
X52759050Y42005859D01*
X52838557Y42157346D01*
X52871452Y42290804D01*
X52879500Y42323458D01*
X59470500Y42323458D01*
X59511441Y42157350D01*
X59511442Y42157347D01*
X59511443Y42157346D01*
X59590950Y42005859D01*
X59704399Y41877801D01*
X59845198Y41780615D01*
X59932472Y41747517D01*
X60005160Y41719949D01*
X60005162Y41719949D01*
X60005164Y41719948D01*
X60047572Y41714799D01*
X60132387Y41704500D01*
X60132389Y41704500D01*
X60217613Y41704500D01*
X60281223Y41712224D01*
X60344836Y41719948D01*
X60504802Y41780615D01*
X60645601Y41877801D01*
X60759050Y42005859D01*
X60838557Y42157346D01*
X60871452Y42290804D01*
X60879500Y42323458D01*
X60879500Y42494543D01*
X60838558Y42660651D01*
X60838557Y42660652D01*
X60838557Y42660654D01*
X60759050Y42812141D01*
X60645601Y42940199D01*
X60504802Y43037385D01*
X60501092Y43038792D01*
X60344839Y43098052D01*
X60344834Y43098053D01*
X60217613Y43113500D01*
X60217611Y43113500D01*
X60132389Y43113500D01*
X60132387Y43113500D01*
X60005165Y43098053D01*
X60005160Y43098052D01*
X59845197Y43037385D01*
X59845196Y43037384D01*
X59704399Y42940200D01*
X59590950Y42812141D01*
X59511441Y42660651D01*
X59470500Y42494543D01*
X59470500Y42323458D01*
X52879500Y42323458D01*
X52879500Y42494543D01*
X52838558Y42660651D01*
X52838557Y42660652D01*
X52838557Y42660654D01*
X52759050Y42812141D01*
X52645601Y42940199D01*
X52504802Y43037385D01*
X52501092Y43038792D01*
X52344839Y43098052D01*
X52344834Y43098053D01*
X52217613Y43113500D01*
X52217611Y43113500D01*
X52132389Y43113500D01*
X52132387Y43113500D01*
X52005165Y43098053D01*
X52005160Y43098052D01*
X51845197Y43037385D01*
X51845196Y43037384D01*
X51704399Y42940200D01*
X51590950Y42812141D01*
X51511441Y42660651D01*
X51470500Y42494543D01*
X51470500Y42323458D01*
X26514125Y42323458D01*
X26430474Y42432474D01*
X26314643Y42521355D01*
X26314640Y42521356D01*
X26314638Y42521358D01*
X26179757Y42577227D01*
X26179752Y42577229D01*
X26035001Y42596285D01*
X26034999Y42596285D01*
X25890247Y42577229D01*
X25890245Y42577228D01*
X25755361Y42521357D01*
X25639526Y42432474D01*
X25550643Y42316639D01*
X25494772Y42181755D01*
X25494771Y42181753D01*
X25475715Y42037002D01*
X25475715Y42036999D01*
X25494771Y41892248D01*
X25494773Y41892243D01*
X25550642Y41757362D01*
X25550642Y41757361D01*
X25550644Y41757358D01*
X25550645Y41757357D01*
X25629876Y41654102D01*
X25655070Y41588934D01*
X25655500Y41578616D01*
X25655500Y40056427D01*
X25635815Y39989388D01*
X25583011Y39943633D01*
X25513853Y39933689D01*
X25456014Y39958051D01*
X25425643Y39981355D01*
X25425638Y39981358D01*
X25290757Y40037227D01*
X25290752Y40037229D01*
X25146001Y40056285D01*
X25145999Y40056285D01*
X25001247Y40037229D01*
X25001245Y40037228D01*
X24866361Y39981357D01*
X24866358Y39981356D01*
X24866358Y39981355D01*
X24750526Y39892474D01*
X24662132Y39777276D01*
X24661643Y39776639D01*
X24605772Y39641755D01*
X24605771Y39641753D01*
X24586715Y39497002D01*
X24586715Y39496999D01*
X24605771Y39352248D01*
X24605773Y39352243D01*
X24661642Y39217362D01*
X24661642Y39217361D01*
X24661644Y39217358D01*
X24661645Y39217357D01*
X24740876Y39114102D01*
X24766070Y39048934D01*
X24766500Y39038616D01*
X24766500Y30811385D01*
X24746815Y30744346D01*
X24740876Y30735899D01*
X24661645Y30632643D01*
X24661643Y30632640D01*
X24605772Y30497755D01*
X24605771Y30497753D01*
X24586715Y30353002D01*
X24586715Y30352999D01*
X24605771Y30208248D01*
X24605773Y30208243D01*
X24661642Y30073362D01*
X24661645Y30073356D01*
X24750525Y29957527D01*
X24750526Y29957526D01*
X24823051Y29901875D01*
X24864253Y29845447D01*
X24868408Y29775701D01*
X24834195Y29714781D01*
X24772478Y29682029D01*
X24747564Y29679500D01*
X24662653Y29679500D01*
X24461444Y29641888D01*
X24461441Y29641888D01*
X24461441Y29641887D01*
X24270575Y29567946D01*
X24270569Y29567943D01*
X24096539Y29460188D01*
X24096537Y29460186D01*
X23945269Y29322288D01*
X23821912Y29158936D01*
X23730673Y28975705D01*
X23674654Y28778817D01*
X23655768Y28575001D01*
X23655768Y28575000D01*
X23674654Y28371182D01*
X23724369Y28196449D01*
X23723781Y28126582D01*
X23692783Y28074835D01*
X23186465Y27568515D01*
X23186462Y27568513D01*
X23186462Y27568512D01*
X23175067Y27557118D01*
X23163671Y27545721D01*
X23153473Y27525705D01*
X23143310Y27509120D01*
X23130097Y27490934D01*
X23130094Y27490929D01*
X23123149Y27469553D01*
X23115705Y27451582D01*
X23105503Y27431560D01*
X23105500Y27431550D01*
X23101984Y27409354D01*
X23097445Y27390446D01*
X23090500Y27369068D01*
X23090500Y27314878D01*
X23070815Y27247839D01*
X23018011Y27202084D01*
X22948853Y27192140D01*
X22907543Y27206437D01*
X22907485Y27206312D01*
X22906279Y27206875D01*
X22904503Y27207489D01*
X22902579Y27208600D01*
X22688492Y27308430D01*
X22688477Y27308436D01*
X22655960Y27317149D01*
X22596300Y27353514D01*
X22565772Y27416362D01*
X22574067Y27485737D01*
X22618553Y27539614D01*
X22643257Y27552548D01*
X22719427Y27582056D01*
X22893462Y27689814D01*
X23044732Y27827715D01*
X23168088Y27991065D01*
X23259328Y28174299D01*
X23315345Y28371179D01*
X23334232Y28575000D01*
X23315345Y28778821D01*
X23259328Y28975701D01*
X23168088Y29158935D01*
X23108904Y29237307D01*
X23044730Y29322288D01*
X22893462Y29460186D01*
X22893460Y29460188D01*
X22719430Y29567943D01*
X22719424Y29567946D01*
X22544428Y29635739D01*
X22528556Y29641888D01*
X22327347Y29679500D01*
X22122653Y29679500D01*
X21921444Y29641888D01*
X21921441Y29641888D01*
X21921441Y29641887D01*
X21730575Y29567946D01*
X21730569Y29567943D01*
X21556539Y29460188D01*
X21556537Y29460186D01*
X21405269Y29322288D01*
X21281912Y29158936D01*
X21190673Y28975705D01*
X21134654Y28778817D01*
X21115768Y28575001D01*
X21115768Y28575000D01*
X21134654Y28371182D01*
X21184369Y28196449D01*
X21183781Y28126582D01*
X21152783Y28074835D01*
X20646465Y27568515D01*
X20646462Y27568513D01*
X20646462Y27568512D01*
X20635067Y27557118D01*
X20623671Y27545721D01*
X20613473Y27525705D01*
X20603310Y27509120D01*
X20590097Y27490934D01*
X20590094Y27490929D01*
X20583149Y27469553D01*
X20575705Y27451582D01*
X20565503Y27431560D01*
X20565500Y27431550D01*
X20561984Y27409354D01*
X20557445Y27390446D01*
X20550500Y27369068D01*
X20550500Y27314878D01*
X20530815Y27247839D01*
X20478011Y27202084D01*
X20408853Y27192140D01*
X20367543Y27206437D01*
X20367485Y27206312D01*
X20366279Y27206875D01*
X20364503Y27207489D01*
X20362579Y27208600D01*
X20148492Y27308430D01*
X20148477Y27308436D01*
X20115960Y27317149D01*
X20056300Y27353514D01*
X20025772Y27416362D01*
X20034067Y27485737D01*
X20078553Y27539614D01*
X20103257Y27552548D01*
X20179427Y27582056D01*
X20353462Y27689814D01*
X20504732Y27827715D01*
X20628088Y27991065D01*
X20719328Y28174299D01*
X20775345Y28371179D01*
X20794232Y28575000D01*
X20775345Y28778821D01*
X20719328Y28975701D01*
X20628088Y29158935D01*
X20568904Y29237307D01*
X20504730Y29322288D01*
X20353462Y29460186D01*
X20353460Y29460188D01*
X20179430Y29567943D01*
X20179424Y29567946D01*
X20004428Y29635739D01*
X19988556Y29641888D01*
X19787347Y29679500D01*
X19582653Y29679500D01*
X19381444Y29641888D01*
X19381441Y29641888D01*
X19381441Y29641887D01*
X19190575Y29567946D01*
X19190569Y29567943D01*
X19011663Y29457168D01*
X19010754Y29458637D01*
X18952854Y29436769D01*
X18884521Y29451340D01*
X18834913Y29500542D01*
X18819500Y29560416D01*
X18819500Y30416146D01*
X18839185Y30483185D01*
X18861271Y30508960D01*
X18908498Y30550799D01*
X18998787Y30681605D01*
X19055149Y30830218D01*
X19074307Y30988000D01*
X19066869Y31049254D01*
X19055149Y31145782D01*
X18998787Y31294395D01*
X18908498Y31425201D01*
X18908495Y31425204D01*
X18908493Y31425206D01*
X18789530Y31530599D01*
X18648791Y31604464D01*
X18494472Y31642500D01*
X18494471Y31642500D01*
X18335529Y31642500D01*
X18335528Y31642500D01*
X18181208Y31604464D01*
X18040469Y31530599D01*
X17921506Y31425206D01*
X17921500Y31425199D01*
X17831214Y31294398D01*
X17774850Y31145782D01*
X17755693Y30988001D01*
X17755693Y30988000D01*
X17774850Y30830219D01*
X17781993Y30811385D01*
X17831213Y30681605D01*
X17921502Y30550799D01*
X17968727Y30508961D01*
X18005854Y30449772D01*
X18010500Y30416146D01*
X18010500Y29560416D01*
X17990815Y29493377D01*
X17938011Y29447622D01*
X17868853Y29437678D01*
X17819102Y29458405D01*
X17818337Y29457168D01*
X17639430Y29567943D01*
X17639424Y29567946D01*
X17464428Y29635739D01*
X17448556Y29641888D01*
X17247347Y29679500D01*
X17042653Y29679500D01*
X16841444Y29641888D01*
X16841441Y29641888D01*
X16841441Y29641887D01*
X16650575Y29567946D01*
X16650569Y29567943D01*
X16476539Y29460188D01*
X16476537Y29460186D01*
X16467038Y29451526D01*
X16404234Y29420909D01*
X16334847Y29429107D01*
X16280907Y29473516D01*
X16259539Y29540039D01*
X16259500Y29543163D01*
X16259500Y30398428D01*
X16279185Y30465467D01*
X16301268Y30491239D01*
X16368498Y30550799D01*
X16458787Y30681605D01*
X16515149Y30830218D01*
X16534307Y30988000D01*
X16526869Y31049254D01*
X16515149Y31145782D01*
X16458787Y31294395D01*
X16368498Y31425201D01*
X16368495Y31425204D01*
X16368493Y31425206D01*
X16249530Y31530599D01*
X16108791Y31604464D01*
X15954472Y31642500D01*
X15954471Y31642500D01*
X15795529Y31642500D01*
X15795528Y31642500D01*
X15641208Y31604464D01*
X15500469Y31530599D01*
X15381506Y31425206D01*
X15381500Y31425199D01*
X15291214Y31294398D01*
X15234850Y31145782D01*
X15215693Y30988001D01*
X15215693Y30988000D01*
X15234850Y30830219D01*
X15241993Y30811385D01*
X15291213Y30681605D01*
X15381502Y30550799D01*
X15381503Y30550798D01*
X15381505Y30550796D01*
X15408726Y30526681D01*
X15445853Y30467492D01*
X15450500Y30433865D01*
X15450500Y29573192D01*
X15430815Y29506153D01*
X15378011Y29460398D01*
X15308853Y29450454D01*
X15261223Y29467765D01*
X15099430Y29567943D01*
X15099424Y29567946D01*
X14924428Y29635739D01*
X14908556Y29641888D01*
X14707347Y29679500D01*
X14502653Y29679500D01*
X14301444Y29641888D01*
X14301441Y29641888D01*
X14301441Y29641887D01*
X14110575Y29567946D01*
X14110569Y29567943D01*
X13931663Y29457168D01*
X13930754Y29458637D01*
X13872854Y29436769D01*
X13804521Y29451340D01*
X13754913Y29500542D01*
X13739500Y29560416D01*
X13739500Y30416146D01*
X13759185Y30483185D01*
X13781271Y30508960D01*
X13828498Y30550799D01*
X13918787Y30681605D01*
X13975149Y30830218D01*
X13994307Y30988000D01*
X13986869Y31049254D01*
X13975149Y31145782D01*
X13918787Y31294395D01*
X13828498Y31425201D01*
X13828495Y31425204D01*
X13828493Y31425206D01*
X13709530Y31530599D01*
X13568791Y31604464D01*
X13414472Y31642500D01*
X13414471Y31642500D01*
X13255529Y31642500D01*
X13255528Y31642500D01*
X13101208Y31604464D01*
X12960469Y31530599D01*
X12841506Y31425206D01*
X12841500Y31425199D01*
X12751214Y31294398D01*
X12694850Y31145782D01*
X12675693Y30988001D01*
X12675693Y30988000D01*
X12694850Y30830219D01*
X12701993Y30811385D01*
X12751213Y30681605D01*
X12841502Y30550799D01*
X12888727Y30508961D01*
X12925854Y30449772D01*
X12930500Y30416146D01*
X12930500Y29560416D01*
X12910815Y29493377D01*
X12858011Y29447622D01*
X12788853Y29437678D01*
X12739102Y29458405D01*
X12738337Y29457168D01*
X12559430Y29567943D01*
X12559424Y29567946D01*
X12384428Y29635739D01*
X12368556Y29641888D01*
X12167347Y29679500D01*
X11962653Y29679500D01*
X11761444Y29641888D01*
X11761441Y29641888D01*
X11761441Y29641887D01*
X11570575Y29567946D01*
X11570569Y29567943D01*
X11396539Y29460188D01*
X11396537Y29460186D01*
X11245269Y29322288D01*
X11121912Y29158936D01*
X11030673Y28975705D01*
X10974654Y28778817D01*
X10955768Y28575001D01*
X10955768Y28575000D01*
X10974654Y28371184D01*
X11030673Y28174296D01*
X11121912Y27991065D01*
X11245269Y27827713D01*
X11396537Y27689815D01*
X11396539Y27689813D01*
X11570569Y27582058D01*
X11570571Y27582057D01*
X11570573Y27582056D01*
X11621313Y27562399D01*
X11646737Y27552550D01*
X11702139Y27509977D01*
X11725730Y27444211D01*
X11710019Y27376130D01*
X11659996Y27327351D01*
X11634040Y27317149D01*
X11601519Y27308435D01*
X11601507Y27308430D01*
X11387422Y27208601D01*
X11387420Y27208600D01*
X11193926Y27073114D01*
X11193920Y27073109D01*
X11026891Y26906080D01*
X11026890Y26906078D01*
X10896575Y26719969D01*
X10841998Y26676345D01*
X10772499Y26669152D01*
X10710145Y26700674D01*
X10693425Y26719969D01*
X10563109Y26906078D01*
X10563108Y26906080D01*
X10396082Y27073106D01*
X10202578Y27208601D01*
X9988492Y27308430D01*
X9988477Y27308436D01*
X9955960Y27317149D01*
X9896300Y27353514D01*
X9865772Y27416362D01*
X9874067Y27485737D01*
X9918553Y27539614D01*
X9943257Y27552548D01*
X10019427Y27582056D01*
X10193462Y27689814D01*
X10344732Y27827715D01*
X10468088Y27991065D01*
X10559328Y28174299D01*
X10615345Y28371179D01*
X10634232Y28575000D01*
X10615345Y28778821D01*
X10559328Y28975701D01*
X10468088Y29158935D01*
X10408904Y29237307D01*
X10344730Y29322288D01*
X10193462Y29460186D01*
X10193460Y29460188D01*
X10019430Y29567943D01*
X10019424Y29567946D01*
X9844428Y29635739D01*
X9828556Y29641888D01*
X9627347Y29679500D01*
X9422653Y29679500D01*
X9221444Y29641888D01*
X9221441Y29641888D01*
X9221441Y29641887D01*
X9030575Y29567946D01*
X9030569Y29567943D01*
X8856539Y29460188D01*
X8856537Y29460186D01*
X8705269Y29322288D01*
X8581912Y29158936D01*
X8490673Y28975705D01*
X8434654Y28778817D01*
X8415768Y28575001D01*
X8415768Y28575000D01*
X8434654Y28371184D01*
X8490673Y28174296D01*
X8581912Y27991065D01*
X8705269Y27827713D01*
X8856537Y27689815D01*
X8856539Y27689813D01*
X9030569Y27582058D01*
X9030571Y27582057D01*
X9030573Y27582056D01*
X9081313Y27562399D01*
X9106737Y27552550D01*
X9162139Y27509977D01*
X9185730Y27444211D01*
X9170019Y27376130D01*
X9119996Y27327351D01*
X9094040Y27317149D01*
X9061519Y27308435D01*
X9061507Y27308430D01*
X8847422Y27208601D01*
X8847420Y27208600D01*
X8653926Y27073114D01*
X8653920Y27073109D01*
X8486891Y26906080D01*
X8486890Y26906078D01*
X8356575Y26719969D01*
X8301998Y26676345D01*
X8232499Y26669152D01*
X8170145Y26700674D01*
X8153425Y26719969D01*
X8023109Y26906078D01*
X8023108Y26906080D01*
X7856082Y27073106D01*
X7662578Y27208601D01*
X7448492Y27308430D01*
X7448477Y27308436D01*
X7415960Y27317149D01*
X7356300Y27353514D01*
X7325772Y27416362D01*
X7334067Y27485737D01*
X7378553Y27539614D01*
X7403257Y27552548D01*
X7479427Y27582056D01*
X7653462Y27689814D01*
X7804732Y27827715D01*
X7928088Y27991065D01*
X8019328Y28174299D01*
X8075345Y28371179D01*
X8094232Y28575000D01*
X8075345Y28778821D01*
X8019328Y28975701D01*
X7928088Y29158935D01*
X7868904Y29237307D01*
X7804730Y29322288D01*
X7653462Y29460186D01*
X7653460Y29460188D01*
X7479430Y29567943D01*
X7479424Y29567946D01*
X7304428Y29635739D01*
X7288556Y29641888D01*
X7087347Y29679500D01*
X6882653Y29679500D01*
X6681444Y29641888D01*
X6681441Y29641888D01*
X6681441Y29641887D01*
X6490575Y29567946D01*
X6490569Y29567943D01*
X6316539Y29460188D01*
X6316537Y29460186D01*
X6165269Y29322288D01*
X6041912Y29158936D01*
X5950673Y28975705D01*
X5894654Y28778817D01*
X5875768Y28575001D01*
X5875768Y28575000D01*
X5894654Y28371184D01*
X5950673Y28174296D01*
X6041912Y27991065D01*
X6165269Y27827713D01*
X6316537Y27689815D01*
X6316539Y27689813D01*
X6490569Y27582058D01*
X6490571Y27582057D01*
X6490573Y27582056D01*
X6541313Y27562399D01*
X6566737Y27552550D01*
X6622139Y27509977D01*
X6645730Y27444211D01*
X6630019Y27376130D01*
X6579996Y27327351D01*
X6554040Y27317149D01*
X6521519Y27308435D01*
X6521507Y27308430D01*
X6307422Y27208601D01*
X6307420Y27208600D01*
X6113926Y27073114D01*
X6113920Y27073109D01*
X5946891Y26906080D01*
X5946890Y26906078D01*
X5816575Y26719969D01*
X5761998Y26676345D01*
X5692499Y26669152D01*
X5630145Y26700674D01*
X5613425Y26719969D01*
X5483109Y26906078D01*
X5483108Y26906080D01*
X5316082Y27073106D01*
X5122578Y27208601D01*
X4908492Y27308430D01*
X4908477Y27308436D01*
X4875960Y27317149D01*
X4816300Y27353514D01*
X4785772Y27416362D01*
X4794067Y27485737D01*
X4838553Y27539614D01*
X4863257Y27552548D01*
X4939427Y27582056D01*
X5113462Y27689814D01*
X5264732Y27827715D01*
X5388088Y27991065D01*
X5479328Y28174299D01*
X5535345Y28371179D01*
X5554232Y28575000D01*
X5535345Y28778821D01*
X5479328Y28975701D01*
X5388088Y29158935D01*
X5328904Y29237307D01*
X5264730Y29322288D01*
X5113462Y29460186D01*
X5113460Y29460188D01*
X4939430Y29567943D01*
X4939424Y29567946D01*
X4764428Y29635739D01*
X4748556Y29641888D01*
X4547347Y29679500D01*
X4342653Y29679500D01*
X4141444Y29641888D01*
X4141441Y29641888D01*
X4141441Y29641887D01*
X3950575Y29567946D01*
X3950569Y29567943D01*
X3776539Y29460188D01*
X3776537Y29460186D01*
X3625269Y29322288D01*
X3501912Y29158936D01*
X3410673Y28975705D01*
X3354654Y28778817D01*
X3335768Y28575001D01*
X3335768Y28575000D01*
X3354654Y28371184D01*
X3410673Y28174296D01*
X3501912Y27991065D01*
X3625269Y27827713D01*
X3776537Y27689815D01*
X3776539Y27689813D01*
X3950569Y27582058D01*
X3950571Y27582057D01*
X3950573Y27582056D01*
X4001313Y27562399D01*
X4026737Y27552550D01*
X4082139Y27509977D01*
X4105730Y27444211D01*
X4090019Y27376130D01*
X4039996Y27327351D01*
X4014040Y27317149D01*
X3981519Y27308435D01*
X3981507Y27308430D01*
X3767422Y27208601D01*
X3767420Y27208600D01*
X3573926Y27073114D01*
X3451477Y26950665D01*
X3390154Y26917181D01*
X3320462Y26922165D01*
X3264529Y26964037D01*
X3247614Y26995014D01*
X3198354Y27127087D01*
X3198350Y27127094D01*
X3112190Y27242188D01*
X3112187Y27242191D01*
X2997093Y27328351D01*
X2997086Y27328355D01*
X2862379Y27378597D01*
X2862372Y27378599D01*
X2802844Y27385000D01*
X2516985Y27385000D01*
X2449946Y27404685D01*
X2404191Y27457489D01*
X2394247Y27526647D01*
X2423272Y27590203D01*
X2451708Y27614427D01*
X2561223Y27682236D01*
X2573462Y27689814D01*
X2724732Y27827715D01*
X2848088Y27991065D01*
X2939328Y28174299D01*
X2995345Y28371179D01*
X3014232Y28575000D01*
X2995345Y28778821D01*
X2939328Y28975701D01*
X2848088Y29158935D01*
X2788904Y29237307D01*
X2724730Y29322288D01*
X2573462Y29460186D01*
X2573460Y29460188D01*
X2399430Y29567943D01*
X2399424Y29567946D01*
X2224428Y29635739D01*
X2208556Y29641888D01*
X2007347Y29679500D01*
X1802653Y29679500D01*
X1601444Y29641888D01*
X1601441Y29641888D01*
X1601441Y29641887D01*
X1410575Y29567946D01*
X1410569Y29567943D01*
X1236539Y29460188D01*
X1236537Y29460186D01*
X1085269Y29322288D01*
X961912Y29158936D01*
X870673Y28975705D01*
X814654Y28778817D01*
X795768Y28575001D01*
X795768Y28575000D01*
X814654Y28371184D01*
X870673Y28174296D01*
X961912Y27991065D01*
X1085269Y27827713D01*
X1236537Y27689815D01*
X1236539Y27689813D01*
X1358292Y27614427D01*
X1404928Y27562399D01*
X1416032Y27493418D01*
X1388079Y27429383D01*
X1329944Y27390627D01*
X1293015Y27385000D01*
X1007155Y27385000D01*
X947627Y27378599D01*
X947620Y27378597D01*
X812913Y27328355D01*
X812906Y27328351D01*
X697812Y27242191D01*
X697809Y27242188D01*
X611649Y27127094D01*
X611645Y27127087D01*
X561403Y26992380D01*
X561401Y26992373D01*
X555000Y26932845D01*
X555000Y26285000D01*
X1471314Y26285000D01*
X1445507Y26244844D01*
X1405000Y26106889D01*
X1405000Y25963111D01*
X1445507Y25825156D01*
X1471314Y25785000D01*
X555000Y25785000D01*
X555000Y25137156D01*
X561401Y25077628D01*
X561403Y25077621D01*
X611645Y24942914D01*
X611649Y24942907D01*
X697809Y24827813D01*
X697812Y24827810D01*
X812906Y24741650D01*
X812913Y24741646D01*
X947620Y24691404D01*
X947627Y24691402D01*
X1007155Y24685001D01*
X1007172Y24685000D01*
X1655000Y24685000D01*
X1655000Y25599499D01*
X1762685Y25550320D01*
X1869237Y25535000D01*
X1940763Y25535000D01*
X2047315Y25550320D01*
X2155000Y25599499D01*
X2155000Y24685000D01*
X2802828Y24685000D01*
X2802844Y24685001D01*
X2862372Y24691402D01*
X2862379Y24691404D01*
X2997086Y24741646D01*
X2997093Y24741650D01*
X3112187Y24827810D01*
X3112190Y24827813D01*
X3198350Y24942907D01*
X3198354Y24942914D01*
X3247614Y25074987D01*
X3289485Y25130921D01*
X3354949Y25155338D01*
X3423222Y25140487D01*
X3451477Y25119335D01*
X3573917Y24996895D01*
X3767421Y24861400D01*
X3981507Y24761571D01*
X3981516Y24761567D01*
X4195000Y24704366D01*
X4195000Y25599499D01*
X4302685Y25550320D01*
X4409237Y25535000D01*
X4480763Y25535000D01*
X4587315Y25550320D01*
X4695000Y25599499D01*
X4695000Y24704366D01*
X4908483Y24761567D01*
X4908492Y24761571D01*
X5122578Y24861400D01*
X5316082Y24996895D01*
X5483105Y25163918D01*
X5613425Y25350032D01*
X5668002Y25393656D01*
X5737501Y25400849D01*
X5799855Y25369327D01*
X5816575Y25350032D01*
X5946894Y25163918D01*
X6113917Y24996895D01*
X6307421Y24861400D01*
X6521507Y24761571D01*
X6521516Y24761567D01*
X6735000Y24704366D01*
X6735000Y25599499D01*
X6842685Y25550320D01*
X6949237Y25535000D01*
X7020763Y25535000D01*
X7127315Y25550320D01*
X7235000Y25599499D01*
X7235000Y24704367D01*
X7448483Y24761567D01*
X7448492Y24761571D01*
X7662578Y24861400D01*
X7856082Y24996895D01*
X8023105Y25163918D01*
X8153425Y25350032D01*
X8208002Y25393656D01*
X8277501Y25400849D01*
X8339855Y25369327D01*
X8356575Y25350032D01*
X8486894Y25163918D01*
X8653917Y24996895D01*
X8847421Y24861400D01*
X9061507Y24761571D01*
X9061516Y24761567D01*
X9275000Y24704366D01*
X9275000Y25599499D01*
X9382685Y25550320D01*
X9489237Y25535000D01*
X9560763Y25535000D01*
X9667315Y25550320D01*
X9775000Y25599499D01*
X9775000Y24704367D01*
X9988483Y24761567D01*
X9988492Y24761571D01*
X10202578Y24861400D01*
X10396082Y24996895D01*
X10563105Y25163918D01*
X10693425Y25350032D01*
X10748002Y25393656D01*
X10817501Y25400849D01*
X10879855Y25369327D01*
X10896575Y25350032D01*
X11026894Y25163918D01*
X11193917Y24996895D01*
X11387421Y24861400D01*
X11601507Y24761571D01*
X11601516Y24761567D01*
X11815000Y24704366D01*
X11815000Y25599499D01*
X11922685Y25550320D01*
X12029237Y25535000D01*
X12100763Y25535000D01*
X12207315Y25550320D01*
X12315000Y25599499D01*
X12315000Y24704367D01*
X12528483Y24761567D01*
X12528492Y24761571D01*
X12742576Y24861399D01*
X12744496Y24862507D01*
X12745449Y24862739D01*
X12747486Y24863688D01*
X12747676Y24863279D01*
X12812396Y24878982D01*
X12878424Y24856132D01*
X12921616Y24801212D01*
X12930500Y24755122D01*
X12930500Y22796855D01*
X12910815Y22729816D01*
X12888728Y22704040D01*
X12841502Y22662202D01*
X12841500Y22662199D01*
X12751214Y22531398D01*
X12694850Y22382782D01*
X12675693Y22225001D01*
X12675693Y22225000D01*
X12694850Y22067219D01*
X12732218Y21968689D01*
X12747934Y21927250D01*
X12751214Y21918603D01*
X12787554Y21865956D01*
X12841502Y21787799D01*
X12841504Y21787797D01*
X12841506Y21787795D01*
X12960469Y21682402D01*
X12960471Y21682401D01*
X13101207Y21608537D01*
X13160563Y21593907D01*
X13255528Y21570500D01*
X13255529Y21570500D01*
X13414472Y21570500D01*
X13469092Y21583963D01*
X13568793Y21608537D01*
X13709529Y21682401D01*
X13828498Y21787799D01*
X13918787Y21918605D01*
X13975149Y22067218D01*
X13994307Y22225000D01*
X13990130Y22259397D01*
X13975149Y22382782D01*
X13965200Y22409016D01*
X13918787Y22531395D01*
X13828498Y22662201D01*
X13781272Y22704040D01*
X13744146Y22763230D01*
X13739500Y22796855D01*
X13739500Y24755122D01*
X13759185Y24822161D01*
X13811989Y24867916D01*
X13881147Y24877860D01*
X13922455Y24863563D01*
X13922514Y24863688D01*
X13923729Y24863122D01*
X13925504Y24862507D01*
X13927423Y24861399D01*
X14141507Y24761571D01*
X14141516Y24761567D01*
X14355000Y24704366D01*
X14355000Y25599499D01*
X14462685Y25550320D01*
X14569237Y25535000D01*
X14640763Y25535000D01*
X14747315Y25550320D01*
X14855000Y25599499D01*
X14855000Y24704367D01*
X15068483Y24761567D01*
X15068492Y24761571D01*
X15274095Y24857444D01*
X15343173Y24867936D01*
X15406957Y24839416D01*
X15445196Y24780940D01*
X15450500Y24745062D01*
X15450500Y22779137D01*
X15430815Y22712098D01*
X15408729Y22686323D01*
X15381503Y22662203D01*
X15381500Y22662199D01*
X15291214Y22531398D01*
X15234850Y22382782D01*
X15215693Y22225001D01*
X15215693Y22225000D01*
X15234850Y22067219D01*
X15272218Y21968689D01*
X15287934Y21927250D01*
X15291214Y21918603D01*
X15327554Y21865956D01*
X15381502Y21787799D01*
X15381504Y21787797D01*
X15381506Y21787795D01*
X15500469Y21682402D01*
X15500471Y21682401D01*
X15641207Y21608537D01*
X15700563Y21593907D01*
X15795528Y21570500D01*
X15795529Y21570500D01*
X15954472Y21570500D01*
X16009092Y21583963D01*
X16108793Y21608537D01*
X16249529Y21682401D01*
X16368498Y21787799D01*
X16458787Y21918605D01*
X16515149Y22067218D01*
X16534307Y22225000D01*
X16530130Y22259397D01*
X16515149Y22382782D01*
X16505200Y22409016D01*
X16458787Y22531395D01*
X16368498Y22662201D01*
X16368494Y22662204D01*
X16368492Y22662207D01*
X16301272Y22721760D01*
X16264146Y22780949D01*
X16259500Y22814574D01*
X16259500Y24768787D01*
X16279185Y24835826D01*
X16331989Y24881581D01*
X16401147Y24891525D01*
X16454628Y24870359D01*
X16467421Y24861400D01*
X16681507Y24761571D01*
X16681516Y24761567D01*
X16895000Y24704366D01*
X16895000Y25599499D01*
X17002685Y25550320D01*
X17109237Y25535000D01*
X17180763Y25535000D01*
X17287315Y25550320D01*
X17395000Y25599499D01*
X17395000Y24704366D01*
X17608483Y24761567D01*
X17608492Y24761571D01*
X17822576Y24861399D01*
X17824496Y24862507D01*
X17825449Y24862739D01*
X17827486Y24863688D01*
X17827676Y24863279D01*
X17892396Y24878982D01*
X17958424Y24856132D01*
X18001616Y24801212D01*
X18010500Y24755122D01*
X18010500Y22869628D01*
X17990815Y22802589D01*
X17962197Y22773011D01*
X17962585Y22772573D01*
X17838006Y22662206D01*
X17838000Y22662199D01*
X17747714Y22531398D01*
X17691350Y22382782D01*
X17672193Y22225001D01*
X17672193Y22225000D01*
X17691350Y22067219D01*
X17728718Y21968689D01*
X17744434Y21927250D01*
X17747714Y21918603D01*
X17784054Y21865956D01*
X17838002Y21787799D01*
X17838004Y21787797D01*
X17838006Y21787795D01*
X17956969Y21682402D01*
X17956971Y21682401D01*
X18097707Y21608537D01*
X18157063Y21593907D01*
X18252028Y21570500D01*
X18252029Y21570500D01*
X18410972Y21570500D01*
X18465592Y21583963D01*
X18565293Y21608537D01*
X18706029Y21682401D01*
X18824998Y21787799D01*
X18915287Y21918605D01*
X18971649Y22067218D01*
X18990807Y22225000D01*
X18986630Y22259397D01*
X18971649Y22382782D01*
X18961700Y22409016D01*
X18915287Y22531395D01*
X18841449Y22638367D01*
X18819567Y22704720D01*
X18819500Y22708806D01*
X18819500Y24755122D01*
X18839185Y24822161D01*
X18891989Y24867916D01*
X18961147Y24877860D01*
X19002455Y24863563D01*
X19002514Y24863688D01*
X19003729Y24863122D01*
X19005504Y24862507D01*
X19007423Y24861399D01*
X19221507Y24761571D01*
X19221516Y24761567D01*
X19435000Y24704366D01*
X19435000Y25599499D01*
X19542685Y25550320D01*
X19649237Y25535000D01*
X19720763Y25535000D01*
X19827315Y25550320D01*
X19935000Y25599499D01*
X19935000Y24704367D01*
X20148483Y24761567D01*
X20148492Y24761571D01*
X20362576Y24861399D01*
X20364496Y24862507D01*
X20365449Y24862739D01*
X20367486Y24863688D01*
X20367676Y24863279D01*
X20432396Y24878982D01*
X20498424Y24856132D01*
X20541616Y24801212D01*
X20550500Y24755122D01*
X20550500Y24573935D01*
X20557444Y24552559D01*
X20561983Y24533652D01*
X20565501Y24511446D01*
X20575703Y24491424D01*
X20583149Y24473447D01*
X20590093Y24452075D01*
X20590094Y24452072D01*
X20603306Y24433888D01*
X20613471Y24417300D01*
X20623672Y24397280D01*
X20623674Y24397277D01*
X20643352Y24377599D01*
X20643379Y24377570D01*
X21657181Y23363769D01*
X21690666Y23302446D01*
X21693500Y23276088D01*
X21693500Y22932304D01*
X21673815Y22865265D01*
X21667876Y22856818D01*
X21613644Y22786142D01*
X21557772Y22651255D01*
X21557771Y22651253D01*
X21538715Y22506502D01*
X21538715Y22506499D01*
X21557771Y22361748D01*
X21557773Y22361743D01*
X21613642Y22226862D01*
X21613642Y22226861D01*
X21613644Y22226858D01*
X21613645Y22226857D01*
X21702526Y22111026D01*
X21731489Y22088802D01*
X21772689Y22032378D01*
X21780000Y21990429D01*
X21780000Y17026072D01*
X21760315Y16959033D01*
X21731487Y16927697D01*
X21702528Y16905477D01*
X21702526Y16905474D01*
X21615006Y16791415D01*
X21613643Y16789639D01*
X21557772Y16654755D01*
X21557771Y16654753D01*
X21538715Y16510002D01*
X21538715Y16509999D01*
X21557771Y16365248D01*
X21557773Y16365243D01*
X21613642Y16230362D01*
X21613645Y16230356D01*
X21702525Y16114527D01*
X21702526Y16114526D01*
X21818355Y16025646D01*
X21818361Y16025643D01*
X21885801Y15997709D01*
X21953246Y15969772D01*
X22025623Y15960244D01*
X22097999Y15950715D01*
X22098000Y15950715D01*
X22098001Y15950715D01*
X22146251Y15957068D01*
X22242754Y15969772D01*
X22377643Y16025645D01*
X22493474Y16114526D01*
X22582355Y16230357D01*
X22638228Y16365246D01*
X22657285Y16510000D01*
X22638228Y16654754D01*
X22582355Y16789642D01*
X22493474Y16905474D01*
X22493472Y16905476D01*
X22493471Y16905477D01*
X22464512Y16927698D01*
X22423310Y16984127D01*
X22416000Y17026073D01*
X22416000Y21990429D01*
X22435685Y22057468D01*
X22464508Y22088800D01*
X22493474Y22111026D01*
X22582355Y22226857D01*
X22638228Y22361746D01*
X22654191Y22483000D01*
X22657285Y22506499D01*
X22657285Y22506502D01*
X22639280Y22643263D01*
X22638228Y22651254D01*
X22582355Y22786142D01*
X22545951Y22833585D01*
X22528124Y22856818D01*
X22502930Y22921987D01*
X22502500Y22932304D01*
X22502500Y23559064D01*
X22502500Y23559065D01*
X22502500Y23559066D01*
X22495554Y23580443D01*
X22491013Y23599359D01*
X22487498Y23621555D01*
X22477296Y23641577D01*
X22469848Y23659558D01*
X22466876Y23668706D01*
X22462905Y23680929D01*
X22449693Y23699112D01*
X22439524Y23715707D01*
X22438066Y23718568D01*
X22429326Y23735723D01*
X22410875Y23754174D01*
X22410855Y23754196D01*
X21587922Y24577128D01*
X21554437Y24638451D01*
X21559421Y24708142D01*
X21601293Y24764076D01*
X21666757Y24788493D01*
X21728008Y24777191D01*
X21761507Y24761571D01*
X21761516Y24761567D01*
X21975000Y24704366D01*
X21975000Y25599499D01*
X22082685Y25550320D01*
X22189237Y25535000D01*
X22260763Y25535000D01*
X22367315Y25550320D01*
X22475000Y25599499D01*
X22475000Y24704366D01*
X22688483Y24761567D01*
X22688492Y24761571D01*
X22902576Y24861399D01*
X22904496Y24862507D01*
X22905449Y24862739D01*
X22907486Y24863688D01*
X22907676Y24863279D01*
X22972396Y24878982D01*
X23038424Y24856132D01*
X23081616Y24801212D01*
X23090500Y24755122D01*
X23090500Y24700934D01*
X23093596Y24691404D01*
X23097444Y24679559D01*
X23101983Y24660652D01*
X23105501Y24638446D01*
X23115703Y24618424D01*
X23123149Y24600447D01*
X23130093Y24579075D01*
X23130094Y24579072D01*
X23143306Y24560888D01*
X23153471Y24544300D01*
X23163672Y24524280D01*
X23163674Y24524277D01*
X23183352Y24504599D01*
X23183379Y24504570D01*
X24324181Y23363769D01*
X24357666Y23302446D01*
X24360500Y23276088D01*
X24360500Y22908804D01*
X24340815Y22841765D01*
X24334876Y22833318D01*
X24280644Y22762642D01*
X24224772Y22627755D01*
X24224771Y22627753D01*
X24205715Y22483002D01*
X24205715Y22482999D01*
X24224771Y22338248D01*
X24224773Y22338243D01*
X24280642Y22203362D01*
X24280645Y22203356D01*
X24334875Y22132684D01*
X24360070Y22067515D01*
X24360500Y22057197D01*
X24360500Y16300804D01*
X24340815Y16233765D01*
X24334876Y16225318D01*
X24280644Y16154642D01*
X24224772Y16019755D01*
X24224771Y16019753D01*
X24205715Y15875002D01*
X24205715Y15874999D01*
X24224771Y15730248D01*
X24224773Y15730243D01*
X24280642Y15595362D01*
X24280645Y15595356D01*
X24369525Y15479527D01*
X24369526Y15479526D01*
X24485355Y15390646D01*
X24485361Y15390643D01*
X24552801Y15362709D01*
X24620246Y15334772D01*
X24692623Y15325244D01*
X24764999Y15315715D01*
X24765000Y15315715D01*
X24765001Y15315715D01*
X24813251Y15322068D01*
X24909754Y15334772D01*
X25044643Y15390645D01*
X25160474Y15479526D01*
X25249355Y15595357D01*
X25305228Y15730246D01*
X25324285Y15875000D01*
X25321030Y15899721D01*
X25305228Y16019753D01*
X25305228Y16019754D01*
X25249355Y16154642D01*
X25195124Y16225318D01*
X25169930Y16290487D01*
X25169500Y16300804D01*
X25169500Y22057197D01*
X25189185Y22124236D01*
X25195125Y22132684D01*
X25205804Y22146601D01*
X25249355Y22203357D01*
X25305228Y22338246D01*
X25317932Y22434749D01*
X25324285Y22482999D01*
X25324285Y22483002D01*
X25305228Y22627753D01*
X25305228Y22627754D01*
X25249355Y22762642D01*
X25229175Y22788941D01*
X25195124Y22833318D01*
X25169930Y22898487D01*
X25169500Y22908804D01*
X25169500Y23559065D01*
X25169499Y23559071D01*
X25162557Y23580435D01*
X25158013Y23599359D01*
X25157154Y23604783D01*
X25154498Y23621555D01*
X25144292Y23641584D01*
X25136846Y23659562D01*
X25133875Y23668706D01*
X25129904Y23680929D01*
X25116690Y23699116D01*
X25106532Y23715693D01*
X25096326Y23735723D01*
X25077866Y23754183D01*
X25077849Y23754202D01*
X24313149Y24518902D01*
X24279664Y24580225D01*
X24284648Y24649917D01*
X24326520Y24705850D01*
X24391984Y24730267D01*
X24432923Y24726358D01*
X24515000Y24704366D01*
X24515000Y25599499D01*
X24622685Y25550320D01*
X24729237Y25535000D01*
X24800763Y25535000D01*
X24907315Y25550320D01*
X25015000Y25599499D01*
X25015000Y24704367D01*
X25228483Y24761567D01*
X25228492Y24761571D01*
X25442576Y24861399D01*
X25444496Y24862507D01*
X25445449Y24862739D01*
X25447486Y24863688D01*
X25447676Y24863279D01*
X25512396Y24878982D01*
X25578424Y24856132D01*
X25621616Y24801212D01*
X25630500Y24755122D01*
X25630500Y24700934D01*
X25633596Y24691404D01*
X25637444Y24679559D01*
X25641983Y24660652D01*
X25645501Y24638446D01*
X25655703Y24618424D01*
X25663149Y24600447D01*
X25670093Y24579075D01*
X25670094Y24579072D01*
X25683306Y24560888D01*
X25693471Y24544300D01*
X25703672Y24524280D01*
X25703674Y24524277D01*
X25723352Y24504599D01*
X25723379Y24504570D01*
X26864181Y23363769D01*
X26897666Y23302446D01*
X26900500Y23276088D01*
X26900500Y22932304D01*
X26880815Y22865265D01*
X26874876Y22856818D01*
X26820644Y22786142D01*
X26764772Y22651255D01*
X26764771Y22651253D01*
X26745715Y22506502D01*
X26745715Y22506499D01*
X26764771Y22361748D01*
X26764773Y22361743D01*
X26820642Y22226862D01*
X26820645Y22226856D01*
X26909525Y22111027D01*
X26909526Y22111026D01*
X27025355Y22022146D01*
X27025361Y22022143D01*
X27031467Y22019614D01*
X27160246Y21966272D01*
X27221446Y21958215D01*
X27304999Y21947215D01*
X27305000Y21947215D01*
X27305001Y21947215D01*
X27388554Y21958215D01*
X27449754Y21966272D01*
X27584643Y22022145D01*
X27700474Y22111026D01*
X27789355Y22226857D01*
X27845228Y22361746D01*
X27861191Y22483000D01*
X27864285Y22506499D01*
X27864285Y22506502D01*
X27851186Y22605999D01*
X30555715Y22605999D01*
X30574771Y22461248D01*
X30574773Y22461243D01*
X30630642Y22326362D01*
X30630645Y22326356D01*
X30719525Y22210527D01*
X30719526Y22210526D01*
X30835355Y22121646D01*
X30835361Y22121643D01*
X30860986Y22111029D01*
X30970246Y22065772D01*
X31006296Y22061026D01*
X31114999Y22046715D01*
X31115000Y22046715D01*
X31115001Y22046715D01*
X31163251Y22053068D01*
X31259754Y22065772D01*
X31394643Y22121645D01*
X31510474Y22210526D01*
X31510476Y22210528D01*
X31515134Y22215185D01*
X31576459Y22248667D01*
X31602811Y22251500D01*
X31678799Y22251500D01*
X31745838Y22231815D01*
X31766480Y22215181D01*
X31994181Y21987480D01*
X32027666Y21926157D01*
X32030500Y21899799D01*
X32030500Y6040311D01*
X32010815Y5973272D01*
X31994185Y5952634D01*
X31989532Y5947981D01*
X31989527Y5947976D01*
X31989526Y5947974D01*
X31919316Y5856474D01*
X31900643Y5832139D01*
X31844772Y5697255D01*
X31844771Y5697253D01*
X31825715Y5552502D01*
X31825715Y5552499D01*
X31844771Y5407748D01*
X31844773Y5407743D01*
X31900642Y5272862D01*
X31900645Y5272856D01*
X31989525Y5157027D01*
X31989526Y5157026D01*
X32105355Y5068146D01*
X32105361Y5068143D01*
X32164256Y5043748D01*
X32240246Y5012272D01*
X32312623Y5002744D01*
X32384999Y4993215D01*
X32385000Y4993215D01*
X32385001Y4993215D01*
X32433251Y4999568D01*
X32529754Y5012272D01*
X32664643Y5068145D01*
X32780474Y5157026D01*
X32869355Y5272857D01*
X32925228Y5407746D01*
X32943627Y5547501D01*
X32944285Y5552499D01*
X32944285Y5552502D01*
X32925228Y5697253D01*
X32925228Y5697254D01*
X32869355Y5832142D01*
X32780474Y5947974D01*
X32780470Y5947978D01*
X32780467Y5947981D01*
X32775815Y5952634D01*
X32742333Y6013959D01*
X32739500Y6040311D01*
X32739500Y22048374D01*
X32742139Y22073821D01*
X32742167Y22073955D01*
X32744095Y22083148D01*
X32740452Y22112375D01*
X32739583Y22126362D01*
X32739500Y22127364D01*
X32739500Y22127377D01*
X32738186Y22135250D01*
X32736291Y22146608D01*
X32735552Y22151672D01*
X32730344Y22193458D01*
X32729460Y22200552D01*
X32727337Y22207680D01*
X32724930Y22214691D01*
X32724929Y22214698D01*
X32701447Y22258086D01*
X32699125Y22262601D01*
X32698144Y22264607D01*
X32677499Y22306840D01*
X32677497Y22306842D01*
X32673174Y22312897D01*
X32668619Y22318749D01*
X32632365Y22352124D01*
X32628667Y22355672D01*
X32466840Y22517499D01*
X33095715Y22517499D01*
X33114771Y22372748D01*
X33114773Y22372743D01*
X33170642Y22237862D01*
X33170645Y22237856D01*
X33259525Y22122027D01*
X33259526Y22122026D01*
X33375355Y22033146D01*
X33375361Y22033143D01*
X33442801Y22005209D01*
X33510246Y21977272D01*
X33575441Y21968689D01*
X33654999Y21958215D01*
X33655000Y21958215D01*
X33655001Y21958215D01*
X33703251Y21964568D01*
X33799754Y21977272D01*
X33934643Y22033145D01*
X34050474Y22122026D01*
X34050476Y22122028D01*
X34055134Y22126685D01*
X34116459Y22160167D01*
X34142811Y22163000D01*
X34180299Y22163000D01*
X34247338Y22143315D01*
X34267975Y22126686D01*
X34407182Y21987480D01*
X34440666Y21926159D01*
X34443500Y21899800D01*
X34443500Y20518202D01*
X34423815Y20451163D01*
X34407181Y20430521D01*
X33774420Y19797761D01*
X33754568Y19781638D01*
X33746585Y19776422D01*
X33746584Y19776422D01*
X33746584Y19776421D01*
X33728488Y19753173D01*
X33719204Y19742660D01*
X33718554Y19741893D01*
X33707233Y19726038D01*
X33704178Y19721941D01*
X33673914Y19683057D01*
X33670362Y19676493D01*
X33667118Y19669856D01*
X33653055Y19622623D01*
X33651494Y19617750D01*
X33635498Y19571153D01*
X33634278Y19563844D01*
X33633357Y19556455D01*
X33635394Y19507240D01*
X33635500Y19502114D01*
X33635500Y4932811D01*
X33615815Y4865772D01*
X33599185Y4845134D01*
X33594532Y4840481D01*
X33594527Y4840476D01*
X33594526Y4840474D01*
X33513342Y4734673D01*
X33505643Y4724639D01*
X33449772Y4589755D01*
X33449771Y4589753D01*
X33430715Y4445002D01*
X33430715Y4444999D01*
X33449771Y4300248D01*
X33449773Y4300243D01*
X33505642Y4165362D01*
X33505645Y4165356D01*
X33594525Y4049527D01*
X33594526Y4049526D01*
X33710355Y3960646D01*
X33710361Y3960643D01*
X33750580Y3943984D01*
X33845246Y3904772D01*
X33871414Y3901327D01*
X33989999Y3885715D01*
X33990000Y3885715D01*
X33990001Y3885715D01*
X34038251Y3892068D01*
X34134754Y3904772D01*
X34269643Y3960645D01*
X34385474Y4049526D01*
X34474355Y4165357D01*
X34530228Y4300246D01*
X34549285Y4445000D01*
X34546053Y4469547D01*
X34541541Y4503822D01*
X34552307Y4572857D01*
X34598686Y4625113D01*
X34648294Y4642946D01*
X34688754Y4648272D01*
X34823643Y4704145D01*
X34939474Y4793026D01*
X35028355Y4908857D01*
X35084228Y5043746D01*
X35099593Y5160459D01*
X35103285Y5188499D01*
X35103285Y5188502D01*
X35090580Y5285003D01*
X35084228Y5333254D01*
X35028355Y5468142D01*
X34939474Y5583974D01*
X34939470Y5583978D01*
X34939467Y5583981D01*
X34934815Y5588634D01*
X34901333Y5649959D01*
X34898500Y5676311D01*
X34898500Y12720189D01*
X34918185Y12787228D01*
X34934819Y12807870D01*
X34939469Y12812521D01*
X34939471Y12812524D01*
X34939474Y12812526D01*
X35028355Y12928357D01*
X35084228Y13063246D01*
X35103285Y13208000D01*
X35098054Y13247731D01*
X35084228Y13352753D01*
X35084228Y13352754D01*
X35028355Y13487642D01*
X34939474Y13603474D01*
X34823643Y13692355D01*
X34823640Y13692356D01*
X34823638Y13692358D01*
X34688757Y13748227D01*
X34688752Y13748229D01*
X34544001Y13767285D01*
X34543997Y13767285D01*
X34484684Y13759477D01*
X34415649Y13770243D01*
X34363393Y13816624D01*
X34344500Y13882416D01*
X34344500Y17144999D01*
X37159715Y17144999D01*
X37178771Y17000248D01*
X37178773Y17000243D01*
X37234642Y16865362D01*
X37234645Y16865356D01*
X37323525Y16749527D01*
X37323526Y16749526D01*
X37439355Y16660646D01*
X37439361Y16660643D01*
X37479206Y16644139D01*
X37574246Y16604772D01*
X37646623Y16595244D01*
X37718999Y16585715D01*
X37719000Y16585715D01*
X37859315Y16604188D01*
X37928350Y16593423D01*
X37980606Y16547043D01*
X37999500Y16481249D01*
X37999500Y15092811D01*
X37979815Y15025772D01*
X37963185Y15005134D01*
X37958532Y15000481D01*
X37958527Y15000476D01*
X37958526Y15000474D01*
X37929901Y14963169D01*
X37869643Y14884639D01*
X37813772Y14749755D01*
X37813771Y14749753D01*
X37794715Y14605002D01*
X37794715Y14604999D01*
X37813771Y14460248D01*
X37813773Y14460243D01*
X37869642Y14325362D01*
X37869645Y14325356D01*
X37958525Y14209527D01*
X37958526Y14209526D01*
X38074355Y14120646D01*
X38074361Y14120643D01*
X38137662Y14094423D01*
X38209246Y14064772D01*
X38281623Y14055244D01*
X38353999Y14045715D01*
X38354000Y14045715D01*
X38354001Y14045715D01*
X38402251Y14052068D01*
X38498754Y14064772D01*
X38633643Y14120645D01*
X38749474Y14209526D01*
X38763624Y14227968D01*
X38820052Y14269170D01*
X38889798Y14273325D01*
X38950718Y14239113D01*
X38960376Y14227967D01*
X38974526Y14209526D01*
X39090355Y14120646D01*
X39090361Y14120643D01*
X39153662Y14094423D01*
X39225246Y14064772D01*
X39297623Y14055244D01*
X39369999Y14045715D01*
X39370000Y14045715D01*
X39370001Y14045715D01*
X39418251Y14052068D01*
X39514754Y14064772D01*
X39649643Y14120645D01*
X39765474Y14209526D01*
X39854355Y14325357D01*
X39910228Y14460246D01*
X39929285Y14605000D01*
X39910228Y14749754D01*
X39854355Y14884642D01*
X39765474Y15000474D01*
X39765470Y15000478D01*
X39765467Y15000481D01*
X39760815Y15005134D01*
X39727333Y15066459D01*
X39724500Y15092811D01*
X39724500Y19073689D01*
X39744185Y19140728D01*
X39760819Y19161370D01*
X39765469Y19166021D01*
X39765471Y19166024D01*
X39765474Y19166026D01*
X39854355Y19281857D01*
X39910228Y19416746D01*
X39929285Y19561500D01*
X39928976Y19563844D01*
X39910228Y19706253D01*
X39910228Y19706254D01*
X39854355Y19841142D01*
X39765474Y19956974D01*
X39649643Y20045855D01*
X39649640Y20045856D01*
X39649638Y20045858D01*
X39514757Y20101727D01*
X39514752Y20101729D01*
X39370001Y20120785D01*
X39369999Y20120785D01*
X39225247Y20101729D01*
X39225245Y20101728D01*
X39090360Y20045857D01*
X39090357Y20045855D01*
X38990897Y19969537D01*
X38925727Y19944343D01*
X38857283Y19958382D01*
X38817036Y19992425D01*
X38749474Y20080474D01*
X38749472Y20080475D01*
X38749472Y20080476D01*
X38696940Y20120785D01*
X38633643Y20169355D01*
X38633640Y20169356D01*
X38633638Y20169358D01*
X38498757Y20225227D01*
X38498752Y20225229D01*
X38376281Y20241352D01*
X38312384Y20269619D01*
X38273913Y20327943D01*
X38269527Y20380476D01*
X38278285Y20446999D01*
X38278285Y20447002D01*
X38259228Y20591753D01*
X38259228Y20591754D01*
X38203355Y20726642D01*
X38114474Y20842474D01*
X37998643Y20931355D01*
X37998640Y20931356D01*
X37998638Y20931358D01*
X37863757Y20987227D01*
X37863752Y20987229D01*
X37719001Y21006285D01*
X37718999Y21006285D01*
X37574247Y20987229D01*
X37574245Y20987228D01*
X37439361Y20931357D01*
X37439358Y20931356D01*
X37439358Y20931355D01*
X37407171Y20906657D01*
X37323526Y20842474D01*
X37234643Y20726639D01*
X37178772Y20591755D01*
X37178771Y20591753D01*
X37159715Y20447002D01*
X37159715Y20446999D01*
X37178771Y20302248D01*
X37178773Y20302243D01*
X37234642Y20167362D01*
X37234642Y20167361D01*
X37323530Y20051521D01*
X37328181Y20046870D01*
X37361666Y19985547D01*
X37364500Y19959189D01*
X37364500Y17632811D01*
X37344815Y17565772D01*
X37328185Y17545134D01*
X37323532Y17540481D01*
X37323527Y17540476D01*
X37323526Y17540474D01*
X37255357Y17451634D01*
X37234643Y17424639D01*
X37178772Y17289755D01*
X37178771Y17289753D01*
X37159715Y17145002D01*
X37159715Y17144999D01*
X34344500Y17144999D01*
X34344500Y19313801D01*
X34364185Y19380840D01*
X34380815Y19401478D01*
X35013577Y20034241D01*
X35033436Y20050367D01*
X35041416Y20055579D01*
X35059508Y20078826D01*
X35068754Y20089293D01*
X35069431Y20090094D01*
X35069442Y20090104D01*
X35080756Y20105954D01*
X35083789Y20110023D01*
X35114085Y20148944D01*
X35114088Y20148955D01*
X35117633Y20155504D01*
X35120881Y20162148D01*
X35120880Y20162148D01*
X35120884Y20162152D01*
X35134957Y20209426D01*
X35136506Y20214256D01*
X35140273Y20225227D01*
X35152500Y20260844D01*
X35152500Y20260850D01*
X35153724Y20268185D01*
X35154642Y20275547D01*
X35152606Y20324773D01*
X35152500Y20329898D01*
X35152500Y22048373D01*
X35155139Y22073819D01*
X35156676Y22081151D01*
X35157095Y22083147D01*
X35153452Y22112375D01*
X35152584Y22126359D01*
X35152500Y22127369D01*
X35152500Y22127377D01*
X35149291Y22146608D01*
X35148553Y22151674D01*
X35145414Y22176857D01*
X35142461Y22200551D01*
X35142459Y22200556D01*
X35140338Y22207682D01*
X35137930Y22214695D01*
X35137929Y22214697D01*
X35137929Y22214698D01*
X35114475Y22258037D01*
X35112144Y22262564D01*
X35090499Y22306839D01*
X35090497Y22306841D01*
X35090497Y22306842D01*
X35086185Y22312882D01*
X35081619Y22318749D01*
X35045355Y22352133D01*
X35041658Y22355681D01*
X34664261Y22733078D01*
X34648133Y22752939D01*
X34642923Y22760913D01*
X34642922Y22760914D01*
X34642921Y22760916D01*
X34619678Y22779007D01*
X34609168Y22788289D01*
X34608398Y22788941D01*
X34608397Y22788942D01*
X34592531Y22800271D01*
X34588434Y22803325D01*
X34549556Y22833585D01*
X34549555Y22833586D01*
X34549553Y22833587D01*
X34543021Y22837122D01*
X34536345Y22840386D01*
X34489114Y22854448D01*
X34484240Y22856010D01*
X34437656Y22872001D01*
X34430349Y22873221D01*
X34422952Y22874143D01*
X34374666Y22872145D01*
X34373736Y22872106D01*
X34368612Y22872000D01*
X34142811Y22872000D01*
X34075772Y22891685D01*
X34055130Y22908319D01*
X34050479Y22912970D01*
X34050474Y22912974D01*
X33934643Y23001855D01*
X33934640Y23001856D01*
X33934638Y23001858D01*
X33799757Y23057727D01*
X33799752Y23057729D01*
X33655001Y23076785D01*
X33654999Y23076785D01*
X33510247Y23057729D01*
X33510245Y23057728D01*
X33375361Y23001857D01*
X33375358Y23001856D01*
X33375358Y23001855D01*
X33259526Y22912974D01*
X33174187Y22801757D01*
X33170643Y22797139D01*
X33114772Y22662255D01*
X33114771Y22662253D01*
X33095715Y22517502D01*
X33095715Y22517499D01*
X32466840Y22517499D01*
X32162761Y22821578D01*
X32146633Y22841439D01*
X32141423Y22849413D01*
X32141422Y22849414D01*
X32141421Y22849416D01*
X32118178Y22867507D01*
X32107668Y22876789D01*
X32106898Y22877441D01*
X32106897Y22877442D01*
X32091031Y22888771D01*
X32086934Y22891825D01*
X32070562Y22904568D01*
X32048056Y22922085D01*
X32048055Y22922086D01*
X32048053Y22922087D01*
X32041521Y22925622D01*
X32034845Y22928886D01*
X31987614Y22942948D01*
X31982740Y22944510D01*
X31936156Y22960501D01*
X31928849Y22961721D01*
X31921452Y22962643D01*
X31873166Y22960645D01*
X31872236Y22960606D01*
X31867112Y22960500D01*
X31602811Y22960500D01*
X31535772Y22980185D01*
X31515130Y22996819D01*
X31510479Y23001470D01*
X31509975Y23001857D01*
X31394643Y23090355D01*
X31394640Y23090356D01*
X31394638Y23090358D01*
X31259757Y23146227D01*
X31259752Y23146229D01*
X31115001Y23165285D01*
X31114999Y23165285D01*
X30970247Y23146229D01*
X30970245Y23146228D01*
X30835361Y23090357D01*
X30835358Y23090356D01*
X30835358Y23090355D01*
X30719526Y23001474D01*
X30634187Y22890257D01*
X30630643Y22885639D01*
X30574772Y22750755D01*
X30574771Y22750753D01*
X30555715Y22606002D01*
X30555715Y22605999D01*
X27851186Y22605999D01*
X27846280Y22643263D01*
X27845228Y22651254D01*
X27789355Y22786142D01*
X27752951Y22833585D01*
X27735124Y22856818D01*
X27709930Y22921987D01*
X27709500Y22932304D01*
X27709500Y23559065D01*
X27709499Y23559071D01*
X27702557Y23580435D01*
X27698013Y23599359D01*
X27697154Y23604783D01*
X27694498Y23621555D01*
X27684292Y23641584D01*
X27676846Y23659562D01*
X27673875Y23668706D01*
X27669904Y23680929D01*
X27656690Y23699116D01*
X27646532Y23715693D01*
X27636326Y23735723D01*
X27617866Y23754183D01*
X27617849Y23754202D01*
X26853149Y24518902D01*
X26819664Y24580225D01*
X26824648Y24649917D01*
X26866520Y24705850D01*
X26931984Y24730267D01*
X26972923Y24726358D01*
X27055000Y24704366D01*
X27055000Y25599499D01*
X27162685Y25550320D01*
X27269237Y25535000D01*
X27340763Y25535000D01*
X27447315Y25550320D01*
X27555000Y25599499D01*
X27555000Y24704367D01*
X27768483Y24761567D01*
X27768492Y24761571D01*
X27982578Y24861400D01*
X28176082Y24996895D01*
X28343105Y25163918D01*
X28473425Y25350032D01*
X28528002Y25393656D01*
X28597501Y25400849D01*
X28659855Y25369327D01*
X28676575Y25350032D01*
X28806894Y25163918D01*
X28973917Y24996895D01*
X29167421Y24861400D01*
X29381507Y24761571D01*
X29381516Y24761567D01*
X29595000Y24704366D01*
X29595000Y25599499D01*
X29702685Y25550320D01*
X29809237Y25535000D01*
X29880763Y25535000D01*
X29987315Y25550320D01*
X30095000Y25599499D01*
X30095000Y24704366D01*
X30308483Y24761567D01*
X30308492Y24761571D01*
X30522578Y24861400D01*
X30716082Y24996895D01*
X30883105Y25163918D01*
X31013425Y25350032D01*
X31068002Y25393656D01*
X31137501Y25400849D01*
X31199855Y25369327D01*
X31216575Y25350032D01*
X31346894Y25163918D01*
X31513917Y24996895D01*
X31707421Y24861400D01*
X31921507Y24761571D01*
X31921516Y24761567D01*
X32135000Y24704366D01*
X32135000Y25599499D01*
X32242685Y25550320D01*
X32349237Y25535000D01*
X32420763Y25535000D01*
X32527315Y25550320D01*
X32635000Y25599499D01*
X32635000Y24704367D01*
X32848483Y24761567D01*
X32848492Y24761571D01*
X33062578Y24861400D01*
X33256082Y24996895D01*
X33423105Y25163918D01*
X33553425Y25350032D01*
X33608002Y25393656D01*
X33677501Y25400849D01*
X33739855Y25369327D01*
X33756575Y25350032D01*
X33886894Y25163918D01*
X34053917Y24996895D01*
X34247421Y24861400D01*
X34461507Y24761571D01*
X34461516Y24761567D01*
X34675000Y24704366D01*
X34675000Y25599499D01*
X34782685Y25550320D01*
X34889237Y25535000D01*
X34960763Y25535000D01*
X35067315Y25550320D01*
X35175000Y25599499D01*
X35175000Y24704367D01*
X35388483Y24761567D01*
X35388492Y24761571D01*
X35602578Y24861400D01*
X35796082Y24996895D01*
X35963105Y25163918D01*
X36093425Y25350032D01*
X36148002Y25393656D01*
X36217501Y25400849D01*
X36279855Y25369327D01*
X36296575Y25350032D01*
X36426894Y25163918D01*
X36593917Y24996895D01*
X36787421Y24861400D01*
X37001507Y24761571D01*
X37001516Y24761567D01*
X37215000Y24704366D01*
X37215000Y25599499D01*
X37322685Y25550320D01*
X37429237Y25535000D01*
X37500763Y25535000D01*
X37607315Y25550320D01*
X37715000Y25599499D01*
X37715000Y24704366D01*
X37928483Y24761567D01*
X37928492Y24761571D01*
X38142578Y24861400D01*
X38336082Y24996895D01*
X38503105Y25163918D01*
X38633425Y25350032D01*
X38688002Y25393656D01*
X38757501Y25400849D01*
X38819855Y25369327D01*
X38836575Y25350032D01*
X38966894Y25163918D01*
X39133917Y24996895D01*
X39327421Y24861400D01*
X39541507Y24761571D01*
X39541516Y24761567D01*
X39755000Y24704366D01*
X39755000Y25599499D01*
X39862685Y25550320D01*
X39969237Y25535000D01*
X40040763Y25535000D01*
X40147315Y25550320D01*
X40255000Y25599499D01*
X40255000Y24704367D01*
X40468483Y24761567D01*
X40468492Y24761571D01*
X40682579Y24861401D01*
X40682583Y24861403D01*
X40695953Y24870765D01*
X40762158Y24893095D01*
X40829926Y24876087D01*
X40877741Y24825141D01*
X40890128Y24784533D01*
X40891531Y24773281D01*
X40893794Y24755122D01*
X40894548Y24749078D01*
X40895500Y24733738D01*
X40895500Y24733557D01*
X40898959Y24712825D01*
X40899697Y24707758D01*
X40906247Y24655219D01*
X40908505Y24647633D01*
X40911101Y24640070D01*
X40936279Y24593546D01*
X40938624Y24588990D01*
X40961874Y24541431D01*
X40966472Y24534992D01*
X40971381Y24528684D01*
X41010323Y24492835D01*
X41013995Y24489311D01*
X42129181Y23374125D01*
X42162666Y23312802D01*
X42165500Y23286444D01*
X42165500Y22914885D01*
X42145815Y22847846D01*
X42139876Y22839399D01*
X42060645Y22736143D01*
X42060643Y22736140D01*
X42004772Y22601255D01*
X42004771Y22601253D01*
X41985715Y22456502D01*
X41985715Y22449917D01*
X41966030Y22382878D01*
X41949395Y22362235D01*
X41902419Y22315260D01*
X41882568Y22299138D01*
X41874585Y22293922D01*
X41874584Y22293922D01*
X41874584Y22293921D01*
X41856488Y22270673D01*
X41847204Y22260160D01*
X41846554Y22259393D01*
X41835233Y22243538D01*
X41832178Y22239441D01*
X41801914Y22200557D01*
X41798362Y22193993D01*
X41795118Y22187356D01*
X41781055Y22140123D01*
X41779494Y22135250D01*
X41763498Y22088653D01*
X41762278Y22081344D01*
X41761357Y22073955D01*
X41763394Y22024740D01*
X41763500Y22019614D01*
X41763500Y14192627D01*
X41760861Y14167183D01*
X41758905Y14157855D01*
X41758905Y14157852D01*
X41762548Y14128627D01*
X41763418Y14114606D01*
X41763499Y14113623D01*
X41766703Y14094423D01*
X41767441Y14089357D01*
X41773538Y14040449D01*
X41775652Y14033347D01*
X41778071Y14026302D01*
X41801516Y13982978D01*
X41803860Y13978425D01*
X41825500Y13934162D01*
X41829827Y13928101D01*
X41834379Y13922253D01*
X41834380Y13922252D01*
X41834381Y13922251D01*
X41841427Y13915765D01*
X41870633Y13888879D01*
X41874331Y13885330D01*
X43551181Y12208481D01*
X43584666Y12147158D01*
X43587500Y12120800D01*
X43587500Y6837811D01*
X43567815Y6770772D01*
X43551185Y6750134D01*
X43546532Y6745481D01*
X43546527Y6745476D01*
X43546526Y6745474D01*
X43463124Y6636782D01*
X43457643Y6629639D01*
X43401772Y6494755D01*
X43401771Y6494753D01*
X43382715Y6350002D01*
X43382715Y6349999D01*
X43401771Y6205248D01*
X43401773Y6205243D01*
X43457642Y6070362D01*
X43457645Y6070356D01*
X43546525Y5954527D01*
X43546526Y5954526D01*
X43662355Y5865646D01*
X43662361Y5865643D01*
X43713275Y5844554D01*
X43797246Y5809772D01*
X43869623Y5800244D01*
X43941999Y5790715D01*
X43942000Y5790715D01*
X43942001Y5790715D01*
X43990251Y5797068D01*
X44086754Y5809772D01*
X44221643Y5865645D01*
X44337474Y5954526D01*
X44426355Y6070357D01*
X44482228Y6205246D01*
X44500189Y6341673D01*
X44501285Y6349999D01*
X44501285Y6350002D01*
X44486102Y6465324D01*
X44482228Y6494754D01*
X44426355Y6629642D01*
X44337474Y6745474D01*
X44337470Y6745478D01*
X44337467Y6745481D01*
X44332815Y6750134D01*
X44299333Y6811459D01*
X44296500Y6837811D01*
X44296500Y12269373D01*
X44299139Y12294819D01*
X44301095Y12304147D01*
X44297452Y12333375D01*
X44296584Y12347359D01*
X44296500Y12348369D01*
X44296500Y12348377D01*
X44293292Y12367601D01*
X44292553Y12372674D01*
X44288917Y12401844D01*
X44286461Y12421551D01*
X44286459Y12421554D01*
X44284338Y12428682D01*
X44281930Y12435695D01*
X44281929Y12435697D01*
X44281929Y12435698D01*
X44258478Y12479030D01*
X44256144Y12483564D01*
X44234499Y12527839D01*
X44230168Y12533905D01*
X44225617Y12539751D01*
X44189353Y12573135D01*
X44185655Y12576683D01*
X42508819Y14253520D01*
X42475334Y14314843D01*
X42472500Y14341201D01*
X42472500Y15690085D01*
X42492185Y15757124D01*
X42544989Y15802879D01*
X42612685Y15813024D01*
X42672000Y15805215D01*
X42672001Y15805215D01*
X42731316Y15813024D01*
X42816754Y15824272D01*
X42951643Y15880145D01*
X43067474Y15969026D01*
X43156355Y16084857D01*
X43212228Y16219746D01*
X43231285Y16364500D01*
X43212228Y16509254D01*
X43156355Y16644142D01*
X43067474Y16759974D01*
X43067470Y16759978D01*
X43067467Y16759981D01*
X43062815Y16764634D01*
X43029333Y16825959D01*
X43026500Y16852311D01*
X43026500Y17419189D01*
X43046185Y17486228D01*
X43062819Y17506870D01*
X43067469Y17511521D01*
X43067471Y17511524D01*
X43067474Y17511526D01*
X43156355Y17627357D01*
X43212228Y17762246D01*
X43231285Y17907000D01*
X43212228Y18051754D01*
X43156355Y18186642D01*
X43067474Y18302474D01*
X42951643Y18391355D01*
X42951640Y18391356D01*
X42951638Y18391358D01*
X42816757Y18447227D01*
X42816752Y18447229D01*
X42672001Y18466285D01*
X42671997Y18466285D01*
X42612684Y18458477D01*
X42543649Y18469243D01*
X42491393Y18515624D01*
X42472500Y18581416D01*
X42472500Y21778926D01*
X42492185Y21845965D01*
X42544989Y21891720D01*
X42580312Y21901864D01*
X42689754Y21916272D01*
X42824643Y21972145D01*
X42940474Y22061026D01*
X43029355Y22176857D01*
X43085228Y22311746D01*
X43104285Y22456500D01*
X43103497Y22462483D01*
X43085228Y22601253D01*
X43085228Y22601254D01*
X43029355Y22736142D01*
X43010345Y22760916D01*
X42950124Y22839399D01*
X42924930Y22904568D01*
X42924500Y22914885D01*
X42924500Y23442785D01*
X42927139Y23468230D01*
X42927600Y23470434D01*
X42929418Y23479100D01*
X42925452Y23510919D01*
X42924500Y23526256D01*
X42924500Y23526441D01*
X42924499Y23526451D01*
X42921037Y23547189D01*
X42920299Y23552247D01*
X42913752Y23604783D01*
X42913750Y23604786D01*
X42911486Y23612396D01*
X42908901Y23619925D01*
X42883720Y23666456D01*
X42881375Y23671013D01*
X42858127Y23718568D01*
X42853541Y23724991D01*
X42848620Y23731314D01*
X42848619Y23731316D01*
X42809676Y23767166D01*
X42806002Y23770692D01*
X42044851Y24531843D01*
X42011366Y24593166D01*
X42016350Y24662858D01*
X42058222Y24718791D01*
X42123686Y24743208D01*
X42164625Y24739299D01*
X42295000Y24704366D01*
X42295000Y25599499D01*
X42402685Y25550320D01*
X42509237Y25535000D01*
X42580763Y25535000D01*
X42687315Y25550320D01*
X42795000Y25599499D01*
X42795000Y24704366D01*
X43008483Y24761567D01*
X43008492Y24761571D01*
X43222579Y24861401D01*
X43222583Y24861403D01*
X43235953Y24870765D01*
X43302158Y24893095D01*
X43369926Y24876087D01*
X43417741Y24825141D01*
X43430128Y24784533D01*
X43431531Y24773281D01*
X43433794Y24755122D01*
X43434548Y24749078D01*
X43435500Y24733738D01*
X43435500Y24733557D01*
X43438959Y24712825D01*
X43439697Y24707758D01*
X43446247Y24655219D01*
X43448505Y24647633D01*
X43451101Y24640070D01*
X43476279Y24593546D01*
X43478624Y24588990D01*
X43501874Y24541431D01*
X43506472Y24534992D01*
X43511381Y24528684D01*
X43550323Y24492835D01*
X43553995Y24489311D01*
X44669181Y23374125D01*
X44702666Y23312802D01*
X44705500Y23286444D01*
X44705500Y22914885D01*
X44685815Y22847846D01*
X44679876Y22839399D01*
X44600645Y22736143D01*
X44600643Y22736140D01*
X44544772Y22601255D01*
X44544771Y22601253D01*
X44525715Y22456502D01*
X44525715Y22456499D01*
X44544771Y22311748D01*
X44544773Y22311743D01*
X44600642Y22176862D01*
X44600645Y22176856D01*
X44689525Y22061027D01*
X44689526Y22061026D01*
X44805355Y21972146D01*
X44805361Y21972143D01*
X44856014Y21951162D01*
X44940246Y21916272D01*
X45012623Y21906744D01*
X45084999Y21897215D01*
X45091584Y21897215D01*
X45158623Y21877530D01*
X45179265Y21860896D01*
X46072181Y20967980D01*
X46105666Y20906657D01*
X46108500Y20880299D01*
X46108500Y19040113D01*
X46088815Y18973074D01*
X46036011Y18927319D01*
X45966853Y18917375D01*
X45909015Y18941736D01*
X45898042Y18950156D01*
X45898038Y18950158D01*
X45763157Y19006027D01*
X45763152Y19006029D01*
X45618401Y19025085D01*
X45618399Y19025085D01*
X45473647Y19006029D01*
X45473645Y19006028D01*
X45338761Y18950157D01*
X45338758Y18950156D01*
X45338758Y18950155D01*
X45222926Y18861274D01*
X45138968Y18751857D01*
X45134043Y18745439D01*
X45078172Y18610555D01*
X45078172Y18610554D01*
X45059669Y18470014D01*
X45031402Y18406118D01*
X44973078Y18367647D01*
X44903213Y18366816D01*
X44861242Y18387826D01*
X44858711Y18389768D01*
X44856641Y18391357D01*
X44856638Y18391358D01*
X44721757Y18447227D01*
X44721752Y18447229D01*
X44577001Y18466285D01*
X44576999Y18466285D01*
X44432247Y18447229D01*
X44432245Y18447228D01*
X44297361Y18391357D01*
X44297358Y18391356D01*
X44297358Y18391355D01*
X44273822Y18373295D01*
X44181526Y18302474D01*
X44092643Y18186639D01*
X44036772Y18051755D01*
X44036771Y18051753D01*
X44017715Y17907002D01*
X44017715Y17906999D01*
X44036771Y17762248D01*
X44036773Y17762243D01*
X44092642Y17627362D01*
X44092642Y17627361D01*
X44092644Y17627358D01*
X44092645Y17627357D01*
X44155737Y17545134D01*
X44181530Y17511521D01*
X44186181Y17506870D01*
X44219666Y17445547D01*
X44222500Y17419189D01*
X44222500Y13638627D01*
X44219861Y13613183D01*
X44217905Y13603855D01*
X44217905Y13603852D01*
X44221548Y13574627D01*
X44222418Y13560606D01*
X44222499Y13559623D01*
X44225703Y13540423D01*
X44226441Y13535357D01*
X44232538Y13486449D01*
X44234652Y13479347D01*
X44237071Y13472302D01*
X44260516Y13428978D01*
X44262860Y13424425D01*
X44284500Y13380162D01*
X44288827Y13374101D01*
X44293379Y13368253D01*
X44293380Y13368252D01*
X44293381Y13368251D01*
X44329633Y13334879D01*
X44333331Y13331330D01*
X44489396Y13175265D01*
X44522881Y13113942D01*
X44525715Y13087584D01*
X44525715Y13080999D01*
X44544771Y12936248D01*
X44544773Y12936243D01*
X44600642Y12801362D01*
X44600645Y12801356D01*
X44689525Y12685527D01*
X44689526Y12685526D01*
X44805355Y12596646D01*
X44805361Y12596643D01*
X44862115Y12573135D01*
X44940246Y12540772D01*
X44948017Y12539749D01*
X45084999Y12521715D01*
X45085000Y12521715D01*
X45085001Y12521715D01*
X45133251Y12528068D01*
X45229754Y12540772D01*
X45364643Y12596645D01*
X45377014Y12606138D01*
X45442181Y12631332D01*
X45510626Y12617295D01*
X45560616Y12568481D01*
X45576500Y12507762D01*
X45576500Y2657500D01*
X45556815Y2590461D01*
X45504011Y2544706D01*
X45452500Y2533500D01*
X39895053Y2533500D01*
X39828014Y2553185D01*
X39782259Y2605989D01*
X39772315Y2675147D01*
X39793003Y2727940D01*
X39836070Y2790333D01*
X39858691Y2823105D01*
X39915053Y2971718D01*
X39934211Y3129500D01*
X39915053Y3287282D01*
X39879744Y3380384D01*
X39874377Y3450047D01*
X39907524Y3511553D01*
X39907764Y3511795D01*
X40339958Y3943989D01*
X40360604Y3960625D01*
X40364775Y3963304D01*
X40397576Y4001160D01*
X40403612Y4007642D01*
X40413250Y4017279D01*
X40421427Y4028204D01*
X40426973Y4035084D01*
X40439487Y4049526D01*
X40459777Y4072942D01*
X40461839Y4077460D01*
X40475368Y4100262D01*
X40478342Y4104233D01*
X40495847Y4151171D01*
X40499226Y4159326D01*
X40520042Y4204904D01*
X40520747Y4209816D01*
X40527305Y4235508D01*
X40529040Y4240158D01*
X40532614Y4290132D01*
X40533559Y4298921D01*
X40535500Y4312417D01*
X40535500Y4326056D01*
X40535816Y4334903D01*
X40539389Y4384858D01*
X40539044Y4386445D01*
X40538332Y4389717D01*
X40535500Y4416068D01*
X40535500Y6019099D01*
X40555185Y6086138D01*
X40557451Y6089540D01*
X40614785Y6172602D01*
X40614786Y6172604D01*
X40614785Y6172604D01*
X40614787Y6172605D01*
X40671149Y6321218D01*
X40690307Y6479000D01*
X40687658Y6500813D01*
X40671149Y6636782D01*
X40652387Y6686253D01*
X40614787Y6785395D01*
X40557450Y6868462D01*
X40535567Y6934816D01*
X40535500Y6938902D01*
X40535500Y11719099D01*
X40555185Y11786138D01*
X40557451Y11789540D01*
X40614785Y11872602D01*
X40614786Y11872604D01*
X40614785Y11872604D01*
X40614787Y11872605D01*
X40671149Y12021218D01*
X40690307Y12179000D01*
X40688728Y12192001D01*
X40671149Y12336782D01*
X40667138Y12347359D01*
X40614787Y12485395D01*
X40524498Y12616201D01*
X40524495Y12616204D01*
X40524493Y12616206D01*
X40405530Y12721599D01*
X40264791Y12795464D01*
X40110472Y12833500D01*
X40110471Y12833500D01*
X39951529Y12833500D01*
X39951528Y12833500D01*
X39797208Y12795464D01*
X39656469Y12721599D01*
X39537506Y12616206D01*
X39537500Y12616199D01*
X39447214Y12485398D01*
X39390850Y12336782D01*
X39371693Y12179001D01*
X39371693Y12179000D01*
X39390850Y12021218D01*
X39447213Y11872604D01*
X39447214Y11872602D01*
X39504549Y11789540D01*
X39526433Y11723186D01*
X39526500Y11719099D01*
X39526500Y6938902D01*
X39506815Y6871863D01*
X39504550Y6868462D01*
X39447214Y6785398D01*
X39390850Y6636782D01*
X39371693Y6479001D01*
X39371693Y6479000D01*
X39390850Y6321218D01*
X39447213Y6172604D01*
X39447214Y6172602D01*
X39504549Y6089540D01*
X39526433Y6023186D01*
X39526500Y6019099D01*
X39526500Y4608834D01*
X39506815Y4541795D01*
X39490181Y4521153D01*
X38965946Y3996919D01*
X38945311Y3980289D01*
X38941131Y3977603D01*
X38941129Y3977602D01*
X38908325Y3939745D01*
X38902307Y3933280D01*
X38892648Y3923620D01*
X38884482Y3912711D01*
X38878934Y3905826D01*
X38846127Y3867963D01*
X38846126Y3867961D01*
X38844062Y3863441D01*
X38830546Y3840660D01*
X38827563Y3836676D01*
X38827561Y3836672D01*
X38810056Y3789740D01*
X38806670Y3781567D01*
X38785861Y3736000D01*
X38785153Y3731076D01*
X38778602Y3705410D01*
X38776865Y3700754D01*
X38776864Y3700747D01*
X38773289Y3650782D01*
X38772345Y3641997D01*
X38770404Y3628492D01*
X38770404Y3614850D01*
X38770088Y3606001D01*
X38768057Y3577613D01*
X38746424Y3516023D01*
X38691118Y3435897D01*
X38634754Y3287282D01*
X38618725Y3155263D01*
X38591103Y3091085D01*
X38533169Y3052029D01*
X38479445Y3047271D01*
X38354002Y3063785D01*
X38353999Y3063785D01*
X38209247Y3044729D01*
X38209245Y3044728D01*
X38074361Y2988857D01*
X38074358Y2988856D01*
X38074358Y2988855D01*
X38027928Y2953228D01*
X37958521Y2899970D01*
X37953480Y2893400D01*
X37897051Y2852200D01*
X37827304Y2848048D01*
X37779622Y2870515D01*
X37744643Y2897355D01*
X37744638Y2897358D01*
X37609757Y2953227D01*
X37609752Y2953229D01*
X37465001Y2972285D01*
X37464999Y2972285D01*
X37320247Y2953229D01*
X37320245Y2953228D01*
X37185361Y2897357D01*
X37185358Y2897356D01*
X37185358Y2897355D01*
X37088591Y2823103D01*
X37069526Y2808474D01*
X36980643Y2692639D01*
X36924772Y2557755D01*
X36924771Y2557753D01*
X36905715Y2413002D01*
X36905715Y2412996D01*
X36909033Y2387790D01*
X36898267Y2318755D01*
X36851886Y2266500D01*
X36784616Y2247616D01*
X36717816Y2268098D01*
X36698413Y2283926D01*
X36536604Y2445735D01*
X36503119Y2507058D01*
X36500285Y2533416D01*
X36500285Y2540002D01*
X36481417Y2683316D01*
X36481228Y2684754D01*
X36425355Y2819642D01*
X36336474Y2935474D01*
X36220643Y3024355D01*
X36220640Y3024356D01*
X36220638Y3024358D01*
X36085757Y3080227D01*
X36085752Y3080229D01*
X35941001Y3099285D01*
X35940999Y3099285D01*
X35796247Y3080229D01*
X35796245Y3080228D01*
X35661361Y3024357D01*
X35661358Y3024356D01*
X35661358Y3024355D01*
X35545526Y2935474D01*
X35459303Y2823105D01*
X35456643Y2819639D01*
X35400772Y2684755D01*
X35400772Y2684754D01*
X35398689Y2668931D01*
X35370422Y2605035D01*
X35312097Y2566565D01*
X35259565Y2562179D01*
X35179001Y2572785D01*
X35178999Y2572785D01*
X35034247Y2553729D01*
X35034245Y2553728D01*
X34899361Y2497857D01*
X34899358Y2497856D01*
X34899358Y2497855D01*
X34783526Y2408974D01*
X34719378Y2325374D01*
X34694643Y2293139D01*
X34638772Y2158255D01*
X34638771Y2158253D01*
X34619715Y2013502D01*
X34619715Y2013499D01*
X34638771Y1868748D01*
X34638773Y1868743D01*
X34694642Y1733862D01*
X34694645Y1733856D01*
X34783525Y1618027D01*
X34783526Y1618026D01*
X34899355Y1529146D01*
X34899361Y1529143D01*
X34966801Y1501209D01*
X35034246Y1473272D01*
X35179000Y1454215D01*
X35185924Y1455127D01*
X35254958Y1444363D01*
X35289792Y1419869D01*
X35727237Y982424D01*
X35743362Y962568D01*
X35748576Y954588D01*
X35748579Y954584D01*
X35771821Y936494D01*
X35782341Y927202D01*
X35783101Y926559D01*
X35798962Y915234D01*
X35803068Y912172D01*
X35841942Y881916D01*
X35848476Y878380D01*
X35855154Y875115D01*
X35902388Y861053D01*
X35907243Y859498D01*
X35953844Y843500D01*
X35953846Y843500D01*
X35961167Y842278D01*
X35968541Y841359D01*
X35968544Y841358D01*
X35968546Y841359D01*
X35968547Y841358D01*
X36010236Y843083D01*
X36017763Y843395D01*
X36022888Y843500D01*
X50424373Y843500D01*
X50449817Y840861D01*
X50452671Y840263D01*
X50459147Y838905D01*
X50486262Y842285D01*
X50488374Y842548D01*
X50502364Y843417D01*
X50503368Y843500D01*
X50503377Y843500D01*
X50522632Y846714D01*
X50527628Y847442D01*
X50576551Y853539D01*
X50576555Y853542D01*
X50583679Y855663D01*
X50590692Y858071D01*
X50590698Y858071D01*
X50634025Y881520D01*
X50638580Y883864D01*
X50682838Y905500D01*
X50682838Y905501D01*
X50682840Y905501D01*
X50682841Y905503D01*
X50688866Y909805D01*
X50694741Y914377D01*
X50694749Y914381D01*
X50728135Y950650D01*
X50731636Y954299D01*
X51520080Y1742743D01*
X51539934Y1758865D01*
X51547916Y1764079D01*
X51566005Y1787322D01*
X51575258Y1797797D01*
X51575929Y1798591D01*
X51575942Y1798603D01*
X51587288Y1814496D01*
X51590331Y1818575D01*
X51620583Y1857442D01*
X51620585Y1857444D01*
X51620586Y1857449D01*
X51624132Y1864002D01*
X51627381Y1870648D01*
X51627380Y1870648D01*
X51627384Y1870652D01*
X51641458Y1917929D01*
X51643007Y1922759D01*
X51658998Y1969338D01*
X51658998Y1969339D01*
X51659000Y1969344D01*
X51659000Y1969350D01*
X51660224Y1976689D01*
X51661142Y1984045D01*
X51659106Y2033262D01*
X51659000Y2038388D01*
X51659000Y2468999D01*
X58463804Y2468999D01*
X58482553Y2254690D01*
X58482555Y2254679D01*
X58538231Y2046892D01*
X58538233Y2046886D01*
X58538235Y2046880D01*
X58621302Y1868743D01*
X58629155Y1851902D01*
X58629157Y1851898D01*
X58752551Y1675673D01*
X58904672Y1523552D01*
X59080897Y1400158D01*
X59080899Y1400157D01*
X59080902Y1400155D01*
X59275880Y1309235D01*
X59483684Y1253554D01*
X59636766Y1240162D01*
X59697998Y1234804D01*
X59698000Y1234804D01*
X59698002Y1234804D01*
X59751579Y1239492D01*
X59912316Y1253554D01*
X60120120Y1309235D01*
X60315098Y1400155D01*
X60491326Y1523551D01*
X60643449Y1675674D01*
X60766845Y1851902D01*
X60857765Y2046880D01*
X60857767Y2046888D01*
X60857769Y2046892D01*
X60892195Y2175374D01*
X60913446Y2254684D01*
X60932196Y2469000D01*
X60928510Y2511126D01*
X60921881Y2586901D01*
X60913446Y2683316D01*
X60857765Y2891120D01*
X60766845Y3086098D01*
X60766843Y3086101D01*
X60766842Y3086103D01*
X60643448Y3262328D01*
X60491327Y3414449D01*
X60315102Y3537843D01*
X60315098Y3537845D01*
X60120120Y3628765D01*
X60120116Y3628766D01*
X60120112Y3628768D01*
X59912321Y3684445D01*
X59912317Y3684446D01*
X59912316Y3684446D01*
X59912315Y3684447D01*
X59912310Y3684447D01*
X59698002Y3703196D01*
X59697998Y3703196D01*
X59483689Y3684447D01*
X59483678Y3684445D01*
X59275887Y3628768D01*
X59275880Y3628766D01*
X59275880Y3628765D01*
X59251260Y3617285D01*
X59080901Y3537845D01*
X59080897Y3537843D01*
X58904672Y3414449D01*
X58752551Y3262328D01*
X58629157Y3086103D01*
X58629155Y3086099D01*
X58538236Y2891122D01*
X58538232Y2891113D01*
X58482555Y2683322D01*
X58482553Y2683311D01*
X58463804Y2469002D01*
X58463804Y2468999D01*
X51659000Y2468999D01*
X51659000Y8338965D01*
X51678685Y8406004D01*
X51731489Y8451759D01*
X51799184Y8461904D01*
X51831000Y8457715D01*
X51975754Y8476772D01*
X52110643Y8532645D01*
X52226474Y8621526D01*
X52315355Y8737357D01*
X52371228Y8872246D01*
X52387045Y8992388D01*
X52390285Y9016999D01*
X52390285Y9017002D01*
X52371228Y9161753D01*
X52371228Y9161754D01*
X52315355Y9296642D01*
X52226474Y9412474D01*
X52226470Y9412478D01*
X52226467Y9412481D01*
X52221815Y9417134D01*
X52188333Y9478459D01*
X52185500Y9504811D01*
X52185500Y18267013D01*
X52194939Y18314466D01*
X52229228Y18397246D01*
X52248285Y18542000D01*
X52240045Y18604586D01*
X52229228Y18686753D01*
X52229228Y18686754D01*
X52173355Y18821642D01*
X52084474Y18937474D01*
X51968643Y19026355D01*
X51968640Y19026356D01*
X51968638Y19026358D01*
X51833757Y19082227D01*
X51833752Y19082229D01*
X51689001Y19101285D01*
X51688999Y19101285D01*
X51544247Y19082229D01*
X51544242Y19082227D01*
X51437742Y19038113D01*
X51368273Y19030644D01*
X51305794Y19061919D01*
X51270142Y19122008D01*
X51266290Y19152674D01*
X51266290Y24035107D01*
X51285975Y24102146D01*
X51302609Y24122788D01*
X51307262Y24127442D01*
X51313925Y24136125D01*
X51320438Y24144613D01*
X51376863Y24185817D01*
X51446609Y24189974D01*
X51506496Y24156810D01*
X52289181Y23374125D01*
X52322666Y23312802D01*
X52325500Y23286444D01*
X52325500Y22914885D01*
X52305815Y22847846D01*
X52299876Y22839399D01*
X52220645Y22736143D01*
X52220643Y22736140D01*
X52164772Y22601255D01*
X52164771Y22601253D01*
X52145715Y22456502D01*
X52145715Y22456499D01*
X52164771Y22311748D01*
X52164773Y22311743D01*
X52220642Y22176862D01*
X52220645Y22176856D01*
X52309525Y22061027D01*
X52309526Y22061026D01*
X52425355Y21972146D01*
X52425361Y21972143D01*
X52476014Y21951162D01*
X52560246Y21916272D01*
X52632623Y21906744D01*
X52704999Y21897215D01*
X52705000Y21897215D01*
X52705001Y21897215D01*
X52756211Y21903957D01*
X52849754Y21916272D01*
X52984643Y21972145D01*
X53100474Y22061026D01*
X53189355Y22176857D01*
X53245228Y22311746D01*
X53264285Y22456500D01*
X53263497Y22462483D01*
X53245228Y22601253D01*
X53245228Y22601254D01*
X53189355Y22736142D01*
X53170345Y22760916D01*
X53110124Y22839399D01*
X53084930Y22904568D01*
X53084500Y22914885D01*
X53084500Y23442785D01*
X53087139Y23468230D01*
X53087600Y23470434D01*
X53089418Y23479100D01*
X53085452Y23510919D01*
X53084500Y23526256D01*
X53084500Y23526441D01*
X53084499Y23526451D01*
X53081037Y23547189D01*
X53080299Y23552247D01*
X53073752Y23604783D01*
X53073750Y23604786D01*
X53071486Y23612396D01*
X53068901Y23619925D01*
X53043720Y23666456D01*
X53041375Y23671013D01*
X53018127Y23718568D01*
X53013541Y23724991D01*
X53008620Y23731314D01*
X53008619Y23731316D01*
X52969676Y23767166D01*
X52966002Y23770692D01*
X52204851Y24531843D01*
X52171366Y24593166D01*
X52176350Y24662858D01*
X52218222Y24718791D01*
X52283686Y24743208D01*
X52324625Y24739299D01*
X52455000Y24704366D01*
X52455000Y25599499D01*
X52562685Y25550320D01*
X52669237Y25535000D01*
X52740763Y25535000D01*
X52847315Y25550320D01*
X52955000Y25599499D01*
X52955000Y24704367D01*
X53168483Y24761567D01*
X53168492Y24761571D01*
X53382579Y24861401D01*
X53382583Y24861403D01*
X53395953Y24870765D01*
X53462158Y24893095D01*
X53529926Y24876087D01*
X53577741Y24825141D01*
X53590128Y24784533D01*
X53591531Y24773281D01*
X53593794Y24755122D01*
X53594548Y24749078D01*
X53595500Y24733738D01*
X53595500Y24733557D01*
X53598959Y24712825D01*
X53599697Y24707758D01*
X53606247Y24655219D01*
X53608505Y24647633D01*
X53611101Y24640070D01*
X53636279Y24593546D01*
X53638624Y24588990D01*
X53661874Y24541431D01*
X53666472Y24534992D01*
X53671381Y24528684D01*
X53710323Y24492835D01*
X53713995Y24489311D01*
X54829181Y23374125D01*
X54862666Y23312802D01*
X54865500Y23286444D01*
X54865500Y22914885D01*
X54845815Y22847846D01*
X54839876Y22839399D01*
X54760645Y22736143D01*
X54760643Y22736140D01*
X54704772Y22601255D01*
X54704771Y22601253D01*
X54685715Y22456502D01*
X54685715Y22456499D01*
X54704771Y22311748D01*
X54704773Y22311743D01*
X54760642Y22176862D01*
X54760645Y22176856D01*
X54849525Y22061027D01*
X54849526Y22061026D01*
X54965355Y21972146D01*
X54965361Y21972143D01*
X55016014Y21951162D01*
X55100246Y21916272D01*
X55172623Y21906744D01*
X55244999Y21897215D01*
X55245000Y21897215D01*
X55245001Y21897215D01*
X55296211Y21903957D01*
X55389754Y21916272D01*
X55524643Y21972145D01*
X55640474Y22061026D01*
X55729355Y22176857D01*
X55785228Y22311746D01*
X55804285Y22456500D01*
X55803497Y22462483D01*
X55785228Y22601253D01*
X55785228Y22601254D01*
X55729355Y22736142D01*
X55710345Y22760916D01*
X55650124Y22839399D01*
X55624930Y22904568D01*
X55624500Y22914885D01*
X55624500Y23442785D01*
X55627139Y23468230D01*
X55627600Y23470434D01*
X55629418Y23479100D01*
X55625452Y23510919D01*
X55624500Y23526256D01*
X55624500Y23526441D01*
X55624499Y23526451D01*
X55621037Y23547189D01*
X55620299Y23552247D01*
X55613752Y23604783D01*
X55613750Y23604786D01*
X55611486Y23612396D01*
X55608901Y23619925D01*
X55583720Y23666456D01*
X55581375Y23671013D01*
X55558127Y23718568D01*
X55553541Y23724991D01*
X55548620Y23731314D01*
X55548619Y23731316D01*
X55509676Y23767166D01*
X55506002Y23770692D01*
X54744851Y24531843D01*
X54711366Y24593166D01*
X54716350Y24662858D01*
X54758222Y24718791D01*
X54823686Y24743208D01*
X54864625Y24739299D01*
X54995000Y24704366D01*
X54995000Y25599499D01*
X55102685Y25550320D01*
X55209237Y25535000D01*
X55280763Y25535000D01*
X55387315Y25550320D01*
X55495000Y25599499D01*
X55495000Y24704367D01*
X55708483Y24761567D01*
X55708492Y24761571D01*
X55922578Y24861400D01*
X55927266Y24864106D01*
X55928295Y24862323D01*
X55985981Y24881818D01*
X56053759Y24864851D01*
X56101605Y24813934D01*
X56114023Y24773281D01*
X56114545Y24769100D01*
X56115500Y24753738D01*
X56115500Y24753557D01*
X56118959Y24732825D01*
X56119697Y24727758D01*
X56126247Y24675219D01*
X56128505Y24667633D01*
X56131101Y24660070D01*
X56156279Y24613546D01*
X56158624Y24608990D01*
X56181874Y24561431D01*
X56186472Y24554992D01*
X56191381Y24548684D01*
X56230323Y24512835D01*
X56233995Y24509311D01*
X57369181Y23374125D01*
X57402666Y23312802D01*
X57405500Y23286444D01*
X57405500Y22914885D01*
X57385815Y22847846D01*
X57379876Y22839399D01*
X57300645Y22736143D01*
X57300643Y22736140D01*
X57244772Y22601255D01*
X57244771Y22601253D01*
X57225715Y22456502D01*
X57225715Y22456499D01*
X57244771Y22311748D01*
X57244773Y22311743D01*
X57300642Y22176862D01*
X57300645Y22176856D01*
X57389525Y22061027D01*
X57389526Y22061026D01*
X57505355Y21972146D01*
X57505361Y21972143D01*
X57556014Y21951162D01*
X57640246Y21916272D01*
X57712623Y21906744D01*
X57784999Y21897215D01*
X57785000Y21897215D01*
X57785001Y21897215D01*
X57836211Y21903957D01*
X57929754Y21916272D01*
X58064643Y21972145D01*
X58180474Y22061026D01*
X58269355Y22176857D01*
X58325228Y22311746D01*
X58344285Y22456500D01*
X58343497Y22462483D01*
X58325228Y22601253D01*
X58325228Y22601254D01*
X58269355Y22736142D01*
X58250345Y22760916D01*
X58190124Y22839399D01*
X58164930Y22904568D01*
X58164500Y22914885D01*
X58164500Y23442785D01*
X58167139Y23468230D01*
X58167763Y23471208D01*
X58169418Y23479100D01*
X58165452Y23510919D01*
X58164500Y23526256D01*
X58164500Y23526441D01*
X58164499Y23526451D01*
X58161037Y23547189D01*
X58160299Y23552247D01*
X58153752Y23604783D01*
X58153750Y23604786D01*
X58151486Y23612396D01*
X58148901Y23619925D01*
X58123720Y23666456D01*
X58121375Y23671013D01*
X58098127Y23718568D01*
X58093541Y23724991D01*
X58088620Y23731314D01*
X58088619Y23731316D01*
X58049676Y23767166D01*
X58046002Y23770692D01*
X57284851Y24531843D01*
X57251366Y24593166D01*
X57256350Y24662858D01*
X57298222Y24718791D01*
X57363686Y24743208D01*
X57404625Y24739299D01*
X57535000Y24704366D01*
X57535000Y25599499D01*
X57642685Y25550320D01*
X57749237Y25535000D01*
X57820763Y25535000D01*
X57927315Y25550320D01*
X58035000Y25599499D01*
X58035000Y24704367D01*
X58248483Y24761567D01*
X58248492Y24761571D01*
X58462578Y24861400D01*
X58656082Y24996895D01*
X58823105Y25163918D01*
X58953425Y25350032D01*
X59008002Y25393656D01*
X59077501Y25400849D01*
X59139855Y25369327D01*
X59156575Y25350032D01*
X59286894Y25163918D01*
X59453917Y24996895D01*
X59647421Y24861400D01*
X59861507Y24761571D01*
X59861516Y24761567D01*
X60075000Y24704366D01*
X60075000Y25599499D01*
X60182685Y25550320D01*
X60289237Y25535000D01*
X60360763Y25535000D01*
X60467315Y25550320D01*
X60575000Y25599499D01*
X60575000Y24704367D01*
X60788483Y24761567D01*
X60788492Y24761571D01*
X61002578Y24861400D01*
X61196082Y24996895D01*
X61363105Y25163918D01*
X61493425Y25350032D01*
X61548002Y25393656D01*
X61617501Y25400849D01*
X61679855Y25369327D01*
X61696575Y25350032D01*
X61826894Y25163918D01*
X61993917Y24996895D01*
X62187421Y24861400D01*
X62401507Y24761571D01*
X62401516Y24761567D01*
X62615000Y24704366D01*
X62615000Y25599499D01*
X62722685Y25550320D01*
X62829237Y25535000D01*
X62900763Y25535000D01*
X63007315Y25550320D01*
X63115000Y25599499D01*
X63115000Y24704366D01*
X63295407Y24752705D01*
X63365257Y24751042D01*
X63423119Y24711879D01*
X63450623Y24647651D01*
X63451500Y24632930D01*
X63451500Y23236556D01*
X63431815Y23169517D01*
X63379011Y23123762D01*
X63309853Y23113818D01*
X63246297Y23142843D01*
X63239819Y23148875D01*
X62822473Y23566221D01*
X62788988Y23627544D01*
X62787217Y23637702D01*
X62770228Y23766754D01*
X62714355Y23901642D01*
X62625474Y24017474D01*
X62509643Y24106355D01*
X62509640Y24106356D01*
X62509638Y24106358D01*
X62374757Y24162227D01*
X62374752Y24162229D01*
X62230001Y24181285D01*
X62229999Y24181285D01*
X62085247Y24162229D01*
X62085245Y24162228D01*
X61950361Y24106357D01*
X61950358Y24106356D01*
X61950358Y24106355D01*
X61834526Y24017474D01*
X61834524Y24017473D01*
X61834523Y24017471D01*
X61820374Y23999032D01*
X61763946Y23957830D01*
X61694200Y23953677D01*
X61633280Y23987890D01*
X61623626Y23999032D01*
X61609475Y24017473D01*
X61586338Y24035227D01*
X61493643Y24106355D01*
X61493640Y24106356D01*
X61493638Y24106358D01*
X61358757Y24162227D01*
X61358752Y24162229D01*
X61214001Y24181285D01*
X61213999Y24181285D01*
X61069247Y24162229D01*
X61069245Y24162228D01*
X60934361Y24106357D01*
X60934358Y24106356D01*
X60934358Y24106355D01*
X60841662Y24035227D01*
X60818526Y24017474D01*
X60729643Y23901639D01*
X60673772Y23766755D01*
X60673772Y23766754D01*
X60653944Y23616146D01*
X60640062Y23573318D01*
X60631840Y23558125D01*
X60628345Y23550977D01*
X60613247Y23500261D01*
X60611683Y23495380D01*
X60594499Y23445328D01*
X60593195Y23437513D01*
X60592207Y23429587D01*
X60594394Y23376739D01*
X60594500Y23371614D01*
X60594500Y20800889D01*
X60574815Y20733850D01*
X60522011Y20688095D01*
X60452853Y20678151D01*
X60399377Y20699314D01*
X60220102Y20824843D01*
X60220098Y20824845D01*
X60025120Y20915765D01*
X60025116Y20915766D01*
X60025112Y20915768D01*
X59817321Y20971445D01*
X59817317Y20971446D01*
X59817316Y20971446D01*
X59817315Y20971447D01*
X59817310Y20971447D01*
X59603002Y20990196D01*
X59602998Y20990196D01*
X59388689Y20971447D01*
X59388678Y20971445D01*
X59180887Y20915768D01*
X59180878Y20915764D01*
X58985901Y20824845D01*
X58985897Y20824843D01*
X58809672Y20701449D01*
X58722181Y20613957D01*
X58660858Y20580472D01*
X58591166Y20585456D01*
X58535233Y20627328D01*
X58510816Y20692792D01*
X58510500Y20701638D01*
X58510500Y20870445D01*
X58530185Y20937484D01*
X58546814Y20958121D01*
X59921425Y22332733D01*
X59941279Y22348855D01*
X59950582Y22354932D01*
X59970276Y22380236D01*
X59980459Y22391766D01*
X59980581Y22391887D01*
X59990154Y22405295D01*
X59992811Y22409016D01*
X59995876Y22413127D01*
X60003995Y22423558D01*
X60028375Y22454881D01*
X60028376Y22454883D01*
X60032159Y22461874D01*
X60035651Y22469018D01*
X60035651Y22469019D01*
X60035653Y22469021D01*
X60050750Y22519737D01*
X60052303Y22524586D01*
X60069500Y22574673D01*
X60069500Y22574677D01*
X60069501Y22574679D01*
X60070802Y22582479D01*
X60071792Y22590412D01*
X60069606Y22643263D01*
X60069500Y22648388D01*
X60069500Y23036616D01*
X60089185Y23103655D01*
X60095115Y23112092D01*
X60174355Y23215357D01*
X60230228Y23350246D01*
X60249285Y23495000D01*
X60248592Y23500261D01*
X60236580Y23591503D01*
X60230228Y23639754D01*
X60174355Y23774642D01*
X60085474Y23890474D01*
X59969643Y23979355D01*
X59969640Y23979356D01*
X59969638Y23979358D01*
X59834757Y24035227D01*
X59834752Y24035229D01*
X59690001Y24054285D01*
X59689999Y24054285D01*
X59545247Y24035229D01*
X59545245Y24035228D01*
X59410361Y23979357D01*
X59410358Y23979356D01*
X59410358Y23979355D01*
X59376894Y23953677D01*
X59294526Y23890474D01*
X59205643Y23774639D01*
X59149772Y23639755D01*
X59149771Y23639753D01*
X59130715Y23495002D01*
X59130715Y23494999D01*
X59149771Y23350248D01*
X59149773Y23350243D01*
X59205642Y23215362D01*
X59205642Y23215361D01*
X59205644Y23215358D01*
X59205645Y23215357D01*
X59284876Y23112102D01*
X59310070Y23046934D01*
X59310500Y23036616D01*
X59310500Y22846557D01*
X59290815Y22779518D01*
X59274181Y22758876D01*
X57899577Y21384273D01*
X57879727Y21368152D01*
X57870419Y21362071D01*
X57850715Y21336755D01*
X57840569Y21325263D01*
X57840425Y21325120D01*
X57840417Y21325110D01*
X57828186Y21307982D01*
X57825131Y21303886D01*
X57792625Y21262120D01*
X57788849Y21255143D01*
X57785345Y21247977D01*
X57770247Y21197261D01*
X57768683Y21192380D01*
X57751499Y21142328D01*
X57750195Y21134513D01*
X57749207Y21126587D01*
X57751394Y21073739D01*
X57751500Y21068614D01*
X57751500Y5410885D01*
X57731815Y5343846D01*
X57725876Y5335399D01*
X57646645Y5232143D01*
X57646643Y5232140D01*
X57590772Y5097255D01*
X57590771Y5097253D01*
X57571715Y4952502D01*
X57571715Y4952499D01*
X57590771Y4807748D01*
X57590773Y4807743D01*
X57646642Y4672862D01*
X57646645Y4672856D01*
X57735525Y4557027D01*
X57735526Y4557026D01*
X57851355Y4468146D01*
X57851361Y4468143D01*
X57864374Y4462753D01*
X57986246Y4412272D01*
X58058623Y4402744D01*
X58130999Y4393215D01*
X58131000Y4393215D01*
X58131001Y4393215D01*
X58203335Y4402738D01*
X58275754Y4412272D01*
X58410643Y4468145D01*
X58526474Y4557026D01*
X58615355Y4672857D01*
X58671228Y4807746D01*
X58690285Y4952500D01*
X58686843Y4978642D01*
X58677067Y5052905D01*
X58671228Y5097254D01*
X58615355Y5232142D01*
X58584113Y5272857D01*
X58536124Y5335399D01*
X58510930Y5400568D01*
X58510500Y5410885D01*
X58510500Y8628081D01*
X58530185Y8695120D01*
X58582989Y8740875D01*
X58652147Y8750819D01*
X58715703Y8721794D01*
X58736075Y8699204D01*
X58752552Y8675672D01*
X58904672Y8523552D01*
X59080897Y8400158D01*
X59080899Y8400157D01*
X59080902Y8400155D01*
X59275880Y8309235D01*
X59483684Y8253554D01*
X59636766Y8240162D01*
X59697998Y8234804D01*
X59698000Y8234804D01*
X59698002Y8234804D01*
X59751579Y8239492D01*
X59912316Y8253554D01*
X60120120Y8309235D01*
X60315098Y8400155D01*
X60399378Y8459169D01*
X60465582Y8481495D01*
X60533350Y8464485D01*
X60581163Y8413537D01*
X60594500Y8357593D01*
X60594500Y7043377D01*
X60574815Y6976338D01*
X60545987Y6945002D01*
X60535530Y6936978D01*
X60535528Y6936976D01*
X60535526Y6936974D01*
X60456784Y6834355D01*
X60446643Y6821139D01*
X60390772Y6686255D01*
X60390771Y6686253D01*
X60371715Y6541502D01*
X60371715Y6541499D01*
X60390771Y6396748D01*
X60390773Y6396743D01*
X60446642Y6261862D01*
X60446645Y6261856D01*
X60515133Y6172602D01*
X60535526Y6146026D01*
X60651357Y6057145D01*
X60735274Y6022386D01*
X60789674Y5978547D01*
X60811740Y5912253D01*
X60794461Y5844554D01*
X60786195Y5832340D01*
X60729645Y5758643D01*
X60729643Y5758640D01*
X60673772Y5623755D01*
X60673771Y5623753D01*
X60654715Y5479002D01*
X60654715Y5478999D01*
X60673771Y5334248D01*
X60673773Y5334243D01*
X60729642Y5199362D01*
X60729645Y5199356D01*
X60818525Y5083527D01*
X60818526Y5083526D01*
X60934355Y4994646D01*
X60934361Y4994643D01*
X61001801Y4966709D01*
X61069246Y4938772D01*
X61108023Y4933667D01*
X61213999Y4919715D01*
X61214000Y4919715D01*
X61214001Y4919715D01*
X61262251Y4926068D01*
X61358754Y4938772D01*
X61367153Y4942252D01*
X61436620Y4949724D01*
X61499101Y4918453D01*
X61534757Y4858366D01*
X61532267Y4788540D01*
X61506563Y4751517D01*
X61505555Y4739997D01*
X62065466Y4180087D01*
X62055685Y4178680D01*
X61924900Y4118952D01*
X61816239Y4024798D01*
X61738507Y3903844D01*
X61714923Y3823525D01*
X61152003Y4386445D01*
X61152003Y4386444D01*
X61107856Y4323396D01*
X61107855Y4323394D01*
X61015124Y4124534D01*
X61015121Y4124525D01*
X60958335Y3912593D01*
X60958333Y3912583D01*
X60939210Y3694001D01*
X60939210Y3694000D01*
X60958333Y3475418D01*
X60958335Y3475408D01*
X61015121Y3263476D01*
X61015125Y3263467D01*
X61107854Y3064608D01*
X61152003Y3001557D01*
X61714923Y3564477D01*
X61738507Y3484156D01*
X61816239Y3363202D01*
X61924900Y3269048D01*
X62055685Y3209320D01*
X62065466Y3207914D01*
X61505555Y2648004D01*
X61568601Y2603858D01*
X61568605Y2603856D01*
X61767466Y2511126D01*
X61767475Y2511122D01*
X61979407Y2454336D01*
X61979417Y2454334D01*
X62197999Y2435210D01*
X62198001Y2435210D01*
X62416582Y2454334D01*
X62416592Y2454336D01*
X62628524Y2511122D01*
X62628533Y2511126D01*
X62827392Y2603855D01*
X62890443Y2648005D01*
X62330534Y3207914D01*
X62340315Y3209320D01*
X62471100Y3269048D01*
X62579761Y3363202D01*
X62657493Y3484156D01*
X62681076Y3564477D01*
X63243995Y3001558D01*
X63288145Y3064608D01*
X63380874Y3263467D01*
X63380878Y3263476D01*
X63437664Y3475408D01*
X63437666Y3475418D01*
X63456790Y3694000D01*
X63456790Y3694001D01*
X63437666Y3912583D01*
X63437664Y3912593D01*
X63380878Y4124525D01*
X63380874Y4124534D01*
X63288144Y4323395D01*
X63288142Y4323399D01*
X63243996Y4386445D01*
X62681076Y3823525D01*
X62657493Y3903844D01*
X62579761Y4024798D01*
X62471100Y4118952D01*
X62340315Y4178680D01*
X62330533Y4180087D01*
X62890443Y4739997D01*
X62827392Y4784146D01*
X62628533Y4876875D01*
X62628524Y4876879D01*
X62416592Y4933665D01*
X62416582Y4933667D01*
X62198001Y4952790D01*
X62197999Y4952790D01*
X61979417Y4933667D01*
X61979407Y4933665D01*
X61767475Y4876879D01*
X61767461Y4876874D01*
X61704377Y4847457D01*
X61635299Y4836965D01*
X61571516Y4865485D01*
X61533277Y4923962D01*
X61532723Y4993830D01*
X61570030Y5052905D01*
X61576468Y5058200D01*
X61609474Y5083526D01*
X61698355Y5199357D01*
X61754228Y5334246D01*
X61771216Y5463287D01*
X61799482Y5527183D01*
X61806462Y5534770D01*
X62009909Y5738217D01*
X62071230Y5771700D01*
X62140922Y5766716D01*
X62195964Y5726020D01*
X62215526Y5700526D01*
X62331355Y5611646D01*
X62331361Y5611643D01*
X62386910Y5588634D01*
X62466246Y5555772D01*
X62529071Y5547501D01*
X62610999Y5536715D01*
X62611000Y5536715D01*
X62611001Y5536715D01*
X62659251Y5543068D01*
X62755754Y5555772D01*
X62890643Y5611645D01*
X63006474Y5700526D01*
X63095355Y5816357D01*
X63151228Y5951246D01*
X63168216Y6080287D01*
X63196482Y6144183D01*
X63203462Y6151770D01*
X64062425Y7010733D01*
X64082279Y7026855D01*
X64091582Y7032932D01*
X64111276Y7058236D01*
X64121459Y7069766D01*
X64121581Y7069887D01*
X64125485Y7075356D01*
X64133811Y7087016D01*
X64136876Y7091127D01*
X64167538Y7130521D01*
X64169375Y7132881D01*
X64169376Y7132883D01*
X64173159Y7139874D01*
X64176651Y7147018D01*
X64176651Y7147019D01*
X64176653Y7147021D01*
X64191750Y7197737D01*
X64193303Y7202586D01*
X64210500Y7252673D01*
X64210500Y7252677D01*
X64210501Y7252679D01*
X64211802Y7260479D01*
X64212792Y7268413D01*
X64210606Y7321273D01*
X64210500Y7326397D01*
X64210500Y24601944D01*
X64230185Y24668983D01*
X64246819Y24689625D01*
X64257819Y24700625D01*
X64319142Y24734110D01*
X64388834Y24729126D01*
X64444767Y24687254D01*
X64469184Y24621790D01*
X64469500Y24612944D01*
X64469500Y424500D01*
X64449815Y357461D01*
X64397011Y311706D01*
X64345500Y300500D01*
X424500Y300500D01*
X357461Y320185D01*
X311706Y372989D01*
X300500Y424500D01*
X300500Y7648001D01*
X3993494Y7648001D01*
X3993495Y7648000D01*
X4828314Y7648000D01*
X4816359Y7636045D01*
X4758835Y7523148D01*
X4739014Y7398000D01*
X4758835Y7272852D01*
X4816359Y7159955D01*
X4828314Y7148000D01*
X3993495Y7148000D01*
X4043651Y6971720D01*
X4140715Y6776792D01*
X4271945Y6603015D01*
X4432868Y6456315D01*
X4618012Y6341678D01*
X4618023Y6341673D01*
X4821060Y6263016D01*
X4894000Y6249381D01*
X4894000Y7082314D01*
X4905955Y7070359D01*
X5018852Y7012835D01*
X5112519Y6998000D01*
X5175481Y6998000D01*
X5269148Y7012835D01*
X5382045Y7070359D01*
X5394000Y7082314D01*
X5394000Y6249381D01*
X5466939Y6263016D01*
X5669976Y6341673D01*
X5669987Y6341678D01*
X5855130Y6456315D01*
X5855131Y6456315D01*
X6016054Y6603015D01*
X6147282Y6776790D01*
X6175213Y6832881D01*
X6222716Y6884118D01*
X6290379Y6901540D01*
X6356719Y6879615D01*
X6383505Y6853452D01*
X6383529Y6853473D01*
X6383863Y6853102D01*
X6386532Y6850495D01*
X6387875Y6848646D01*
X6480770Y6745476D01*
X6518617Y6703442D01*
X6676690Y6588595D01*
X6855187Y6509124D01*
X7046306Y6468500D01*
X7241694Y6468500D01*
X7432813Y6509124D01*
X7611310Y6588595D01*
X7769383Y6703442D01*
X7900123Y6848644D01*
X7997818Y7017856D01*
X8026069Y7104806D01*
X8065506Y7162480D01*
X8129865Y7189679D01*
X8198711Y7177765D01*
X8250187Y7130521D01*
X8261931Y7104805D01*
X8285283Y7032932D01*
X8290182Y7017856D01*
X8387877Y6848644D01*
X8518617Y6703442D01*
X8676690Y6588595D01*
X8855187Y6509124D01*
X9046306Y6468500D01*
X9241694Y6468500D01*
X9432813Y6509124D01*
X9611310Y6588595D01*
X9769383Y6703442D01*
X9900123Y6848644D01*
X9997818Y7017856D01*
X10058196Y7203682D01*
X10078620Y7398000D01*
X10058196Y7592318D01*
X9997818Y7778144D01*
X9900123Y7947356D01*
X9769383Y8092558D01*
X9611310Y8207405D01*
X9611308Y8207406D01*
X9557818Y8231221D01*
X9504581Y8276471D01*
X9484259Y8343320D01*
X9503304Y8410544D01*
X9555669Y8456800D01*
X9608252Y8468501D01*
X9844066Y8468501D01*
X9918301Y8483266D01*
X10002484Y8539516D01*
X10058734Y8623699D01*
X10073500Y8697933D01*
X10073499Y10098066D01*
X10058734Y10172301D01*
X10005423Y10252086D01*
X10002484Y10256485D01*
X9922512Y10309920D01*
X9918301Y10312734D01*
X9918299Y10312735D01*
X9918296Y10312736D01*
X9844069Y10327500D01*
X8443936Y10327500D01*
X8369698Y10312734D01*
X8285515Y10256485D01*
X8229266Y10172301D01*
X8229264Y10172297D01*
X8214500Y10098072D01*
X8214500Y9865614D01*
X8194815Y9798575D01*
X8142011Y9752820D01*
X8072853Y9742876D01*
X8009297Y9771901D01*
X7983113Y9803614D01*
X7925826Y9902837D01*
X7900123Y9947356D01*
X7835427Y10019209D01*
X7769384Y10092557D01*
X7769383Y10092558D01*
X7611310Y10207405D01*
X7588530Y10217547D01*
X7540804Y10238796D01*
X7432813Y10286876D01*
X7432811Y10286877D01*
X7432810Y10286877D01*
X7241694Y10327500D01*
X7046306Y10327500D01*
X6855189Y10286877D01*
X6676691Y10207406D01*
X6518615Y10092557D01*
X6387873Y9947353D01*
X6386527Y9945499D01*
X6385473Y9944688D01*
X6383529Y9942527D01*
X6383133Y9942883D01*
X6331194Y9902837D01*
X6261581Y9896862D01*
X6199788Y9929473D01*
X6175214Y9963119D01*
X6147284Y10019209D01*
X6016054Y10192986D01*
X5855131Y10339686D01*
X5669987Y10454323D01*
X5669985Y10454324D01*
X5466931Y10532987D01*
X5466921Y10532990D01*
X5394001Y10546622D01*
X5394000Y10546621D01*
X5394000Y9713686D01*
X5382045Y9725641D01*
X5269148Y9783165D01*
X5175481Y9798000D01*
X5112519Y9798000D01*
X5018852Y9783165D01*
X4905955Y9725641D01*
X4894000Y9713686D01*
X4894000Y10546621D01*
X4893998Y10546622D01*
X4821078Y10532990D01*
X4821068Y10532987D01*
X4618014Y10454324D01*
X4618012Y10454323D01*
X4432869Y10339686D01*
X4432868Y10339686D01*
X4271945Y10192986D01*
X4140715Y10019209D01*
X4043651Y9824281D01*
X3993494Y9648001D01*
X3993495Y9648000D01*
X4828314Y9648000D01*
X4816359Y9636045D01*
X4758835Y9523148D01*
X4739014Y9398000D01*
X4758835Y9272852D01*
X4816359Y9159955D01*
X4828314Y9148000D01*
X3993495Y9148000D01*
X4043651Y8971720D01*
X4140715Y8776792D01*
X4271945Y8603014D01*
X4396315Y8489637D01*
X4432597Y8429926D01*
X4430836Y8360079D01*
X4396315Y8306363D01*
X4271945Y8192987D01*
X4140715Y8019209D01*
X4043651Y7824281D01*
X3993494Y7648001D01*
X300500Y7648001D01*
X300500Y12192000D01*
X12733768Y12192000D01*
X12752654Y11988184D01*
X12752654Y11988182D01*
X12752655Y11988179D01*
X12803248Y11810362D01*
X12808673Y11791296D01*
X12899912Y11608065D01*
X13023269Y11444713D01*
X13174537Y11306815D01*
X13174539Y11306813D01*
X13348569Y11199058D01*
X13348575Y11199055D01*
X13348578Y11199054D01*
X13539444Y11125112D01*
X13740653Y11087500D01*
X13740656Y11087500D01*
X13945344Y11087500D01*
X13945347Y11087500D01*
X14146556Y11125112D01*
X14337427Y11199056D01*
X14511462Y11306814D01*
X14662732Y11444715D01*
X14786088Y11608065D01*
X14877328Y11791299D01*
X14933345Y11988179D01*
X14952232Y12192000D01*
X15273768Y12192000D01*
X15292654Y11988184D01*
X15292654Y11988182D01*
X15292655Y11988179D01*
X15343248Y11810362D01*
X15348673Y11791296D01*
X15439912Y11608065D01*
X15563269Y11444713D01*
X15714537Y11306815D01*
X15714539Y11306813D01*
X15888569Y11199058D01*
X15888571Y11199057D01*
X15888573Y11199056D01*
X15888576Y11199055D01*
X15888578Y11199054D01*
X15949293Y11175533D01*
X16004695Y11132960D01*
X16028286Y11067194D01*
X16028500Y11059906D01*
X16028500Y4043811D01*
X16008815Y3976772D01*
X15992185Y3956134D01*
X15987532Y3951481D01*
X15987527Y3951476D01*
X15987526Y3951474D01*
X15899435Y3836671D01*
X15898643Y3835639D01*
X15842772Y3700755D01*
X15842771Y3700753D01*
X15823715Y3556002D01*
X15823715Y3555999D01*
X15842771Y3411248D01*
X15842773Y3411243D01*
X15898642Y3276362D01*
X15898645Y3276356D01*
X15987525Y3160527D01*
X15987526Y3160526D01*
X16103355Y3071646D01*
X16103361Y3071643D01*
X16150714Y3052029D01*
X16238246Y3015772D01*
X16310623Y3006244D01*
X16382999Y2996715D01*
X16383000Y2996715D01*
X16383001Y2996715D01*
X16431251Y3003068D01*
X16527754Y3015772D01*
X16662643Y3071645D01*
X16778474Y3160526D01*
X16867355Y3276357D01*
X16923228Y3411246D01*
X16942285Y3556000D01*
X16935120Y3610421D01*
X16923228Y3700753D01*
X16923228Y3700754D01*
X16867355Y3835642D01*
X16778474Y3951474D01*
X16778470Y3951478D01*
X16778467Y3951481D01*
X16773815Y3956134D01*
X16740333Y4017459D01*
X16737500Y4043811D01*
X16737500Y11059906D01*
X16757185Y11126945D01*
X16809989Y11172700D01*
X16816707Y11175533D01*
X16877427Y11199056D01*
X17051462Y11306814D01*
X17202732Y11444715D01*
X17326088Y11608065D01*
X17417328Y11791299D01*
X17473345Y11988179D01*
X17492232Y12192000D01*
X17813768Y12192000D01*
X17832654Y11988184D01*
X17832654Y11988182D01*
X17832655Y11988179D01*
X17883248Y11810362D01*
X17888673Y11791296D01*
X17979912Y11608065D01*
X18103269Y11444713D01*
X18254537Y11306815D01*
X18254539Y11306813D01*
X18428569Y11199058D01*
X18428571Y11199057D01*
X18428573Y11199056D01*
X18428576Y11199055D01*
X18428578Y11199054D01*
X18489293Y11175533D01*
X18544695Y11132960D01*
X18568286Y11067194D01*
X18568500Y11059906D01*
X18568500Y4043811D01*
X18548815Y3976772D01*
X18532185Y3956134D01*
X18527532Y3951481D01*
X18527527Y3951476D01*
X18527526Y3951474D01*
X18439435Y3836671D01*
X18438643Y3835639D01*
X18382772Y3700755D01*
X18382771Y3700753D01*
X18363715Y3556002D01*
X18363715Y3555999D01*
X18382771Y3411248D01*
X18382773Y3411243D01*
X18438642Y3276362D01*
X18438645Y3276356D01*
X18527525Y3160527D01*
X18527526Y3160526D01*
X18643355Y3071646D01*
X18643361Y3071643D01*
X18690714Y3052029D01*
X18778246Y3015772D01*
X18850623Y3006244D01*
X18922999Y2996715D01*
X18923000Y2996715D01*
X18923001Y2996715D01*
X18971251Y3003068D01*
X19067754Y3015772D01*
X19202643Y3071645D01*
X19318474Y3160526D01*
X19407355Y3276357D01*
X19463228Y3411246D01*
X19482285Y3556000D01*
X19475120Y3610421D01*
X19463228Y3700753D01*
X19463228Y3700754D01*
X19407355Y3835642D01*
X19318474Y3951474D01*
X19318470Y3951478D01*
X19318467Y3951481D01*
X19313815Y3956134D01*
X19280333Y4017459D01*
X19277500Y4043811D01*
X19277500Y4698999D01*
X28571715Y4698999D01*
X28590771Y4554248D01*
X28590773Y4554243D01*
X28646642Y4419362D01*
X28646645Y4419356D01*
X28735525Y4303527D01*
X28735526Y4303526D01*
X28851355Y4214646D01*
X28851361Y4214643D01*
X28874876Y4204903D01*
X28986246Y4158772D01*
X29044020Y4151166D01*
X29130999Y4139715D01*
X29131000Y4139715D01*
X29131001Y4139715D01*
X29179251Y4146068D01*
X29275754Y4158772D01*
X29410643Y4214645D01*
X29526474Y4303526D01*
X29615355Y4419357D01*
X29671228Y4554246D01*
X29690285Y4699000D01*
X29688379Y4713474D01*
X29671228Y4843753D01*
X29671228Y4843754D01*
X29615355Y4978642D01*
X29526474Y5094474D01*
X29526470Y5094478D01*
X29526467Y5094481D01*
X29521815Y5099134D01*
X29488333Y5160459D01*
X29485500Y5186811D01*
X29485500Y10191189D01*
X29505185Y10258228D01*
X29521819Y10278870D01*
X29526469Y10283521D01*
X29526471Y10283524D01*
X29526474Y10283526D01*
X29615355Y10399357D01*
X29671228Y10534246D01*
X29690285Y10679000D01*
X29671228Y10823754D01*
X29615355Y10958642D01*
X29526474Y11074474D01*
X29410643Y11163355D01*
X29410640Y11163356D01*
X29410638Y11163358D01*
X29275757Y11219227D01*
X29275752Y11219229D01*
X29131001Y11238285D01*
X29130999Y11238285D01*
X28986247Y11219229D01*
X28986245Y11219228D01*
X28851361Y11163357D01*
X28851358Y11163356D01*
X28851358Y11163355D01*
X28735526Y11074474D01*
X28666725Y10984810D01*
X28646643Y10958639D01*
X28590772Y10823755D01*
X28590771Y10823753D01*
X28571715Y10679002D01*
X28571715Y10678999D01*
X28590771Y10534248D01*
X28590773Y10534243D01*
X28646642Y10399362D01*
X28646642Y10399361D01*
X28646644Y10399358D01*
X28646645Y10399357D01*
X28732955Y10286876D01*
X28735530Y10283521D01*
X28740181Y10278870D01*
X28773666Y10217547D01*
X28776500Y10191189D01*
X28776500Y5186811D01*
X28756815Y5119772D01*
X28740185Y5099134D01*
X28735532Y5094481D01*
X28735527Y5094476D01*
X28735526Y5094474D01*
X28646645Y4978642D01*
X28646643Y4978639D01*
X28590772Y4843755D01*
X28590771Y4843753D01*
X28571715Y4699002D01*
X28571715Y4698999D01*
X19277500Y4698999D01*
X19277500Y11059906D01*
X19297185Y11126945D01*
X19349989Y11172700D01*
X19356707Y11175533D01*
X19417427Y11199056D01*
X19591462Y11306814D01*
X19742732Y11444715D01*
X19866088Y11608065D01*
X19878000Y11631989D01*
X19925502Y11683224D01*
X19993165Y11700646D01*
X20059505Y11678721D01*
X20103461Y11624410D01*
X20113000Y11576716D01*
X20113000Y11294156D01*
X20119401Y11234628D01*
X20119403Y11234621D01*
X20169645Y11099914D01*
X20169649Y11099907D01*
X20255809Y10984813D01*
X20255812Y10984810D01*
X20370906Y10898650D01*
X20370913Y10898646D01*
X20505620Y10848404D01*
X20505627Y10848402D01*
X20565155Y10842001D01*
X20565172Y10842000D01*
X21213000Y10842000D01*
X21213000Y11756499D01*
X21320685Y11707320D01*
X21427237Y11692000D01*
X21498763Y11692000D01*
X21605315Y11707320D01*
X21713000Y11756499D01*
X21713000Y10842000D01*
X22360828Y10842000D01*
X22360844Y10842001D01*
X22420372Y10848402D01*
X22420379Y10848404D01*
X22555086Y10898646D01*
X22555093Y10898650D01*
X22670187Y10984810D01*
X22670190Y10984813D01*
X22756350Y11099907D01*
X22756354Y11099914D01*
X22806596Y11234621D01*
X22806598Y11234628D01*
X22812999Y11294156D01*
X22813000Y11294173D01*
X22813000Y11942000D01*
X21896686Y11942000D01*
X21922493Y11982156D01*
X21963000Y12120111D01*
X21963000Y12263889D01*
X21922493Y12401844D01*
X21896686Y12442000D01*
X22813000Y12442000D01*
X22813000Y13089828D01*
X22812999Y13089845D01*
X22806598Y13149373D01*
X22806596Y13149380D01*
X22756354Y13284087D01*
X22756350Y13284094D01*
X22670190Y13399188D01*
X22670187Y13399191D01*
X22555093Y13485351D01*
X22555086Y13485355D01*
X22420379Y13535597D01*
X22420372Y13535599D01*
X22360844Y13542000D01*
X21713000Y13542000D01*
X21713000Y12627502D01*
X21605315Y12676680D01*
X21498763Y12692000D01*
X21427237Y12692000D01*
X21320685Y12676680D01*
X21213000Y12627502D01*
X21213000Y13542000D01*
X20565155Y13542000D01*
X20505627Y13535599D01*
X20505620Y13535597D01*
X20370913Y13485355D01*
X20370906Y13485351D01*
X20255812Y13399191D01*
X20255809Y13399188D01*
X20169649Y13284094D01*
X20169645Y13284087D01*
X20119403Y13149380D01*
X20119401Y13149373D01*
X20113000Y13089845D01*
X20113000Y12807285D01*
X20093315Y12740246D01*
X20040511Y12694491D01*
X19971353Y12684547D01*
X19907797Y12713572D01*
X19878000Y12752012D01*
X19877896Y12752221D01*
X19866088Y12775935D01*
X19851341Y12795464D01*
X19742730Y12939288D01*
X19591462Y13077186D01*
X19591460Y13077188D01*
X19417430Y13184943D01*
X19417424Y13184946D01*
X19255353Y13247732D01*
X19226556Y13258888D01*
X19025347Y13296500D01*
X18820653Y13296500D01*
X18619444Y13258888D01*
X18619441Y13258888D01*
X18619441Y13258887D01*
X18428575Y13184946D01*
X18428569Y13184943D01*
X18254539Y13077188D01*
X18254537Y13077186D01*
X18103269Y12939288D01*
X17979912Y12775936D01*
X17888673Y12592705D01*
X17832654Y12395817D01*
X17813768Y12192001D01*
X17813768Y12192000D01*
X17492232Y12192000D01*
X17473345Y12395821D01*
X17417328Y12592701D01*
X17326088Y12775935D01*
X17239305Y12890855D01*
X17202730Y12939288D01*
X17051462Y13077186D01*
X17051460Y13077188D01*
X16877430Y13184943D01*
X16877424Y13184946D01*
X16715353Y13247732D01*
X16686556Y13258888D01*
X16485347Y13296500D01*
X16280653Y13296500D01*
X16079444Y13258888D01*
X16079441Y13258888D01*
X16079441Y13258887D01*
X15888575Y13184946D01*
X15888569Y13184943D01*
X15714539Y13077188D01*
X15714537Y13077186D01*
X15563269Y12939288D01*
X15439912Y12775936D01*
X15348673Y12592705D01*
X15292654Y12395817D01*
X15273768Y12192001D01*
X15273768Y12192000D01*
X14952232Y12192000D01*
X14933345Y12395821D01*
X14877328Y12592701D01*
X14786088Y12775935D01*
X14699305Y12890855D01*
X14662730Y12939288D01*
X14511462Y13077186D01*
X14511460Y13077188D01*
X14337430Y13184943D01*
X14337424Y13184946D01*
X14175353Y13247732D01*
X14146556Y13258888D01*
X13945347Y13296500D01*
X13740653Y13296500D01*
X13539444Y13258888D01*
X13539441Y13258888D01*
X13539441Y13258887D01*
X13348575Y13184946D01*
X13348569Y13184943D01*
X13174539Y13077188D01*
X13174537Y13077186D01*
X13023269Y12939288D01*
X12899912Y12775936D01*
X12808673Y12592705D01*
X12752654Y12395817D01*
X12733768Y12192001D01*
X12733768Y12192000D01*
X300500Y12192000D01*
X300500Y34417000D01*
X688179Y34417000D01*
X707424Y34197024D01*
X707426Y34197014D01*
X764575Y33983730D01*
X764580Y33983716D01*
X857898Y33783595D01*
X857901Y33783589D01*
X903258Y33718813D01*
X903259Y33718812D01*
X1570096Y34385650D01*
X1570051Y34385102D01*
X1601266Y34261838D01*
X1670813Y34155388D01*
X1771157Y34077287D01*
X1891422Y34036000D01*
X1927553Y34036000D01*
X1256810Y33365260D01*
X1321590Y33319901D01*
X1321592Y33319900D01*
X1521715Y33226581D01*
X1521729Y33226576D01*
X1735013Y33169427D01*
X1735023Y33169425D01*
X1954999Y33150179D01*
X1955001Y33150179D01*
X2174976Y33169425D01*
X2174986Y33169427D01*
X2388270Y33226576D01*
X2388284Y33226581D01*
X2588407Y33319900D01*
X2588417Y33319906D01*
X2653188Y33365259D01*
X1982448Y34036000D01*
X1986569Y34036000D01*
X2080421Y34051661D01*
X2192251Y34112180D01*
X2278371Y34205731D01*
X2329448Y34322177D01*
X2335105Y34390448D01*
X3006741Y33718812D01*
X3052094Y33783583D01*
X3052100Y33783593D01*
X3145419Y33983716D01*
X3145424Y33983730D01*
X3202573Y34197014D01*
X3202575Y34197024D01*
X3221821Y34417000D01*
X3221821Y34417001D01*
X3202575Y34636977D01*
X3202573Y34636987D01*
X3145424Y34850271D01*
X3145420Y34850280D01*
X3052096Y35050414D01*
X3006741Y35115189D01*
X3006740Y35115190D01*
X2339903Y34448352D01*
X2339949Y34448898D01*
X2308734Y34572162D01*
X2239187Y34678612D01*
X2138843Y34756713D01*
X2018578Y34798000D01*
X1982448Y34798000D01*
X2653188Y35468741D01*
X2653187Y35468742D01*
X2588411Y35514099D01*
X2588405Y35514102D01*
X2388284Y35607420D01*
X2388270Y35607425D01*
X2174986Y35664574D01*
X2174976Y35664576D01*
X1955001Y35683821D01*
X1954999Y35683821D01*
X1735023Y35664576D01*
X1735013Y35664574D01*
X1521729Y35607425D01*
X1521720Y35607421D01*
X1321590Y35514099D01*
X1256811Y35468742D01*
X1927553Y34798000D01*
X1923431Y34798000D01*
X1829579Y34782339D01*
X1717749Y34721820D01*
X1631629Y34628269D01*
X1580552Y34511823D01*
X1574894Y34443553D01*
X903258Y35115189D01*
X857901Y35050410D01*
X764579Y34850280D01*
X764575Y34850271D01*
X707426Y34636987D01*
X707424Y34636977D01*
X688179Y34417001D01*
X688179Y34417000D01*
X300500Y34417000D01*
X300500Y36957000D01*
X933582Y36957000D01*
X953208Y36757729D01*
X1011333Y36566119D01*
X1105718Y36389537D01*
X1105720Y36389535D01*
X1105722Y36389531D01*
X1166724Y36315199D01*
X1232747Y36234748D01*
X1282807Y36193666D01*
X1387531Y36107722D01*
X1387534Y36107720D01*
X1387536Y36107719D01*
X1413878Y36093639D01*
X1564120Y36013333D01*
X1755731Y35955208D01*
X1955000Y35935582D01*
X2154269Y35955208D01*
X2345880Y36013333D01*
X2522469Y36107722D01*
X2677252Y36234748D01*
X2804278Y36389531D01*
X2898667Y36566120D01*
X2956792Y36757731D01*
X2976418Y36957000D01*
X2956792Y37156269D01*
X2898667Y37347880D01*
X2804278Y37524469D01*
X2731434Y37613230D01*
X2677252Y37679253D01*
X2596801Y37745276D01*
X2522469Y37806278D01*
X2522465Y37806280D01*
X2522463Y37806282D01*
X2345881Y37900667D01*
X2154271Y37958792D01*
X1955000Y37978418D01*
X1755728Y37958792D01*
X1564118Y37900667D01*
X1387536Y37806282D01*
X1232747Y37679253D01*
X1105718Y37524464D01*
X1011333Y37347882D01*
X953208Y37156272D01*
X933582Y36957000D01*
X300500Y36957000D01*
X300500Y39497000D01*
X933582Y39497000D01*
X953208Y39297729D01*
X1011333Y39106119D01*
X1105718Y38929537D01*
X1105720Y38929535D01*
X1105722Y38929531D01*
X1145140Y38881500D01*
X1232747Y38774748D01*
X1287810Y38729560D01*
X1387531Y38647722D01*
X1387534Y38647720D01*
X1387536Y38647719D01*
X1543810Y38564189D01*
X1564120Y38553333D01*
X1755731Y38495208D01*
X1955000Y38475582D01*
X2154269Y38495208D01*
X2345880Y38553333D01*
X2522469Y38647722D01*
X2677252Y38774748D01*
X2804278Y38929531D01*
X2898667Y39106120D01*
X2956792Y39297731D01*
X2976418Y39497000D01*
X2956792Y39696269D01*
X2898667Y39887880D01*
X2896508Y39891919D01*
X2804281Y40064464D01*
X2804280Y40064466D01*
X2804278Y40064469D01*
X2728644Y40156630D01*
X2677252Y40219253D01*
X2596801Y40285276D01*
X2522469Y40346278D01*
X2522465Y40346280D01*
X2522463Y40346282D01*
X2345881Y40440667D01*
X2154271Y40498792D01*
X1955000Y40518418D01*
X1755728Y40498792D01*
X1564118Y40440667D01*
X1387536Y40346282D01*
X1232747Y40219253D01*
X1105718Y40064464D01*
X1011333Y39887882D01*
X953208Y39696272D01*
X933582Y39497000D01*
X300500Y39497000D01*
X300500Y42037000D01*
X933582Y42037000D01*
X953208Y41837729D01*
X1011333Y41646119D01*
X1105718Y41469537D01*
X1105720Y41469535D01*
X1105722Y41469531D01*
X1158061Y41405755D01*
X1232747Y41314748D01*
X1291830Y41266261D01*
X1387531Y41187722D01*
X1387534Y41187720D01*
X1387536Y41187719D01*
X1391059Y41185836D01*
X1564120Y41093333D01*
X1755731Y41035208D01*
X1955000Y41015582D01*
X2154269Y41035208D01*
X2345880Y41093333D01*
X2522469Y41187722D01*
X2677252Y41314748D01*
X2804278Y41469531D01*
X2898667Y41646120D01*
X2956792Y41837731D01*
X2976418Y42037000D01*
X2956792Y42236269D01*
X2898667Y42427880D01*
X2898666Y42427882D01*
X2804281Y42604464D01*
X2804280Y42604466D01*
X2804278Y42604469D01*
X2731434Y42693230D01*
X2677252Y42759253D01*
X2596801Y42825276D01*
X2522469Y42886278D01*
X2522465Y42886280D01*
X2522463Y42886282D01*
X2345881Y42980667D01*
X2154271Y43038792D01*
X1955000Y43058418D01*
X1755728Y43038792D01*
X1564118Y42980667D01*
X1387536Y42886282D01*
X1232747Y42759253D01*
X1105718Y42604464D01*
X1011333Y42427882D01*
X953208Y42236272D01*
X933582Y42037000D01*
X300500Y42037000D01*
X300500Y44406500D01*
X320185Y44473539D01*
X372989Y44519294D01*
X424500Y44530500D01*
X64345500Y44530500D01*
X64412539Y44510815D01*
G37*
G04 #@! TD.AperFunction*
G04 #@! TA.AperFunction,Conductor*
G36*
X47747240Y18436501D02*
G01*
X47777019Y18373295D01*
X47778500Y18354188D01*
X47778500Y16235811D01*
X47758815Y16168772D01*
X47742185Y16148134D01*
X47737532Y16143481D01*
X47737527Y16143476D01*
X47737526Y16143474D01*
X47692548Y16084857D01*
X47648643Y16027639D01*
X47592772Y15892755D01*
X47592771Y15892753D01*
X47573715Y15748002D01*
X47573715Y15747999D01*
X47592771Y15603248D01*
X47592773Y15603243D01*
X47648642Y15468362D01*
X47648645Y15468356D01*
X47737525Y15352527D01*
X47737526Y15352526D01*
X47853355Y15263646D01*
X47853361Y15263643D01*
X47910948Y15239790D01*
X47988246Y15207772D01*
X48060623Y15198244D01*
X48132999Y15188715D01*
X48133000Y15188715D01*
X48133001Y15188715D01*
X48181251Y15195068D01*
X48277754Y15207772D01*
X48412643Y15263645D01*
X48528474Y15352526D01*
X48617355Y15468357D01*
X48673228Y15603246D01*
X48674561Y15613374D01*
X48702827Y15677269D01*
X48761151Y15715741D01*
X48831016Y15716573D01*
X48890240Y15679501D01*
X48920019Y15616295D01*
X48921500Y15597188D01*
X48921500Y6500813D01*
X48901815Y6433774D01*
X48849011Y6388019D01*
X48779853Y6378075D01*
X48716297Y6407100D01*
X48678523Y6465878D01*
X48674561Y6484628D01*
X48673228Y6494753D01*
X48673228Y6494754D01*
X48617355Y6629642D01*
X48528474Y6745474D01*
X48412643Y6834355D01*
X48412640Y6834356D01*
X48412638Y6834358D01*
X48277757Y6890227D01*
X48277752Y6890229D01*
X48133001Y6909285D01*
X48132999Y6909285D01*
X47988247Y6890229D01*
X47988245Y6890228D01*
X47853361Y6834357D01*
X47853358Y6834356D01*
X47853358Y6834355D01*
X47778338Y6776790D01*
X47737526Y6745474D01*
X47648643Y6629639D01*
X47592772Y6494755D01*
X47592771Y6494753D01*
X47573715Y6350002D01*
X47573715Y6349999D01*
X47592771Y6205248D01*
X47592773Y6205243D01*
X47648642Y6070362D01*
X47648642Y6070361D01*
X47648644Y6070358D01*
X47648645Y6070357D01*
X47730529Y5963644D01*
X47737530Y5954521D01*
X47742181Y5949870D01*
X47775666Y5888547D01*
X47778500Y5862189D01*
X47778500Y4805811D01*
X47758815Y4738772D01*
X47742185Y4718134D01*
X47737532Y4713481D01*
X47737527Y4713476D01*
X47737526Y4713474D01*
X47657233Y4608834D01*
X47648643Y4597639D01*
X47592772Y4462755D01*
X47592771Y4462753D01*
X47573715Y4318002D01*
X47573715Y4317999D01*
X47592771Y4173248D01*
X47592773Y4173243D01*
X47648642Y4038362D01*
X47648645Y4038356D01*
X47737525Y3922527D01*
X47737526Y3922526D01*
X47853355Y3833646D01*
X47853361Y3833643D01*
X47920801Y3805709D01*
X47988246Y3777772D01*
X48060623Y3768244D01*
X48132999Y3758715D01*
X48133000Y3758715D01*
X48133001Y3758715D01*
X48181251Y3765068D01*
X48277754Y3777772D01*
X48412638Y3833643D01*
X48412639Y3833643D01*
X48412639Y3833644D01*
X48412643Y3833645D01*
X48468014Y3876134D01*
X48533182Y3901327D01*
X48601627Y3887289D01*
X48651617Y3838475D01*
X48667500Y3777757D01*
X48667500Y2484201D01*
X48647815Y2417162D01*
X48631181Y2396520D01*
X48477480Y2242819D01*
X48416157Y2209334D01*
X48389799Y2206500D01*
X46411916Y2206500D01*
X46344877Y2226185D01*
X46299122Y2278989D01*
X46288022Y2325374D01*
X46285606Y2383772D01*
X46285500Y2388898D01*
X46285500Y4786190D01*
X46305185Y4853229D01*
X46357989Y4898984D01*
X46425684Y4909129D01*
X46446531Y4906385D01*
X46481999Y4901715D01*
X46482000Y4901715D01*
X46482001Y4901715D01*
X46536242Y4908856D01*
X46626754Y4920772D01*
X46761643Y4976645D01*
X46877474Y5065526D01*
X46966355Y5181357D01*
X47022228Y5316246D01*
X47041285Y5461000D01*
X47040518Y5466824D01*
X47022228Y5605753D01*
X47022228Y5605754D01*
X46966355Y5740642D01*
X46877474Y5856474D01*
X46866010Y5865271D01*
X46824809Y5921700D01*
X46817500Y5963644D01*
X46817500Y17827031D01*
X46837185Y17894070D01*
X46889989Y17939825D01*
X46957684Y17949970D01*
X46990000Y17945715D01*
X47134754Y17964772D01*
X47269643Y18020645D01*
X47385474Y18109526D01*
X47474355Y18225357D01*
X47530228Y18360246D01*
X47531561Y18370374D01*
X47559827Y18434269D01*
X47618151Y18472741D01*
X47688016Y18473573D01*
X47747240Y18436501D01*
G37*
G04 #@! TD.AperFunction*
G04 #@! TA.AperFunction,Conductor*
G36*
X62990350Y12982986D02*
G01*
X63038163Y12932038D01*
X63051500Y12876094D01*
X63051500Y9110368D01*
X63031815Y9043329D01*
X62979011Y8997574D01*
X62909853Y8987630D01*
X62848836Y9014514D01*
X62761004Y9086595D01*
X62760998Y9086599D01*
X62585808Y9180240D01*
X62490752Y9209075D01*
X62395701Y9237908D01*
X62395699Y9237909D01*
X62395701Y9237909D01*
X62198000Y9257380D01*
X62000300Y9237909D01*
X61810191Y9180240D01*
X61635001Y9086599D01*
X61634995Y9086595D01*
X61556164Y9021900D01*
X61491854Y8994588D01*
X61422987Y9006379D01*
X61371427Y9053532D01*
X61353500Y9117754D01*
X61353500Y12752221D01*
X61373185Y12819260D01*
X61425989Y12865015D01*
X61495147Y12874959D01*
X61529905Y12864603D01*
X61672466Y12798125D01*
X61672475Y12798122D01*
X61884407Y12741336D01*
X61884417Y12741334D01*
X62102999Y12722210D01*
X62103001Y12722210D01*
X62321582Y12741334D01*
X62321592Y12741336D01*
X62533524Y12798122D01*
X62533533Y12798126D01*
X62732392Y12890855D01*
X62856376Y12977669D01*
X62922583Y12999996D01*
X62990350Y12982986D01*
G37*
G04 #@! TD.AperFunction*
G04 #@! TA.AperFunction,Conductor*
G36*
X63019005Y17834168D02*
G01*
X63049721Y17771413D01*
X63051500Y17750485D01*
X63051500Y15085907D01*
X63031815Y15018868D01*
X62979011Y14973113D01*
X62909853Y14963169D01*
X62856377Y14984332D01*
X62732396Y15071144D01*
X62732394Y15071145D01*
X62533533Y15163875D01*
X62533524Y15163879D01*
X62321592Y15220665D01*
X62321582Y15220667D01*
X62103001Y15239790D01*
X62102999Y15239790D01*
X61884417Y15220667D01*
X61884407Y15220665D01*
X61672475Y15163879D01*
X61672461Y15163874D01*
X61529904Y15097398D01*
X61460827Y15086906D01*
X61397043Y15115426D01*
X61358804Y15173903D01*
X61353500Y15209780D01*
X61353500Y17581208D01*
X61373185Y17648247D01*
X61425989Y17694002D01*
X61495147Y17703946D01*
X61535953Y17690566D01*
X61715191Y17594761D01*
X61715193Y17594761D01*
X61715196Y17594759D01*
X61905299Y17537092D01*
X61905298Y17537092D01*
X61923024Y17535347D01*
X62103000Y17517620D01*
X62300701Y17537092D01*
X62490804Y17594759D01*
X62666004Y17688405D01*
X62819568Y17814432D01*
X62831646Y17829149D01*
X62889391Y17868484D01*
X62959236Y17870355D01*
X63019005Y17834168D01*
G37*
G04 #@! TD.AperFunction*
G04 #@! TA.AperFunction,Conductor*
G36*
X47875000Y24704366D02*
G01*
X48088483Y24761567D01*
X48088492Y24761570D01*
X48250264Y24837006D01*
X48319341Y24847498D01*
X48383125Y24818979D01*
X48421365Y24760502D01*
X48421920Y24690635D01*
X48413681Y24671182D01*
X48413755Y24671151D01*
X48354772Y24528755D01*
X48354771Y24528753D01*
X48335715Y24384002D01*
X48335715Y24383999D01*
X48354771Y24239248D01*
X48354773Y24239243D01*
X48410642Y24104362D01*
X48410642Y24104361D01*
X48410644Y24104358D01*
X48410645Y24104357D01*
X48491464Y23999032D01*
X48499530Y23988521D01*
X48504181Y23983870D01*
X48537666Y23922547D01*
X48540500Y23896189D01*
X48540500Y19648475D01*
X48520815Y19581436D01*
X48468011Y19535681D01*
X48398853Y19525737D01*
X48369048Y19533913D01*
X48314626Y19556455D01*
X48277754Y19571728D01*
X48277751Y19571729D01*
X48277752Y19571729D01*
X48133001Y19590785D01*
X48132999Y19590785D01*
X47988247Y19571729D01*
X47988245Y19571728D01*
X47853361Y19515857D01*
X47853358Y19515856D01*
X47853358Y19515855D01*
X47737526Y19426974D01*
X47650686Y19313801D01*
X47648643Y19311139D01*
X47592772Y19176255D01*
X47592771Y19176253D01*
X47591439Y19166128D01*
X47563172Y19102231D01*
X47504848Y19063760D01*
X47434983Y19062929D01*
X47375760Y19100001D01*
X47345981Y19163207D01*
X47344500Y19182313D01*
X47344500Y21623301D01*
X47364185Y21690340D01*
X47380815Y21710978D01*
X47530733Y21860897D01*
X47592056Y21894381D01*
X47618414Y21897215D01*
X47625001Y21897215D01*
X47676211Y21903957D01*
X47769754Y21916272D01*
X47904643Y21972145D01*
X48020474Y22061026D01*
X48109355Y22176857D01*
X48165228Y22311746D01*
X48184285Y22456500D01*
X48183497Y22462483D01*
X48165228Y22601253D01*
X48165228Y22601254D01*
X48109355Y22736142D01*
X48090345Y22760916D01*
X48030124Y22839399D01*
X48004930Y22904568D01*
X48004500Y22914885D01*
X48004500Y23442785D01*
X48007139Y23468230D01*
X48007600Y23470434D01*
X48009418Y23479100D01*
X48005452Y23510919D01*
X48004500Y23526256D01*
X48004500Y23526441D01*
X48004499Y23526451D01*
X48001037Y23547189D01*
X48000299Y23552247D01*
X47993752Y23604783D01*
X47993750Y23604786D01*
X47991486Y23612396D01*
X47988901Y23619925D01*
X47963720Y23666456D01*
X47961375Y23671013D01*
X47938127Y23718568D01*
X47933541Y23724991D01*
X47928620Y23731314D01*
X47928619Y23731316D01*
X47889676Y23767166D01*
X47886002Y23770692D01*
X47124851Y24531843D01*
X47091366Y24593166D01*
X47096350Y24662858D01*
X47138222Y24718791D01*
X47203686Y24743208D01*
X47244625Y24739299D01*
X47375000Y24704366D01*
X47375000Y25599499D01*
X47482685Y25550320D01*
X47589237Y25535000D01*
X47660763Y25535000D01*
X47767315Y25550320D01*
X47875000Y25599499D01*
X47875000Y24704366D01*
G37*
G04 #@! TD.AperFunction*
G04 #@! TA.AperFunction,Conductor*
G36*
X45335000Y24704367D02*
G01*
X45548483Y24761567D01*
X45548492Y24761571D01*
X45762579Y24861401D01*
X45762583Y24861403D01*
X45775953Y24870765D01*
X45842158Y24893095D01*
X45909926Y24876087D01*
X45957741Y24825141D01*
X45970128Y24784533D01*
X45971531Y24773281D01*
X45973794Y24755122D01*
X45974548Y24749078D01*
X45975500Y24733738D01*
X45975500Y24733557D01*
X45978959Y24712825D01*
X45979697Y24707758D01*
X45986247Y24655219D01*
X45988505Y24647633D01*
X45991101Y24640070D01*
X46016279Y24593546D01*
X46018624Y24588990D01*
X46041874Y24541431D01*
X46046472Y24534992D01*
X46051381Y24528684D01*
X46090323Y24492835D01*
X46093995Y24489311D01*
X47209181Y23374125D01*
X47242666Y23312802D01*
X47245500Y23286444D01*
X47245500Y22914885D01*
X47225815Y22847846D01*
X47219876Y22839399D01*
X47140645Y22736143D01*
X47140643Y22736140D01*
X47084772Y22601255D01*
X47084771Y22601253D01*
X47065715Y22456502D01*
X47065715Y22449917D01*
X47046030Y22382878D01*
X47029396Y22362236D01*
X46774420Y22107261D01*
X46754568Y22091138D01*
X46746585Y22085922D01*
X46746584Y22085922D01*
X46746584Y22085921D01*
X46728488Y22062673D01*
X46719204Y22052160D01*
X46718554Y22051393D01*
X46707233Y22035538D01*
X46704178Y22031441D01*
X46673914Y21992557D01*
X46670362Y21985993D01*
X46667118Y21979356D01*
X46653055Y21932123D01*
X46651494Y21927250D01*
X46635498Y21880653D01*
X46634278Y21873344D01*
X46633357Y21865955D01*
X46635394Y21816740D01*
X46635500Y21811614D01*
X46635500Y21706701D01*
X46615815Y21639662D01*
X46563011Y21593907D01*
X46493853Y21583963D01*
X46430297Y21612988D01*
X46423819Y21619020D01*
X45680604Y22362235D01*
X45647119Y22423558D01*
X45644285Y22449916D01*
X45644285Y22456502D01*
X45625228Y22601253D01*
X45625228Y22601254D01*
X45569355Y22736142D01*
X45550345Y22760916D01*
X45490124Y22839399D01*
X45464930Y22904568D01*
X45464500Y22914885D01*
X45464500Y23442785D01*
X45467139Y23468230D01*
X45467600Y23470434D01*
X45469418Y23479100D01*
X45465452Y23510919D01*
X45464500Y23526256D01*
X45464500Y23526441D01*
X45464499Y23526451D01*
X45461037Y23547189D01*
X45460299Y23552247D01*
X45453752Y23604783D01*
X45453750Y23604786D01*
X45451486Y23612396D01*
X45448901Y23619925D01*
X45423720Y23666456D01*
X45421375Y23671013D01*
X45398127Y23718568D01*
X45393541Y23724991D01*
X45388620Y23731314D01*
X45388619Y23731316D01*
X45349676Y23767166D01*
X45346002Y23770692D01*
X44584851Y24531843D01*
X44551366Y24593166D01*
X44556350Y24662858D01*
X44598222Y24718791D01*
X44663686Y24743208D01*
X44704625Y24739299D01*
X44835000Y24704366D01*
X44835000Y25599499D01*
X44942685Y25550320D01*
X45049237Y25535000D01*
X45120763Y25535000D01*
X45227315Y25550320D01*
X45335000Y25599499D01*
X45335000Y24704367D01*
G37*
G04 #@! TD.AperFunction*
G04 #@! TA.AperFunction,Conductor*
G36*
X3985507Y26244844D02*
G01*
X3945000Y26106889D01*
X3945000Y25963111D01*
X3985507Y25825156D01*
X4011314Y25785000D01*
X2338686Y25785000D01*
X2364493Y25825156D01*
X2405000Y25963111D01*
X2405000Y26106889D01*
X2364493Y26244844D01*
X2338686Y26285000D01*
X4011314Y26285000D01*
X3985507Y26244844D01*
G37*
G04 #@! TD.AperFunction*
G04 #@! TA.AperFunction,Conductor*
G36*
X6525507Y26244844D02*
G01*
X6485000Y26106889D01*
X6485000Y25963111D01*
X6525507Y25825156D01*
X6551314Y25785000D01*
X4878686Y25785000D01*
X4904493Y25825156D01*
X4945000Y25963111D01*
X4945000Y26106889D01*
X4904493Y26244844D01*
X4878686Y26285000D01*
X6551314Y26285000D01*
X6525507Y26244844D01*
G37*
G04 #@! TD.AperFunction*
G04 #@! TA.AperFunction,Conductor*
G36*
X9065507Y26244844D02*
G01*
X9025000Y26106889D01*
X9025000Y25963111D01*
X9065507Y25825156D01*
X9091314Y25785000D01*
X7418686Y25785000D01*
X7444493Y25825156D01*
X7485000Y25963111D01*
X7485000Y26106889D01*
X7444493Y26244844D01*
X7418686Y26285000D01*
X9091314Y26285000D01*
X9065507Y26244844D01*
G37*
G04 #@! TD.AperFunction*
G04 #@! TA.AperFunction,Conductor*
G36*
X11605507Y26244844D02*
G01*
X11565000Y26106889D01*
X11565000Y25963111D01*
X11605507Y25825156D01*
X11631314Y25785000D01*
X9958686Y25785000D01*
X9984493Y25825156D01*
X10025000Y25963111D01*
X10025000Y26106889D01*
X9984493Y26244844D01*
X9958686Y26285000D01*
X11631314Y26285000D01*
X11605507Y26244844D01*
G37*
G04 #@! TD.AperFunction*
G04 #@! TA.AperFunction,Conductor*
G36*
X12873539Y26265315D02*
G01*
X12919294Y26212511D01*
X12930500Y26161000D01*
X12930500Y25909000D01*
X12910815Y25841961D01*
X12858011Y25796206D01*
X12806500Y25785000D01*
X12498686Y25785000D01*
X12524493Y25825156D01*
X12565000Y25963111D01*
X12565000Y26106889D01*
X12524493Y26244844D01*
X12498686Y26285000D01*
X12806500Y26285000D01*
X12873539Y26265315D01*
G37*
G04 #@! TD.AperFunction*
G04 #@! TA.AperFunction,Conductor*
G36*
X14145507Y26244844D02*
G01*
X14105000Y26106889D01*
X14105000Y25963111D01*
X14145507Y25825156D01*
X14171314Y25785000D01*
X13863500Y25785000D01*
X13796461Y25804685D01*
X13750706Y25857489D01*
X13739500Y25909000D01*
X13739500Y26161000D01*
X13759185Y26228039D01*
X13811989Y26273794D01*
X13863500Y26285000D01*
X14171314Y26285000D01*
X14145507Y26244844D01*
G37*
G04 #@! TD.AperFunction*
G04 #@! TA.AperFunction,Conductor*
G36*
X15393539Y26265315D02*
G01*
X15439294Y26212511D01*
X15450500Y26161000D01*
X15450500Y25909000D01*
X15430815Y25841961D01*
X15378011Y25796206D01*
X15326500Y25785000D01*
X15038686Y25785000D01*
X15064493Y25825156D01*
X15105000Y25963111D01*
X15105000Y26106889D01*
X15064493Y26244844D01*
X15038686Y26285000D01*
X15326500Y26285000D01*
X15393539Y26265315D01*
G37*
G04 #@! TD.AperFunction*
G04 #@! TA.AperFunction,Conductor*
G36*
X16685507Y26244844D02*
G01*
X16645000Y26106889D01*
X16645000Y25963111D01*
X16685507Y25825156D01*
X16711314Y25785000D01*
X16383500Y25785000D01*
X16316461Y25804685D01*
X16270706Y25857489D01*
X16259500Y25909000D01*
X16259500Y26161000D01*
X16279185Y26228039D01*
X16331989Y26273794D01*
X16383500Y26285000D01*
X16711314Y26285000D01*
X16685507Y26244844D01*
G37*
G04 #@! TD.AperFunction*
G04 #@! TA.AperFunction,Conductor*
G36*
X17953539Y26265315D02*
G01*
X17999294Y26212511D01*
X18010500Y26161000D01*
X18010500Y25909000D01*
X17990815Y25841961D01*
X17938011Y25796206D01*
X17886500Y25785000D01*
X17578686Y25785000D01*
X17604493Y25825156D01*
X17645000Y25963111D01*
X17645000Y26106889D01*
X17604493Y26244844D01*
X17578686Y26285000D01*
X17886500Y26285000D01*
X17953539Y26265315D01*
G37*
G04 #@! TD.AperFunction*
G04 #@! TA.AperFunction,Conductor*
G36*
X19225507Y26244844D02*
G01*
X19185000Y26106889D01*
X19185000Y25963111D01*
X19225507Y25825156D01*
X19251314Y25785000D01*
X18943500Y25785000D01*
X18876461Y25804685D01*
X18830706Y25857489D01*
X18819500Y25909000D01*
X18819500Y26161000D01*
X18839185Y26228039D01*
X18891989Y26273794D01*
X18943500Y26285000D01*
X19251314Y26285000D01*
X19225507Y26244844D01*
G37*
G04 #@! TD.AperFunction*
G04 #@! TA.AperFunction,Conductor*
G36*
X20493539Y26265315D02*
G01*
X20539294Y26212511D01*
X20550500Y26161000D01*
X20550500Y25909000D01*
X20530815Y25841961D01*
X20478011Y25796206D01*
X20426500Y25785000D01*
X20118686Y25785000D01*
X20144493Y25825156D01*
X20185000Y25963111D01*
X20185000Y26106889D01*
X20144493Y26244844D01*
X20118686Y26285000D01*
X20426500Y26285000D01*
X20493539Y26265315D01*
G37*
G04 #@! TD.AperFunction*
G04 #@! TA.AperFunction,Conductor*
G36*
X21765507Y26244844D02*
G01*
X21725000Y26106889D01*
X21725000Y25963111D01*
X21765507Y25825156D01*
X21791314Y25785000D01*
X21483500Y25785000D01*
X21416461Y25804685D01*
X21370706Y25857489D01*
X21359500Y25909000D01*
X21359500Y26161000D01*
X21379185Y26228039D01*
X21431989Y26273794D01*
X21483500Y26285000D01*
X21791314Y26285000D01*
X21765507Y26244844D01*
G37*
G04 #@! TD.AperFunction*
G04 #@! TA.AperFunction,Conductor*
G36*
X23033539Y26265315D02*
G01*
X23079294Y26212511D01*
X23090500Y26161000D01*
X23090500Y25909000D01*
X23070815Y25841961D01*
X23018011Y25796206D01*
X22966500Y25785000D01*
X22658686Y25785000D01*
X22684493Y25825156D01*
X22725000Y25963111D01*
X22725000Y26106889D01*
X22684493Y26244844D01*
X22658686Y26285000D01*
X22966500Y26285000D01*
X23033539Y26265315D01*
G37*
G04 #@! TD.AperFunction*
G04 #@! TA.AperFunction,Conductor*
G36*
X24305507Y26244844D02*
G01*
X24265000Y26106889D01*
X24265000Y25963111D01*
X24305507Y25825156D01*
X24331314Y25785000D01*
X24023500Y25785000D01*
X23956461Y25804685D01*
X23910706Y25857489D01*
X23899500Y25909000D01*
X23899500Y26161000D01*
X23919185Y26228039D01*
X23971989Y26273794D01*
X24023500Y26285000D01*
X24331314Y26285000D01*
X24305507Y26244844D01*
G37*
G04 #@! TD.AperFunction*
G04 #@! TA.AperFunction,Conductor*
G36*
X25573539Y26265315D02*
G01*
X25619294Y26212511D01*
X25630500Y26161000D01*
X25630500Y25909000D01*
X25610815Y25841961D01*
X25558011Y25796206D01*
X25506500Y25785000D01*
X25198686Y25785000D01*
X25224493Y25825156D01*
X25265000Y25963111D01*
X25265000Y26106889D01*
X25224493Y26244844D01*
X25198686Y26285000D01*
X25506500Y26285000D01*
X25573539Y26265315D01*
G37*
G04 #@! TD.AperFunction*
G04 #@! TA.AperFunction,Conductor*
G36*
X26845507Y26244844D02*
G01*
X26805000Y26106889D01*
X26805000Y25963111D01*
X26845507Y25825156D01*
X26871314Y25785000D01*
X26563500Y25785000D01*
X26496461Y25804685D01*
X26450706Y25857489D01*
X26439500Y25909000D01*
X26439500Y26161000D01*
X26459185Y26228039D01*
X26511989Y26273794D01*
X26563500Y26285000D01*
X26871314Y26285000D01*
X26845507Y26244844D01*
G37*
G04 #@! TD.AperFunction*
G04 #@! TA.AperFunction,Conductor*
G36*
X29385507Y26244844D02*
G01*
X29345000Y26106889D01*
X29345000Y25963111D01*
X29385507Y25825156D01*
X29411314Y25785000D01*
X27738686Y25785000D01*
X27764493Y25825156D01*
X27805000Y25963111D01*
X27805000Y26106889D01*
X27764493Y26244844D01*
X27738686Y26285000D01*
X29411314Y26285000D01*
X29385507Y26244844D01*
G37*
G04 #@! TD.AperFunction*
G04 #@! TA.AperFunction,Conductor*
G36*
X31925507Y26244844D02*
G01*
X31885000Y26106889D01*
X31885000Y25963111D01*
X31925507Y25825156D01*
X31951314Y25785000D01*
X30278686Y25785000D01*
X30304493Y25825156D01*
X30345000Y25963111D01*
X30345000Y26106889D01*
X30304493Y26244844D01*
X30278686Y26285000D01*
X31951314Y26285000D01*
X31925507Y26244844D01*
G37*
G04 #@! TD.AperFunction*
G04 #@! TA.AperFunction,Conductor*
G36*
X34465507Y26244844D02*
G01*
X34425000Y26106889D01*
X34425000Y25963111D01*
X34465507Y25825156D01*
X34491314Y25785000D01*
X32818686Y25785000D01*
X32844493Y25825156D01*
X32885000Y25963111D01*
X32885000Y26106889D01*
X32844493Y26244844D01*
X32818686Y26285000D01*
X34491314Y26285000D01*
X34465507Y26244844D01*
G37*
G04 #@! TD.AperFunction*
G04 #@! TA.AperFunction,Conductor*
G36*
X37005507Y26244844D02*
G01*
X36965000Y26106889D01*
X36965000Y25963111D01*
X37005507Y25825156D01*
X37031314Y25785000D01*
X35358686Y25785000D01*
X35384493Y25825156D01*
X35425000Y25963111D01*
X35425000Y26106889D01*
X35384493Y26244844D01*
X35358686Y26285000D01*
X37031314Y26285000D01*
X37005507Y26244844D01*
G37*
G04 #@! TD.AperFunction*
G04 #@! TA.AperFunction,Conductor*
G36*
X39545507Y26244844D02*
G01*
X39505000Y26106889D01*
X39505000Y25963111D01*
X39545507Y25825156D01*
X39571314Y25785000D01*
X37898686Y25785000D01*
X37924493Y25825156D01*
X37965000Y25963111D01*
X37965000Y26106889D01*
X37924493Y26244844D01*
X37898686Y26285000D01*
X39571314Y26285000D01*
X39545507Y26244844D01*
G37*
G04 #@! TD.AperFunction*
G04 #@! TA.AperFunction,Conductor*
G36*
X40838539Y26265315D02*
G01*
X40884294Y26212511D01*
X40895500Y26161000D01*
X40895500Y25909000D01*
X40875815Y25841961D01*
X40823011Y25796206D01*
X40771500Y25785000D01*
X40438686Y25785000D01*
X40464493Y25825156D01*
X40505000Y25963111D01*
X40505000Y26106889D01*
X40464493Y26244844D01*
X40438686Y26285000D01*
X40771500Y26285000D01*
X40838539Y26265315D01*
G37*
G04 #@! TD.AperFunction*
G04 #@! TA.AperFunction,Conductor*
G36*
X42085507Y26244844D02*
G01*
X42045000Y26106889D01*
X42045000Y25963111D01*
X42085507Y25825156D01*
X42111314Y25785000D01*
X41778500Y25785000D01*
X41711461Y25804685D01*
X41665706Y25857489D01*
X41654500Y25909000D01*
X41654500Y26161000D01*
X41674185Y26228039D01*
X41726989Y26273794D01*
X41778500Y26285000D01*
X42111314Y26285000D01*
X42085507Y26244844D01*
G37*
G04 #@! TD.AperFunction*
G04 #@! TA.AperFunction,Conductor*
G36*
X43378539Y26265315D02*
G01*
X43424294Y26212511D01*
X43435500Y26161000D01*
X43435500Y25909000D01*
X43415815Y25841961D01*
X43363011Y25796206D01*
X43311500Y25785000D01*
X42978686Y25785000D01*
X43004493Y25825156D01*
X43045000Y25963111D01*
X43045000Y26106889D01*
X43004493Y26244844D01*
X42978686Y26285000D01*
X43311500Y26285000D01*
X43378539Y26265315D01*
G37*
G04 #@! TD.AperFunction*
G04 #@! TA.AperFunction,Conductor*
G36*
X44625507Y26244844D02*
G01*
X44585000Y26106889D01*
X44585000Y25963111D01*
X44625507Y25825156D01*
X44651314Y25785000D01*
X44318500Y25785000D01*
X44251461Y25804685D01*
X44205706Y25857489D01*
X44194500Y25909000D01*
X44194500Y26161000D01*
X44214185Y26228039D01*
X44266989Y26273794D01*
X44318500Y26285000D01*
X44651314Y26285000D01*
X44625507Y26244844D01*
G37*
G04 #@! TD.AperFunction*
G04 #@! TA.AperFunction,Conductor*
G36*
X45918539Y26265315D02*
G01*
X45964294Y26212511D01*
X45975500Y26161000D01*
X45975500Y25909000D01*
X45955815Y25841961D01*
X45903011Y25796206D01*
X45851500Y25785000D01*
X45518686Y25785000D01*
X45544493Y25825156D01*
X45585000Y25963111D01*
X45585000Y26106889D01*
X45544493Y26244844D01*
X45518686Y26285000D01*
X45851500Y26285000D01*
X45918539Y26265315D01*
G37*
G04 #@! TD.AperFunction*
G04 #@! TA.AperFunction,Conductor*
G36*
X47165507Y26244844D02*
G01*
X47125000Y26106889D01*
X47125000Y25963111D01*
X47165507Y25825156D01*
X47191314Y25785000D01*
X46858500Y25785000D01*
X46791461Y25804685D01*
X46745706Y25857489D01*
X46734500Y25909000D01*
X46734500Y26161000D01*
X46754185Y26228039D01*
X46806989Y26273794D01*
X46858500Y26285000D01*
X47191314Y26285000D01*
X47165507Y26244844D01*
G37*
G04 #@! TD.AperFunction*
G04 #@! TA.AperFunction,Conductor*
G36*
X48458539Y26265315D02*
G01*
X48504294Y26212511D01*
X48515500Y26161000D01*
X48515500Y25909000D01*
X48495815Y25841961D01*
X48443011Y25796206D01*
X48391500Y25785000D01*
X48058686Y25785000D01*
X48084493Y25825156D01*
X48125000Y25963111D01*
X48125000Y26106889D01*
X48084493Y26244844D01*
X48058686Y26285000D01*
X48391500Y26285000D01*
X48458539Y26265315D01*
G37*
G04 #@! TD.AperFunction*
G04 #@! TA.AperFunction,Conductor*
G36*
X49705507Y26244844D02*
G01*
X49665000Y26106889D01*
X49665000Y25963111D01*
X49705507Y25825156D01*
X49731314Y25785000D01*
X49398500Y25785000D01*
X49331461Y25804685D01*
X49285706Y25857489D01*
X49274500Y25909000D01*
X49274500Y26161000D01*
X49294185Y26228039D01*
X49346989Y26273794D01*
X49398500Y26285000D01*
X49731314Y26285000D01*
X49705507Y26244844D01*
G37*
G04 #@! TD.AperFunction*
G04 #@! TA.AperFunction,Conductor*
G36*
X50998539Y26265315D02*
G01*
X51044294Y26212511D01*
X51055500Y26161000D01*
X51055500Y25909000D01*
X51035815Y25841961D01*
X50983011Y25796206D01*
X50931500Y25785000D01*
X50598686Y25785000D01*
X50624493Y25825156D01*
X50665000Y25963111D01*
X50665000Y26106889D01*
X50624493Y26244844D01*
X50598686Y26285000D01*
X50931500Y26285000D01*
X50998539Y26265315D01*
G37*
G04 #@! TD.AperFunction*
G04 #@! TA.AperFunction,Conductor*
G36*
X52245507Y26244844D02*
G01*
X52205000Y26106889D01*
X52205000Y25963111D01*
X52245507Y25825156D01*
X52271314Y25785000D01*
X51938500Y25785000D01*
X51871461Y25804685D01*
X51825706Y25857489D01*
X51814500Y25909000D01*
X51814500Y26161000D01*
X51834185Y26228039D01*
X51886989Y26273794D01*
X51938500Y26285000D01*
X52271314Y26285000D01*
X52245507Y26244844D01*
G37*
G04 #@! TD.AperFunction*
G04 #@! TA.AperFunction,Conductor*
G36*
X53538539Y26265315D02*
G01*
X53584294Y26212511D01*
X53595500Y26161000D01*
X53595500Y25909000D01*
X53575815Y25841961D01*
X53523011Y25796206D01*
X53471500Y25785000D01*
X53138686Y25785000D01*
X53164493Y25825156D01*
X53205000Y25963111D01*
X53205000Y26106889D01*
X53164493Y26244844D01*
X53138686Y26285000D01*
X53471500Y26285000D01*
X53538539Y26265315D01*
G37*
G04 #@! TD.AperFunction*
G04 #@! TA.AperFunction,Conductor*
G36*
X54785507Y26244844D02*
G01*
X54745000Y26106889D01*
X54745000Y25963111D01*
X54785507Y25825156D01*
X54811314Y25785000D01*
X54478500Y25785000D01*
X54411461Y25804685D01*
X54365706Y25857489D01*
X54354500Y25909000D01*
X54354500Y26161000D01*
X54374185Y26228039D01*
X54426989Y26273794D01*
X54478500Y26285000D01*
X54811314Y26285000D01*
X54785507Y26244844D01*
G37*
G04 #@! TD.AperFunction*
G04 #@! TA.AperFunction,Conductor*
G36*
X56058539Y26265315D02*
G01*
X56104294Y26212511D01*
X56115500Y26161000D01*
X56115500Y25909000D01*
X56095815Y25841961D01*
X56043011Y25796206D01*
X55991500Y25785000D01*
X55678686Y25785000D01*
X55704493Y25825156D01*
X55745000Y25963111D01*
X55745000Y26106889D01*
X55704493Y26244844D01*
X55678686Y26285000D01*
X55991500Y26285000D01*
X56058539Y26265315D01*
G37*
G04 #@! TD.AperFunction*
G04 #@! TA.AperFunction,Conductor*
G36*
X57325507Y26244844D02*
G01*
X57285000Y26106889D01*
X57285000Y25963111D01*
X57325507Y25825156D01*
X57351314Y25785000D01*
X56998500Y25785000D01*
X56931461Y25804685D01*
X56885706Y25857489D01*
X56874500Y25909000D01*
X56874500Y26161000D01*
X56894185Y26228039D01*
X56946989Y26273794D01*
X56998500Y26285000D01*
X57351314Y26285000D01*
X57325507Y26244844D01*
G37*
G04 #@! TD.AperFunction*
G04 #@! TA.AperFunction,Conductor*
G36*
X59865507Y26244844D02*
G01*
X59825000Y26106889D01*
X59825000Y25963111D01*
X59865507Y25825156D01*
X59891314Y25785000D01*
X58218686Y25785000D01*
X58244493Y25825156D01*
X58285000Y25963111D01*
X58285000Y26106889D01*
X58244493Y26244844D01*
X58218686Y26285000D01*
X59891314Y26285000D01*
X59865507Y26244844D01*
G37*
G04 #@! TD.AperFunction*
G04 #@! TA.AperFunction,Conductor*
G36*
X62405507Y26244844D02*
G01*
X62365000Y26106889D01*
X62365000Y25963111D01*
X62405507Y25825156D01*
X62431314Y25785000D01*
X60758686Y25785000D01*
X60784493Y25825156D01*
X60825000Y25963111D01*
X60825000Y26106889D01*
X60784493Y26244844D01*
X60758686Y26285000D01*
X62431314Y26285000D01*
X62405507Y26244844D01*
G37*
G04 #@! TD.AperFunction*
G04 #@! TA.AperFunction,Conductor*
G36*
X40498483Y41510815D02*
G01*
X40519125Y41494181D01*
X40592181Y41421125D01*
X40625666Y41359802D01*
X40628500Y41333444D01*
X40628500Y40217556D01*
X40608815Y40150517D01*
X40556011Y40104762D01*
X40486853Y40094818D01*
X40423297Y40123843D01*
X40416819Y40129875D01*
X39962473Y40584221D01*
X39928988Y40645544D01*
X39927217Y40655702D01*
X39910228Y40784754D01*
X39854355Y40919642D01*
X39765474Y41035474D01*
X39649643Y41124355D01*
X39649640Y41124356D01*
X39649638Y41124358D01*
X39514757Y41180227D01*
X39514752Y41180229D01*
X39370001Y41199285D01*
X39369999Y41199285D01*
X39225247Y41180229D01*
X39225245Y41180228D01*
X39090361Y41124357D01*
X39090358Y41124356D01*
X39090358Y41124355D01*
X38974526Y41035474D01*
X38931999Y40980051D01*
X38885643Y40919639D01*
X38829772Y40784755D01*
X38829771Y40784753D01*
X38810715Y40640002D01*
X38810715Y40639999D01*
X38829771Y40495248D01*
X38829773Y40495243D01*
X38885642Y40360362D01*
X38885645Y40360356D01*
X38974525Y40244527D01*
X38974526Y40244526D01*
X39090355Y40155646D01*
X39090361Y40155643D01*
X39152571Y40129875D01*
X39225246Y40099772D01*
X39354284Y40082784D01*
X39418179Y40054519D01*
X39425779Y40047527D01*
X40207730Y39265575D01*
X40223854Y39245720D01*
X40229932Y39236418D01*
X40229936Y39236415D01*
X40255234Y39216724D01*
X40266753Y39206552D01*
X40266886Y39206419D01*
X40284054Y39194162D01*
X40288080Y39191160D01*
X40329881Y39158625D01*
X40329884Y39158624D01*
X40336878Y39154839D01*
X40344016Y39151349D01*
X40344018Y39151349D01*
X40344020Y39151347D01*
X40394781Y39136235D01*
X40399604Y39134689D01*
X40407716Y39131904D01*
X40449670Y39117500D01*
X40457483Y39116197D01*
X40465407Y39115209D01*
X40465410Y39115208D01*
X40465412Y39115209D01*
X40465413Y39115208D01*
X40518262Y39117394D01*
X40523387Y39117500D01*
X59481444Y39117500D01*
X59548483Y39097815D01*
X59569125Y39081181D01*
X60259181Y38391125D01*
X60292666Y38329802D01*
X60295500Y38303444D01*
X60295500Y33478385D01*
X60275815Y33411346D01*
X60269875Y33402898D01*
X60223374Y33342298D01*
X60166946Y33301095D01*
X60097200Y33296941D01*
X60036280Y33331154D01*
X60026630Y33342289D01*
X59970474Y33415474D01*
X59854643Y33504355D01*
X59854640Y33504356D01*
X59854638Y33504358D01*
X59719757Y33560227D01*
X59719752Y33560229D01*
X59575001Y33579285D01*
X59574999Y33579285D01*
X59430247Y33560229D01*
X59430245Y33560228D01*
X59295361Y33504357D01*
X59295358Y33504356D01*
X59295358Y33504355D01*
X59179526Y33415474D01*
X59106191Y33319901D01*
X59090643Y33299639D01*
X59034772Y33164755D01*
X59034771Y33164753D01*
X59015715Y33020002D01*
X59015715Y33019999D01*
X59034771Y32875248D01*
X59034773Y32875243D01*
X59090642Y32740362D01*
X59090645Y32740356D01*
X59179525Y32624527D01*
X59179526Y32624526D01*
X59295355Y32535646D01*
X59295361Y32535643D01*
X59336558Y32518579D01*
X59430246Y32479772D01*
X59559284Y32462784D01*
X59623179Y32434519D01*
X59630779Y32427527D01*
X60031728Y32026578D01*
X60047852Y32006723D01*
X60053932Y31997418D01*
X60053935Y31997416D01*
X60079235Y31977724D01*
X60090758Y31967548D01*
X60090887Y31967419D01*
X60090890Y31967417D01*
X60090892Y31967415D01*
X60108005Y31955196D01*
X60112111Y31952135D01*
X60153881Y31919625D01*
X60153883Y31919625D01*
X60160877Y31915840D01*
X60168018Y31912349D01*
X60168021Y31912347D01*
X60218757Y31897243D01*
X60223590Y31895695D01*
X60273673Y31878500D01*
X60273676Y31878500D01*
X60281482Y31877197D01*
X60289407Y31876209D01*
X60289410Y31876208D01*
X60289412Y31876209D01*
X60289413Y31876208D01*
X60332640Y31877996D01*
X60342273Y31878395D01*
X60347396Y31878500D01*
X61005444Y31878500D01*
X61072483Y31858815D01*
X61093125Y31842181D01*
X63044125Y29891181D01*
X63077610Y29829858D01*
X63072626Y29760166D01*
X63030754Y29704233D01*
X62965290Y29679816D01*
X62956444Y29679500D01*
X62762653Y29679500D01*
X62561444Y29641888D01*
X62561441Y29641888D01*
X62561441Y29641887D01*
X62370575Y29567946D01*
X62370569Y29567943D01*
X62196539Y29460188D01*
X62196537Y29460186D01*
X62045269Y29322288D01*
X61921912Y29158936D01*
X61830673Y28975705D01*
X61774654Y28778817D01*
X61755768Y28575001D01*
X61755768Y28575000D01*
X61774654Y28371184D01*
X61830673Y28174296D01*
X61921912Y27991065D01*
X62045269Y27827713D01*
X62196537Y27689815D01*
X62196539Y27689813D01*
X62370569Y27582058D01*
X62370571Y27582057D01*
X62370573Y27582056D01*
X62421313Y27562399D01*
X62446737Y27552550D01*
X62502139Y27509977D01*
X62525730Y27444211D01*
X62510019Y27376130D01*
X62459996Y27327351D01*
X62434040Y27317149D01*
X62401519Y27308435D01*
X62401507Y27308430D01*
X62187422Y27208601D01*
X62187420Y27208600D01*
X61993926Y27073114D01*
X61993920Y27073109D01*
X61826891Y26906080D01*
X61826890Y26906078D01*
X61696575Y26719969D01*
X61641998Y26676345D01*
X61572499Y26669152D01*
X61510145Y26700674D01*
X61493425Y26719969D01*
X61363109Y26906078D01*
X61363108Y26906080D01*
X61196082Y27073106D01*
X61002578Y27208601D01*
X60788492Y27308430D01*
X60788477Y27308436D01*
X60755960Y27317149D01*
X60696300Y27353514D01*
X60665772Y27416362D01*
X60674067Y27485737D01*
X60718553Y27539614D01*
X60743257Y27552548D01*
X60819427Y27582056D01*
X60993462Y27689814D01*
X61144732Y27827715D01*
X61268088Y27991065D01*
X61359328Y28174299D01*
X61415345Y28371179D01*
X61434232Y28575000D01*
X61415345Y28778821D01*
X61359328Y28975701D01*
X61268088Y29158935D01*
X61208904Y29237307D01*
X61144730Y29322288D01*
X60993462Y29460186D01*
X60993460Y29460188D01*
X60819430Y29567943D01*
X60819424Y29567946D01*
X60644428Y29635739D01*
X60628556Y29641888D01*
X60427347Y29679500D01*
X60222653Y29679500D01*
X60021444Y29641888D01*
X60021441Y29641888D01*
X60021441Y29641887D01*
X59830575Y29567946D01*
X59830569Y29567943D01*
X59656539Y29460188D01*
X59656537Y29460186D01*
X59505269Y29322288D01*
X59381912Y29158936D01*
X59290673Y28975705D01*
X59234654Y28778817D01*
X59215768Y28575001D01*
X59215768Y28575000D01*
X59234654Y28371184D01*
X59290673Y28174296D01*
X59381912Y27991065D01*
X59505269Y27827713D01*
X59656537Y27689815D01*
X59656539Y27689813D01*
X59830569Y27582058D01*
X59830571Y27582057D01*
X59830573Y27582056D01*
X59881313Y27562399D01*
X59906737Y27552550D01*
X59962139Y27509977D01*
X59985730Y27444211D01*
X59970019Y27376130D01*
X59919996Y27327351D01*
X59894040Y27317149D01*
X59861519Y27308435D01*
X59861507Y27308430D01*
X59647422Y27208601D01*
X59647420Y27208600D01*
X59453926Y27073114D01*
X59453920Y27073109D01*
X59286891Y26906080D01*
X59286890Y26906078D01*
X59156575Y26719969D01*
X59101998Y26676345D01*
X59032499Y26669152D01*
X58970145Y26700674D01*
X58953425Y26719969D01*
X58823109Y26906078D01*
X58823108Y26906080D01*
X58656082Y27073106D01*
X58462578Y27208601D01*
X58248492Y27308430D01*
X58248477Y27308436D01*
X58215960Y27317149D01*
X58156300Y27353514D01*
X58125772Y27416362D01*
X58134067Y27485737D01*
X58178553Y27539614D01*
X58203257Y27552548D01*
X58279427Y27582056D01*
X58453462Y27689814D01*
X58604732Y27827715D01*
X58728088Y27991065D01*
X58819328Y28174299D01*
X58875345Y28371179D01*
X58894232Y28575000D01*
X58875345Y28778821D01*
X58819328Y28975701D01*
X58728088Y29158935D01*
X58668904Y29237307D01*
X58604730Y29322288D01*
X58453462Y29460186D01*
X58453460Y29460188D01*
X58279430Y29567943D01*
X58279424Y29567946D01*
X58104428Y29635739D01*
X58088556Y29641888D01*
X57887347Y29679500D01*
X57682653Y29679500D01*
X57481444Y29641888D01*
X57481441Y29641888D01*
X57481441Y29641887D01*
X57290575Y29567946D01*
X57290569Y29567943D01*
X57116539Y29460188D01*
X57116537Y29460186D01*
X56965269Y29322288D01*
X56841912Y29158936D01*
X56750673Y28975705D01*
X56694654Y28778817D01*
X56675768Y28575001D01*
X56675768Y28575000D01*
X56694654Y28371184D01*
X56752201Y28168926D01*
X56751613Y28099059D01*
X56720615Y28047311D01*
X56263577Y27590273D01*
X56243727Y27574152D01*
X56234419Y27568071D01*
X56214715Y27542755D01*
X56204569Y27531263D01*
X56204425Y27531120D01*
X56204417Y27531110D01*
X56192186Y27513982D01*
X56189131Y27509886D01*
X56156625Y27468120D01*
X56152849Y27461143D01*
X56149345Y27453977D01*
X56134247Y27403261D01*
X56132683Y27398380D01*
X56115499Y27348328D01*
X56114195Y27340513D01*
X56113207Y27332586D01*
X56113813Y27317947D01*
X56096915Y27250152D01*
X56046047Y27202254D01*
X55977358Y27189462D01*
X55928321Y27207710D01*
X55927271Y27205891D01*
X55922579Y27208600D01*
X55708492Y27308430D01*
X55708477Y27308436D01*
X55675960Y27317149D01*
X55616300Y27353514D01*
X55585772Y27416362D01*
X55594067Y27485737D01*
X55638553Y27539614D01*
X55663257Y27552548D01*
X55739427Y27582056D01*
X55913462Y27689814D01*
X56064732Y27827715D01*
X56188088Y27991065D01*
X56279328Y28174299D01*
X56335345Y28371179D01*
X56354232Y28575000D01*
X56335345Y28778821D01*
X56279328Y28975701D01*
X56188088Y29158935D01*
X56128904Y29237307D01*
X56064730Y29322288D01*
X55913462Y29460186D01*
X55913460Y29460188D01*
X55739430Y29567943D01*
X55739424Y29567946D01*
X55564428Y29635739D01*
X55548556Y29641888D01*
X55347347Y29679500D01*
X55142653Y29679500D01*
X54941444Y29641888D01*
X54941441Y29641888D01*
X54941441Y29641887D01*
X54750575Y29567946D01*
X54750569Y29567943D01*
X54576539Y29460188D01*
X54576537Y29460186D01*
X54425269Y29322288D01*
X54301912Y29158936D01*
X54210673Y28975705D01*
X54154654Y28778817D01*
X54135768Y28575001D01*
X54135768Y28575000D01*
X54154654Y28371184D01*
X54212201Y28168926D01*
X54211613Y28099059D01*
X54180615Y28047311D01*
X53743577Y27610273D01*
X53723727Y27594152D01*
X53714419Y27588071D01*
X53694715Y27562755D01*
X53684569Y27551263D01*
X53684425Y27551120D01*
X53684417Y27551110D01*
X53672186Y27533982D01*
X53669131Y27529886D01*
X53636625Y27488120D01*
X53632849Y27481143D01*
X53629345Y27473977D01*
X53614247Y27423261D01*
X53612683Y27418380D01*
X53595499Y27368328D01*
X53594195Y27360513D01*
X53593207Y27352586D01*
X53595261Y27302929D01*
X53578363Y27235134D01*
X53527495Y27187236D01*
X53458806Y27174444D01*
X53400243Y27196231D01*
X53382578Y27208601D01*
X53168492Y27308430D01*
X53168477Y27308436D01*
X53135960Y27317149D01*
X53076300Y27353514D01*
X53045772Y27416362D01*
X53054067Y27485737D01*
X53098553Y27539614D01*
X53123257Y27552548D01*
X53199427Y27582056D01*
X53373462Y27689814D01*
X53524732Y27827715D01*
X53648088Y27991065D01*
X53739328Y28174299D01*
X53795345Y28371179D01*
X53814232Y28575000D01*
X53795345Y28778821D01*
X53739328Y28975701D01*
X53648088Y29158935D01*
X53588904Y29237307D01*
X53524730Y29322288D01*
X53373462Y29460186D01*
X53373460Y29460188D01*
X53199430Y29567943D01*
X53199424Y29567946D01*
X53024428Y29635739D01*
X53008556Y29641888D01*
X52807347Y29679500D01*
X52602653Y29679500D01*
X52401444Y29641888D01*
X52401441Y29641888D01*
X52401441Y29641887D01*
X52210575Y29567946D01*
X52210569Y29567943D01*
X52036539Y29460188D01*
X52036537Y29460186D01*
X51885269Y29322288D01*
X51761912Y29158936D01*
X51670673Y28975705D01*
X51614654Y28778817D01*
X51595768Y28575001D01*
X51595768Y28575000D01*
X51614654Y28371184D01*
X51672201Y28168926D01*
X51671613Y28099059D01*
X51640615Y28047311D01*
X51203577Y27610273D01*
X51183727Y27594152D01*
X51174419Y27588071D01*
X51154715Y27562755D01*
X51144569Y27551263D01*
X51144425Y27551120D01*
X51144417Y27551110D01*
X51132186Y27533982D01*
X51129131Y27529886D01*
X51096625Y27488120D01*
X51092849Y27481143D01*
X51089345Y27473977D01*
X51074247Y27423261D01*
X51072683Y27418380D01*
X51055499Y27368328D01*
X51054195Y27360513D01*
X51053207Y27352586D01*
X51055261Y27302929D01*
X51038363Y27235134D01*
X50987495Y27187236D01*
X50918806Y27174444D01*
X50860243Y27196231D01*
X50842578Y27208601D01*
X50628492Y27308430D01*
X50628477Y27308436D01*
X50595960Y27317149D01*
X50536300Y27353514D01*
X50505772Y27416362D01*
X50514067Y27485737D01*
X50558553Y27539614D01*
X50583257Y27552548D01*
X50659427Y27582056D01*
X50833462Y27689814D01*
X50984732Y27827715D01*
X51108088Y27991065D01*
X51199328Y28174299D01*
X51255345Y28371179D01*
X51274232Y28575000D01*
X51255345Y28778821D01*
X51199328Y28975701D01*
X51108088Y29158935D01*
X51048904Y29237307D01*
X50984730Y29322288D01*
X50833462Y29460186D01*
X50833460Y29460188D01*
X50659430Y29567943D01*
X50659424Y29567946D01*
X50484428Y29635739D01*
X50468556Y29641888D01*
X50267347Y29679500D01*
X50062653Y29679500D01*
X49861444Y29641888D01*
X49861441Y29641888D01*
X49861441Y29641887D01*
X49670575Y29567946D01*
X49670569Y29567943D01*
X49496539Y29460188D01*
X49496537Y29460186D01*
X49345269Y29322288D01*
X49221912Y29158936D01*
X49130673Y28975705D01*
X49074654Y28778817D01*
X49055768Y28575001D01*
X49055768Y28575000D01*
X49074654Y28371184D01*
X49132201Y28168926D01*
X49131613Y28099059D01*
X49100615Y28047311D01*
X48663577Y27610273D01*
X48643727Y27594152D01*
X48634419Y27588071D01*
X48614715Y27562755D01*
X48604569Y27551263D01*
X48604425Y27551120D01*
X48604417Y27551110D01*
X48592186Y27533982D01*
X48589131Y27529886D01*
X48556625Y27488120D01*
X48552849Y27481143D01*
X48549345Y27473977D01*
X48534247Y27423261D01*
X48532683Y27418380D01*
X48515499Y27368328D01*
X48514195Y27360513D01*
X48513207Y27352586D01*
X48515261Y27302929D01*
X48498363Y27235134D01*
X48447495Y27187236D01*
X48378806Y27174444D01*
X48320243Y27196231D01*
X48302578Y27208601D01*
X48088492Y27308430D01*
X48088477Y27308436D01*
X48055960Y27317149D01*
X47996300Y27353514D01*
X47965772Y27416362D01*
X47974067Y27485737D01*
X48018553Y27539614D01*
X48043257Y27552548D01*
X48119427Y27582056D01*
X48293462Y27689814D01*
X48444732Y27827715D01*
X48568088Y27991065D01*
X48659328Y28174299D01*
X48715345Y28371179D01*
X48734232Y28575000D01*
X48715345Y28778821D01*
X48659328Y28975701D01*
X48568088Y29158935D01*
X48508904Y29237307D01*
X48444730Y29322288D01*
X48293462Y29460186D01*
X48293460Y29460188D01*
X48119430Y29567943D01*
X48119424Y29567946D01*
X47944428Y29635739D01*
X47928556Y29641888D01*
X47727347Y29679500D01*
X47522653Y29679500D01*
X47321444Y29641888D01*
X47321441Y29641888D01*
X47321441Y29641887D01*
X47130575Y29567946D01*
X47130569Y29567943D01*
X46956539Y29460188D01*
X46956537Y29460186D01*
X46805269Y29322288D01*
X46681912Y29158936D01*
X46590673Y28975705D01*
X46534654Y28778817D01*
X46515768Y28575001D01*
X46515768Y28575000D01*
X46534654Y28371184D01*
X46592201Y28168926D01*
X46591613Y28099059D01*
X46560615Y28047311D01*
X46123577Y27610273D01*
X46103727Y27594152D01*
X46094419Y27588071D01*
X46074715Y27562755D01*
X46064569Y27551263D01*
X46064425Y27551120D01*
X46064417Y27551110D01*
X46052186Y27533982D01*
X46049131Y27529886D01*
X46016625Y27488120D01*
X46012849Y27481143D01*
X46009345Y27473977D01*
X45994247Y27423261D01*
X45992683Y27418380D01*
X45975499Y27368328D01*
X45974195Y27360513D01*
X45973207Y27352586D01*
X45975261Y27302929D01*
X45958363Y27235134D01*
X45907495Y27187236D01*
X45838806Y27174444D01*
X45780243Y27196231D01*
X45762578Y27208601D01*
X45548492Y27308430D01*
X45548477Y27308436D01*
X45515960Y27317149D01*
X45456300Y27353514D01*
X45425772Y27416362D01*
X45434067Y27485737D01*
X45478553Y27539614D01*
X45503257Y27552548D01*
X45579427Y27582056D01*
X45753462Y27689814D01*
X45904732Y27827715D01*
X46028088Y27991065D01*
X46119328Y28174299D01*
X46175345Y28371179D01*
X46194232Y28575000D01*
X46175345Y28778821D01*
X46119328Y28975701D01*
X46028088Y29158935D01*
X45968904Y29237307D01*
X45904730Y29322288D01*
X45753462Y29460186D01*
X45753460Y29460188D01*
X45579430Y29567943D01*
X45579424Y29567946D01*
X45404428Y29635739D01*
X45388556Y29641888D01*
X45187347Y29679500D01*
X44982653Y29679500D01*
X44781444Y29641888D01*
X44781441Y29641888D01*
X44781441Y29641887D01*
X44590575Y29567946D01*
X44590569Y29567943D01*
X44416539Y29460188D01*
X44416537Y29460186D01*
X44265269Y29322288D01*
X44141912Y29158936D01*
X44050673Y28975705D01*
X43994654Y28778817D01*
X43975768Y28575001D01*
X43975768Y28575000D01*
X43994654Y28371184D01*
X44052201Y28168926D01*
X44051613Y28099059D01*
X44020615Y28047311D01*
X43583577Y27610273D01*
X43563727Y27594152D01*
X43554419Y27588071D01*
X43534715Y27562755D01*
X43524569Y27551263D01*
X43524425Y27551120D01*
X43524417Y27551110D01*
X43512186Y27533982D01*
X43509131Y27529886D01*
X43476625Y27488120D01*
X43472849Y27481143D01*
X43469345Y27473977D01*
X43454247Y27423261D01*
X43452683Y27418380D01*
X43435499Y27368328D01*
X43434195Y27360513D01*
X43433207Y27352586D01*
X43435261Y27302929D01*
X43418363Y27235134D01*
X43367495Y27187236D01*
X43298806Y27174444D01*
X43240243Y27196231D01*
X43222578Y27208601D01*
X43008492Y27308430D01*
X43008477Y27308436D01*
X42975960Y27317149D01*
X42916300Y27353514D01*
X42885772Y27416362D01*
X42894067Y27485737D01*
X42938553Y27539614D01*
X42963257Y27552548D01*
X43039427Y27582056D01*
X43213462Y27689814D01*
X43364732Y27827715D01*
X43488088Y27991065D01*
X43579328Y28174299D01*
X43635345Y28371179D01*
X43654232Y28575000D01*
X43635345Y28778821D01*
X43579328Y28975701D01*
X43488088Y29158935D01*
X43428904Y29237307D01*
X43364730Y29322288D01*
X43213462Y29460186D01*
X43213460Y29460188D01*
X43039430Y29567943D01*
X43039424Y29567946D01*
X42864428Y29635739D01*
X42848556Y29641888D01*
X42647347Y29679500D01*
X42442653Y29679500D01*
X42241444Y29641888D01*
X42241441Y29641888D01*
X42241441Y29641887D01*
X42050575Y29567946D01*
X42050569Y29567943D01*
X41876539Y29460188D01*
X41876537Y29460186D01*
X41725269Y29322288D01*
X41601912Y29158936D01*
X41510673Y28975705D01*
X41454654Y28778817D01*
X41435768Y28575001D01*
X41435768Y28575000D01*
X41454654Y28371184D01*
X41512201Y28168926D01*
X41511613Y28099059D01*
X41480615Y28047311D01*
X41043577Y27610273D01*
X41023727Y27594152D01*
X41014419Y27588071D01*
X40994715Y27562755D01*
X40984569Y27551263D01*
X40984425Y27551120D01*
X40984417Y27551110D01*
X40972186Y27533982D01*
X40969131Y27529886D01*
X40936625Y27488120D01*
X40932849Y27481143D01*
X40929345Y27473977D01*
X40914247Y27423261D01*
X40912683Y27418380D01*
X40895499Y27368328D01*
X40894195Y27360513D01*
X40893207Y27352586D01*
X40895261Y27302929D01*
X40878363Y27235134D01*
X40827495Y27187236D01*
X40758806Y27174444D01*
X40700243Y27196231D01*
X40682578Y27208601D01*
X40468492Y27308430D01*
X40468477Y27308436D01*
X40435960Y27317149D01*
X40376300Y27353514D01*
X40345772Y27416362D01*
X40354067Y27485737D01*
X40398553Y27539614D01*
X40423257Y27552548D01*
X40499427Y27582056D01*
X40673462Y27689814D01*
X40824732Y27827715D01*
X40948088Y27991065D01*
X41039328Y28174299D01*
X41095345Y28371179D01*
X41114232Y28575000D01*
X41095345Y28778821D01*
X41039328Y28975701D01*
X40948088Y29158935D01*
X40888904Y29237307D01*
X40824730Y29322288D01*
X40673462Y29460186D01*
X40673460Y29460188D01*
X40499430Y29567943D01*
X40499424Y29567946D01*
X40324428Y29635739D01*
X40308556Y29641888D01*
X40107347Y29679500D01*
X39902653Y29679500D01*
X39701444Y29641888D01*
X39701441Y29641888D01*
X39701441Y29641887D01*
X39510575Y29567946D01*
X39510569Y29567943D01*
X39336539Y29460188D01*
X39336537Y29460186D01*
X39185269Y29322288D01*
X39061912Y29158936D01*
X38970673Y28975705D01*
X38914654Y28778817D01*
X38895768Y28575001D01*
X38895768Y28575000D01*
X38914654Y28371184D01*
X38970673Y28174296D01*
X39061912Y27991065D01*
X39185269Y27827713D01*
X39336537Y27689815D01*
X39336539Y27689813D01*
X39510569Y27582058D01*
X39510571Y27582057D01*
X39510573Y27582056D01*
X39561313Y27562399D01*
X39586737Y27552550D01*
X39642139Y27509977D01*
X39665730Y27444211D01*
X39650019Y27376130D01*
X39599996Y27327351D01*
X39574040Y27317149D01*
X39541519Y27308435D01*
X39541507Y27308430D01*
X39327422Y27208601D01*
X39327420Y27208600D01*
X39133926Y27073114D01*
X39133920Y27073109D01*
X38966891Y26906080D01*
X38966890Y26906078D01*
X38836575Y26719969D01*
X38781998Y26676345D01*
X38712499Y26669152D01*
X38650145Y26700674D01*
X38633425Y26719969D01*
X38503109Y26906078D01*
X38503108Y26906080D01*
X38336082Y27073106D01*
X38142578Y27208601D01*
X37928492Y27308430D01*
X37928477Y27308436D01*
X37895960Y27317149D01*
X37836300Y27353514D01*
X37805772Y27416362D01*
X37814067Y27485737D01*
X37858553Y27539614D01*
X37883257Y27552548D01*
X37959427Y27582056D01*
X38133462Y27689814D01*
X38284732Y27827715D01*
X38408088Y27991065D01*
X38499328Y28174299D01*
X38555345Y28371179D01*
X38574232Y28575000D01*
X38555345Y28778821D01*
X38499328Y28975701D01*
X38408088Y29158935D01*
X38348904Y29237307D01*
X38284730Y29322288D01*
X38133462Y29460186D01*
X38133460Y29460188D01*
X37959430Y29567943D01*
X37959424Y29567946D01*
X37784428Y29635739D01*
X37768556Y29641888D01*
X37567347Y29679500D01*
X37362653Y29679500D01*
X37161444Y29641888D01*
X37161441Y29641888D01*
X37161441Y29641887D01*
X36970575Y29567946D01*
X36970569Y29567943D01*
X36796539Y29460188D01*
X36796537Y29460186D01*
X36645269Y29322288D01*
X36521912Y29158936D01*
X36430673Y28975705D01*
X36374654Y28778817D01*
X36355768Y28575001D01*
X36355768Y28575000D01*
X36374654Y28371184D01*
X36430673Y28174296D01*
X36521912Y27991065D01*
X36645269Y27827713D01*
X36796537Y27689815D01*
X36796539Y27689813D01*
X36970569Y27582058D01*
X36970571Y27582057D01*
X36970573Y27582056D01*
X37021313Y27562399D01*
X37046737Y27552550D01*
X37102139Y27509977D01*
X37125730Y27444211D01*
X37110019Y27376130D01*
X37059996Y27327351D01*
X37034040Y27317149D01*
X37001519Y27308435D01*
X37001507Y27308430D01*
X36787422Y27208601D01*
X36787420Y27208600D01*
X36593926Y27073114D01*
X36593920Y27073109D01*
X36426891Y26906080D01*
X36426890Y26906078D01*
X36296575Y26719969D01*
X36241998Y26676345D01*
X36172499Y26669152D01*
X36110145Y26700674D01*
X36093425Y26719969D01*
X35963109Y26906078D01*
X35963108Y26906080D01*
X35796082Y27073106D01*
X35602578Y27208601D01*
X35388492Y27308430D01*
X35388477Y27308436D01*
X35355960Y27317149D01*
X35296300Y27353514D01*
X35265772Y27416362D01*
X35274067Y27485737D01*
X35318553Y27539614D01*
X35343257Y27552548D01*
X35419427Y27582056D01*
X35593462Y27689814D01*
X35744732Y27827715D01*
X35868088Y27991065D01*
X35959328Y28174299D01*
X36015345Y28371179D01*
X36034232Y28575000D01*
X36015345Y28778821D01*
X35959328Y28975701D01*
X35959325Y28975706D01*
X35957798Y28981075D01*
X35958384Y29050943D01*
X35989381Y29102689D01*
X40411821Y33525129D01*
X40473142Y33558612D01*
X40542834Y33553628D01*
X40598767Y33511756D01*
X40623184Y33446292D01*
X40623500Y33437447D01*
X40623500Y33237937D01*
X40638266Y33163699D01*
X40694515Y33079516D01*
X40727683Y33057354D01*
X40778699Y33023266D01*
X40778702Y33023266D01*
X40778703Y33023265D01*
X40795108Y33020002D01*
X40852933Y33008500D01*
X42703066Y33008501D01*
X42777301Y33023266D01*
X42861484Y33079516D01*
X42917734Y33163699D01*
X42932500Y33237933D01*
X42932499Y33926678D01*
X42952183Y33993714D01*
X43004987Y34039469D01*
X43074146Y34049413D01*
X43137702Y34020388D01*
X43175476Y33961610D01*
X43178134Y33950520D01*
X43236846Y33744165D01*
X43236849Y33744159D01*
X43301212Y33614901D01*
X43332219Y33552630D01*
X43461159Y33381886D01*
X43619278Y33237742D01*
X43619283Y33237739D01*
X43619286Y33237737D01*
X43801186Y33125109D01*
X43801187Y33125109D01*
X43801190Y33125107D01*
X44000703Y33047815D01*
X44211020Y33008500D01*
X44211022Y33008500D01*
X44424978Y33008500D01*
X44424980Y33008500D01*
X44635297Y33047815D01*
X44834810Y33125107D01*
X45016722Y33237742D01*
X45174841Y33381886D01*
X45303781Y33552630D01*
X45399151Y33744160D01*
X45399151Y33744163D01*
X45399153Y33744165D01*
X45457703Y33949950D01*
X45457704Y33949953D01*
X45466921Y34049413D01*
X45477446Y34163000D01*
X45466698Y34278983D01*
X45457704Y34376048D01*
X45457703Y34376051D01*
X45399153Y34581836D01*
X45399150Y34581842D01*
X45355893Y34668714D01*
X45303781Y34773370D01*
X45174841Y34944114D01*
X45016722Y35088258D01*
X45016716Y35088262D01*
X45016713Y35088264D01*
X44834813Y35200892D01*
X44834807Y35200894D01*
X44635297Y35278185D01*
X44424980Y35317500D01*
X44211020Y35317500D01*
X44000703Y35278185D01*
X43918876Y35246485D01*
X43801192Y35200894D01*
X43801186Y35200892D01*
X43619286Y35088264D01*
X43619283Y35088262D01*
X43619279Y35088260D01*
X43619278Y35088258D01*
X43505386Y34984432D01*
X43461158Y34944113D01*
X43332219Y34773371D01*
X43236849Y34581842D01*
X43236846Y34581836D01*
X43176727Y34370534D01*
X43175513Y34370880D01*
X43146710Y34314249D01*
X43086394Y34278983D01*
X43016586Y34281924D01*
X42959450Y34322140D01*
X42933127Y34386861D01*
X42932499Y34399325D01*
X42932499Y35088064D01*
X42932499Y35088066D01*
X42917734Y35162301D01*
X42891947Y35200894D01*
X42861484Y35246485D01*
X42781033Y35300240D01*
X42777301Y35302734D01*
X42777299Y35302735D01*
X42777296Y35302736D01*
X42703069Y35317500D01*
X40852936Y35317500D01*
X40778698Y35302734D01*
X40694515Y35246485D01*
X40638266Y35162301D01*
X40638264Y35162297D01*
X40623500Y35088072D01*
X40623500Y34668714D01*
X40603815Y34601675D01*
X40551011Y34555920D01*
X40514844Y34545667D01*
X40497089Y34543453D01*
X40481745Y34542500D01*
X40481557Y34542500D01*
X40460808Y34539038D01*
X40455739Y34538299D01*
X40403213Y34531752D01*
X40395594Y34529484D01*
X40388076Y34526902D01*
X40341541Y34501720D01*
X40336991Y34499378D01*
X40289431Y34476126D01*
X40282976Y34471518D01*
X40276684Y34466621D01*
X40240845Y34427690D01*
X40237299Y34423995D01*
X35449043Y29635739D01*
X35387720Y29602254D01*
X35318028Y29607238D01*
X35316569Y29607793D01*
X35228561Y29641887D01*
X35228556Y29641888D01*
X35027347Y29679500D01*
X34822653Y29679500D01*
X34621444Y29641888D01*
X34621441Y29641888D01*
X34621441Y29641887D01*
X34430575Y29567946D01*
X34430569Y29567943D01*
X34256539Y29460188D01*
X34256537Y29460186D01*
X34105269Y29322288D01*
X33981912Y29158936D01*
X33890673Y28975705D01*
X33834654Y28778817D01*
X33815768Y28575001D01*
X33815768Y28575000D01*
X33834654Y28371184D01*
X33890673Y28174296D01*
X33981912Y27991065D01*
X34105269Y27827713D01*
X34256537Y27689815D01*
X34256539Y27689813D01*
X34430569Y27582058D01*
X34430571Y27582057D01*
X34430573Y27582056D01*
X34481313Y27562399D01*
X34506737Y27552550D01*
X34562139Y27509977D01*
X34585730Y27444211D01*
X34570019Y27376130D01*
X34519996Y27327351D01*
X34494040Y27317149D01*
X34461519Y27308435D01*
X34461507Y27308430D01*
X34247422Y27208601D01*
X34247420Y27208600D01*
X34053926Y27073114D01*
X34053920Y27073109D01*
X33886891Y26906080D01*
X33886890Y26906078D01*
X33756575Y26719969D01*
X33701998Y26676345D01*
X33632499Y26669152D01*
X33570145Y26700674D01*
X33553425Y26719969D01*
X33423109Y26906078D01*
X33423108Y26906080D01*
X33256082Y27073106D01*
X33062578Y27208601D01*
X32848492Y27308430D01*
X32848477Y27308436D01*
X32815960Y27317149D01*
X32756300Y27353514D01*
X32725772Y27416362D01*
X32734067Y27485737D01*
X32778553Y27539614D01*
X32803257Y27552548D01*
X32879427Y27582056D01*
X33053462Y27689814D01*
X33204732Y27827715D01*
X33328088Y27991065D01*
X33419328Y28174299D01*
X33475345Y28371179D01*
X33494232Y28575000D01*
X33475345Y28778821D01*
X33419328Y28975701D01*
X33419325Y28975706D01*
X33417798Y28981075D01*
X33418384Y29050943D01*
X33449381Y29102689D01*
X34394425Y30047733D01*
X34414279Y30063855D01*
X34423582Y30069932D01*
X34443276Y30095236D01*
X34453459Y30106766D01*
X34453581Y30106887D01*
X34457485Y30112356D01*
X34465811Y30124016D01*
X34468876Y30128127D01*
X34501375Y30169881D01*
X34501376Y30169883D01*
X34505159Y30176874D01*
X34508651Y30184018D01*
X34508651Y30184019D01*
X34508653Y30184021D01*
X34523750Y30234737D01*
X34525303Y30239586D01*
X34542500Y30289673D01*
X34542500Y30289677D01*
X34542501Y30289679D01*
X34543802Y30297479D01*
X34544792Y30305413D01*
X34542606Y30358273D01*
X34542500Y30363397D01*
X34542500Y35813999D01*
X38556715Y35813999D01*
X38575771Y35669248D01*
X38575773Y35669243D01*
X38631642Y35534362D01*
X38631645Y35534356D01*
X38720525Y35418527D01*
X38720526Y35418526D01*
X38836355Y35329646D01*
X38836361Y35329643D01*
X38901321Y35302736D01*
X38971246Y35273772D01*
X39043623Y35264244D01*
X39115999Y35254715D01*
X39116000Y35254715D01*
X39116001Y35254715D01*
X39164251Y35261068D01*
X39260754Y35273772D01*
X39395643Y35329645D01*
X39511474Y35418526D01*
X39600355Y35534357D01*
X39656228Y35669246D01*
X39673216Y35798287D01*
X39701482Y35862183D01*
X39708449Y35869757D01*
X39998876Y36160184D01*
X40060198Y36193666D01*
X40086556Y36196500D01*
X49194444Y36196500D01*
X49261483Y36176815D01*
X49282125Y36160181D01*
X52384952Y33057354D01*
X52418437Y32996031D01*
X52420210Y32985858D01*
X52434771Y32875248D01*
X52434773Y32875243D01*
X52490642Y32740362D01*
X52490645Y32740356D01*
X52579525Y32624527D01*
X52579526Y32624526D01*
X52695355Y32535646D01*
X52695361Y32535643D01*
X52736558Y32518579D01*
X52830246Y32479772D01*
X52902623Y32470244D01*
X52974999Y32460715D01*
X52975000Y32460715D01*
X52975001Y32460715D01*
X53023251Y32467068D01*
X53119754Y32479772D01*
X53254643Y32535645D01*
X53370474Y32624526D01*
X53459355Y32740357D01*
X53515228Y32875246D01*
X53529790Y32985858D01*
X53534285Y33019999D01*
X53534285Y33020002D01*
X53515228Y33164753D01*
X53515228Y33164754D01*
X53459355Y33299642D01*
X53370474Y33415474D01*
X53254643Y33504355D01*
X53254640Y33504356D01*
X53254638Y33504358D01*
X53119757Y33560227D01*
X53119755Y33560228D01*
X53119754Y33560228D01*
X53088080Y33564398D01*
X52972288Y33579643D01*
X52908392Y33607910D01*
X52900793Y33614901D01*
X49708271Y36807423D01*
X49692143Y36827284D01*
X49686070Y36836579D01*
X49686068Y36836582D01*
X49680790Y36840690D01*
X49660755Y36856284D01*
X49649245Y36866449D01*
X49649114Y36866580D01*
X49631984Y36878811D01*
X49627879Y36881873D01*
X49586123Y36914372D01*
X49586122Y36914373D01*
X49586119Y36914375D01*
X49586114Y36914377D01*
X49579127Y36918159D01*
X49571979Y36921653D01*
X49521266Y36936751D01*
X49516385Y36938315D01*
X49466326Y36955501D01*
X49458516Y36956804D01*
X49450586Y36957793D01*
X49397738Y36955606D01*
X49392613Y36955500D01*
X39930220Y36955500D01*
X39904775Y36958139D01*
X39893901Y36960419D01*
X39893898Y36960419D01*
X39862076Y36956452D01*
X39846738Y36955500D01*
X39846557Y36955500D01*
X39837006Y36953907D01*
X39825784Y36952035D01*
X39820725Y36951299D01*
X39768222Y36944754D01*
X39760608Y36942487D01*
X39753070Y36939899D01*
X39706548Y36914723D01*
X39701995Y36912379D01*
X39654432Y36889127D01*
X39647969Y36884513D01*
X39641684Y36879621D01*
X39605845Y36840690D01*
X39602299Y36836995D01*
X39171778Y36406474D01*
X39110455Y36372989D01*
X39100282Y36371216D01*
X38971247Y36354229D01*
X38971245Y36354228D01*
X38836361Y36298357D01*
X38720526Y36209474D01*
X38631643Y36093639D01*
X38575772Y35958755D01*
X38575771Y35958753D01*
X38556715Y35814002D01*
X38556715Y35813999D01*
X34542500Y35813999D01*
X34542500Y38227000D01*
X35027693Y38227000D01*
X35046850Y38069219D01*
X35081287Y37978418D01*
X35103213Y37920605D01*
X35193502Y37789799D01*
X35193504Y37789797D01*
X35193506Y37789795D01*
X35312469Y37684402D01*
X35312471Y37684401D01*
X35453207Y37610537D01*
X35530368Y37591519D01*
X35607528Y37572500D01*
X35607529Y37572500D01*
X35766472Y37572500D01*
X35817911Y37585179D01*
X35920793Y37610537D01*
X36061529Y37684401D01*
X36063538Y37686181D01*
X36069335Y37691316D01*
X36132568Y37721037D01*
X36151561Y37722500D01*
X52825667Y37722500D01*
X52892706Y37702815D01*
X52913348Y37686181D01*
X55720181Y34879348D01*
X55753666Y34818025D01*
X55756500Y34791667D01*
X55756500Y33556102D01*
X55736815Y33489063D01*
X55734550Y33485662D01*
X55677214Y33402598D01*
X55620850Y33253982D01*
X55601693Y33096201D01*
X55601693Y33096200D01*
X55620850Y32938419D01*
X55677214Y32789803D01*
X55711345Y32740356D01*
X55767502Y32658999D01*
X55767504Y32658997D01*
X55767506Y32658995D01*
X55886469Y32553602D01*
X55886471Y32553601D01*
X56027207Y32479737D01*
X56093716Y32463344D01*
X56181528Y32441700D01*
X56181529Y32441700D01*
X56340472Y32441700D01*
X56391911Y32454379D01*
X56494793Y32479737D01*
X56635529Y32553601D01*
X56754498Y32658999D01*
X56844787Y32789805D01*
X56901149Y32938418D01*
X56920307Y33096200D01*
X56901149Y33253982D01*
X56844787Y33402595D01*
X56787450Y33485662D01*
X56765567Y33552016D01*
X56765500Y33556102D01*
X56765500Y34984432D01*
X56768334Y35010790D01*
X56769389Y35015640D01*
X56769389Y35015644D01*
X56765816Y35065599D01*
X56765500Y35074445D01*
X56765500Y35088080D01*
X56765500Y35088083D01*
X56763557Y35101593D01*
X56762614Y35110367D01*
X56759040Y35160342D01*
X56757305Y35164992D01*
X56750749Y35190683D01*
X56750043Y35195594D01*
X56747622Y35200894D01*
X56729227Y35241174D01*
X56725858Y35249307D01*
X56708343Y35296267D01*
X56705364Y35300246D01*
X56691839Y35323042D01*
X56689777Y35327558D01*
X56656973Y35365416D01*
X56651424Y35372302D01*
X56643252Y35383218D01*
X56643250Y35383221D01*
X56633599Y35392872D01*
X56627578Y35399339D01*
X56594775Y35437196D01*
X56590593Y35439884D01*
X56569955Y35456516D01*
X53490515Y38535956D01*
X53473882Y38556595D01*
X53471196Y38560775D01*
X53471195Y38560776D01*
X53471194Y38560778D01*
X53471191Y38560780D01*
X53433338Y38593580D01*
X53426869Y38599602D01*
X53417221Y38609250D01*
X53406301Y38617425D01*
X53399411Y38622978D01*
X53361563Y38655774D01*
X53361559Y38655776D01*
X53361558Y38655777D01*
X53357037Y38657842D01*
X53334244Y38671366D01*
X53330269Y38674342D01*
X53330267Y38674343D01*
X53283310Y38691858D01*
X53275162Y38695233D01*
X53229599Y38716042D01*
X53229595Y38716043D01*
X53224679Y38716749D01*
X53198995Y38723305D01*
X53194344Y38725040D01*
X53144378Y38728615D01*
X53135592Y38729560D01*
X53122098Y38731499D01*
X53122083Y38731500D01*
X53122082Y38731500D01*
X53108445Y38731500D01*
X53099599Y38731816D01*
X53049644Y38735389D01*
X53049638Y38735389D01*
X53046303Y38734664D01*
X53044789Y38734334D01*
X53018433Y38731500D01*
X36151561Y38731500D01*
X36084522Y38751185D01*
X36069335Y38762684D01*
X36061530Y38769599D01*
X35920791Y38843464D01*
X35766472Y38881500D01*
X35766471Y38881500D01*
X35607529Y38881500D01*
X35607528Y38881500D01*
X35453208Y38843464D01*
X35312469Y38769599D01*
X35193506Y38664206D01*
X35193500Y38664199D01*
X35103214Y38533398D01*
X35046850Y38384782D01*
X35027693Y38227001D01*
X35027693Y38227000D01*
X34542500Y38227000D01*
X34542500Y40939444D01*
X34562185Y41006483D01*
X34578819Y41027125D01*
X35045875Y41494181D01*
X35107198Y41527666D01*
X35133556Y41530500D01*
X40431444Y41530500D01*
X40498483Y41510815D01*
G37*
G04 #@! TD.AperFunction*
M02*
