G04 #@! TF.GenerationSoftware,KiCad,Pcbnew,7.0.10*
G04 #@! TF.CreationDate,2024-01-22T14:27:09-06:00*
G04 #@! TF.ProjectId,OpenFlops,4f70656e-466c-46f7-9073-2e6b69636164,1.0*
G04 #@! TF.SameCoordinates,PX72b28c8PY7654b98*
G04 #@! TF.FileFunction,Soldermask,Top*
G04 #@! TF.FilePolarity,Negative*
%FSLAX46Y46*%
G04 Gerber Fmt 4.6, Leading zero omitted, Abs format (unit mm)*
G04 Created by KiCad (PCBNEW 7.0.10) date 2024-01-22 14:27:09*
%MOMM*%
%LPD*%
G01*
G04 APERTURE LIST*
G04 Aperture macros list*
%AMRoundRect*
0 Rectangle with rounded corners*
0 $1 Rounding radius*
0 $2 $3 $4 $5 $6 $7 $8 $9 X,Y pos of 4 corners*
0 Add a 4 corners polygon primitive as box body*
4,1,4,$2,$3,$4,$5,$6,$7,$8,$9,$2,$3,0*
0 Add four circle primitives for the rounded corners*
1,1,$1+$1,$2,$3*
1,1,$1+$1,$4,$5*
1,1,$1+$1,$6,$7*
1,1,$1+$1,$8,$9*
0 Add four rect primitives between the rounded corners*
20,1,$1+$1,$2,$3,$4,$5,0*
20,1,$1+$1,$4,$5,$6,$7,0*
20,1,$1+$1,$6,$7,$8,$9,0*
20,1,$1+$1,$8,$9,$2,$3,0*%
G04 Aperture macros list end*
%ADD10RoundRect,0.150000X-0.150000X0.587500X-0.150000X-0.587500X0.150000X-0.587500X0.150000X0.587500X0*%
%ADD11RoundRect,0.250000X0.475000X-0.250000X0.475000X0.250000X-0.475000X0.250000X-0.475000X-0.250000X0*%
%ADD12RoundRect,0.150000X-0.825000X-0.150000X0.825000X-0.150000X0.825000X0.150000X-0.825000X0.150000X0*%
%ADD13RoundRect,0.250000X-0.250000X-0.475000X0.250000X-0.475000X0.250000X0.475000X-0.250000X0.475000X0*%
%ADD14RoundRect,0.250000X0.537500X0.425000X-0.537500X0.425000X-0.537500X-0.425000X0.537500X-0.425000X0*%
%ADD15RoundRect,0.250000X-0.450000X0.262500X-0.450000X-0.262500X0.450000X-0.262500X0.450000X0.262500X0*%
%ADD16R,2.000000X1.500000*%
%ADD17R,2.000000X3.800000*%
%ADD18RoundRect,0.250000X0.450000X-0.262500X0.450000X0.262500X-0.450000X0.262500X-0.450000X-0.262500X0*%
%ADD19RoundRect,0.250000X-0.262500X-0.450000X0.262500X-0.450000X0.262500X0.450000X-0.262500X0.450000X0*%
%ADD20RoundRect,0.250000X0.250000X0.475000X-0.250000X0.475000X-0.250000X-0.475000X0.250000X-0.475000X0*%
%ADD21RoundRect,0.250000X0.425000X-0.537500X0.425000X0.537500X-0.425000X0.537500X-0.425000X-0.537500X0*%
%ADD22C,1.950000*%
%ADD23C,1.508000*%
%ADD24R,1.700000X1.700000*%
%ADD25O,1.700000X1.700000*%
%ADD26R,1.800000X1.800000*%
%ADD27C,1.800000*%
%ADD28RoundRect,0.200000X0.800000X-0.200000X0.800000X0.200000X-0.800000X0.200000X-0.800000X-0.200000X0*%
%ADD29RoundRect,0.250000X0.262500X0.450000X-0.262500X0.450000X-0.262500X-0.450000X0.262500X-0.450000X0*%
%ADD30C,1.524000*%
%ADD31RoundRect,0.075000X-0.700000X-0.075000X0.700000X-0.075000X0.700000X0.075000X-0.700000X0.075000X0*%
%ADD32RoundRect,0.075000X-0.075000X-0.700000X0.075000X-0.700000X0.075000X0.700000X-0.075000X0.700000X0*%
%ADD33RoundRect,0.250001X0.499999X0.924999X-0.499999X0.924999X-0.499999X-0.924999X0.499999X-0.924999X0*%
%ADD34C,0.900000*%
%ADD35R,0.700000X1.600000*%
%ADD36R,1.400000X1.600000*%
%ADD37R,1.400000X2.200000*%
%ADD38R,1.800000X1.400000*%
%ADD39R,1.350000X1.350000*%
%ADD40O,1.350000X1.350000*%
%ADD41R,1.200000X1.400000*%
G04 APERTURE END LIST*
D10*
X57211000Y11019000D03*
X55311000Y11019000D03*
X56261000Y9144000D03*
D11*
X41031000Y13979000D03*
X41031000Y15879000D03*
D12*
X31115000Y19685000D03*
X31115000Y18415000D03*
X31115000Y17145000D03*
X31115000Y15875000D03*
X31115000Y14605000D03*
X31115000Y13335000D03*
X31115000Y12065000D03*
X36065000Y12065000D03*
X36065000Y13335000D03*
X36065000Y14605000D03*
X36065000Y15875000D03*
X36065000Y17145000D03*
X36065000Y18415000D03*
X36065000Y19685000D03*
D13*
X36431000Y9731000D03*
X38331000Y9731000D03*
D14*
X8717000Y22479000D03*
X5842000Y22479000D03*
D15*
X42545000Y23518500D03*
X42545000Y21693500D03*
D16*
X8763000Y15353000D03*
X8763000Y17653000D03*
D17*
X2463000Y17653000D03*
D16*
X8763000Y19953000D03*
D15*
X31115000Y23280500D03*
X31115000Y21455500D03*
D18*
X5715000Y2643500D03*
X5715000Y4468500D03*
D19*
X35640000Y35560000D03*
X37465000Y35560000D03*
D15*
X50165000Y23518500D03*
X50165000Y21693500D03*
D11*
X53721000Y14163000D03*
X53721000Y16063000D03*
D15*
X47625000Y23518500D03*
X47625000Y21693500D03*
D20*
X42281000Y2379000D03*
X40381000Y2379000D03*
D13*
X36431000Y7318000D03*
X38331000Y7318000D03*
D19*
X35663500Y40894000D03*
X37488500Y40894000D03*
D11*
X25294200Y8841500D03*
X25294200Y10741500D03*
X36195000Y21402000D03*
X36195000Y23302000D03*
D15*
X45085000Y23518500D03*
X45085000Y21693500D03*
D14*
X8803500Y12827000D03*
X5928500Y12827000D03*
D21*
X55880000Y14143000D03*
X55880000Y17018000D03*
D22*
X59603000Y12756000D03*
X59603000Y19756000D03*
D23*
X62103000Y13981000D03*
X62103000Y18531000D03*
D24*
X21463000Y12192000D03*
D25*
X18923000Y12192000D03*
X16383000Y12192000D03*
X13843000Y12192000D03*
D15*
X22098000Y23518500D03*
X22098000Y21693500D03*
D26*
X41783000Y40767000D03*
D27*
X44323000Y40767000D03*
D15*
X57785000Y23518500D03*
X57785000Y21693500D03*
D19*
X26773500Y14605000D03*
X28598500Y14605000D03*
D28*
X17780000Y14791000D03*
X17780000Y18991000D03*
D13*
X52481000Y2379000D03*
X54381000Y2379000D03*
D29*
X37488500Y43053000D03*
X35663500Y43053000D03*
D15*
X52705000Y23518500D03*
X52705000Y21693500D03*
X55245000Y23518500D03*
X55245000Y21693500D03*
D22*
X59698000Y2469000D03*
X59698000Y9469000D03*
D23*
X62198000Y3694000D03*
X62198000Y8244000D03*
D30*
X1955000Y34417000D03*
X1955000Y36957000D03*
X1955000Y39497000D03*
X1955000Y42037000D03*
D31*
X41696000Y12513000D03*
X41696000Y12013000D03*
X41696000Y11513000D03*
X41696000Y11013000D03*
X41696000Y10513000D03*
X41696000Y10013000D03*
X41696000Y9513000D03*
X41696000Y9013000D03*
X41696000Y8513000D03*
X41696000Y8013000D03*
X41696000Y7513000D03*
X41696000Y7013000D03*
X41696000Y6513000D03*
X41696000Y6013000D03*
X41696000Y5513000D03*
X41696000Y5013000D03*
D32*
X43621000Y3088000D03*
X44121000Y3088000D03*
X44621000Y3088000D03*
X45121000Y3088000D03*
X45621000Y3088000D03*
X46121000Y3088000D03*
X46621000Y3088000D03*
X47121000Y3088000D03*
X47621000Y3088000D03*
X48121000Y3088000D03*
X48621000Y3088000D03*
X49121000Y3088000D03*
X49621000Y3088000D03*
X50121000Y3088000D03*
X50621000Y3088000D03*
X51121000Y3088000D03*
D31*
X53046000Y5013000D03*
X53046000Y5513000D03*
X53046000Y6013000D03*
X53046000Y6513000D03*
X53046000Y7013000D03*
X53046000Y7513000D03*
X53046000Y8013000D03*
X53046000Y8513000D03*
X53046000Y9013000D03*
X53046000Y9513000D03*
X53046000Y10013000D03*
X53046000Y10513000D03*
X53046000Y11013000D03*
X53046000Y11513000D03*
X53046000Y12013000D03*
X53046000Y12513000D03*
D32*
X51121000Y14438000D03*
X50621000Y14438000D03*
X50121000Y14438000D03*
X49621000Y14438000D03*
X49121000Y14438000D03*
X48621000Y14438000D03*
X48121000Y14438000D03*
X47621000Y14438000D03*
X47121000Y14438000D03*
X46621000Y14438000D03*
X46121000Y14438000D03*
X45621000Y14438000D03*
X45121000Y14438000D03*
X44621000Y14438000D03*
X44121000Y14438000D03*
X43621000Y14438000D03*
D33*
X37312000Y38227000D03*
X34062000Y38227000D03*
D34*
X60175000Y42409000D03*
X52175000Y42409000D03*
D35*
X52975000Y31909000D03*
X54075000Y31909000D03*
X55175000Y31909000D03*
X56275000Y31909000D03*
X57375000Y31909000D03*
X58475000Y31909000D03*
X59575000Y31909000D03*
X60675000Y31909000D03*
X61775000Y31909000D03*
D36*
X63075000Y32509000D03*
D37*
X63075000Y42009000D03*
X47375000Y42009000D03*
D38*
X48275000Y32409000D03*
D15*
X33655000Y23280500D03*
X33655000Y21455500D03*
D29*
X37465000Y33401000D03*
X35640000Y33401000D03*
D15*
X24765000Y23495000D03*
X24765000Y21670000D03*
D26*
X41778000Y34163000D03*
D27*
X44318000Y34163000D03*
D39*
X9144000Y9398000D03*
D40*
X9144000Y7398000D03*
X7144000Y9398000D03*
X7144000Y7398000D03*
X5144000Y9398000D03*
X5144000Y7398000D03*
D15*
X27631000Y10704000D03*
X27631000Y8879000D03*
X8128000Y4468500D03*
X8128000Y2643500D03*
D19*
X59920500Y22098000D03*
X61745500Y22098000D03*
D41*
X34482000Y7361000D03*
X34482000Y9561000D03*
X32782000Y9561000D03*
X32782000Y7361000D03*
D15*
X27305000Y23518500D03*
X27305000Y21693500D03*
D24*
X1905000Y26035000D03*
D25*
X1905000Y28575000D03*
X4445000Y26035000D03*
X4445000Y28575000D03*
X6985000Y26035000D03*
X6985000Y28575000D03*
X9525000Y26035000D03*
X9525000Y28575000D03*
X12065000Y26035000D03*
X12065000Y28575000D03*
X14605000Y26035000D03*
X14605000Y28575000D03*
X17145000Y26035000D03*
X17145000Y28575000D03*
X19685000Y26035000D03*
X19685000Y28575000D03*
X22225000Y26035000D03*
X22225000Y28575000D03*
X24765000Y26035000D03*
X24765000Y28575000D03*
X27305000Y26035000D03*
X27305000Y28575000D03*
X29845000Y26035000D03*
X29845000Y28575000D03*
X32385000Y26035000D03*
X32385000Y28575000D03*
X34925000Y26035000D03*
X34925000Y28575000D03*
X37465000Y26035000D03*
X37465000Y28575000D03*
X40005000Y26035000D03*
X40005000Y28575000D03*
X42545000Y26035000D03*
X42545000Y28575000D03*
X45085000Y26035000D03*
X45085000Y28575000D03*
X47625000Y26035000D03*
X47625000Y28575000D03*
X50165000Y26035000D03*
X50165000Y28575000D03*
X52705000Y26035000D03*
X52705000Y28575000D03*
X55245000Y26035000D03*
X55245000Y28575000D03*
X57785000Y26035000D03*
X57785000Y28575000D03*
X60325000Y26035000D03*
X60325000Y28575000D03*
X62865000Y26035000D03*
X62865000Y28575000D03*
M02*
