G04 #@! TF.GenerationSoftware,KiCad,Pcbnew,8.0.7*
G04 #@! TF.CreationDate,2025-01-10T00:35:48-06:00*
G04 #@! TF.ProjectId,OpenFlops,4f70656e-466c-46f7-9073-2e6b69636164,1.0*
G04 #@! TF.SameCoordinates,PX72b28c8PY7654b98*
G04 #@! TF.FileFunction,Copper,L2,Bot*
G04 #@! TF.FilePolarity,Positive*
%FSLAX46Y46*%
G04 Gerber Fmt 4.6, Leading zero omitted, Abs format (unit mm)*
G04 Created by KiCad (PCBNEW 8.0.7) date 2025-01-10 00:35:48*
%MOMM*%
%LPD*%
G01*
G04 APERTURE LIST*
G04 #@! TA.AperFunction,ComponentPad*
%ADD10R,1.700000X1.700000*%
G04 #@! TD*
G04 #@! TA.AperFunction,ComponentPad*
%ADD11O,1.700000X1.700000*%
G04 #@! TD*
G04 #@! TA.AperFunction,ComponentPad*
%ADD12R,1.600000X1.600000*%
G04 #@! TD*
G04 #@! TA.AperFunction,ComponentPad*
%ADD13C,1.600000*%
G04 #@! TD*
G04 #@! TA.AperFunction,ComponentPad*
%ADD14C,1.950000*%
G04 #@! TD*
G04 #@! TA.AperFunction,ComponentPad*
%ADD15C,1.508000*%
G04 #@! TD*
G04 #@! TA.AperFunction,ComponentPad*
%ADD16R,1.800000X1.800000*%
G04 #@! TD*
G04 #@! TA.AperFunction,ComponentPad*
%ADD17C,1.800000*%
G04 #@! TD*
G04 #@! TA.AperFunction,ComponentPad*
%ADD18C,1.524000*%
G04 #@! TD*
G04 #@! TA.AperFunction,ComponentPad*
%ADD19R,1.350000X1.350000*%
G04 #@! TD*
G04 #@! TA.AperFunction,ComponentPad*
%ADD20O,1.350000X1.350000*%
G04 #@! TD*
G04 #@! TA.AperFunction,ViaPad*
%ADD21C,0.700000*%
G04 #@! TD*
G04 #@! TA.AperFunction,ViaPad*
%ADD22C,0.800000*%
G04 #@! TD*
G04 #@! TA.AperFunction,ViaPad*
%ADD23C,0.600000*%
G04 #@! TD*
G04 #@! TA.AperFunction,Conductor*
%ADD24C,0.127000*%
G04 #@! TD*
G04 #@! TA.AperFunction,Conductor*
%ADD25C,0.200000*%
G04 #@! TD*
G04 #@! TA.AperFunction,Conductor*
%ADD26C,0.250000*%
G04 #@! TD*
G04 #@! TA.AperFunction,Conductor*
%ADD27C,0.500000*%
G04 #@! TD*
G04 #@! TA.AperFunction,Conductor*
%ADD28C,0.300000*%
G04 #@! TD*
G04 APERTURE END LIST*
D10*
X21463000Y3937000D03*
D11*
X18923000Y3937000D03*
X16383000Y3937000D03*
X13843000Y3937000D03*
D12*
X13716000Y11049000D03*
D13*
X17716000Y11049000D03*
D14*
X59603000Y12756000D03*
X59603000Y19756000D03*
D15*
X62103000Y13981000D03*
X62103000Y18531000D03*
D16*
X41783000Y40767000D03*
D17*
X44323000Y40767000D03*
D14*
X59698000Y2469000D03*
X59698000Y9469000D03*
D15*
X62198000Y3694000D03*
X62198000Y8244000D03*
D18*
X1955000Y34417000D03*
X1955000Y36957000D03*
X1955000Y39497000D03*
X1955000Y42037000D03*
D16*
X41778000Y34163000D03*
D17*
X44318000Y34163000D03*
D19*
X7080000Y9239000D03*
D20*
X7080000Y7239000D03*
X5080000Y9239000D03*
X5080000Y7239000D03*
X3080000Y9239000D03*
X3080000Y7239000D03*
D10*
X1905000Y26035000D03*
D11*
X1905000Y28575000D03*
X4445000Y26035000D03*
X4445000Y28575000D03*
X6985000Y26035000D03*
X6985000Y28575000D03*
X9525000Y26035000D03*
X9525000Y28575000D03*
X12065000Y26035000D03*
X12065000Y28575000D03*
X14605000Y26035000D03*
X14605000Y28575000D03*
X17145000Y26035000D03*
X17145000Y28575000D03*
X19685000Y26035000D03*
X19685000Y28575000D03*
X22225000Y26035000D03*
X22225000Y28575000D03*
X24765000Y26035000D03*
X24765000Y28575000D03*
X27305000Y26035000D03*
X27305000Y28575000D03*
X29845000Y26035000D03*
X29845000Y28575000D03*
X32385000Y26035000D03*
X32385000Y28575000D03*
X34925000Y26035000D03*
X34925000Y28575000D03*
X37465000Y26035000D03*
X37465000Y28575000D03*
X40005000Y26035000D03*
X40005000Y28575000D03*
X42545000Y26035000D03*
X42545000Y28575000D03*
X45085000Y26035000D03*
X45085000Y28575000D03*
X47625000Y26035000D03*
X47625000Y28575000D03*
X50165000Y26035000D03*
X50165000Y28575000D03*
X52705000Y26035000D03*
X52705000Y28575000D03*
X55245000Y26035000D03*
X55245000Y28575000D03*
X57785000Y26035000D03*
X57785000Y28575000D03*
X60325000Y26035000D03*
X60325000Y28575000D03*
X62865000Y26035000D03*
X62865000Y28575000D03*
D21*
X18034000Y8763000D03*
X24892000Y5969000D03*
X25908000Y17272000D03*
X25781000Y14605000D03*
X13208000Y18669000D03*
X11176000Y20701000D03*
D22*
X4749800Y12827000D03*
D23*
X44931000Y7479000D03*
D22*
X31572200Y7366000D03*
X4648200Y22479000D03*
D23*
X40513000Y21590000D03*
D22*
X4572000Y18923000D03*
D23*
X33274000Y19812000D03*
X37631000Y9679000D03*
X40386000Y3403600D03*
X47931000Y10979000D03*
D22*
X54406800Y12014200D03*
D23*
X43942000Y30099000D03*
D22*
X4572000Y20320000D03*
X27305000Y18034000D03*
D23*
X41031000Y15113000D03*
X44069000Y4318000D03*
X37631000Y7279000D03*
D22*
X2413000Y14859000D03*
X55270400Y2413000D03*
X55880000Y18161000D03*
X32918400Y38227000D03*
X6477000Y16256000D03*
X43180000Y11506200D03*
D23*
X33147000Y17145000D03*
D22*
X62357000Y11557000D03*
X6477000Y14859000D03*
D23*
X28956000Y20574000D03*
X47931000Y7679000D03*
D22*
X29743400Y12065000D03*
X53721000Y16967200D03*
X25298400Y11633200D03*
X62103000Y15875000D03*
D23*
X42831000Y15279000D03*
D22*
X2413000Y20574000D03*
X6604000Y20320000D03*
X6604000Y18923000D03*
X58470800Y33121600D03*
D23*
X44931000Y10979000D03*
D22*
X4445000Y14986000D03*
D23*
X33147000Y18415000D03*
D22*
X4445000Y16383000D03*
X18415000Y30988000D03*
X40031000Y12179000D03*
X15875000Y30988000D03*
X56261000Y33096200D03*
X18331500Y22225000D03*
D23*
X29131000Y10679000D03*
D22*
X15875000Y22225000D03*
X35687000Y38227000D03*
X13335000Y22225000D03*
X13335000Y30988000D03*
X40031000Y6479000D03*
X39274904Y3129500D03*
D23*
X29131000Y4699000D03*
X48895000Y24384000D03*
X25146000Y39497000D03*
X25146000Y30353000D03*
X49276000Y5479000D03*
X26035000Y42037000D03*
X50038000Y4953000D03*
X50911790Y24522918D03*
X26035000Y30904500D03*
X24765000Y22483000D03*
X24765000Y15875000D03*
X32385000Y5552500D03*
X31115000Y22606000D03*
X33655000Y22517500D03*
X34645354Y4631000D03*
X22098000Y22506500D03*
X22098000Y17526000D03*
X48133000Y6350000D03*
X43942000Y6350000D03*
X48133000Y4318000D03*
X42545000Y22456500D03*
X46482000Y5461000D03*
X45085000Y22456500D03*
X47625000Y22456500D03*
X46990000Y18505000D03*
X51689000Y18542000D03*
X51831000Y9017000D03*
X50165000Y22456500D03*
X50165000Y17907000D03*
X45085000Y13081000D03*
X44577000Y17907000D03*
X37719000Y20447000D03*
X37719000Y17145000D03*
X52705000Y22456500D03*
X55245000Y22456500D03*
X38354000Y14605000D03*
X38354000Y19685000D03*
X39370000Y14605000D03*
X57785000Y22456500D03*
X39370000Y19561500D03*
X27305000Y22506500D03*
X45931000Y13080500D03*
X38354000Y2504500D03*
X42672000Y17907000D03*
X42672000Y16364500D03*
X45618400Y16364500D03*
X45618400Y18465800D03*
X48133000Y15748000D03*
X48133000Y19031500D03*
X35560000Y4631000D03*
X34544000Y13208000D03*
X37465000Y2413000D03*
X49022000Y4318000D03*
X52975000Y33020000D03*
X39116000Y35814000D03*
X59690000Y23495000D03*
X58131000Y4952500D03*
X60931000Y6541500D03*
X61214000Y23622000D03*
X61214000Y5479000D03*
X62230000Y23622000D03*
X59575000Y33020000D03*
X62611000Y6096000D03*
X60675000Y33020000D03*
X39370000Y40640000D03*
X35941000Y2540000D03*
X50651023Y13102977D03*
X51304500Y11479000D03*
X35179000Y2013500D03*
D24*
X22098000Y17526000D02*
X22098000Y22506500D01*
D25*
X34378500Y22517500D02*
X33655000Y22517500D01*
X34798000Y22098000D02*
X34378500Y22517500D01*
X34798000Y20320000D02*
X34798000Y22098000D01*
X33990000Y19512000D02*
X34798000Y20320000D01*
X33990000Y5286354D02*
X33990000Y19512000D01*
X34645354Y4631000D02*
X33990000Y5286354D01*
X34544000Y5647000D02*
X35560000Y4631000D01*
X34544000Y13208000D02*
X34544000Y5647000D01*
X25781000Y14605000D02*
X25781000Y17145000D01*
X25781000Y17145000D02*
X25908000Y17272000D01*
D26*
X11176000Y20701000D02*
X13208000Y18669000D01*
D27*
X40031000Y6479000D02*
X40031000Y4348500D01*
X56261000Y35052000D02*
X56261000Y33096200D01*
D28*
X15855000Y30968000D02*
X15875000Y30988000D01*
D27*
X40031000Y6479000D02*
X40031000Y12179000D01*
D28*
X15875000Y22225000D02*
X15855000Y22245000D01*
D27*
X53086000Y38227000D02*
X56261000Y35052000D01*
D28*
X15855000Y22245000D02*
X15855000Y30968000D01*
D27*
X39274904Y3592404D02*
X39274904Y3129500D01*
D28*
X13335000Y22225000D02*
X13335000Y30988000D01*
D27*
X35687000Y38227000D02*
X53086000Y38227000D01*
D25*
X29131000Y10679000D02*
X29131000Y4699000D01*
D28*
X18415000Y22308500D02*
X18415000Y31031500D01*
D27*
X40031000Y4348500D02*
X39274904Y3592404D01*
D28*
X18331500Y22225000D02*
X18415000Y22308500D01*
D25*
X48895000Y19177000D02*
X48895000Y24384000D01*
D26*
X25146000Y30353000D02*
X25146000Y39497000D01*
D25*
X49276000Y5479000D02*
X49276000Y18796000D01*
X49276000Y18796000D02*
X48895000Y19177000D01*
X50911790Y17510790D02*
X50911790Y24522918D01*
X49892000Y5099000D02*
X49892000Y16491000D01*
D26*
X26035000Y30904500D02*
X26035000Y42037000D01*
D25*
X49892000Y16491000D02*
X49911000Y16510000D01*
X49911000Y16510000D02*
X50911790Y17510790D01*
X50038000Y4953000D02*
X49892000Y5099000D01*
D28*
X23495000Y24765000D02*
X23495000Y27305000D01*
X24765000Y15875000D02*
X24765000Y22483000D01*
X24765000Y22483000D02*
X24765000Y23495000D01*
X23495000Y27305000D02*
X24765000Y28575000D01*
X24765000Y23495000D02*
X23495000Y24765000D01*
D25*
X32385000Y5552500D02*
X32385000Y22098000D01*
D26*
X40640000Y41910000D02*
X41021000Y41529000D01*
D25*
X31877000Y22606000D02*
X31115000Y22606000D01*
X32385000Y22098000D02*
X31877000Y22606000D01*
D26*
X34925000Y41910000D02*
X40640000Y41910000D01*
X34163000Y30353000D02*
X34163000Y41148000D01*
X34163000Y41148000D02*
X34925000Y41910000D01*
X32385000Y28575000D02*
X34163000Y30353000D01*
X40513000Y34163000D02*
X41778000Y34163000D01*
X34925000Y28575000D02*
X40513000Y34163000D01*
D28*
X22098000Y23495000D02*
X20955000Y24638000D01*
X20955000Y24638000D02*
X20955000Y27305000D01*
X20955000Y27305000D02*
X22225000Y28575000D01*
X22098000Y22506500D02*
X22098000Y23495000D01*
D26*
X42545000Y23495000D02*
X42545000Y22456500D01*
D25*
X42118000Y14143000D02*
X43942000Y12319000D01*
D26*
X41275000Y24765000D02*
X42545000Y23495000D01*
D25*
X42118000Y22029500D02*
X42118000Y14143000D01*
X43942000Y12319000D02*
X43942000Y6350000D01*
X48133000Y6350000D02*
X48133000Y4318000D01*
D26*
X42545000Y28575000D02*
X41275000Y27305000D01*
D25*
X42545000Y22456500D02*
X42118000Y22029500D01*
D26*
X41275000Y27305000D02*
X41275000Y24765000D01*
D25*
X46463000Y21078500D02*
X46463000Y5480000D01*
D26*
X43815000Y24765000D02*
X43815000Y27305000D01*
D25*
X46463000Y5480000D02*
X46482000Y5461000D01*
X45085000Y22456500D02*
X46463000Y21078500D01*
D26*
X43815000Y27305000D02*
X45085000Y28575000D01*
X45085000Y23495000D02*
X43815000Y24765000D01*
X45085000Y22456500D02*
X45085000Y23495000D01*
X46355000Y27305000D02*
X46355000Y24765000D01*
D25*
X51831000Y18400000D02*
X51689000Y18542000D01*
D26*
X46355000Y24765000D02*
X47625000Y23495000D01*
X47625000Y28575000D02*
X46355000Y27305000D01*
D25*
X47625000Y22456500D02*
X46990000Y21821500D01*
X46990000Y21821500D02*
X46990000Y18505000D01*
X51831000Y9017000D02*
X51831000Y18400000D01*
D26*
X47625000Y23495000D02*
X47625000Y22456500D01*
X48895000Y27305000D02*
X48895000Y25527000D01*
D25*
X50165000Y17907000D02*
X50165000Y22456500D01*
D26*
X50165000Y24257000D02*
X50165000Y22456500D01*
X50165000Y28575000D02*
X48895000Y27305000D01*
X48895000Y25527000D02*
X50165000Y24257000D01*
D25*
X45085000Y13081000D02*
X44577000Y13589000D01*
X44577000Y13589000D02*
X44577000Y17907000D01*
D26*
X52705000Y23495000D02*
X52705000Y22456500D01*
X52705000Y28575000D02*
X51435000Y27305000D01*
X51435000Y24765000D02*
X52705000Y23495000D01*
D25*
X37719000Y17145000D02*
X37719000Y20447000D01*
D26*
X51435000Y27305000D02*
X51435000Y24765000D01*
X53975000Y24765000D02*
X55245000Y23495000D01*
X55245000Y28575000D02*
X53975000Y27305000D01*
X55245000Y23495000D02*
X55245000Y22456500D01*
D25*
X38354000Y19685000D02*
X38354000Y14605000D01*
D26*
X53975000Y27305000D02*
X53975000Y24765000D01*
X56495000Y27285000D02*
X56495000Y24785000D01*
D25*
X39370000Y19561500D02*
X39370000Y14605000D01*
D26*
X57785000Y28575000D02*
X56495000Y27285000D01*
X56495000Y24785000D02*
X57785000Y23495000D01*
X57785000Y23495000D02*
X57785000Y22456500D01*
D28*
X27305000Y22506500D02*
X27305000Y23495000D01*
X26035000Y27305000D02*
X27305000Y28575000D01*
X26035000Y24765000D02*
X26035000Y27305000D01*
X27305000Y23495000D02*
X26035000Y24765000D01*
D25*
X45931000Y2379000D02*
X45731000Y2179000D01*
X38715000Y2179000D02*
X38354000Y2540000D01*
X38354000Y2540000D02*
X38354000Y2504500D01*
X45931000Y13080500D02*
X45931000Y2379000D01*
X45731000Y2179000D02*
X38715000Y2179000D01*
X42672000Y16364500D02*
X42672000Y17907000D01*
X45618400Y16364500D02*
X45618400Y18465800D01*
X48133000Y15748000D02*
X48133000Y19031500D01*
X48588000Y1852000D02*
X38026000Y1852000D01*
X49022000Y4318000D02*
X49022000Y2286000D01*
X49022000Y2286000D02*
X48588000Y1852000D01*
X38026000Y1852000D02*
X37465000Y2413000D01*
D26*
X39878000Y36576000D02*
X39116000Y35814000D01*
X49403000Y36576000D02*
X39878000Y36576000D01*
X52975000Y33020000D02*
X52959000Y33020000D01*
X52959000Y33020000D02*
X49403000Y36576000D01*
X59690000Y22638000D02*
X59690000Y23495000D01*
X58131000Y4952500D02*
X58131000Y21079000D01*
X58131000Y21079000D02*
X59690000Y22638000D01*
X60974000Y23382000D02*
X60974000Y6584500D01*
X60974000Y6584500D02*
X60931000Y6541500D01*
X61214000Y23622000D02*
X60974000Y23382000D01*
X63431000Y22421000D02*
X62230000Y23622000D01*
X63431000Y7696000D02*
X63431000Y22421000D01*
X61214000Y5479000D02*
X63431000Y7696000D01*
X61214000Y32258000D02*
X64090000Y29382000D01*
X63831000Y24810500D02*
X63831000Y7316000D01*
X63831000Y7316000D02*
X62611000Y6096000D01*
X59575000Y33020000D02*
X60337000Y32258000D01*
X60337000Y32258000D02*
X61214000Y32258000D01*
X64090000Y25069500D02*
X63831000Y24810500D01*
X64090000Y29382000D02*
X64090000Y25069500D01*
X40513000Y39497000D02*
X39370000Y40640000D01*
X59690000Y39497000D02*
X40513000Y39497000D01*
X60675000Y33020000D02*
X60675000Y38512000D01*
X60675000Y38512000D02*
X59690000Y39497000D01*
D25*
X35941000Y2540000D02*
X36956000Y1525000D01*
X50651023Y2010023D02*
X50651023Y13102977D01*
X36956000Y1525000D02*
X50166000Y1525000D01*
X50166000Y1525000D02*
X50651023Y2010023D01*
X36013000Y1198000D02*
X50474000Y1198000D01*
X35179000Y2032000D02*
X35179000Y2013500D01*
X50474000Y1198000D02*
X51304500Y2028500D01*
X51304500Y2028500D02*
X51304500Y11479000D01*
X35179000Y2032000D02*
X36013000Y1198000D01*
G04 #@! TA.AperFunction,Conductor*
G36*
X3330000Y7554686D02*
G01*
X3325606Y7559080D01*
X3234394Y7611741D01*
X3132661Y7639000D01*
X3027339Y7639000D01*
X2925606Y7611741D01*
X2834394Y7559080D01*
X2830000Y7554686D01*
X2830000Y8923314D01*
X2834394Y8918920D01*
X2925606Y8866259D01*
X3027339Y8839000D01*
X3132661Y8839000D01*
X3234394Y8866259D01*
X3325606Y8918920D01*
X3330000Y8923314D01*
X3330000Y7554686D01*
G37*
G04 #@! TD.AperFunction*
G04 #@! TA.AperFunction,Conductor*
G36*
X64412539Y44510815D02*
G01*
X64458294Y44458011D01*
X64469500Y44406500D01*
X64469500Y29838556D01*
X64449815Y29771517D01*
X64397011Y29725762D01*
X64327853Y29715818D01*
X64264297Y29744843D01*
X64257819Y29750875D01*
X61524746Y32483948D01*
X61524744Y32483951D01*
X61447020Y32561675D01*
X61447015Y32561679D01*
X61360485Y32611637D01*
X61360482Y32611638D01*
X61340084Y32617104D01*
X61268030Y32636411D01*
X61208372Y32672776D01*
X61177844Y32735623D01*
X61185565Y32803635D01*
X61215228Y32875246D01*
X61229790Y32985858D01*
X61234285Y33019999D01*
X61234285Y33020002D01*
X61215228Y33164753D01*
X61215228Y33164754D01*
X61159355Y33299642D01*
X61126624Y33342298D01*
X61080124Y33402899D01*
X61054930Y33468068D01*
X61054500Y33478385D01*
X61054500Y38561960D01*
X61054500Y38561962D01*
X61028638Y38658482D01*
X60978676Y38745019D01*
X60908019Y38815676D01*
X60908018Y38815677D01*
X60903688Y38820007D01*
X60903677Y38820017D01*
X60000746Y39722948D01*
X60000744Y39722951D01*
X59923020Y39800675D01*
X59923015Y39800679D01*
X59836485Y39850637D01*
X59836482Y39850638D01*
X59816084Y39856104D01*
X59739962Y39876501D01*
X59640038Y39876501D01*
X59632442Y39876501D01*
X59632426Y39876500D01*
X45346262Y39876500D01*
X45279223Y39896185D01*
X45233468Y39948989D01*
X45223524Y40018147D01*
X45247308Y40075227D01*
X45308781Y40156630D01*
X45404151Y40348160D01*
X45404151Y40348163D01*
X45404153Y40348165D01*
X45446001Y40495248D01*
X45462704Y40553952D01*
X45482446Y40767000D01*
X45471698Y40882983D01*
X45462704Y40980048D01*
X45462703Y40980051D01*
X45404153Y41185836D01*
X45404150Y41185842D01*
X45397456Y41199285D01*
X45308781Y41377370D01*
X45179841Y41548114D01*
X45021722Y41692258D01*
X45021716Y41692262D01*
X45021713Y41692264D01*
X44839813Y41804892D01*
X44839807Y41804894D01*
X44640297Y41882185D01*
X44429980Y41921500D01*
X44216020Y41921500D01*
X44005703Y41882185D01*
X43923876Y41850485D01*
X43806192Y41804894D01*
X43806186Y41804892D01*
X43624286Y41692264D01*
X43624283Y41692262D01*
X43624279Y41692260D01*
X43624278Y41692258D01*
X43555182Y41629269D01*
X43466158Y41548113D01*
X43337219Y41377371D01*
X43241849Y41185842D01*
X43241846Y41185836D01*
X43181727Y40974534D01*
X43180513Y40974880D01*
X43151710Y40918249D01*
X43091394Y40882983D01*
X43021586Y40885924D01*
X42964450Y40926140D01*
X42938127Y40990861D01*
X42937499Y41003325D01*
X42937499Y41692064D01*
X42937499Y41692066D01*
X42922734Y41766301D01*
X42875007Y41837729D01*
X42866484Y41850485D01*
X42803988Y41892243D01*
X42782301Y41906734D01*
X42782299Y41906735D01*
X42782296Y41906736D01*
X42708071Y41921500D01*
X42708067Y41921500D01*
X41216556Y41921500D01*
X41149517Y41941185D01*
X41128875Y41957819D01*
X40950746Y42135948D01*
X40950744Y42135951D01*
X40873020Y42213675D01*
X40873015Y42213679D01*
X40786485Y42263637D01*
X40786482Y42263638D01*
X40786478Y42263639D01*
X40766084Y42269104D01*
X40689962Y42289501D01*
X40590038Y42289501D01*
X40582442Y42289501D01*
X40582426Y42289500D01*
X34982574Y42289500D01*
X34982558Y42289501D01*
X34974962Y42289501D01*
X34875038Y42289501D01*
X34798915Y42269104D01*
X34798913Y42269104D01*
X34778519Y42263639D01*
X34691982Y42213677D01*
X34691979Y42213675D01*
X33859325Y41381021D01*
X33859321Y41381016D01*
X33809361Y41294483D01*
X33809362Y41294483D01*
X33809362Y41294482D01*
X33783499Y41197961D01*
X33783499Y41088049D01*
X33783500Y41088036D01*
X33783500Y30561557D01*
X33763815Y30494518D01*
X33747181Y30473876D01*
X32909043Y29635739D01*
X32847720Y29602254D01*
X32778028Y29607238D01*
X32776569Y29607793D01*
X32688561Y29641887D01*
X32688556Y29641888D01*
X32487347Y29679500D01*
X32282653Y29679500D01*
X32081444Y29641888D01*
X32081441Y29641888D01*
X32081441Y29641887D01*
X31890575Y29567946D01*
X31890569Y29567943D01*
X31716539Y29460188D01*
X31716537Y29460186D01*
X31565269Y29322288D01*
X31441912Y29158936D01*
X31350673Y28975705D01*
X31294654Y28778817D01*
X31275768Y28575001D01*
X31275768Y28575000D01*
X31294654Y28371184D01*
X31350673Y28174296D01*
X31441912Y27991065D01*
X31565269Y27827713D01*
X31716537Y27689815D01*
X31716539Y27689813D01*
X31890569Y27582058D01*
X31890571Y27582057D01*
X31890573Y27582056D01*
X31941313Y27562399D01*
X31966737Y27552550D01*
X32022139Y27509977D01*
X32045730Y27444211D01*
X32030019Y27376130D01*
X31979996Y27327351D01*
X31954040Y27317149D01*
X31921519Y27308435D01*
X31921507Y27308430D01*
X31707422Y27208601D01*
X31707420Y27208600D01*
X31513926Y27073114D01*
X31513920Y27073109D01*
X31346891Y26906080D01*
X31346890Y26906078D01*
X31216575Y26719969D01*
X31161998Y26676345D01*
X31092499Y26669152D01*
X31030145Y26700674D01*
X31013425Y26719969D01*
X30883109Y26906078D01*
X30883108Y26906080D01*
X30716082Y27073106D01*
X30522578Y27208601D01*
X30308492Y27308430D01*
X30308477Y27308436D01*
X30275960Y27317149D01*
X30216300Y27353514D01*
X30185772Y27416362D01*
X30194067Y27485737D01*
X30238553Y27539614D01*
X30263257Y27552548D01*
X30339427Y27582056D01*
X30513462Y27689814D01*
X30664732Y27827715D01*
X30788088Y27991065D01*
X30879328Y28174299D01*
X30935345Y28371179D01*
X30954232Y28575000D01*
X30935345Y28778821D01*
X30879328Y28975701D01*
X30788088Y29158935D01*
X30728904Y29237307D01*
X30664730Y29322288D01*
X30513462Y29460186D01*
X30513460Y29460188D01*
X30339430Y29567943D01*
X30339424Y29567946D01*
X30164428Y29635739D01*
X30148556Y29641888D01*
X29947347Y29679500D01*
X29742653Y29679500D01*
X29541444Y29641888D01*
X29541441Y29641888D01*
X29541441Y29641887D01*
X29350575Y29567946D01*
X29350569Y29567943D01*
X29176539Y29460188D01*
X29176537Y29460186D01*
X29025269Y29322288D01*
X28901912Y29158936D01*
X28810673Y28975705D01*
X28754654Y28778817D01*
X28735768Y28575001D01*
X28735768Y28575000D01*
X28754654Y28371184D01*
X28810673Y28174296D01*
X28901912Y27991065D01*
X29025269Y27827713D01*
X29176537Y27689815D01*
X29176539Y27689813D01*
X29350569Y27582058D01*
X29350571Y27582057D01*
X29350573Y27582056D01*
X29401313Y27562399D01*
X29426737Y27552550D01*
X29482139Y27509977D01*
X29505730Y27444211D01*
X29490019Y27376130D01*
X29439996Y27327351D01*
X29414040Y27317149D01*
X29381519Y27308435D01*
X29381507Y27308430D01*
X29167422Y27208601D01*
X29167420Y27208600D01*
X28973926Y27073114D01*
X28973920Y27073109D01*
X28806891Y26906080D01*
X28806890Y26906078D01*
X28676575Y26719969D01*
X28621998Y26676345D01*
X28552499Y26669152D01*
X28490145Y26700674D01*
X28473425Y26719969D01*
X28343109Y26906078D01*
X28343108Y26906080D01*
X28176082Y27073106D01*
X27982578Y27208601D01*
X27768492Y27308430D01*
X27768477Y27308436D01*
X27735960Y27317149D01*
X27676300Y27353514D01*
X27645772Y27416362D01*
X27654067Y27485737D01*
X27698553Y27539614D01*
X27723257Y27552548D01*
X27799427Y27582056D01*
X27973462Y27689814D01*
X28124732Y27827715D01*
X28248088Y27991065D01*
X28339328Y28174299D01*
X28395345Y28371179D01*
X28414232Y28575000D01*
X28395345Y28778821D01*
X28339328Y28975701D01*
X28248088Y29158935D01*
X28188904Y29237307D01*
X28124730Y29322288D01*
X27973462Y29460186D01*
X27973460Y29460188D01*
X27799430Y29567943D01*
X27799424Y29567946D01*
X27624428Y29635739D01*
X27608556Y29641888D01*
X27407347Y29679500D01*
X27202653Y29679500D01*
X27001444Y29641888D01*
X27001441Y29641888D01*
X27001441Y29641887D01*
X26810575Y29567946D01*
X26810569Y29567943D01*
X26636539Y29460188D01*
X26636537Y29460186D01*
X26485269Y29322288D01*
X26361912Y29158936D01*
X26270673Y28975705D01*
X26214654Y28778817D01*
X26195768Y28575001D01*
X26195768Y28575000D01*
X26214654Y28371184D01*
X26264370Y28196449D01*
X26263782Y28126581D01*
X26232784Y28074834D01*
X25786631Y27628680D01*
X25711322Y27553372D01*
X25711320Y27553369D01*
X25658066Y27461132D01*
X25630500Y27358253D01*
X25630500Y27314878D01*
X25610815Y27247839D01*
X25558011Y27202084D01*
X25488853Y27192140D01*
X25447543Y27206437D01*
X25447485Y27206312D01*
X25446279Y27206875D01*
X25444503Y27207489D01*
X25442579Y27208600D01*
X25228492Y27308430D01*
X25228477Y27308436D01*
X25195960Y27317149D01*
X25136300Y27353514D01*
X25105772Y27416362D01*
X25114067Y27485737D01*
X25158553Y27539614D01*
X25183257Y27552548D01*
X25259427Y27582056D01*
X25433462Y27689814D01*
X25584732Y27827715D01*
X25708088Y27991065D01*
X25799328Y28174299D01*
X25855345Y28371179D01*
X25874232Y28575000D01*
X25855345Y28778821D01*
X25799328Y28975701D01*
X25708088Y29158935D01*
X25648904Y29237307D01*
X25584730Y29322288D01*
X25433462Y29460186D01*
X25433460Y29460188D01*
X25259430Y29567943D01*
X25259421Y29567947D01*
X25248052Y29572351D01*
X25192650Y29614923D01*
X25169059Y29680690D01*
X25184770Y29748771D01*
X25234793Y29797550D01*
X25276660Y29810917D01*
X25290754Y29812772D01*
X25425643Y29868645D01*
X25541474Y29957526D01*
X25630355Y30073357D01*
X25686228Y30208246D01*
X25695164Y30276125D01*
X25723430Y30340021D01*
X25781755Y30378492D01*
X25851619Y30379323D01*
X25865545Y30374504D01*
X25890246Y30364272D01*
X25962623Y30354744D01*
X26034999Y30345215D01*
X26035000Y30345215D01*
X26035001Y30345215D01*
X26094126Y30352999D01*
X26179754Y30364272D01*
X26314643Y30420145D01*
X26430474Y30509026D01*
X26519355Y30624857D01*
X26575228Y30759746D01*
X26594285Y30904500D01*
X26575228Y31049254D01*
X26519355Y31184142D01*
X26502563Y31206025D01*
X26440124Y31287399D01*
X26414930Y31352568D01*
X26414500Y31362885D01*
X26414500Y41578616D01*
X26434185Y41645655D01*
X26440115Y41654092D01*
X26519355Y41757357D01*
X26575228Y41892246D01*
X26594285Y42037000D01*
X26589244Y42075288D01*
X26575228Y42181753D01*
X26575228Y42181754D01*
X26519355Y42316642D01*
X26430474Y42432474D01*
X26370633Y42478392D01*
X51470500Y42478392D01*
X51470500Y42339609D01*
X51497571Y42203513D01*
X51497573Y42203505D01*
X51550678Y42075297D01*
X51550683Y42075288D01*
X51627778Y41959908D01*
X51627781Y41959904D01*
X51725903Y41861782D01*
X51725907Y41861779D01*
X51841287Y41784684D01*
X51841293Y41784681D01*
X51841294Y41784680D01*
X51969505Y41731573D01*
X52105608Y41704501D01*
X52105612Y41704500D01*
X52105613Y41704500D01*
X52244388Y41704500D01*
X52244389Y41704501D01*
X52380495Y41731573D01*
X52508706Y41784680D01*
X52624093Y41861779D01*
X52722221Y41959907D01*
X52799320Y42075294D01*
X52852427Y42203505D01*
X52879500Y42339613D01*
X52879500Y42478387D01*
X52879499Y42478392D01*
X59470500Y42478392D01*
X59470500Y42339609D01*
X59497571Y42203513D01*
X59497573Y42203505D01*
X59550678Y42075297D01*
X59550683Y42075288D01*
X59627778Y41959908D01*
X59627781Y41959904D01*
X59725903Y41861782D01*
X59725907Y41861779D01*
X59841287Y41784684D01*
X59841293Y41784681D01*
X59841294Y41784680D01*
X59969505Y41731573D01*
X60105608Y41704501D01*
X60105612Y41704500D01*
X60105613Y41704500D01*
X60244388Y41704500D01*
X60244389Y41704501D01*
X60380495Y41731573D01*
X60508706Y41784680D01*
X60624093Y41861779D01*
X60722221Y41959907D01*
X60799320Y42075294D01*
X60852427Y42203505D01*
X60879500Y42339613D01*
X60879500Y42478387D01*
X60852427Y42614495D01*
X60799320Y42742706D01*
X60799319Y42742707D01*
X60799316Y42742713D01*
X60722221Y42858093D01*
X60722218Y42858097D01*
X60624096Y42956219D01*
X60624092Y42956222D01*
X60508712Y43033317D01*
X60508703Y43033322D01*
X60380495Y43086427D01*
X60380487Y43086429D01*
X60244391Y43113500D01*
X60244387Y43113500D01*
X60105613Y43113500D01*
X60105608Y43113500D01*
X59969512Y43086429D01*
X59969504Y43086427D01*
X59841296Y43033322D01*
X59841287Y43033317D01*
X59725907Y42956222D01*
X59725903Y42956219D01*
X59627781Y42858097D01*
X59627778Y42858093D01*
X59550683Y42742713D01*
X59550678Y42742704D01*
X59497573Y42614496D01*
X59497571Y42614488D01*
X59470500Y42478392D01*
X52879499Y42478392D01*
X52852427Y42614495D01*
X52799320Y42742706D01*
X52799319Y42742707D01*
X52799316Y42742713D01*
X52722221Y42858093D01*
X52722218Y42858097D01*
X52624096Y42956219D01*
X52624092Y42956222D01*
X52508712Y43033317D01*
X52508703Y43033322D01*
X52380495Y43086427D01*
X52380487Y43086429D01*
X52244391Y43113500D01*
X52244387Y43113500D01*
X52105613Y43113500D01*
X52105608Y43113500D01*
X51969512Y43086429D01*
X51969504Y43086427D01*
X51841296Y43033322D01*
X51841287Y43033317D01*
X51725907Y42956222D01*
X51725903Y42956219D01*
X51627781Y42858097D01*
X51627778Y42858093D01*
X51550683Y42742713D01*
X51550678Y42742704D01*
X51497573Y42614496D01*
X51497571Y42614488D01*
X51470500Y42478392D01*
X26370633Y42478392D01*
X26314643Y42521355D01*
X26314640Y42521356D01*
X26314638Y42521358D01*
X26179757Y42577227D01*
X26179752Y42577229D01*
X26035001Y42596285D01*
X26034999Y42596285D01*
X25890247Y42577229D01*
X25890245Y42577228D01*
X25755361Y42521357D01*
X25755358Y42521356D01*
X25755358Y42521355D01*
X25639526Y42432474D01*
X25568271Y42339612D01*
X25550643Y42316639D01*
X25494772Y42181755D01*
X25494771Y42181753D01*
X25475715Y42037002D01*
X25475715Y42036999D01*
X25494771Y41892248D01*
X25494773Y41892243D01*
X25550642Y41757362D01*
X25550642Y41757361D01*
X25550644Y41757358D01*
X25550645Y41757357D01*
X25629876Y41654102D01*
X25655070Y41588934D01*
X25655500Y41578616D01*
X25655500Y40056427D01*
X25635815Y39989388D01*
X25583011Y39943633D01*
X25513853Y39933689D01*
X25456014Y39958051D01*
X25425643Y39981355D01*
X25425638Y39981358D01*
X25290757Y40037227D01*
X25290752Y40037229D01*
X25146001Y40056285D01*
X25145999Y40056285D01*
X25001247Y40037229D01*
X25001245Y40037228D01*
X24866361Y39981357D01*
X24866358Y39981356D01*
X24866358Y39981355D01*
X24750526Y39892474D01*
X24738270Y39876501D01*
X24661643Y39776639D01*
X24605772Y39641755D01*
X24605771Y39641753D01*
X24586715Y39497002D01*
X24586715Y39496999D01*
X24605771Y39352248D01*
X24605773Y39352243D01*
X24661642Y39217362D01*
X24661642Y39217361D01*
X24661644Y39217358D01*
X24661645Y39217357D01*
X24740876Y39114102D01*
X24766070Y39048934D01*
X24766500Y39038616D01*
X24766500Y30811385D01*
X24746815Y30744346D01*
X24740876Y30735899D01*
X24661645Y30632643D01*
X24661643Y30632640D01*
X24605772Y30497755D01*
X24605771Y30497753D01*
X24586715Y30353002D01*
X24586715Y30352999D01*
X24605771Y30208248D01*
X24605773Y30208243D01*
X24661642Y30073362D01*
X24661645Y30073356D01*
X24750525Y29957527D01*
X24750526Y29957526D01*
X24823051Y29901875D01*
X24864253Y29845447D01*
X24868408Y29775701D01*
X24834195Y29714781D01*
X24772478Y29682029D01*
X24747564Y29679500D01*
X24662653Y29679500D01*
X24461444Y29641888D01*
X24461441Y29641888D01*
X24461441Y29641887D01*
X24270575Y29567946D01*
X24270569Y29567943D01*
X24096539Y29460188D01*
X24096537Y29460186D01*
X23945269Y29322288D01*
X23821912Y29158936D01*
X23730673Y28975705D01*
X23674654Y28778817D01*
X23655768Y28575001D01*
X23655768Y28575000D01*
X23674654Y28371184D01*
X23724370Y28196449D01*
X23723782Y28126581D01*
X23692784Y28074834D01*
X23246631Y27628680D01*
X23171322Y27553372D01*
X23171320Y27553369D01*
X23118066Y27461132D01*
X23090500Y27358253D01*
X23090500Y27314878D01*
X23070815Y27247839D01*
X23018011Y27202084D01*
X22948853Y27192140D01*
X22907543Y27206437D01*
X22907485Y27206312D01*
X22906279Y27206875D01*
X22904503Y27207489D01*
X22902579Y27208600D01*
X22688492Y27308430D01*
X22688477Y27308436D01*
X22655960Y27317149D01*
X22596300Y27353514D01*
X22565772Y27416362D01*
X22574067Y27485737D01*
X22618553Y27539614D01*
X22643257Y27552548D01*
X22719427Y27582056D01*
X22893462Y27689814D01*
X23044732Y27827715D01*
X23168088Y27991065D01*
X23259328Y28174299D01*
X23315345Y28371179D01*
X23334232Y28575000D01*
X23315345Y28778821D01*
X23259328Y28975701D01*
X23168088Y29158935D01*
X23108904Y29237307D01*
X23044730Y29322288D01*
X22893462Y29460186D01*
X22893460Y29460188D01*
X22719430Y29567943D01*
X22719424Y29567946D01*
X22544428Y29635739D01*
X22528556Y29641888D01*
X22327347Y29679500D01*
X22122653Y29679500D01*
X21921444Y29641888D01*
X21921441Y29641888D01*
X21921441Y29641887D01*
X21730575Y29567946D01*
X21730569Y29567943D01*
X21556539Y29460188D01*
X21556537Y29460186D01*
X21405269Y29322288D01*
X21281912Y29158936D01*
X21190673Y28975705D01*
X21134654Y28778817D01*
X21115768Y28575001D01*
X21115768Y28575000D01*
X21134654Y28371184D01*
X21184370Y28196449D01*
X21183782Y28126581D01*
X21152784Y28074834D01*
X20706631Y27628680D01*
X20631322Y27553372D01*
X20631320Y27553369D01*
X20578066Y27461132D01*
X20550500Y27358253D01*
X20550500Y27314878D01*
X20530815Y27247839D01*
X20478011Y27202084D01*
X20408853Y27192140D01*
X20367543Y27206437D01*
X20367485Y27206312D01*
X20366279Y27206875D01*
X20364503Y27207489D01*
X20362579Y27208600D01*
X20148492Y27308430D01*
X20148477Y27308436D01*
X20115960Y27317149D01*
X20056300Y27353514D01*
X20025772Y27416362D01*
X20034067Y27485737D01*
X20078553Y27539614D01*
X20103257Y27552548D01*
X20179427Y27582056D01*
X20353462Y27689814D01*
X20504732Y27827715D01*
X20628088Y27991065D01*
X20719328Y28174299D01*
X20775345Y28371179D01*
X20794232Y28575000D01*
X20775345Y28778821D01*
X20719328Y28975701D01*
X20628088Y29158935D01*
X20568904Y29237307D01*
X20504730Y29322288D01*
X20353462Y29460186D01*
X20353460Y29460188D01*
X20179430Y29567943D01*
X20179424Y29567946D01*
X20004428Y29635739D01*
X19988556Y29641888D01*
X19787347Y29679500D01*
X19582653Y29679500D01*
X19381444Y29641888D01*
X19381441Y29641888D01*
X19381441Y29641887D01*
X19190575Y29567946D01*
X19190569Y29567943D01*
X19011663Y29457168D01*
X19010754Y29458637D01*
X18952854Y29436769D01*
X18884521Y29451340D01*
X18834913Y29500542D01*
X18819500Y29560416D01*
X18819500Y30416146D01*
X18839185Y30483185D01*
X18861271Y30508960D01*
X18908498Y30550799D01*
X18998787Y30681605D01*
X19055149Y30830218D01*
X19074307Y30988000D01*
X19066869Y31049254D01*
X19055149Y31145782D01*
X18998787Y31294395D01*
X18908498Y31425201D01*
X18908495Y31425204D01*
X18908493Y31425206D01*
X18789530Y31530599D01*
X18648791Y31604464D01*
X18494472Y31642500D01*
X18494471Y31642500D01*
X18335529Y31642500D01*
X18335528Y31642500D01*
X18181208Y31604464D01*
X18040469Y31530599D01*
X17921506Y31425206D01*
X17921500Y31425199D01*
X17831214Y31294398D01*
X17774850Y31145782D01*
X17755693Y30988001D01*
X17755693Y30988000D01*
X17774850Y30830219D01*
X17781993Y30811385D01*
X17831213Y30681605D01*
X17921502Y30550799D01*
X17968727Y30508961D01*
X18005854Y30449772D01*
X18010500Y30416146D01*
X18010500Y29560416D01*
X17990815Y29493377D01*
X17938011Y29447622D01*
X17868853Y29437678D01*
X17819102Y29458405D01*
X17818337Y29457168D01*
X17639430Y29567943D01*
X17639424Y29567946D01*
X17464428Y29635739D01*
X17448556Y29641888D01*
X17247347Y29679500D01*
X17042653Y29679500D01*
X16841444Y29641888D01*
X16841441Y29641888D01*
X16841441Y29641887D01*
X16650575Y29567946D01*
X16650569Y29567943D01*
X16476539Y29460188D01*
X16476537Y29460186D01*
X16467038Y29451526D01*
X16404234Y29420909D01*
X16334847Y29429107D01*
X16280907Y29473516D01*
X16259539Y29540039D01*
X16259500Y29543163D01*
X16259500Y30398428D01*
X16279185Y30465467D01*
X16301268Y30491239D01*
X16368498Y30550799D01*
X16458787Y30681605D01*
X16515149Y30830218D01*
X16534307Y30988000D01*
X16526869Y31049254D01*
X16515149Y31145782D01*
X16458787Y31294395D01*
X16368498Y31425201D01*
X16368495Y31425204D01*
X16368493Y31425206D01*
X16249530Y31530599D01*
X16108791Y31604464D01*
X15954472Y31642500D01*
X15954471Y31642500D01*
X15795529Y31642500D01*
X15795528Y31642500D01*
X15641208Y31604464D01*
X15500469Y31530599D01*
X15381506Y31425206D01*
X15381500Y31425199D01*
X15291214Y31294398D01*
X15234850Y31145782D01*
X15215693Y30988001D01*
X15215693Y30988000D01*
X15234850Y30830219D01*
X15241993Y30811385D01*
X15291213Y30681605D01*
X15381502Y30550799D01*
X15381503Y30550798D01*
X15381505Y30550796D01*
X15408726Y30526681D01*
X15445853Y30467492D01*
X15450500Y30433865D01*
X15450500Y29573192D01*
X15430815Y29506153D01*
X15378011Y29460398D01*
X15308853Y29450454D01*
X15261223Y29467765D01*
X15099430Y29567943D01*
X15099424Y29567946D01*
X14924428Y29635739D01*
X14908556Y29641888D01*
X14707347Y29679500D01*
X14502653Y29679500D01*
X14301444Y29641888D01*
X14301441Y29641888D01*
X14301441Y29641887D01*
X14110575Y29567946D01*
X14110569Y29567943D01*
X13931663Y29457168D01*
X13930754Y29458637D01*
X13872854Y29436769D01*
X13804521Y29451340D01*
X13754913Y29500542D01*
X13739500Y29560416D01*
X13739500Y30416146D01*
X13759185Y30483185D01*
X13781271Y30508960D01*
X13828498Y30550799D01*
X13918787Y30681605D01*
X13975149Y30830218D01*
X13994307Y30988000D01*
X13986869Y31049254D01*
X13975149Y31145782D01*
X13918787Y31294395D01*
X13828498Y31425201D01*
X13828495Y31425204D01*
X13828493Y31425206D01*
X13709530Y31530599D01*
X13568791Y31604464D01*
X13414472Y31642500D01*
X13414471Y31642500D01*
X13255529Y31642500D01*
X13255528Y31642500D01*
X13101208Y31604464D01*
X12960469Y31530599D01*
X12841506Y31425206D01*
X12841500Y31425199D01*
X12751214Y31294398D01*
X12694850Y31145782D01*
X12675693Y30988001D01*
X12675693Y30988000D01*
X12694850Y30830219D01*
X12701993Y30811385D01*
X12751213Y30681605D01*
X12841502Y30550799D01*
X12888727Y30508961D01*
X12925854Y30449772D01*
X12930500Y30416146D01*
X12930500Y29560416D01*
X12910815Y29493377D01*
X12858011Y29447622D01*
X12788853Y29437678D01*
X12739102Y29458405D01*
X12738337Y29457168D01*
X12559430Y29567943D01*
X12559424Y29567946D01*
X12384428Y29635739D01*
X12368556Y29641888D01*
X12167347Y29679500D01*
X11962653Y29679500D01*
X11761444Y29641888D01*
X11761441Y29641888D01*
X11761441Y29641887D01*
X11570575Y29567946D01*
X11570569Y29567943D01*
X11396539Y29460188D01*
X11396537Y29460186D01*
X11245269Y29322288D01*
X11121912Y29158936D01*
X11030673Y28975705D01*
X10974654Y28778817D01*
X10955768Y28575001D01*
X10955768Y28575000D01*
X10974654Y28371184D01*
X11030673Y28174296D01*
X11121912Y27991065D01*
X11245269Y27827713D01*
X11396537Y27689815D01*
X11396539Y27689813D01*
X11570569Y27582058D01*
X11570571Y27582057D01*
X11570573Y27582056D01*
X11621313Y27562399D01*
X11646737Y27552550D01*
X11702139Y27509977D01*
X11725730Y27444211D01*
X11710019Y27376130D01*
X11659996Y27327351D01*
X11634040Y27317149D01*
X11601519Y27308435D01*
X11601507Y27308430D01*
X11387422Y27208601D01*
X11387420Y27208600D01*
X11193926Y27073114D01*
X11193920Y27073109D01*
X11026891Y26906080D01*
X11026890Y26906078D01*
X10896575Y26719969D01*
X10841998Y26676345D01*
X10772499Y26669152D01*
X10710145Y26700674D01*
X10693425Y26719969D01*
X10563109Y26906078D01*
X10563108Y26906080D01*
X10396082Y27073106D01*
X10202578Y27208601D01*
X9988492Y27308430D01*
X9988477Y27308436D01*
X9955960Y27317149D01*
X9896300Y27353514D01*
X9865772Y27416362D01*
X9874067Y27485737D01*
X9918553Y27539614D01*
X9943257Y27552548D01*
X10019427Y27582056D01*
X10193462Y27689814D01*
X10344732Y27827715D01*
X10468088Y27991065D01*
X10559328Y28174299D01*
X10615345Y28371179D01*
X10634232Y28575000D01*
X10615345Y28778821D01*
X10559328Y28975701D01*
X10468088Y29158935D01*
X10408904Y29237307D01*
X10344730Y29322288D01*
X10193462Y29460186D01*
X10193460Y29460188D01*
X10019430Y29567943D01*
X10019424Y29567946D01*
X9844428Y29635739D01*
X9828556Y29641888D01*
X9627347Y29679500D01*
X9422653Y29679500D01*
X9221444Y29641888D01*
X9221441Y29641888D01*
X9221441Y29641887D01*
X9030575Y29567946D01*
X9030569Y29567943D01*
X8856539Y29460188D01*
X8856537Y29460186D01*
X8705269Y29322288D01*
X8581912Y29158936D01*
X8490673Y28975705D01*
X8434654Y28778817D01*
X8415768Y28575001D01*
X8415768Y28575000D01*
X8434654Y28371184D01*
X8490673Y28174296D01*
X8581912Y27991065D01*
X8705269Y27827713D01*
X8856537Y27689815D01*
X8856539Y27689813D01*
X9030569Y27582058D01*
X9030571Y27582057D01*
X9030573Y27582056D01*
X9081313Y27562399D01*
X9106737Y27552550D01*
X9162139Y27509977D01*
X9185730Y27444211D01*
X9170019Y27376130D01*
X9119996Y27327351D01*
X9094040Y27317149D01*
X9061519Y27308435D01*
X9061507Y27308430D01*
X8847422Y27208601D01*
X8847420Y27208600D01*
X8653926Y27073114D01*
X8653920Y27073109D01*
X8486891Y26906080D01*
X8486890Y26906078D01*
X8356575Y26719969D01*
X8301998Y26676345D01*
X8232499Y26669152D01*
X8170145Y26700674D01*
X8153425Y26719969D01*
X8023109Y26906078D01*
X8023108Y26906080D01*
X7856082Y27073106D01*
X7662578Y27208601D01*
X7448492Y27308430D01*
X7448477Y27308436D01*
X7415960Y27317149D01*
X7356300Y27353514D01*
X7325772Y27416362D01*
X7334067Y27485737D01*
X7378553Y27539614D01*
X7403257Y27552548D01*
X7479427Y27582056D01*
X7653462Y27689814D01*
X7804732Y27827715D01*
X7928088Y27991065D01*
X8019328Y28174299D01*
X8075345Y28371179D01*
X8094232Y28575000D01*
X8075345Y28778821D01*
X8019328Y28975701D01*
X7928088Y29158935D01*
X7868904Y29237307D01*
X7804730Y29322288D01*
X7653462Y29460186D01*
X7653460Y29460188D01*
X7479430Y29567943D01*
X7479424Y29567946D01*
X7304428Y29635739D01*
X7288556Y29641888D01*
X7087347Y29679500D01*
X6882653Y29679500D01*
X6681444Y29641888D01*
X6681441Y29641888D01*
X6681441Y29641887D01*
X6490575Y29567946D01*
X6490569Y29567943D01*
X6316539Y29460188D01*
X6316537Y29460186D01*
X6165269Y29322288D01*
X6041912Y29158936D01*
X5950673Y28975705D01*
X5894654Y28778817D01*
X5875768Y28575001D01*
X5875768Y28575000D01*
X5894654Y28371184D01*
X5950673Y28174296D01*
X6041912Y27991065D01*
X6165269Y27827713D01*
X6316537Y27689815D01*
X6316539Y27689813D01*
X6490569Y27582058D01*
X6490571Y27582057D01*
X6490573Y27582056D01*
X6541313Y27562399D01*
X6566737Y27552550D01*
X6622139Y27509977D01*
X6645730Y27444211D01*
X6630019Y27376130D01*
X6579996Y27327351D01*
X6554040Y27317149D01*
X6521519Y27308435D01*
X6521507Y27308430D01*
X6307422Y27208601D01*
X6307420Y27208600D01*
X6113926Y27073114D01*
X6113920Y27073109D01*
X5946891Y26906080D01*
X5946890Y26906078D01*
X5816575Y26719969D01*
X5761998Y26676345D01*
X5692499Y26669152D01*
X5630145Y26700674D01*
X5613425Y26719969D01*
X5483109Y26906078D01*
X5483108Y26906080D01*
X5316082Y27073106D01*
X5122578Y27208601D01*
X4908492Y27308430D01*
X4908477Y27308436D01*
X4875960Y27317149D01*
X4816300Y27353514D01*
X4785772Y27416362D01*
X4794067Y27485737D01*
X4838553Y27539614D01*
X4863257Y27552548D01*
X4939427Y27582056D01*
X5113462Y27689814D01*
X5264732Y27827715D01*
X5388088Y27991065D01*
X5479328Y28174299D01*
X5535345Y28371179D01*
X5554232Y28575000D01*
X5535345Y28778821D01*
X5479328Y28975701D01*
X5388088Y29158935D01*
X5328904Y29237307D01*
X5264730Y29322288D01*
X5113462Y29460186D01*
X5113460Y29460188D01*
X4939430Y29567943D01*
X4939424Y29567946D01*
X4764428Y29635739D01*
X4748556Y29641888D01*
X4547347Y29679500D01*
X4342653Y29679500D01*
X4141444Y29641888D01*
X4141441Y29641888D01*
X4141441Y29641887D01*
X3950575Y29567946D01*
X3950569Y29567943D01*
X3776539Y29460188D01*
X3776537Y29460186D01*
X3625269Y29322288D01*
X3501912Y29158936D01*
X3410673Y28975705D01*
X3354654Y28778817D01*
X3335768Y28575001D01*
X3335768Y28575000D01*
X3354654Y28371184D01*
X3410673Y28174296D01*
X3501912Y27991065D01*
X3625269Y27827713D01*
X3776537Y27689815D01*
X3776539Y27689813D01*
X3950569Y27582058D01*
X3950571Y27582057D01*
X3950573Y27582056D01*
X4001313Y27562399D01*
X4026737Y27552550D01*
X4082139Y27509977D01*
X4105730Y27444211D01*
X4090019Y27376130D01*
X4039996Y27327351D01*
X4014040Y27317149D01*
X3981519Y27308435D01*
X3981507Y27308430D01*
X3767422Y27208601D01*
X3767420Y27208600D01*
X3573926Y27073114D01*
X3451477Y26950665D01*
X3390154Y26917181D01*
X3320462Y26922165D01*
X3264529Y26964037D01*
X3247614Y26995014D01*
X3198354Y27127087D01*
X3198350Y27127094D01*
X3112190Y27242188D01*
X3112187Y27242191D01*
X2997093Y27328351D01*
X2997086Y27328355D01*
X2862379Y27378597D01*
X2862372Y27378599D01*
X2802844Y27385000D01*
X2516985Y27385000D01*
X2449946Y27404685D01*
X2404191Y27457489D01*
X2394247Y27526647D01*
X2423272Y27590203D01*
X2451708Y27614427D01*
X2561223Y27682236D01*
X2573462Y27689814D01*
X2724732Y27827715D01*
X2848088Y27991065D01*
X2939328Y28174299D01*
X2995345Y28371179D01*
X3014232Y28575000D01*
X2995345Y28778821D01*
X2939328Y28975701D01*
X2848088Y29158935D01*
X2788904Y29237307D01*
X2724730Y29322288D01*
X2573462Y29460186D01*
X2573460Y29460188D01*
X2399430Y29567943D01*
X2399424Y29567946D01*
X2224428Y29635739D01*
X2208556Y29641888D01*
X2007347Y29679500D01*
X1802653Y29679500D01*
X1601444Y29641888D01*
X1601441Y29641888D01*
X1601441Y29641887D01*
X1410575Y29567946D01*
X1410569Y29567943D01*
X1236539Y29460188D01*
X1236537Y29460186D01*
X1085269Y29322288D01*
X961912Y29158936D01*
X870673Y28975705D01*
X814654Y28778817D01*
X795768Y28575001D01*
X795768Y28575000D01*
X814654Y28371184D01*
X870673Y28174296D01*
X961912Y27991065D01*
X1085269Y27827713D01*
X1236537Y27689815D01*
X1236539Y27689813D01*
X1358292Y27614427D01*
X1404928Y27562399D01*
X1416032Y27493418D01*
X1388079Y27429383D01*
X1329944Y27390627D01*
X1293015Y27385000D01*
X1007155Y27385000D01*
X947627Y27378599D01*
X947620Y27378597D01*
X812913Y27328355D01*
X812906Y27328351D01*
X697812Y27242191D01*
X697809Y27242188D01*
X611649Y27127094D01*
X611645Y27127087D01*
X561403Y26992380D01*
X561401Y26992373D01*
X555000Y26932845D01*
X555000Y26285000D01*
X1471988Y26285000D01*
X1439075Y26227993D01*
X1405000Y26100826D01*
X1405000Y25969174D01*
X1439075Y25842007D01*
X1471988Y25785000D01*
X555000Y25785000D01*
X555000Y25137156D01*
X561401Y25077628D01*
X561403Y25077621D01*
X611645Y24942914D01*
X611649Y24942907D01*
X697809Y24827813D01*
X697812Y24827810D01*
X812906Y24741650D01*
X812913Y24741646D01*
X947620Y24691404D01*
X947627Y24691402D01*
X1007155Y24685001D01*
X1007172Y24685000D01*
X1655000Y24685000D01*
X1655000Y25601988D01*
X1712007Y25569075D01*
X1839174Y25535000D01*
X1970826Y25535000D01*
X2097993Y25569075D01*
X2155000Y25601988D01*
X2155000Y24685000D01*
X2802828Y24685000D01*
X2802844Y24685001D01*
X2862372Y24691402D01*
X2862379Y24691404D01*
X2997086Y24741646D01*
X2997093Y24741650D01*
X3112187Y24827810D01*
X3112190Y24827813D01*
X3198350Y24942907D01*
X3198354Y24942914D01*
X3247614Y25074987D01*
X3289485Y25130921D01*
X3354949Y25155338D01*
X3423222Y25140487D01*
X3451477Y25119335D01*
X3573917Y24996895D01*
X3767421Y24861400D01*
X3981507Y24761571D01*
X3981516Y24761567D01*
X4195000Y24704366D01*
X4195000Y25601988D01*
X4252007Y25569075D01*
X4379174Y25535000D01*
X4510826Y25535000D01*
X4637993Y25569075D01*
X4695000Y25601988D01*
X4695000Y24704367D01*
X4908483Y24761567D01*
X4908492Y24761571D01*
X5122578Y24861400D01*
X5316082Y24996895D01*
X5483105Y25163918D01*
X5613425Y25350032D01*
X5668002Y25393656D01*
X5737501Y25400849D01*
X5799855Y25369327D01*
X5816575Y25350032D01*
X5946894Y25163918D01*
X6113917Y24996895D01*
X6307421Y24861400D01*
X6521507Y24761571D01*
X6521516Y24761567D01*
X6735000Y24704366D01*
X6735000Y25601988D01*
X6792007Y25569075D01*
X6919174Y25535000D01*
X7050826Y25535000D01*
X7177993Y25569075D01*
X7235000Y25601988D01*
X7235000Y24704367D01*
X7448483Y24761567D01*
X7448492Y24761571D01*
X7662578Y24861400D01*
X7856082Y24996895D01*
X8023105Y25163918D01*
X8153425Y25350032D01*
X8208002Y25393656D01*
X8277501Y25400849D01*
X8339855Y25369327D01*
X8356575Y25350032D01*
X8486894Y25163918D01*
X8653917Y24996895D01*
X8847421Y24861400D01*
X9061507Y24761571D01*
X9061516Y24761567D01*
X9275000Y24704366D01*
X9275000Y25601988D01*
X9332007Y25569075D01*
X9459174Y25535000D01*
X9590826Y25535000D01*
X9717993Y25569075D01*
X9775000Y25601988D01*
X9775000Y24704367D01*
X9988483Y24761567D01*
X9988492Y24761571D01*
X10202578Y24861400D01*
X10396082Y24996895D01*
X10563105Y25163918D01*
X10693425Y25350032D01*
X10748002Y25393656D01*
X10817501Y25400849D01*
X10879855Y25369327D01*
X10896575Y25350032D01*
X11026894Y25163918D01*
X11193917Y24996895D01*
X11387421Y24861400D01*
X11601507Y24761571D01*
X11601516Y24761567D01*
X11815000Y24704366D01*
X11815000Y25601988D01*
X11872007Y25569075D01*
X11999174Y25535000D01*
X12130826Y25535000D01*
X12257993Y25569075D01*
X12315000Y25601988D01*
X12315000Y24704367D01*
X12528483Y24761567D01*
X12528492Y24761571D01*
X12742576Y24861399D01*
X12744496Y24862507D01*
X12745449Y24862739D01*
X12747486Y24863688D01*
X12747676Y24863279D01*
X12812396Y24878982D01*
X12878424Y24856132D01*
X12921616Y24801212D01*
X12930500Y24755122D01*
X12930500Y22796855D01*
X12910815Y22729816D01*
X12888728Y22704040D01*
X12841502Y22662202D01*
X12841500Y22662199D01*
X12751214Y22531398D01*
X12694850Y22382782D01*
X12675693Y22225001D01*
X12675693Y22225000D01*
X12694850Y22067219D01*
X12732218Y21968689D01*
X12748348Y21926158D01*
X12751214Y21918603D01*
X12769770Y21891720D01*
X12841502Y21787799D01*
X12841504Y21787797D01*
X12841506Y21787795D01*
X12960469Y21682402D01*
X12960471Y21682401D01*
X13101207Y21608537D01*
X13160563Y21593907D01*
X13255528Y21570500D01*
X13255529Y21570500D01*
X13414472Y21570500D01*
X13469092Y21583963D01*
X13568793Y21608537D01*
X13709529Y21682401D01*
X13828498Y21787799D01*
X13918787Y21918605D01*
X13975149Y22067218D01*
X13994307Y22225000D01*
X13991615Y22247167D01*
X13975149Y22382782D01*
X13966610Y22405296D01*
X13918787Y22531395D01*
X13828498Y22662201D01*
X13781272Y22704040D01*
X13744146Y22763230D01*
X13739500Y22796855D01*
X13739500Y24755122D01*
X13759185Y24822161D01*
X13811989Y24867916D01*
X13881147Y24877860D01*
X13922455Y24863563D01*
X13922514Y24863688D01*
X13923729Y24863122D01*
X13925504Y24862507D01*
X13927423Y24861399D01*
X14141507Y24761571D01*
X14141516Y24761567D01*
X14355000Y24704366D01*
X14355000Y25601988D01*
X14412007Y25569075D01*
X14539174Y25535000D01*
X14670826Y25535000D01*
X14797993Y25569075D01*
X14855000Y25601988D01*
X14855000Y24704367D01*
X15068483Y24761567D01*
X15068492Y24761571D01*
X15274095Y24857444D01*
X15343173Y24867936D01*
X15406957Y24839416D01*
X15445196Y24780940D01*
X15450500Y24745062D01*
X15450500Y22779137D01*
X15430815Y22712098D01*
X15408729Y22686323D01*
X15381503Y22662203D01*
X15381500Y22662199D01*
X15291214Y22531398D01*
X15234850Y22382782D01*
X15215693Y22225001D01*
X15215693Y22225000D01*
X15234850Y22067219D01*
X15272218Y21968689D01*
X15288348Y21926158D01*
X15291214Y21918603D01*
X15309770Y21891720D01*
X15381502Y21787799D01*
X15381504Y21787797D01*
X15381506Y21787795D01*
X15500469Y21682402D01*
X15500471Y21682401D01*
X15641207Y21608537D01*
X15700563Y21593907D01*
X15795528Y21570500D01*
X15795529Y21570500D01*
X15954472Y21570500D01*
X16009092Y21583963D01*
X16108793Y21608537D01*
X16249529Y21682401D01*
X16368498Y21787799D01*
X16458787Y21918605D01*
X16515149Y22067218D01*
X16534307Y22225000D01*
X16531615Y22247167D01*
X16515149Y22382782D01*
X16506610Y22405296D01*
X16458787Y22531395D01*
X16368498Y22662201D01*
X16368494Y22662204D01*
X16368492Y22662207D01*
X16301272Y22721760D01*
X16264146Y22780949D01*
X16259500Y22814574D01*
X16259500Y24768787D01*
X16279185Y24835826D01*
X16331989Y24881581D01*
X16401147Y24891525D01*
X16454628Y24870359D01*
X16467421Y24861400D01*
X16681507Y24761571D01*
X16681516Y24761567D01*
X16895000Y24704366D01*
X16895000Y25601988D01*
X16952007Y25569075D01*
X17079174Y25535000D01*
X17210826Y25535000D01*
X17337993Y25569075D01*
X17395000Y25601988D01*
X17395000Y24704367D01*
X17608483Y24761567D01*
X17608492Y24761571D01*
X17822576Y24861399D01*
X17824496Y24862507D01*
X17825449Y24862739D01*
X17827486Y24863688D01*
X17827676Y24863279D01*
X17892396Y24878982D01*
X17958424Y24856132D01*
X18001616Y24801212D01*
X18010500Y24755122D01*
X18010500Y22869628D01*
X17990815Y22802589D01*
X17962197Y22773011D01*
X17962585Y22772573D01*
X17838006Y22662206D01*
X17838000Y22662199D01*
X17747714Y22531398D01*
X17691350Y22382782D01*
X17672193Y22225001D01*
X17672193Y22225000D01*
X17691350Y22067219D01*
X17728718Y21968689D01*
X17744848Y21926158D01*
X17747714Y21918603D01*
X17766270Y21891720D01*
X17838002Y21787799D01*
X17838004Y21787797D01*
X17838006Y21787795D01*
X17956969Y21682402D01*
X17956971Y21682401D01*
X18097707Y21608537D01*
X18157063Y21593907D01*
X18252028Y21570500D01*
X18252029Y21570500D01*
X18410972Y21570500D01*
X18465592Y21583963D01*
X18565293Y21608537D01*
X18706029Y21682401D01*
X18824998Y21787799D01*
X18915287Y21918605D01*
X18971649Y22067218D01*
X18990807Y22225000D01*
X18988115Y22247167D01*
X18971649Y22382782D01*
X18963110Y22405296D01*
X18915287Y22531395D01*
X18841449Y22638367D01*
X18819567Y22704720D01*
X18819500Y22708806D01*
X18819500Y24755122D01*
X18839185Y24822161D01*
X18891989Y24867916D01*
X18961147Y24877860D01*
X19002455Y24863563D01*
X19002514Y24863688D01*
X19003729Y24863122D01*
X19005504Y24862507D01*
X19007423Y24861399D01*
X19221507Y24761571D01*
X19221516Y24761567D01*
X19435000Y24704366D01*
X19435000Y25601988D01*
X19492007Y25569075D01*
X19619174Y25535000D01*
X19750826Y25535000D01*
X19877993Y25569075D01*
X19935000Y25601988D01*
X19935000Y24704367D01*
X20148483Y24761567D01*
X20148492Y24761571D01*
X20362576Y24861399D01*
X20364496Y24862507D01*
X20365449Y24862739D01*
X20367486Y24863688D01*
X20367676Y24863279D01*
X20432396Y24878982D01*
X20498424Y24856132D01*
X20541616Y24801212D01*
X20550500Y24755122D01*
X20550500Y24691253D01*
X20550500Y24584747D01*
X20578066Y24481869D01*
X20631320Y24389631D01*
X20631322Y24389629D01*
X21657181Y23363770D01*
X21690666Y23302447D01*
X21693500Y23276089D01*
X21693500Y22932304D01*
X21673815Y22865265D01*
X21667876Y22856818D01*
X21613644Y22786142D01*
X21557772Y22651255D01*
X21557771Y22651253D01*
X21538715Y22506502D01*
X21538715Y22506499D01*
X21557771Y22361748D01*
X21557773Y22361743D01*
X21613642Y22226862D01*
X21613642Y22226861D01*
X21613644Y22226858D01*
X21613645Y22226857D01*
X21702526Y22111026D01*
X21731489Y22088802D01*
X21772689Y22032378D01*
X21780000Y21990429D01*
X21780000Y18042072D01*
X21760315Y17975033D01*
X21731487Y17943697D01*
X21702528Y17921477D01*
X21691419Y17906999D01*
X21630058Y17827031D01*
X21613643Y17805639D01*
X21557772Y17670755D01*
X21557771Y17670753D01*
X21538715Y17526002D01*
X21538715Y17525999D01*
X21557771Y17381248D01*
X21557773Y17381243D01*
X21613642Y17246362D01*
X21613645Y17246356D01*
X21702525Y17130527D01*
X21702526Y17130526D01*
X21818355Y17041646D01*
X21818361Y17041643D01*
X21867339Y17021356D01*
X21953246Y16985772D01*
X22025623Y16976244D01*
X22097999Y16966715D01*
X22098000Y16966715D01*
X22098001Y16966715D01*
X22146251Y16973068D01*
X22242754Y16985772D01*
X22377643Y17041645D01*
X22493474Y17130526D01*
X22582355Y17246357D01*
X22638228Y17381246D01*
X22655379Y17511524D01*
X22657285Y17525999D01*
X22657285Y17526002D01*
X22638228Y17670753D01*
X22638228Y17670754D01*
X22582355Y17805642D01*
X22493474Y17921474D01*
X22493472Y17921476D01*
X22493471Y17921477D01*
X22464512Y17943698D01*
X22423310Y18000127D01*
X22416000Y18042073D01*
X22416000Y21990429D01*
X22435685Y22057468D01*
X22464508Y22088800D01*
X22493474Y22111026D01*
X22582355Y22226857D01*
X22638228Y22361746D01*
X22654191Y22483000D01*
X22657285Y22506499D01*
X22657285Y22506502D01*
X22638228Y22651253D01*
X22638228Y22651254D01*
X22582355Y22786142D01*
X22531841Y22851974D01*
X22528124Y22856818D01*
X22502930Y22921987D01*
X22502500Y22932304D01*
X22502500Y23548251D01*
X22502500Y23548253D01*
X22474934Y23651131D01*
X22421680Y23743369D01*
X22346369Y23818680D01*
X21587920Y24577129D01*
X21554435Y24638452D01*
X21559419Y24708144D01*
X21601291Y24764077D01*
X21666755Y24788494D01*
X21728006Y24777192D01*
X21761507Y24761571D01*
X21761516Y24761567D01*
X21975000Y24704366D01*
X21975000Y25601988D01*
X22032007Y25569075D01*
X22159174Y25535000D01*
X22290826Y25535000D01*
X22417993Y25569075D01*
X22475000Y25601988D01*
X22475000Y24704367D01*
X22688483Y24761567D01*
X22688492Y24761571D01*
X22902576Y24861399D01*
X22904496Y24862507D01*
X22905449Y24862739D01*
X22907486Y24863688D01*
X22907676Y24863279D01*
X22972396Y24878982D01*
X23038424Y24856132D01*
X23081616Y24801212D01*
X23090500Y24755122D01*
X23090500Y24711747D01*
X23118066Y24608869D01*
X23171320Y24516631D01*
X23171322Y24516629D01*
X24324181Y23363770D01*
X24357666Y23302447D01*
X24360500Y23276089D01*
X24360500Y22908804D01*
X24340815Y22841765D01*
X24334876Y22833318D01*
X24280644Y22762642D01*
X24224772Y22627755D01*
X24224771Y22627753D01*
X24205715Y22483002D01*
X24205715Y22482999D01*
X24224771Y22338248D01*
X24224773Y22338243D01*
X24280642Y22203362D01*
X24280645Y22203356D01*
X24334875Y22132684D01*
X24360070Y22067515D01*
X24360500Y22057197D01*
X24360500Y16300804D01*
X24340815Y16233765D01*
X24334876Y16225318D01*
X24280644Y16154642D01*
X24224772Y16019755D01*
X24224771Y16019753D01*
X24205715Y15875002D01*
X24205715Y15874999D01*
X24224771Y15730248D01*
X24224773Y15730243D01*
X24280642Y15595362D01*
X24280645Y15595356D01*
X24369525Y15479527D01*
X24369526Y15479526D01*
X24485355Y15390646D01*
X24485361Y15390643D01*
X24552801Y15362709D01*
X24620246Y15334772D01*
X24692623Y15325244D01*
X24764999Y15315715D01*
X24765000Y15315715D01*
X24765001Y15315715D01*
X24813251Y15322068D01*
X24909754Y15334772D01*
X25044643Y15390645D01*
X25160474Y15479526D01*
X25204126Y15536416D01*
X25260552Y15577615D01*
X25330298Y15581770D01*
X25391219Y15547558D01*
X25423971Y15485840D01*
X25426500Y15460926D01*
X25426500Y15156088D01*
X25406815Y15089049D01*
X25377987Y15057713D01*
X25349868Y15036137D01*
X25252968Y14909856D01*
X25192061Y14762810D01*
X25192060Y14762806D01*
X25171284Y14605001D01*
X25171284Y14605000D01*
X25192060Y14447195D01*
X25192061Y14447191D01*
X25252968Y14300145D01*
X25252969Y14300143D01*
X25252970Y14300142D01*
X25349866Y14173866D01*
X25476142Y14076970D01*
X25623194Y14016060D01*
X25762640Y13997702D01*
X25780999Y13995284D01*
X25781000Y13995284D01*
X25781001Y13995284D01*
X25797446Y13997450D01*
X25938806Y14016060D01*
X26085858Y14076970D01*
X26212134Y14173866D01*
X26309030Y14300142D01*
X26369940Y14447194D01*
X26390716Y14605000D01*
X26369940Y14762806D01*
X26309030Y14909858D01*
X26212134Y15036134D01*
X26212132Y15036136D01*
X26212131Y15036137D01*
X26184013Y15057713D01*
X26142811Y15114141D01*
X26135500Y15156088D01*
X26135500Y16629074D01*
X26155185Y16696113D01*
X26207989Y16741868D01*
X26212020Y16743623D01*
X26212858Y16743970D01*
X26339134Y16840866D01*
X26436030Y16967142D01*
X26496940Y17114194D01*
X26517716Y17272000D01*
X26496940Y17429806D01*
X26440622Y17565772D01*
X26436031Y17576856D01*
X26436030Y17576857D01*
X26436030Y17576858D01*
X26339134Y17703134D01*
X26212858Y17800030D01*
X26212857Y17800031D01*
X26212855Y17800032D01*
X26065809Y17860939D01*
X26065807Y17860940D01*
X26065806Y17860940D01*
X25986903Y17871328D01*
X25908001Y17881716D01*
X25907999Y17881716D01*
X25750194Y17860940D01*
X25750190Y17860939D01*
X25603144Y17800032D01*
X25476863Y17703132D01*
X25391875Y17592374D01*
X25335447Y17551172D01*
X25265701Y17547017D01*
X25204781Y17581230D01*
X25172029Y17642947D01*
X25169500Y17667861D01*
X25169500Y22057197D01*
X25189185Y22124236D01*
X25195125Y22132684D01*
X25216214Y22160167D01*
X25249355Y22203357D01*
X25305228Y22338246D01*
X25317932Y22434749D01*
X25324285Y22482999D01*
X25324285Y22483002D01*
X25310457Y22588038D01*
X25305228Y22627754D01*
X25249355Y22762642D01*
X25222885Y22797139D01*
X25195124Y22833318D01*
X25169930Y22898487D01*
X25169500Y22908804D01*
X25169500Y23548251D01*
X25169500Y23548253D01*
X25141934Y23651131D01*
X25088680Y23743369D01*
X25013369Y23818680D01*
X24313147Y24518902D01*
X24279662Y24580225D01*
X24284646Y24649917D01*
X24326518Y24705850D01*
X24391982Y24730267D01*
X24432921Y24726358D01*
X24515000Y24704366D01*
X24515000Y25601988D01*
X24572007Y25569075D01*
X24699174Y25535000D01*
X24830826Y25535000D01*
X24957993Y25569075D01*
X25015000Y25601988D01*
X25015000Y24704367D01*
X25228483Y24761567D01*
X25228492Y24761571D01*
X25442576Y24861399D01*
X25444496Y24862507D01*
X25445449Y24862739D01*
X25447486Y24863688D01*
X25447676Y24863279D01*
X25512396Y24878982D01*
X25578424Y24856132D01*
X25621616Y24801212D01*
X25630500Y24755122D01*
X25630500Y24711747D01*
X25658066Y24608869D01*
X25711320Y24516631D01*
X25711322Y24516629D01*
X26864181Y23363770D01*
X26897666Y23302447D01*
X26900500Y23276089D01*
X26900500Y22932304D01*
X26880815Y22865265D01*
X26874876Y22856818D01*
X26820644Y22786142D01*
X26764772Y22651255D01*
X26764771Y22651253D01*
X26745715Y22506502D01*
X26745715Y22506499D01*
X26764771Y22361748D01*
X26764773Y22361743D01*
X26820642Y22226862D01*
X26820645Y22226856D01*
X26909525Y22111027D01*
X26909526Y22111026D01*
X27025355Y22022146D01*
X27025361Y22022143D01*
X27090777Y21995047D01*
X27160246Y21966272D01*
X27220557Y21958332D01*
X27304999Y21947215D01*
X27305000Y21947215D01*
X27305001Y21947215D01*
X27388554Y21958215D01*
X27449754Y21966272D01*
X27584643Y22022145D01*
X27700474Y22111026D01*
X27789355Y22226857D01*
X27845228Y22361746D01*
X27861191Y22483000D01*
X27864285Y22506499D01*
X27864285Y22506502D01*
X27851185Y22606002D01*
X30555715Y22606002D01*
X30555715Y22605999D01*
X30574771Y22461248D01*
X30574773Y22461243D01*
X30630642Y22326362D01*
X30630645Y22326356D01*
X30719525Y22210527D01*
X30719526Y22210526D01*
X30835355Y22121646D01*
X30835361Y22121643D01*
X30889329Y22099289D01*
X30970246Y22065772D01*
X31006296Y22061026D01*
X31114999Y22046715D01*
X31115000Y22046715D01*
X31115001Y22046715D01*
X31163251Y22053068D01*
X31259754Y22065772D01*
X31394643Y22121645D01*
X31510474Y22210526D01*
X31510476Y22210528D01*
X31515134Y22215185D01*
X31576459Y22248667D01*
X31602811Y22251500D01*
X31678799Y22251500D01*
X31745838Y22231815D01*
X31766480Y22215181D01*
X31994181Y21987481D01*
X32027666Y21926158D01*
X32030500Y21899800D01*
X32030500Y6040311D01*
X32010815Y5973272D01*
X31994185Y5952634D01*
X31989532Y5947981D01*
X31989527Y5947976D01*
X31989526Y5947974D01*
X31919316Y5856474D01*
X31900643Y5832139D01*
X31844772Y5697255D01*
X31844771Y5697253D01*
X31825715Y5552502D01*
X31825715Y5552499D01*
X31844771Y5407748D01*
X31844773Y5407743D01*
X31900642Y5272862D01*
X31900645Y5272856D01*
X31989525Y5157027D01*
X31989526Y5157026D01*
X32105355Y5068146D01*
X32105361Y5068143D01*
X32169684Y5041500D01*
X32240246Y5012272D01*
X32303930Y5003888D01*
X32384999Y4993215D01*
X32385000Y4993215D01*
X32385001Y4993215D01*
X32433251Y4999568D01*
X32529754Y5012272D01*
X32664643Y5068145D01*
X32780474Y5157026D01*
X32869355Y5272857D01*
X32925228Y5407746D01*
X32943627Y5547501D01*
X32944285Y5552499D01*
X32944285Y5552502D01*
X32925228Y5697253D01*
X32925228Y5697254D01*
X32869355Y5832142D01*
X32780474Y5947974D01*
X32780470Y5947978D01*
X32780467Y5947981D01*
X32775815Y5952634D01*
X32742333Y6013959D01*
X32739500Y6040311D01*
X32739500Y22144671D01*
X32737437Y22152369D01*
X32737436Y22152372D01*
X32715341Y22234832D01*
X32705718Y22251500D01*
X32698613Y22263806D01*
X32668673Y22315665D01*
X32668672Y22315666D01*
X32668671Y22315668D01*
X32602668Y22381671D01*
X32602667Y22381672D01*
X32598337Y22386002D01*
X32598326Y22386012D01*
X32466836Y22517502D01*
X33095715Y22517502D01*
X33095715Y22517499D01*
X33114771Y22372748D01*
X33114773Y22372743D01*
X33170642Y22237862D01*
X33170645Y22237856D01*
X33259525Y22122027D01*
X33259526Y22122026D01*
X33375355Y22033146D01*
X33375361Y22033143D01*
X33401913Y22022145D01*
X33510246Y21977272D01*
X33575441Y21968689D01*
X33654999Y21958215D01*
X33655000Y21958215D01*
X33655001Y21958215D01*
X33703251Y21964568D01*
X33799754Y21977272D01*
X33934643Y22033145D01*
X34050474Y22122026D01*
X34050476Y22122028D01*
X34055134Y22126685D01*
X34116459Y22160167D01*
X34142811Y22163000D01*
X34180299Y22163000D01*
X34247338Y22143315D01*
X34267980Y22126681D01*
X34407181Y21987480D01*
X34440666Y21926157D01*
X34443500Y21899799D01*
X34443500Y20518201D01*
X34423815Y20451162D01*
X34407181Y20430520D01*
X33706330Y19729670D01*
X33706328Y19729667D01*
X33659659Y19648833D01*
X33659659Y19648832D01*
X33635500Y19558671D01*
X33635500Y5333025D01*
X33635500Y5239683D01*
X33659659Y5149522D01*
X33691436Y5094481D01*
X33706328Y5068688D01*
X33706330Y5068685D01*
X34049750Y4725265D01*
X34083235Y4663942D01*
X34086069Y4637584D01*
X34086069Y4630999D01*
X34105125Y4486248D01*
X34105127Y4486243D01*
X34160996Y4351362D01*
X34160999Y4351356D01*
X34249879Y4235527D01*
X34249880Y4235526D01*
X34365709Y4146646D01*
X34365715Y4146643D01*
X34419113Y4124525D01*
X34500600Y4090772D01*
X34572977Y4081244D01*
X34645353Y4071715D01*
X34645354Y4071715D01*
X34645355Y4071715D01*
X34693605Y4078068D01*
X34790108Y4090772D01*
X34924997Y4146645D01*
X35027190Y4225061D01*
X35092359Y4250256D01*
X35160804Y4236218D01*
X35178164Y4225061D01*
X35280355Y4146646D01*
X35280361Y4146643D01*
X35333759Y4124525D01*
X35415246Y4090772D01*
X35487623Y4081244D01*
X35559999Y4071715D01*
X35560000Y4071715D01*
X35560001Y4071715D01*
X35608251Y4078068D01*
X35704754Y4090772D01*
X35839643Y4146645D01*
X35955474Y4235526D01*
X36044355Y4351357D01*
X36100228Y4486246D01*
X36119285Y4631000D01*
X36113774Y4672857D01*
X36103419Y4751517D01*
X36100228Y4775754D01*
X36044355Y4910642D01*
X35955474Y5026474D01*
X35839643Y5115355D01*
X35839640Y5115356D01*
X35839638Y5115358D01*
X35704757Y5171227D01*
X35704752Y5171229D01*
X35560001Y5190285D01*
X35553416Y5190285D01*
X35486377Y5209970D01*
X35465735Y5226604D01*
X34934819Y5757520D01*
X34901334Y5818843D01*
X34898500Y5845201D01*
X34898500Y12720189D01*
X34918185Y12787228D01*
X34934819Y12807870D01*
X34939469Y12812521D01*
X34939471Y12812524D01*
X34939474Y12812526D01*
X35028355Y12928357D01*
X35084228Y13063246D01*
X35103285Y13208000D01*
X35098054Y13247731D01*
X35084228Y13352753D01*
X35084228Y13352754D01*
X35028355Y13487642D01*
X34939474Y13603474D01*
X34823643Y13692355D01*
X34823640Y13692356D01*
X34823638Y13692358D01*
X34688757Y13748227D01*
X34688752Y13748229D01*
X34544001Y13767285D01*
X34543997Y13767285D01*
X34484684Y13759477D01*
X34415649Y13770243D01*
X34363393Y13816624D01*
X34344500Y13882416D01*
X34344500Y19313799D01*
X34364185Y19380838D01*
X34380819Y19401480D01*
X34709009Y19729670D01*
X35081671Y20102332D01*
X35128342Y20183169D01*
X35152501Y20273329D01*
X35152501Y20366671D01*
X35152501Y20374266D01*
X35152500Y20374284D01*
X35152500Y20447002D01*
X37159715Y20447002D01*
X37159715Y20446999D01*
X37178771Y20302248D01*
X37178773Y20302243D01*
X37234642Y20167362D01*
X37234642Y20167361D01*
X37234644Y20167358D01*
X37234645Y20167357D01*
X37284535Y20102339D01*
X37323530Y20051521D01*
X37328181Y20046870D01*
X37361666Y19985547D01*
X37364500Y19959189D01*
X37364500Y17632811D01*
X37344815Y17565772D01*
X37328185Y17545134D01*
X37323532Y17540481D01*
X37323527Y17540476D01*
X37323526Y17540474D01*
X37236714Y17427338D01*
X37234643Y17424639D01*
X37178772Y17289755D01*
X37178771Y17289753D01*
X37159715Y17145002D01*
X37159715Y17144999D01*
X37178771Y17000248D01*
X37178773Y17000243D01*
X37234642Y16865362D01*
X37234645Y16865356D01*
X37323525Y16749527D01*
X37323526Y16749526D01*
X37439355Y16660646D01*
X37439361Y16660643D01*
X37479206Y16644139D01*
X37574246Y16604772D01*
X37646623Y16595244D01*
X37718999Y16585715D01*
X37719000Y16585715D01*
X37859315Y16604188D01*
X37928350Y16593423D01*
X37980606Y16547043D01*
X37999500Y16481249D01*
X37999500Y15092811D01*
X37979815Y15025772D01*
X37963185Y15005134D01*
X37958532Y15000481D01*
X37958527Y15000476D01*
X37958526Y15000474D01*
X37869645Y14884642D01*
X37869643Y14884639D01*
X37813772Y14749755D01*
X37813771Y14749753D01*
X37794715Y14605002D01*
X37794715Y14604999D01*
X37813771Y14460248D01*
X37813773Y14460243D01*
X37869642Y14325362D01*
X37869645Y14325356D01*
X37958525Y14209527D01*
X37958526Y14209526D01*
X38074355Y14120646D01*
X38074361Y14120643D01*
X38133056Y14096331D01*
X38209246Y14064772D01*
X38281623Y14055244D01*
X38353999Y14045715D01*
X38354000Y14045715D01*
X38354001Y14045715D01*
X38402251Y14052068D01*
X38498754Y14064772D01*
X38633643Y14120645D01*
X38749474Y14209526D01*
X38763624Y14227968D01*
X38820052Y14269170D01*
X38889798Y14273325D01*
X38950718Y14239113D01*
X38960376Y14227967D01*
X38974526Y14209526D01*
X39090355Y14120646D01*
X39090361Y14120643D01*
X39149056Y14096331D01*
X39225246Y14064772D01*
X39297623Y14055244D01*
X39369999Y14045715D01*
X39370000Y14045715D01*
X39370001Y14045715D01*
X39418251Y14052068D01*
X39514754Y14064772D01*
X39649643Y14120645D01*
X39765474Y14209526D01*
X39854355Y14325357D01*
X39910228Y14460246D01*
X39929285Y14605000D01*
X39910228Y14749754D01*
X39854355Y14884642D01*
X39765474Y15000474D01*
X39765470Y15000478D01*
X39765467Y15000481D01*
X39760815Y15005134D01*
X39727333Y15066459D01*
X39724500Y15092811D01*
X39724500Y19073689D01*
X39744185Y19140728D01*
X39760819Y19161370D01*
X39765469Y19166021D01*
X39765471Y19166024D01*
X39765474Y19166026D01*
X39854355Y19281857D01*
X39910228Y19416746D01*
X39927031Y19544380D01*
X39929285Y19561499D01*
X39929285Y19561502D01*
X39910228Y19706253D01*
X39910228Y19706254D01*
X39854355Y19841142D01*
X39765474Y19956974D01*
X39649643Y20045855D01*
X39649640Y20045856D01*
X39649638Y20045858D01*
X39514757Y20101727D01*
X39514752Y20101729D01*
X39370001Y20120785D01*
X39369999Y20120785D01*
X39225247Y20101729D01*
X39225245Y20101728D01*
X39090360Y20045857D01*
X39090357Y20045855D01*
X38990897Y19969537D01*
X38925727Y19944343D01*
X38857283Y19958382D01*
X38817036Y19992425D01*
X38749474Y20080474D01*
X38749472Y20080475D01*
X38749472Y20080476D01*
X38696940Y20120785D01*
X38633643Y20169355D01*
X38633640Y20169356D01*
X38633638Y20169358D01*
X38498757Y20225227D01*
X38498752Y20225229D01*
X38376281Y20241352D01*
X38312384Y20269619D01*
X38273913Y20327943D01*
X38269527Y20380476D01*
X38278285Y20446999D01*
X38278285Y20447002D01*
X38259228Y20591753D01*
X38259228Y20591754D01*
X38203355Y20726642D01*
X38114474Y20842474D01*
X37998643Y20931355D01*
X37998640Y20931356D01*
X37998638Y20931358D01*
X37863757Y20987227D01*
X37863752Y20987229D01*
X37719001Y21006285D01*
X37718999Y21006285D01*
X37574247Y20987229D01*
X37574245Y20987228D01*
X37439361Y20931357D01*
X37439358Y20931356D01*
X37439358Y20931355D01*
X37344810Y20858806D01*
X37323526Y20842474D01*
X37234643Y20726639D01*
X37178772Y20591755D01*
X37178771Y20591753D01*
X37159715Y20447002D01*
X35152500Y20447002D01*
X35152500Y22144670D01*
X35150436Y22152372D01*
X35128341Y22234832D01*
X35081671Y22315668D01*
X35015668Y22381671D01*
X34596168Y22801171D01*
X34515332Y22847841D01*
X34515333Y22847841D01*
X34481830Y22856818D01*
X34425171Y22872000D01*
X34425169Y22872000D01*
X34142811Y22872000D01*
X34075772Y22891685D01*
X34055130Y22908319D01*
X34050479Y22912970D01*
X34050474Y22912974D01*
X33934643Y23001855D01*
X33934640Y23001856D01*
X33934638Y23001858D01*
X33799757Y23057727D01*
X33799752Y23057729D01*
X33655001Y23076785D01*
X33654999Y23076785D01*
X33510247Y23057729D01*
X33510245Y23057728D01*
X33375361Y23001857D01*
X33375358Y23001856D01*
X33375358Y23001855D01*
X33259526Y22912974D01*
X33173738Y22801172D01*
X33170643Y22797139D01*
X33114772Y22662255D01*
X33114771Y22662253D01*
X33095715Y22517502D01*
X32466836Y22517502D01*
X32094669Y22889670D01*
X32094668Y22889671D01*
X32013832Y22936341D01*
X32013833Y22936341D01*
X31983778Y22944394D01*
X31923671Y22960500D01*
X31923669Y22960500D01*
X31602811Y22960500D01*
X31535772Y22980185D01*
X31515130Y22996819D01*
X31510479Y23001470D01*
X31509975Y23001857D01*
X31394643Y23090355D01*
X31394640Y23090356D01*
X31394638Y23090358D01*
X31259757Y23146227D01*
X31259752Y23146229D01*
X31115001Y23165285D01*
X31114999Y23165285D01*
X30970247Y23146229D01*
X30970245Y23146228D01*
X30835361Y23090357D01*
X30835358Y23090356D01*
X30835358Y23090355D01*
X30719526Y23001474D01*
X30633738Y22889672D01*
X30630643Y22885639D01*
X30574772Y22750755D01*
X30574771Y22750753D01*
X30555715Y22606002D01*
X27851185Y22606002D01*
X27845228Y22651253D01*
X27845228Y22651254D01*
X27789355Y22786142D01*
X27738841Y22851974D01*
X27735124Y22856818D01*
X27709930Y22921987D01*
X27709500Y22932304D01*
X27709500Y23548251D01*
X27709500Y23548253D01*
X27681934Y23651131D01*
X27628680Y23743369D01*
X27553369Y23818680D01*
X26853147Y24518902D01*
X26819662Y24580225D01*
X26824646Y24649917D01*
X26866518Y24705850D01*
X26931982Y24730267D01*
X26972921Y24726358D01*
X27055000Y24704366D01*
X27055000Y25601988D01*
X27112007Y25569075D01*
X27239174Y25535000D01*
X27370826Y25535000D01*
X27497993Y25569075D01*
X27555000Y25601988D01*
X27555000Y24704367D01*
X27768483Y24761567D01*
X27768492Y24761571D01*
X27982578Y24861400D01*
X28176082Y24996895D01*
X28343105Y25163918D01*
X28473425Y25350032D01*
X28528002Y25393656D01*
X28597501Y25400849D01*
X28659855Y25369327D01*
X28676575Y25350032D01*
X28806894Y25163918D01*
X28973917Y24996895D01*
X29167421Y24861400D01*
X29381507Y24761571D01*
X29381516Y24761567D01*
X29595000Y24704366D01*
X29595000Y25601988D01*
X29652007Y25569075D01*
X29779174Y25535000D01*
X29910826Y25535000D01*
X30037993Y25569075D01*
X30095000Y25601988D01*
X30095000Y24704366D01*
X30308483Y24761567D01*
X30308492Y24761571D01*
X30522578Y24861400D01*
X30716082Y24996895D01*
X30883105Y25163918D01*
X31013425Y25350032D01*
X31068002Y25393656D01*
X31137501Y25400849D01*
X31199855Y25369327D01*
X31216575Y25350032D01*
X31346894Y25163918D01*
X31513917Y24996895D01*
X31707421Y24861400D01*
X31921507Y24761571D01*
X31921516Y24761567D01*
X32135000Y24704366D01*
X32135000Y25601988D01*
X32192007Y25569075D01*
X32319174Y25535000D01*
X32450826Y25535000D01*
X32577993Y25569075D01*
X32635000Y25601988D01*
X32635000Y24704367D01*
X32848483Y24761567D01*
X32848492Y24761571D01*
X33062578Y24861400D01*
X33256082Y24996895D01*
X33423105Y25163918D01*
X33553425Y25350032D01*
X33608002Y25393656D01*
X33677501Y25400849D01*
X33739855Y25369327D01*
X33756575Y25350032D01*
X33886894Y25163918D01*
X34053917Y24996895D01*
X34247421Y24861400D01*
X34461507Y24761571D01*
X34461516Y24761567D01*
X34675000Y24704366D01*
X34675000Y25601988D01*
X34732007Y25569075D01*
X34859174Y25535000D01*
X34990826Y25535000D01*
X35117993Y25569075D01*
X35175000Y25601988D01*
X35175000Y24704367D01*
X35388483Y24761567D01*
X35388492Y24761571D01*
X35602578Y24861400D01*
X35796082Y24996895D01*
X35963105Y25163918D01*
X36093425Y25350032D01*
X36148002Y25393656D01*
X36217501Y25400849D01*
X36279855Y25369327D01*
X36296575Y25350032D01*
X36426894Y25163918D01*
X36593917Y24996895D01*
X36787421Y24861400D01*
X37001507Y24761571D01*
X37001516Y24761567D01*
X37215000Y24704366D01*
X37215000Y25601988D01*
X37272007Y25569075D01*
X37399174Y25535000D01*
X37530826Y25535000D01*
X37657993Y25569075D01*
X37715000Y25601988D01*
X37715000Y24704367D01*
X37928483Y24761567D01*
X37928492Y24761571D01*
X38142578Y24861400D01*
X38336082Y24996895D01*
X38503105Y25163918D01*
X38633425Y25350032D01*
X38688002Y25393656D01*
X38757501Y25400849D01*
X38819855Y25369327D01*
X38836575Y25350032D01*
X38966894Y25163918D01*
X39133917Y24996895D01*
X39327421Y24861400D01*
X39541507Y24761571D01*
X39541516Y24761567D01*
X39755000Y24704366D01*
X39755000Y25601988D01*
X39812007Y25569075D01*
X39939174Y25535000D01*
X40070826Y25535000D01*
X40197993Y25569075D01*
X40255000Y25601988D01*
X40255000Y24704366D01*
X40468483Y24761567D01*
X40468492Y24761571D01*
X40682579Y24861401D01*
X40682581Y24861402D01*
X40700373Y24873860D01*
X40766579Y24896189D01*
X40834347Y24879180D01*
X40882161Y24828233D01*
X40895499Y24772287D01*
X40895499Y24715038D01*
X40909169Y24664019D01*
X40921360Y24618523D01*
X40921363Y24618516D01*
X40971321Y24531985D01*
X40971325Y24531980D01*
X41049046Y24454259D01*
X41049052Y24454254D01*
X42129181Y23374125D01*
X42162666Y23312802D01*
X42165500Y23286444D01*
X42165500Y22914885D01*
X42145815Y22847846D01*
X42139876Y22839399D01*
X42060645Y22736143D01*
X42060643Y22736140D01*
X42004772Y22601255D01*
X42004771Y22601253D01*
X41985715Y22456502D01*
X41985715Y22449918D01*
X41966030Y22382879D01*
X41949397Y22362238D01*
X41900332Y22313172D01*
X41900332Y22313171D01*
X41834328Y22247167D01*
X41787659Y22166333D01*
X41778643Y22132684D01*
X41763500Y22076171D01*
X41763500Y14189671D01*
X41763500Y14096329D01*
X41787659Y14006168D01*
X41807705Y13971446D01*
X41834328Y13925334D01*
X41834330Y13925331D01*
X43551181Y12208480D01*
X43584666Y12147157D01*
X43587500Y12120799D01*
X43587500Y6837811D01*
X43567815Y6770772D01*
X43551185Y6750134D01*
X43546532Y6745481D01*
X43546527Y6745476D01*
X43546526Y6745474D01*
X43491591Y6673881D01*
X43457643Y6629639D01*
X43401772Y6494755D01*
X43401771Y6494753D01*
X43382715Y6350002D01*
X43382715Y6349999D01*
X43401771Y6205248D01*
X43401773Y6205243D01*
X43457642Y6070362D01*
X43457645Y6070356D01*
X43546525Y5954527D01*
X43546526Y5954526D01*
X43662355Y5865646D01*
X43662361Y5865643D01*
X43711713Y5845201D01*
X43797246Y5809772D01*
X43869623Y5800244D01*
X43941999Y5790715D01*
X43942000Y5790715D01*
X43942001Y5790715D01*
X43990251Y5797068D01*
X44086754Y5809772D01*
X44221643Y5865645D01*
X44337474Y5954526D01*
X44426355Y6070357D01*
X44482228Y6205246D01*
X44501285Y6350000D01*
X44482228Y6494754D01*
X44426355Y6629642D01*
X44337474Y6745474D01*
X44337470Y6745478D01*
X44337467Y6745481D01*
X44332815Y6750134D01*
X44299333Y6811459D01*
X44296500Y6837811D01*
X44296500Y12262327D01*
X44296501Y12262340D01*
X44296501Y12365670D01*
X44296501Y12365671D01*
X44272342Y12455831D01*
X44272338Y12455838D01*
X44225675Y12536662D01*
X44225669Y12536670D01*
X42508819Y14253520D01*
X42475334Y14314843D01*
X42472500Y14341201D01*
X42472500Y15690085D01*
X42492185Y15757124D01*
X42544989Y15802879D01*
X42612685Y15813024D01*
X42672000Y15805215D01*
X42672001Y15805215D01*
X42731316Y15813024D01*
X42816754Y15824272D01*
X42951643Y15880145D01*
X43067474Y15969026D01*
X43156355Y16084857D01*
X43212228Y16219746D01*
X43231285Y16364500D01*
X43212228Y16509254D01*
X43156355Y16644142D01*
X43067474Y16759974D01*
X43067470Y16759978D01*
X43067467Y16759981D01*
X43062815Y16764634D01*
X43029333Y16825959D01*
X43026500Y16852311D01*
X43026500Y17419189D01*
X43046185Y17486228D01*
X43062819Y17506870D01*
X43067469Y17511521D01*
X43067471Y17511524D01*
X43067474Y17511526D01*
X43156355Y17627357D01*
X43212228Y17762246D01*
X43231285Y17907000D01*
X43229379Y17921474D01*
X43216324Y18020643D01*
X43212228Y18051754D01*
X43156355Y18186642D01*
X43067474Y18302474D01*
X42951643Y18391355D01*
X42951640Y18391356D01*
X42951638Y18391358D01*
X42816757Y18447227D01*
X42816752Y18447229D01*
X42672001Y18466285D01*
X42671997Y18466285D01*
X42612684Y18458477D01*
X42543649Y18469243D01*
X42491393Y18515624D01*
X42472500Y18581416D01*
X42472500Y21778926D01*
X42492185Y21845965D01*
X42544989Y21891720D01*
X42580312Y21901864D01*
X42689754Y21916272D01*
X42824643Y21972145D01*
X42940474Y22061026D01*
X43029355Y22176857D01*
X43085228Y22311746D01*
X43103418Y22449917D01*
X43104285Y22456499D01*
X43104285Y22456502D01*
X43085228Y22601253D01*
X43085228Y22601254D01*
X43029355Y22736142D01*
X43001401Y22772573D01*
X42950124Y22839399D01*
X42924930Y22904568D01*
X42924500Y22914885D01*
X42924500Y23435036D01*
X42924501Y23435049D01*
X42924501Y23544961D01*
X42923620Y23548251D01*
X42898638Y23641482D01*
X42881040Y23671962D01*
X42881039Y23671964D01*
X42881039Y23671965D01*
X42848678Y23728016D01*
X42848677Y23728017D01*
X42848676Y23728019D01*
X42778019Y23798676D01*
X42778018Y23798677D01*
X42773688Y23803007D01*
X42773677Y23803017D01*
X42044851Y24531843D01*
X42011366Y24593166D01*
X42016350Y24662858D01*
X42058222Y24718791D01*
X42123686Y24743208D01*
X42164625Y24739299D01*
X42295000Y24704366D01*
X42295000Y25601988D01*
X42352007Y25569075D01*
X42479174Y25535000D01*
X42610826Y25535000D01*
X42737993Y25569075D01*
X42795000Y25601988D01*
X42795000Y24704367D01*
X43008483Y24761567D01*
X43008492Y24761571D01*
X43222579Y24861401D01*
X43222581Y24861402D01*
X43240373Y24873860D01*
X43306579Y24896189D01*
X43374347Y24879180D01*
X43422161Y24828233D01*
X43435499Y24772287D01*
X43435499Y24715038D01*
X43449169Y24664019D01*
X43461360Y24618523D01*
X43461363Y24618516D01*
X43511321Y24531985D01*
X43511325Y24531980D01*
X43589046Y24454259D01*
X43589052Y24454254D01*
X44669181Y23374125D01*
X44702666Y23312802D01*
X44705500Y23286444D01*
X44705500Y22914885D01*
X44685815Y22847846D01*
X44679876Y22839399D01*
X44600645Y22736143D01*
X44600643Y22736140D01*
X44544772Y22601255D01*
X44544771Y22601253D01*
X44525715Y22456502D01*
X44525715Y22456499D01*
X44544771Y22311748D01*
X44544773Y22311743D01*
X44600642Y22176862D01*
X44600645Y22176856D01*
X44689525Y22061027D01*
X44689526Y22061026D01*
X44805355Y21972146D01*
X44805361Y21972143D01*
X44856014Y21951162D01*
X44940246Y21916272D01*
X45012623Y21906744D01*
X45084999Y21897215D01*
X45091584Y21897215D01*
X45158623Y21877530D01*
X45179265Y21860896D01*
X46072181Y20967980D01*
X46105666Y20906657D01*
X46108500Y20880299D01*
X46108500Y19040113D01*
X46088815Y18973074D01*
X46036011Y18927319D01*
X45966853Y18917375D01*
X45909015Y18941736D01*
X45898042Y18950156D01*
X45898038Y18950158D01*
X45763157Y19006027D01*
X45763152Y19006029D01*
X45618401Y19025085D01*
X45618399Y19025085D01*
X45473647Y19006029D01*
X45473645Y19006028D01*
X45338761Y18950157D01*
X45338758Y18950156D01*
X45338758Y18950155D01*
X45222926Y18861274D01*
X45138968Y18751857D01*
X45134043Y18745439D01*
X45078172Y18610555D01*
X45078172Y18610554D01*
X45059669Y18470014D01*
X45031402Y18406118D01*
X44973078Y18367647D01*
X44903213Y18366816D01*
X44861242Y18387826D01*
X44858711Y18389768D01*
X44856641Y18391357D01*
X44856638Y18391358D01*
X44721757Y18447227D01*
X44721752Y18447229D01*
X44577001Y18466285D01*
X44576999Y18466285D01*
X44432247Y18447229D01*
X44432245Y18447228D01*
X44297361Y18391357D01*
X44297358Y18391356D01*
X44297358Y18391355D01*
X44256819Y18360248D01*
X44181526Y18302474D01*
X44092643Y18186639D01*
X44036772Y18051755D01*
X44036771Y18051753D01*
X44017715Y17907002D01*
X44017715Y17906999D01*
X44036771Y17762248D01*
X44036773Y17762243D01*
X44092642Y17627362D01*
X44092642Y17627361D01*
X44092644Y17627358D01*
X44092645Y17627357D01*
X44170420Y17525999D01*
X44181530Y17511521D01*
X44186181Y17506870D01*
X44219666Y17445547D01*
X44222500Y17419189D01*
X44222500Y13635671D01*
X44222500Y13542329D01*
X44246659Y13452168D01*
X44292309Y13373098D01*
X44293328Y13371334D01*
X44293330Y13371331D01*
X44489396Y13175266D01*
X44522881Y13113943D01*
X44525715Y13087585D01*
X44525715Y13080999D01*
X44544771Y12936248D01*
X44544773Y12936243D01*
X44600642Y12801362D01*
X44600645Y12801356D01*
X44689525Y12685527D01*
X44689526Y12685526D01*
X44805355Y12596646D01*
X44805361Y12596643D01*
X44872801Y12568709D01*
X44940246Y12540772D01*
X44971465Y12536662D01*
X45084999Y12521715D01*
X45085000Y12521715D01*
X45085001Y12521715D01*
X45133251Y12528068D01*
X45229754Y12540772D01*
X45364643Y12596645D01*
X45377014Y12606138D01*
X45442181Y12631332D01*
X45510626Y12617295D01*
X45560616Y12568481D01*
X45576500Y12507762D01*
X45576500Y2657500D01*
X45556815Y2590461D01*
X45504011Y2544706D01*
X45452500Y2533500D01*
X39895053Y2533500D01*
X39828014Y2553185D01*
X39782259Y2605989D01*
X39772315Y2675147D01*
X39793003Y2727940D01*
X39836070Y2790333D01*
X39858691Y2823105D01*
X39915053Y2971718D01*
X39934211Y3129500D01*
X39915053Y3287282D01*
X39890105Y3353063D01*
X39879744Y3380384D01*
X39874377Y3450047D01*
X39907524Y3511553D01*
X39907739Y3511770D01*
X40434701Y4038730D01*
X40501119Y4153770D01*
X40502457Y4158766D01*
X40502460Y4158771D01*
X40502459Y4158771D01*
X40511898Y4194000D01*
X40535500Y4282081D01*
X40535500Y6019099D01*
X40555185Y6086138D01*
X40557451Y6089540D01*
X40614785Y6172602D01*
X40614786Y6172604D01*
X40614785Y6172604D01*
X40614787Y6172605D01*
X40671149Y6321218D01*
X40690307Y6479000D01*
X40687658Y6500813D01*
X40671149Y6636782D01*
X40652387Y6686253D01*
X40614787Y6785395D01*
X40557450Y6868462D01*
X40535567Y6934816D01*
X40535500Y6938902D01*
X40535500Y11719099D01*
X40555185Y11786138D01*
X40557451Y11789540D01*
X40614785Y11872602D01*
X40614786Y11872604D01*
X40614785Y11872604D01*
X40614787Y11872605D01*
X40671149Y12021218D01*
X40690307Y12179000D01*
X40671149Y12336782D01*
X40614787Y12485395D01*
X40524498Y12616201D01*
X40524495Y12616204D01*
X40524493Y12616206D01*
X40405530Y12721599D01*
X40264791Y12795464D01*
X40110472Y12833500D01*
X40110471Y12833500D01*
X39951529Y12833500D01*
X39951528Y12833500D01*
X39797208Y12795464D01*
X39656469Y12721599D01*
X39537506Y12616206D01*
X39537500Y12616199D01*
X39447214Y12485398D01*
X39390850Y12336782D01*
X39371693Y12179001D01*
X39371693Y12179000D01*
X39390850Y12021218D01*
X39447213Y11872604D01*
X39447214Y11872602D01*
X39504549Y11789540D01*
X39526433Y11723186D01*
X39526500Y11719099D01*
X39526500Y6938902D01*
X39506815Y6871863D01*
X39504550Y6868462D01*
X39447214Y6785398D01*
X39390850Y6636782D01*
X39371693Y6479001D01*
X39371693Y6479000D01*
X39390850Y6321218D01*
X39447213Y6172604D01*
X39447214Y6172602D01*
X39504549Y6089540D01*
X39526433Y6023186D01*
X39526500Y6019099D01*
X39526500Y4608833D01*
X39506815Y4541794D01*
X39490181Y4521152D01*
X38871204Y3902176D01*
X38871202Y3902173D01*
X38837618Y3844002D01*
X38837617Y3844000D01*
X38804785Y3787134D01*
X38770404Y3658823D01*
X38770404Y3658821D01*
X38770404Y3589402D01*
X38750719Y3522363D01*
X38748454Y3518962D01*
X38691118Y3435898D01*
X38634754Y3287282D01*
X38618725Y3155263D01*
X38591103Y3091085D01*
X38533169Y3052029D01*
X38479445Y3047271D01*
X38354002Y3063785D01*
X38353999Y3063785D01*
X38209247Y3044729D01*
X38209245Y3044728D01*
X38074361Y2988857D01*
X38074358Y2988856D01*
X38074358Y2988855D01*
X38004793Y2935476D01*
X37958521Y2899970D01*
X37953480Y2893400D01*
X37897051Y2852200D01*
X37827304Y2848048D01*
X37779622Y2870515D01*
X37744643Y2897355D01*
X37744638Y2897358D01*
X37609757Y2953227D01*
X37609752Y2953229D01*
X37465001Y2972285D01*
X37464999Y2972285D01*
X37320247Y2953229D01*
X37320245Y2953228D01*
X37185361Y2897357D01*
X37185358Y2897356D01*
X37185358Y2897355D01*
X37069526Y2808474D01*
X37009168Y2729813D01*
X36980643Y2692639D01*
X36924772Y2557755D01*
X36924771Y2557753D01*
X36905715Y2413002D01*
X36905715Y2412996D01*
X36909033Y2387790D01*
X36898267Y2318755D01*
X36851886Y2266500D01*
X36784616Y2247616D01*
X36717816Y2268098D01*
X36698413Y2283926D01*
X36536604Y2445735D01*
X36503119Y2507058D01*
X36500285Y2533416D01*
X36500285Y2540002D01*
X36481417Y2683316D01*
X36481228Y2684754D01*
X36425355Y2819642D01*
X36336474Y2935474D01*
X36220643Y3024355D01*
X36220640Y3024356D01*
X36220638Y3024358D01*
X36085757Y3080227D01*
X36085752Y3080229D01*
X35941001Y3099285D01*
X35940999Y3099285D01*
X35796247Y3080229D01*
X35796245Y3080228D01*
X35661361Y3024357D01*
X35661358Y3024356D01*
X35661358Y3024355D01*
X35545526Y2935474D01*
X35459303Y2823105D01*
X35456643Y2819639D01*
X35400772Y2684755D01*
X35400772Y2684754D01*
X35398689Y2668931D01*
X35370422Y2605035D01*
X35312097Y2566565D01*
X35259565Y2562179D01*
X35179001Y2572785D01*
X35178999Y2572785D01*
X35034247Y2553729D01*
X35034245Y2553728D01*
X34899361Y2497857D01*
X34899358Y2497856D01*
X34899358Y2497855D01*
X34794197Y2417162D01*
X34783526Y2408974D01*
X34694643Y2293139D01*
X34638772Y2158255D01*
X34638771Y2158253D01*
X34619715Y2013502D01*
X34619715Y2013499D01*
X34638771Y1868748D01*
X34638773Y1868743D01*
X34694642Y1733862D01*
X34694645Y1733856D01*
X34783525Y1618027D01*
X34783526Y1618026D01*
X34899355Y1529146D01*
X34899361Y1529143D01*
X34966801Y1501209D01*
X35034246Y1473272D01*
X35179000Y1454215D01*
X35185924Y1455127D01*
X35254958Y1444363D01*
X35289792Y1419869D01*
X35795332Y914329D01*
X35876168Y867659D01*
X35966329Y843500D01*
X35966331Y843500D01*
X50520669Y843500D01*
X50520671Y843500D01*
X50610832Y867659D01*
X50691668Y914329D01*
X51511958Y1734622D01*
X51511963Y1734625D01*
X51522166Y1744829D01*
X51522168Y1744829D01*
X51588171Y1810832D01*
X51634841Y1891668D01*
X51659000Y1981829D01*
X51659000Y2469002D01*
X58463804Y2469002D01*
X58463804Y2468999D01*
X58482553Y2254690D01*
X58482555Y2254679D01*
X58538232Y2046888D01*
X58538234Y2046884D01*
X58538235Y2046880D01*
X58621302Y1868743D01*
X58629155Y1851902D01*
X58629157Y1851898D01*
X58752551Y1675673D01*
X58904672Y1523552D01*
X59080897Y1400158D01*
X59080899Y1400157D01*
X59080902Y1400155D01*
X59275880Y1309235D01*
X59483684Y1253554D01*
X59636766Y1240162D01*
X59697998Y1234804D01*
X59698000Y1234804D01*
X59698002Y1234804D01*
X59751579Y1239492D01*
X59912316Y1253554D01*
X60120120Y1309235D01*
X60315098Y1400155D01*
X60491326Y1523551D01*
X60643449Y1675674D01*
X60766845Y1851902D01*
X60857765Y2046880D01*
X60913446Y2254684D01*
X60932196Y2469000D01*
X60928510Y2511126D01*
X60921872Y2587001D01*
X60913446Y2683316D01*
X60857765Y2891120D01*
X60766845Y3086098D01*
X60766843Y3086101D01*
X60766842Y3086103D01*
X60643448Y3262328D01*
X60491327Y3414449D01*
X60315102Y3537843D01*
X60315098Y3537845D01*
X60287397Y3550762D01*
X60120120Y3628765D01*
X60120116Y3628766D01*
X60120112Y3628768D01*
X59912321Y3684445D01*
X59912317Y3684446D01*
X59912316Y3684446D01*
X59912315Y3684447D01*
X59912310Y3684447D01*
X59698002Y3703196D01*
X59697998Y3703196D01*
X59483689Y3684447D01*
X59483678Y3684445D01*
X59275887Y3628768D01*
X59275878Y3628764D01*
X59080901Y3537845D01*
X59080897Y3537843D01*
X58904672Y3414449D01*
X58752551Y3262328D01*
X58629157Y3086103D01*
X58629155Y3086099D01*
X58538236Y2891122D01*
X58538232Y2891113D01*
X58482555Y2683322D01*
X58482553Y2683311D01*
X58463804Y2469002D01*
X51659000Y2469002D01*
X51659000Y8338965D01*
X51678685Y8406004D01*
X51731489Y8451759D01*
X51799184Y8461904D01*
X51831000Y8457715D01*
X51975754Y8476772D01*
X52110643Y8532645D01*
X52226474Y8621526D01*
X52315355Y8737357D01*
X52371228Y8872246D01*
X52387177Y8993394D01*
X52390285Y9016999D01*
X52390285Y9017002D01*
X52371228Y9161753D01*
X52371228Y9161754D01*
X52315355Y9296642D01*
X52226474Y9412474D01*
X52226470Y9412478D01*
X52226467Y9412481D01*
X52221815Y9417134D01*
X52188333Y9478459D01*
X52185500Y9504811D01*
X52185500Y18267013D01*
X52194939Y18314466D01*
X52229228Y18397246D01*
X52244229Y18511194D01*
X52248285Y18541999D01*
X52248285Y18542002D01*
X52231051Y18672903D01*
X52229228Y18686754D01*
X52173355Y18821642D01*
X52084474Y18937474D01*
X51968643Y19026355D01*
X51968640Y19026356D01*
X51968638Y19026358D01*
X51833757Y19082227D01*
X51833752Y19082229D01*
X51689001Y19101285D01*
X51688999Y19101285D01*
X51544247Y19082229D01*
X51544242Y19082227D01*
X51437742Y19038113D01*
X51368273Y19030644D01*
X51305794Y19061919D01*
X51270142Y19122008D01*
X51266290Y19152674D01*
X51266290Y24035107D01*
X51285975Y24102146D01*
X51302609Y24122788D01*
X51307262Y24127442D01*
X51313925Y24136125D01*
X51320438Y24144613D01*
X51376863Y24185817D01*
X51446609Y24189974D01*
X51506496Y24156810D01*
X52289181Y23374125D01*
X52322666Y23312802D01*
X52325500Y23286444D01*
X52325500Y22914885D01*
X52305815Y22847846D01*
X52299876Y22839399D01*
X52220645Y22736143D01*
X52220643Y22736140D01*
X52164772Y22601255D01*
X52164771Y22601253D01*
X52145715Y22456502D01*
X52145715Y22456499D01*
X52164771Y22311748D01*
X52164773Y22311743D01*
X52220642Y22176862D01*
X52220645Y22176856D01*
X52309525Y22061027D01*
X52309526Y22061026D01*
X52425355Y21972146D01*
X52425361Y21972143D01*
X52476014Y21951162D01*
X52560246Y21916272D01*
X52632623Y21906744D01*
X52704999Y21897215D01*
X52705000Y21897215D01*
X52705001Y21897215D01*
X52756211Y21903957D01*
X52849754Y21916272D01*
X52984643Y21972145D01*
X53100474Y22061026D01*
X53189355Y22176857D01*
X53245228Y22311746D01*
X53263418Y22449917D01*
X53264285Y22456499D01*
X53264285Y22456502D01*
X53245228Y22601253D01*
X53245228Y22601254D01*
X53189355Y22736142D01*
X53161401Y22772573D01*
X53110124Y22839399D01*
X53084930Y22904568D01*
X53084500Y22914885D01*
X53084500Y23435036D01*
X53084501Y23435049D01*
X53084501Y23544961D01*
X53083620Y23548251D01*
X53058638Y23641482D01*
X53041040Y23671962D01*
X53041039Y23671964D01*
X53041039Y23671965D01*
X53008678Y23728016D01*
X53008677Y23728017D01*
X53008676Y23728019D01*
X52938019Y23798676D01*
X52938018Y23798677D01*
X52933688Y23803007D01*
X52933677Y23803017D01*
X52204851Y24531843D01*
X52171366Y24593166D01*
X52176350Y24662858D01*
X52218222Y24718791D01*
X52283686Y24743208D01*
X52324625Y24739299D01*
X52455000Y24704366D01*
X52455000Y25601988D01*
X52512007Y25569075D01*
X52639174Y25535000D01*
X52770826Y25535000D01*
X52897993Y25569075D01*
X52955000Y25601988D01*
X52955000Y24704367D01*
X53168483Y24761567D01*
X53168492Y24761571D01*
X53382579Y24861401D01*
X53382581Y24861402D01*
X53400373Y24873860D01*
X53466579Y24896189D01*
X53534347Y24879180D01*
X53582161Y24828233D01*
X53595499Y24772287D01*
X53595499Y24715038D01*
X53609169Y24664019D01*
X53621360Y24618523D01*
X53621363Y24618516D01*
X53671321Y24531985D01*
X53671325Y24531980D01*
X53749046Y24454259D01*
X53749052Y24454254D01*
X54829181Y23374125D01*
X54862666Y23312802D01*
X54865500Y23286444D01*
X54865500Y22914885D01*
X54845815Y22847846D01*
X54839876Y22839399D01*
X54760645Y22736143D01*
X54760643Y22736140D01*
X54704772Y22601255D01*
X54704771Y22601253D01*
X54685715Y22456502D01*
X54685715Y22456499D01*
X54704771Y22311748D01*
X54704773Y22311743D01*
X54760642Y22176862D01*
X54760645Y22176856D01*
X54849525Y22061027D01*
X54849526Y22061026D01*
X54965355Y21972146D01*
X54965361Y21972143D01*
X55016014Y21951162D01*
X55100246Y21916272D01*
X55172623Y21906744D01*
X55244999Y21897215D01*
X55245000Y21897215D01*
X55245001Y21897215D01*
X55296211Y21903957D01*
X55389754Y21916272D01*
X55524643Y21972145D01*
X55640474Y22061026D01*
X55729355Y22176857D01*
X55785228Y22311746D01*
X55803418Y22449917D01*
X55804285Y22456499D01*
X55804285Y22456502D01*
X55785228Y22601253D01*
X55785228Y22601254D01*
X55729355Y22736142D01*
X55701401Y22772573D01*
X55650124Y22839399D01*
X55624930Y22904568D01*
X55624500Y22914885D01*
X55624500Y23435036D01*
X55624501Y23435049D01*
X55624501Y23544961D01*
X55623620Y23548251D01*
X55598638Y23641482D01*
X55581040Y23671962D01*
X55581039Y23671964D01*
X55581039Y23671965D01*
X55548678Y23728016D01*
X55548677Y23728017D01*
X55548676Y23728019D01*
X55478019Y23798676D01*
X55478018Y23798677D01*
X55473688Y23803007D01*
X55473677Y23803017D01*
X54744851Y24531843D01*
X54711366Y24593166D01*
X54716350Y24662858D01*
X54758222Y24718791D01*
X54823686Y24743208D01*
X54864625Y24739299D01*
X54995000Y24704366D01*
X54995000Y25601988D01*
X55052007Y25569075D01*
X55179174Y25535000D01*
X55310826Y25535000D01*
X55437993Y25569075D01*
X55495000Y25601988D01*
X55495000Y24704367D01*
X55708483Y24761567D01*
X55708492Y24761571D01*
X55922578Y24861400D01*
X55927266Y24864106D01*
X55928199Y24862490D01*
X55986550Y24882184D01*
X56054322Y24865191D01*
X56102148Y24814255D01*
X56115499Y24758283D01*
X56115499Y24735038D01*
X56123718Y24704366D01*
X56134528Y24664021D01*
X56141361Y24638521D01*
X56141363Y24638516D01*
X56191321Y24551985D01*
X56191325Y24551980D01*
X56269046Y24474259D01*
X56269052Y24474254D01*
X57369181Y23374125D01*
X57402666Y23312802D01*
X57405500Y23286444D01*
X57405500Y22914885D01*
X57385815Y22847846D01*
X57379876Y22839399D01*
X57300645Y22736143D01*
X57300643Y22736140D01*
X57244772Y22601255D01*
X57244771Y22601253D01*
X57225715Y22456502D01*
X57225715Y22456499D01*
X57244771Y22311748D01*
X57244773Y22311743D01*
X57300642Y22176862D01*
X57300645Y22176856D01*
X57389525Y22061027D01*
X57389526Y22061026D01*
X57505355Y21972146D01*
X57505361Y21972143D01*
X57556014Y21951162D01*
X57640246Y21916272D01*
X57712623Y21906744D01*
X57784999Y21897215D01*
X57785000Y21897215D01*
X57785001Y21897215D01*
X57836211Y21903957D01*
X57929754Y21916272D01*
X58064643Y21972145D01*
X58180474Y22061026D01*
X58269355Y22176857D01*
X58325228Y22311746D01*
X58343418Y22449917D01*
X58344285Y22456499D01*
X58344285Y22456502D01*
X58325228Y22601253D01*
X58325228Y22601254D01*
X58269355Y22736142D01*
X58241401Y22772573D01*
X58190124Y22839399D01*
X58164930Y22904568D01*
X58164500Y22914885D01*
X58164500Y23544960D01*
X58164500Y23544961D01*
X58164500Y23544962D01*
X58138638Y23641482D01*
X58088676Y23728019D01*
X58018019Y23798676D01*
X58018018Y23798677D01*
X58013688Y23803007D01*
X58013677Y23803017D01*
X57284851Y24531843D01*
X57251366Y24593166D01*
X57256350Y24662858D01*
X57298222Y24718791D01*
X57363686Y24743208D01*
X57404625Y24739299D01*
X57535000Y24704366D01*
X57535000Y25601988D01*
X57592007Y25569075D01*
X57719174Y25535000D01*
X57850826Y25535000D01*
X57977993Y25569075D01*
X58035000Y25601988D01*
X58035000Y24704366D01*
X58248483Y24761567D01*
X58248492Y24761571D01*
X58462578Y24861400D01*
X58656082Y24996895D01*
X58823105Y25163918D01*
X58953425Y25350032D01*
X59008002Y25393656D01*
X59077501Y25400849D01*
X59139855Y25369327D01*
X59156575Y25350032D01*
X59286894Y25163918D01*
X59453917Y24996895D01*
X59647421Y24861400D01*
X59861507Y24761571D01*
X59861516Y24761567D01*
X60075000Y24704366D01*
X60075000Y25601988D01*
X60132007Y25569075D01*
X60259174Y25535000D01*
X60390826Y25535000D01*
X60517993Y25569075D01*
X60575000Y25601988D01*
X60575000Y24704367D01*
X60788483Y24761567D01*
X60788492Y24761571D01*
X61002578Y24861400D01*
X61196082Y24996895D01*
X61363105Y25163918D01*
X61493425Y25350032D01*
X61548002Y25393656D01*
X61617501Y25400849D01*
X61679855Y25369327D01*
X61696575Y25350032D01*
X61826894Y25163918D01*
X61993917Y24996895D01*
X62187421Y24861400D01*
X62401507Y24761571D01*
X62401516Y24761567D01*
X62615000Y24704366D01*
X62615000Y25601988D01*
X62672007Y25569075D01*
X62799174Y25535000D01*
X62930826Y25535000D01*
X63057993Y25569075D01*
X63115000Y25601988D01*
X63115000Y24704366D01*
X63295407Y24752705D01*
X63365257Y24751042D01*
X63423119Y24711879D01*
X63450623Y24647651D01*
X63451500Y24632930D01*
X63451500Y23236556D01*
X63431815Y23169517D01*
X63379011Y23123762D01*
X63309853Y23113818D01*
X63246297Y23142843D01*
X63239819Y23148875D01*
X62822473Y23566221D01*
X62788988Y23627544D01*
X62787217Y23637702D01*
X62770228Y23766754D01*
X62714355Y23901642D01*
X62625474Y24017474D01*
X62509643Y24106355D01*
X62509640Y24106356D01*
X62509638Y24106358D01*
X62374757Y24162227D01*
X62374752Y24162229D01*
X62230001Y24181285D01*
X62229999Y24181285D01*
X62085247Y24162229D01*
X62085245Y24162228D01*
X61950361Y24106357D01*
X61950358Y24106356D01*
X61950358Y24106355D01*
X61834526Y24017474D01*
X61834524Y24017473D01*
X61834523Y24017471D01*
X61820374Y23999032D01*
X61763946Y23957830D01*
X61694200Y23953677D01*
X61633280Y23987890D01*
X61623626Y23999032D01*
X61609475Y24017473D01*
X61586338Y24035227D01*
X61493643Y24106355D01*
X61493640Y24106356D01*
X61493638Y24106358D01*
X61358757Y24162227D01*
X61358752Y24162229D01*
X61214001Y24181285D01*
X61213999Y24181285D01*
X61069247Y24162229D01*
X61069245Y24162228D01*
X60934361Y24106357D01*
X60934358Y24106356D01*
X60934358Y24106355D01*
X60841662Y24035227D01*
X60818526Y24017474D01*
X60729643Y23901639D01*
X60673772Y23766755D01*
X60673771Y23766753D01*
X60654715Y23622003D01*
X60654715Y23621210D01*
X60654510Y23620445D01*
X60653654Y23613943D01*
X60652798Y23614056D01*
X60638103Y23559212D01*
X60620361Y23528483D01*
X60620362Y23528482D01*
X60594499Y23431961D01*
X60594499Y23322049D01*
X60594500Y23322036D01*
X60594500Y20800889D01*
X60574815Y20733850D01*
X60522011Y20688095D01*
X60452853Y20678151D01*
X60399377Y20699314D01*
X60220102Y20824843D01*
X60220098Y20824845D01*
X60025120Y20915765D01*
X60025116Y20915766D01*
X60025112Y20915768D01*
X59817321Y20971445D01*
X59817317Y20971446D01*
X59817316Y20971446D01*
X59817315Y20971447D01*
X59817310Y20971447D01*
X59603002Y20990196D01*
X59602998Y20990196D01*
X59388689Y20971447D01*
X59388678Y20971445D01*
X59180887Y20915768D01*
X59180878Y20915764D01*
X58985901Y20824845D01*
X58985897Y20824843D01*
X58809672Y20701449D01*
X58722181Y20613957D01*
X58660858Y20580472D01*
X58591166Y20585456D01*
X58535233Y20627328D01*
X58510816Y20692792D01*
X58510500Y20701638D01*
X58510500Y20870444D01*
X58530185Y20937483D01*
X58546819Y20958125D01*
X59228356Y21639662D01*
X59993676Y22404981D01*
X60007163Y22428341D01*
X60043638Y22491518D01*
X60050600Y22517500D01*
X60054324Y22531396D01*
X60060738Y22555336D01*
X60069501Y22588038D01*
X60069501Y22687962D01*
X60069501Y22695557D01*
X60069500Y22695575D01*
X60069500Y23036616D01*
X60089185Y23103655D01*
X60095115Y23112092D01*
X60174355Y23215357D01*
X60230228Y23350246D01*
X60249285Y23495000D01*
X60242707Y23544962D01*
X60230228Y23639753D01*
X60230228Y23639754D01*
X60174355Y23774642D01*
X60085474Y23890474D01*
X59969643Y23979355D01*
X59969640Y23979356D01*
X59969638Y23979358D01*
X59834757Y24035227D01*
X59834752Y24035229D01*
X59690001Y24054285D01*
X59689999Y24054285D01*
X59545247Y24035229D01*
X59545245Y24035228D01*
X59410361Y23979357D01*
X59410358Y23979356D01*
X59410358Y23979355D01*
X59294526Y23890474D01*
X59224089Y23798678D01*
X59205643Y23774639D01*
X59149772Y23639755D01*
X59149771Y23639753D01*
X59130715Y23495002D01*
X59130715Y23494999D01*
X59149771Y23350248D01*
X59149773Y23350243D01*
X59205642Y23215362D01*
X59205642Y23215361D01*
X59205644Y23215358D01*
X59205645Y23215357D01*
X59284876Y23112102D01*
X59310070Y23046934D01*
X59310500Y23036616D01*
X59310500Y22846557D01*
X59290815Y22779518D01*
X59274181Y22758876D01*
X57827325Y21312021D01*
X57827321Y21312016D01*
X57777361Y21225483D01*
X57777362Y21225483D01*
X57777362Y21225482D01*
X57751499Y21128961D01*
X57751499Y21019049D01*
X57751500Y21019036D01*
X57751500Y5410885D01*
X57731815Y5343846D01*
X57725876Y5335399D01*
X57646645Y5232143D01*
X57646643Y5232140D01*
X57590772Y5097255D01*
X57590771Y5097253D01*
X57571715Y4952502D01*
X57571715Y4952499D01*
X57590771Y4807748D01*
X57590773Y4807743D01*
X57646642Y4672862D01*
X57646645Y4672856D01*
X57735525Y4557027D01*
X57735526Y4557026D01*
X57851355Y4468146D01*
X57851361Y4468143D01*
X57864374Y4462753D01*
X57986246Y4412272D01*
X58057244Y4402925D01*
X58130999Y4393215D01*
X58131000Y4393215D01*
X58131001Y4393215D01*
X58179251Y4399568D01*
X58275754Y4412272D01*
X58410643Y4468145D01*
X58526474Y4557026D01*
X58615355Y4672857D01*
X58671228Y4807746D01*
X58687315Y4929943D01*
X58690285Y4952499D01*
X58690285Y4952502D01*
X58677067Y5052905D01*
X58671228Y5097254D01*
X58615355Y5232142D01*
X58584113Y5272857D01*
X58536124Y5335399D01*
X58510930Y5400568D01*
X58510500Y5410885D01*
X58510500Y8628081D01*
X58530185Y8695120D01*
X58582989Y8740875D01*
X58652147Y8750819D01*
X58715703Y8721794D01*
X58736075Y8699204D01*
X58752552Y8675672D01*
X58904672Y8523552D01*
X59080897Y8400158D01*
X59080899Y8400157D01*
X59080902Y8400155D01*
X59275880Y8309235D01*
X59483684Y8253554D01*
X59636540Y8240181D01*
X59697998Y8234804D01*
X59698000Y8234804D01*
X59698002Y8234804D01*
X59759460Y8240181D01*
X59912316Y8253554D01*
X60120120Y8309235D01*
X60315098Y8400155D01*
X60399378Y8459169D01*
X60465582Y8481495D01*
X60533350Y8464485D01*
X60581163Y8413537D01*
X60594500Y8357593D01*
X60594500Y7043377D01*
X60574815Y6976338D01*
X60545987Y6945002D01*
X60535530Y6936978D01*
X60535528Y6936976D01*
X60535526Y6936974D01*
X60456784Y6834355D01*
X60446643Y6821139D01*
X60390772Y6686255D01*
X60390771Y6686253D01*
X60371715Y6541502D01*
X60371715Y6541499D01*
X60390771Y6396748D01*
X60390773Y6396743D01*
X60446642Y6261862D01*
X60446645Y6261856D01*
X60515133Y6172602D01*
X60535526Y6146026D01*
X60651357Y6057145D01*
X60735274Y6022386D01*
X60789674Y5978547D01*
X60811740Y5912253D01*
X60794461Y5844554D01*
X60786195Y5832340D01*
X60729645Y5758643D01*
X60729643Y5758640D01*
X60673772Y5623755D01*
X60673771Y5623753D01*
X60654715Y5479002D01*
X60654715Y5478999D01*
X60673771Y5334248D01*
X60673773Y5334243D01*
X60729642Y5199362D01*
X60729645Y5199356D01*
X60818525Y5083527D01*
X60818526Y5083526D01*
X60934355Y4994646D01*
X60934361Y4994643D01*
X61001801Y4966709D01*
X61069246Y4938772D01*
X61108023Y4933667D01*
X61213999Y4919715D01*
X61214000Y4919715D01*
X61214001Y4919715D01*
X61291690Y4929943D01*
X61358754Y4938772D01*
X61367153Y4942252D01*
X61436620Y4949724D01*
X61499101Y4918453D01*
X61534757Y4858366D01*
X61532267Y4788540D01*
X61506563Y4751517D01*
X61505555Y4739997D01*
X62068590Y4176963D01*
X62005007Y4159925D01*
X61890993Y4094099D01*
X61797901Y4001007D01*
X61732075Y3886993D01*
X61715037Y3823410D01*
X61152003Y4386445D01*
X61152003Y4386444D01*
X61107856Y4323396D01*
X61107855Y4323394D01*
X61015124Y4124534D01*
X61015121Y4124525D01*
X60958335Y3912593D01*
X60958333Y3912583D01*
X60939210Y3694001D01*
X60939210Y3694000D01*
X60958333Y3475418D01*
X60958335Y3475408D01*
X61015121Y3263476D01*
X61015125Y3263467D01*
X61107854Y3064608D01*
X61152003Y3001557D01*
X61715037Y3564591D01*
X61732075Y3501007D01*
X61797901Y3386993D01*
X61890993Y3293901D01*
X62005007Y3228075D01*
X62068590Y3211038D01*
X61505555Y2648004D01*
X61568601Y2603858D01*
X61568605Y2603856D01*
X61767466Y2511126D01*
X61767475Y2511122D01*
X61979407Y2454336D01*
X61979417Y2454334D01*
X62197999Y2435210D01*
X62198001Y2435210D01*
X62416582Y2454334D01*
X62416592Y2454336D01*
X62628524Y2511122D01*
X62628533Y2511126D01*
X62827392Y2603855D01*
X62890443Y2648005D01*
X62327410Y3211038D01*
X62390993Y3228075D01*
X62505007Y3293901D01*
X62598099Y3386993D01*
X62663925Y3501007D01*
X62680962Y3564591D01*
X63243995Y3001558D01*
X63288145Y3064608D01*
X63380874Y3263467D01*
X63380878Y3263476D01*
X63437664Y3475408D01*
X63437666Y3475418D01*
X63456790Y3694000D01*
X63456790Y3694001D01*
X63437666Y3912583D01*
X63437664Y3912593D01*
X63380878Y4124525D01*
X63380874Y4124534D01*
X63288144Y4323395D01*
X63288142Y4323399D01*
X63243996Y4386445D01*
X62680962Y3823411D01*
X62663925Y3886993D01*
X62598099Y4001007D01*
X62505007Y4094099D01*
X62390993Y4159925D01*
X62327409Y4176963D01*
X62890443Y4739997D01*
X62827392Y4784146D01*
X62628533Y4876875D01*
X62628524Y4876879D01*
X62416592Y4933665D01*
X62416582Y4933667D01*
X62198001Y4952790D01*
X62197999Y4952790D01*
X61979417Y4933667D01*
X61979407Y4933665D01*
X61767475Y4876879D01*
X61767461Y4876874D01*
X61704377Y4847457D01*
X61635299Y4836965D01*
X61571516Y4865485D01*
X61533277Y4923962D01*
X61532723Y4993830D01*
X61570030Y5052905D01*
X61576468Y5058200D01*
X61609474Y5083526D01*
X61698355Y5199357D01*
X61754228Y5334246D01*
X61771216Y5463287D01*
X61799482Y5527183D01*
X61806462Y5534770D01*
X62009909Y5738217D01*
X62071230Y5771700D01*
X62140922Y5766716D01*
X62195964Y5726020D01*
X62215526Y5700526D01*
X62331355Y5611646D01*
X62331361Y5611643D01*
X62398801Y5583709D01*
X62466246Y5555772D01*
X62529071Y5547501D01*
X62610999Y5536715D01*
X62611000Y5536715D01*
X62611001Y5536715D01*
X62659251Y5543068D01*
X62755754Y5555772D01*
X62890643Y5611645D01*
X63006474Y5700526D01*
X63095355Y5816357D01*
X63151228Y5951246D01*
X63168216Y6080287D01*
X63196482Y6144183D01*
X63203462Y6151770D01*
X64053809Y7002116D01*
X64053814Y7002120D01*
X64064017Y7012324D01*
X64064019Y7012324D01*
X64134676Y7082981D01*
X64184638Y7169518D01*
X64184639Y7169519D01*
X64210501Y7266038D01*
X64210501Y7365962D01*
X64210501Y7373557D01*
X64210500Y7373575D01*
X64210500Y24601944D01*
X64230185Y24668983D01*
X64246819Y24689625D01*
X64257819Y24700625D01*
X64319142Y24734110D01*
X64388834Y24729126D01*
X64444767Y24687254D01*
X64469184Y24621790D01*
X64469500Y24612944D01*
X64469500Y424500D01*
X64449815Y357461D01*
X64397011Y311706D01*
X64345500Y300500D01*
X424500Y300500D01*
X357461Y320185D01*
X311706Y372989D01*
X300500Y424500D01*
X300500Y3937001D01*
X12733768Y3937001D01*
X12733768Y3937000D01*
X12752654Y3733184D01*
X12752654Y3733182D01*
X12752655Y3733179D01*
X12793563Y3589402D01*
X12808673Y3536296D01*
X12899912Y3353065D01*
X13023269Y3189713D01*
X13174537Y3051815D01*
X13174539Y3051813D01*
X13348569Y2944058D01*
X13348575Y2944055D01*
X13389010Y2928391D01*
X13539444Y2870112D01*
X13740653Y2832500D01*
X13740656Y2832500D01*
X13945344Y2832500D01*
X13945347Y2832500D01*
X14146556Y2870112D01*
X14337427Y2944056D01*
X14511462Y3051814D01*
X14662732Y3189715D01*
X14786088Y3353065D01*
X14877328Y3536299D01*
X14933345Y3733179D01*
X14952232Y3937000D01*
X14952232Y3937001D01*
X15273768Y3937001D01*
X15273768Y3937000D01*
X15292654Y3733184D01*
X15292654Y3733182D01*
X15292655Y3733179D01*
X15333563Y3589402D01*
X15348673Y3536296D01*
X15439912Y3353065D01*
X15563269Y3189713D01*
X15714537Y3051815D01*
X15714539Y3051813D01*
X15888569Y2944058D01*
X15888575Y2944055D01*
X15929010Y2928391D01*
X16079444Y2870112D01*
X16280653Y2832500D01*
X16280656Y2832500D01*
X16485344Y2832500D01*
X16485347Y2832500D01*
X16686556Y2870112D01*
X16877427Y2944056D01*
X17051462Y3051814D01*
X17202732Y3189715D01*
X17326088Y3353065D01*
X17417328Y3536299D01*
X17473345Y3733179D01*
X17492232Y3937000D01*
X17492232Y3937001D01*
X17813768Y3937001D01*
X17813768Y3937000D01*
X17832654Y3733184D01*
X17832654Y3733182D01*
X17832655Y3733179D01*
X17873563Y3589402D01*
X17888673Y3536296D01*
X17979912Y3353065D01*
X18103269Y3189713D01*
X18254537Y3051815D01*
X18254539Y3051813D01*
X18428569Y2944058D01*
X18428575Y2944055D01*
X18469010Y2928391D01*
X18619444Y2870112D01*
X18820653Y2832500D01*
X18820656Y2832500D01*
X19025344Y2832500D01*
X19025347Y2832500D01*
X19226556Y2870112D01*
X19417427Y2944056D01*
X19591462Y3051814D01*
X19742732Y3189715D01*
X19866088Y3353065D01*
X19878000Y3376989D01*
X19925502Y3428224D01*
X19993165Y3445646D01*
X20059505Y3423721D01*
X20103461Y3369410D01*
X20113000Y3321716D01*
X20113000Y3039156D01*
X20119401Y2979628D01*
X20119403Y2979621D01*
X20169645Y2844914D01*
X20169649Y2844907D01*
X20255809Y2729813D01*
X20255812Y2729810D01*
X20370906Y2643650D01*
X20370913Y2643646D01*
X20505620Y2593404D01*
X20505627Y2593402D01*
X20565155Y2587001D01*
X20565172Y2587000D01*
X21213000Y2587000D01*
X21213000Y3503988D01*
X21270007Y3471075D01*
X21397174Y3437000D01*
X21528826Y3437000D01*
X21655993Y3471075D01*
X21713000Y3503988D01*
X21713000Y2587000D01*
X22360828Y2587000D01*
X22360844Y2587001D01*
X22420372Y2593402D01*
X22420379Y2593404D01*
X22555086Y2643646D01*
X22555093Y2643650D01*
X22670187Y2729810D01*
X22670190Y2729813D01*
X22756350Y2844907D01*
X22756354Y2844914D01*
X22806596Y2979621D01*
X22806598Y2979628D01*
X22812999Y3039156D01*
X22813000Y3039173D01*
X22813000Y3687000D01*
X21896012Y3687000D01*
X21928925Y3744007D01*
X21963000Y3871174D01*
X21963000Y4002826D01*
X21928925Y4129993D01*
X21896012Y4187000D01*
X22813000Y4187000D01*
X22813000Y4834828D01*
X22812999Y4834845D01*
X22806598Y4894373D01*
X22806596Y4894380D01*
X22756354Y5029087D01*
X22756350Y5029094D01*
X22670190Y5144188D01*
X22670187Y5144191D01*
X22555093Y5230351D01*
X22555086Y5230355D01*
X22420379Y5280597D01*
X22420372Y5280599D01*
X22360844Y5287000D01*
X21713000Y5287000D01*
X21713000Y4370012D01*
X21655993Y4402925D01*
X21528826Y4437000D01*
X21397174Y4437000D01*
X21270007Y4402925D01*
X21213000Y4370012D01*
X21213000Y5287000D01*
X20565155Y5287000D01*
X20505627Y5280599D01*
X20505620Y5280597D01*
X20370913Y5230355D01*
X20370906Y5230351D01*
X20255812Y5144191D01*
X20255809Y5144188D01*
X20169649Y5029094D01*
X20169645Y5029087D01*
X20119403Y4894380D01*
X20119401Y4894373D01*
X20113000Y4834845D01*
X20113000Y4552285D01*
X20093315Y4485246D01*
X20040511Y4439491D01*
X19971353Y4429547D01*
X19907797Y4458572D01*
X19878000Y4497012D01*
X19866088Y4520935D01*
X19838834Y4557026D01*
X19742730Y4684288D01*
X19591462Y4822186D01*
X19591460Y4822188D01*
X19417430Y4929943D01*
X19417424Y4929946D01*
X19254106Y4993215D01*
X19226556Y5003888D01*
X19025347Y5041500D01*
X18820653Y5041500D01*
X18619444Y5003888D01*
X18619441Y5003888D01*
X18619441Y5003887D01*
X18428575Y4929946D01*
X18428569Y4929943D01*
X18254539Y4822188D01*
X18254537Y4822186D01*
X18103269Y4684288D01*
X17979912Y4520936D01*
X17888673Y4337705D01*
X17883066Y4317999D01*
X17834312Y4146643D01*
X17832654Y4140817D01*
X17813768Y3937001D01*
X17492232Y3937001D01*
X17473345Y4140821D01*
X17417328Y4337701D01*
X17326088Y4520935D01*
X17211358Y4672862D01*
X17202730Y4684288D01*
X17051462Y4822186D01*
X17051460Y4822188D01*
X16877430Y4929943D01*
X16877424Y4929946D01*
X16714106Y4993215D01*
X16686556Y5003888D01*
X16485347Y5041500D01*
X16280653Y5041500D01*
X16079444Y5003888D01*
X16079441Y5003888D01*
X16079441Y5003887D01*
X15888575Y4929946D01*
X15888569Y4929943D01*
X15714539Y4822188D01*
X15714537Y4822186D01*
X15563269Y4684288D01*
X15439912Y4520936D01*
X15348673Y4337705D01*
X15343066Y4317999D01*
X15294312Y4146643D01*
X15292654Y4140817D01*
X15273768Y3937001D01*
X14952232Y3937001D01*
X14933345Y4140821D01*
X14877328Y4337701D01*
X14786088Y4520935D01*
X14671358Y4672862D01*
X14662730Y4684288D01*
X14511462Y4822186D01*
X14511460Y4822188D01*
X14337430Y4929943D01*
X14337424Y4929946D01*
X14174106Y4993215D01*
X14146556Y5003888D01*
X13945347Y5041500D01*
X13740653Y5041500D01*
X13539444Y5003888D01*
X13539441Y5003888D01*
X13539441Y5003887D01*
X13348575Y4929946D01*
X13348569Y4929943D01*
X13174539Y4822188D01*
X13174537Y4822186D01*
X13023269Y4684288D01*
X12899912Y4520936D01*
X12808673Y4337705D01*
X12803066Y4317999D01*
X12754312Y4146643D01*
X12752654Y4140817D01*
X12733768Y3937001D01*
X300500Y3937001D01*
X300500Y9489001D01*
X1929494Y9489001D01*
X1929495Y9489000D01*
X2764314Y9489000D01*
X2759920Y9484606D01*
X2707259Y9393394D01*
X2680000Y9291661D01*
X2680000Y9186339D01*
X2707259Y9084606D01*
X2759920Y8993394D01*
X2764314Y8989000D01*
X1929495Y8989000D01*
X1979651Y8812720D01*
X2076715Y8617792D01*
X2207945Y8444014D01*
X2332315Y8330637D01*
X2368597Y8270926D01*
X2366836Y8201079D01*
X2332315Y8147363D01*
X2207945Y8033987D01*
X2076715Y7860209D01*
X1979651Y7665281D01*
X1929494Y7489001D01*
X1929495Y7489000D01*
X2764314Y7489000D01*
X2759920Y7484606D01*
X2707259Y7393394D01*
X2680000Y7291661D01*
X2680000Y7186339D01*
X2707259Y7084606D01*
X2759920Y6993394D01*
X2764314Y6989000D01*
X1929495Y6989000D01*
X1979651Y6812720D01*
X2076715Y6617792D01*
X2207945Y6444015D01*
X2368868Y6297315D01*
X2554012Y6182678D01*
X2554023Y6182673D01*
X2757060Y6104016D01*
X2830000Y6090381D01*
X2830000Y6923314D01*
X2834394Y6918920D01*
X2925606Y6866259D01*
X3027339Y6839000D01*
X3132661Y6839000D01*
X3234394Y6866259D01*
X3325606Y6918920D01*
X3330000Y6923314D01*
X3330000Y6090381D01*
X3402939Y6104016D01*
X3605976Y6182673D01*
X3605987Y6182678D01*
X3791130Y6297315D01*
X3791131Y6297315D01*
X3952054Y6444015D01*
X4083282Y6617790D01*
X4111213Y6673881D01*
X4158716Y6725118D01*
X4226379Y6742540D01*
X4292719Y6720615D01*
X4319505Y6694452D01*
X4319529Y6694473D01*
X4319860Y6694105D01*
X4322532Y6691495D01*
X4323875Y6689646D01*
X4388573Y6617792D01*
X4454617Y6544442D01*
X4612690Y6429595D01*
X4791187Y6350124D01*
X4982306Y6309500D01*
X5177694Y6309500D01*
X5368813Y6350124D01*
X5547310Y6429595D01*
X5705383Y6544442D01*
X5836123Y6689644D01*
X5933818Y6858856D01*
X5962069Y6945806D01*
X6001506Y7003480D01*
X6065865Y7030679D01*
X6134711Y7018765D01*
X6186187Y6971521D01*
X6197930Y6945807D01*
X6206666Y6918920D01*
X6223776Y6866259D01*
X6226182Y6858856D01*
X6323877Y6689644D01*
X6454617Y6544442D01*
X6612690Y6429595D01*
X6791187Y6350124D01*
X6982306Y6309500D01*
X7177694Y6309500D01*
X7368813Y6350124D01*
X7547310Y6429595D01*
X7705383Y6544442D01*
X7836123Y6689644D01*
X7933818Y6858856D01*
X7994196Y7044682D01*
X8014620Y7239000D01*
X7994196Y7433318D01*
X7933818Y7619144D01*
X7836123Y7788356D01*
X7705383Y7933558D01*
X7547310Y8048405D01*
X7547308Y8048406D01*
X7493818Y8072221D01*
X7440581Y8117471D01*
X7420259Y8184320D01*
X7439304Y8251544D01*
X7491669Y8297800D01*
X7544252Y8309501D01*
X7780066Y8309501D01*
X7854301Y8324266D01*
X7938484Y8380516D01*
X7994734Y8464699D01*
X8009500Y8538933D01*
X8009499Y9939066D01*
X7994734Y10013301D01*
X7956812Y10070055D01*
X7938484Y10097485D01*
X7888019Y10131204D01*
X7854301Y10153734D01*
X7854299Y10153735D01*
X7854296Y10153736D01*
X7780069Y10168500D01*
X6379936Y10168500D01*
X6305698Y10153734D01*
X6221515Y10097485D01*
X6165266Y10013301D01*
X6165264Y10013297D01*
X6150500Y9939072D01*
X6150500Y9706614D01*
X6130815Y9639575D01*
X6078011Y9593820D01*
X6008853Y9583876D01*
X5945297Y9612901D01*
X5919113Y9644614D01*
X5861826Y9743837D01*
X5836123Y9788356D01*
X5771427Y9860209D01*
X5705384Y9933557D01*
X5705383Y9933558D01*
X5547310Y10048405D01*
X5368813Y10127876D01*
X5368811Y10127877D01*
X5368810Y10127877D01*
X5177694Y10168500D01*
X4982306Y10168500D01*
X4791189Y10127877D01*
X4612691Y10048406D01*
X4454615Y9933557D01*
X4323873Y9788353D01*
X4322527Y9786499D01*
X4321473Y9785688D01*
X4319529Y9783527D01*
X4319133Y9783883D01*
X4267194Y9743837D01*
X4197581Y9737862D01*
X4135788Y9770473D01*
X4111214Y9804119D01*
X4083284Y9860209D01*
X3952054Y10033986D01*
X3791131Y10180686D01*
X3605987Y10295323D01*
X3605985Y10295324D01*
X3402931Y10373987D01*
X3402921Y10373990D01*
X3330001Y10387622D01*
X3330000Y10387621D01*
X3330000Y9554686D01*
X3325606Y9559080D01*
X3234394Y9611741D01*
X3132661Y9639000D01*
X3027339Y9639000D01*
X2925606Y9611741D01*
X2834394Y9559080D01*
X2830000Y9554686D01*
X2830000Y10387621D01*
X2829998Y10387622D01*
X2757078Y10373990D01*
X2757068Y10373987D01*
X2554014Y10295324D01*
X2554012Y10295323D01*
X2368869Y10180686D01*
X2368868Y10180686D01*
X2207945Y10033986D01*
X2076715Y9860209D01*
X1979651Y9665281D01*
X1929494Y9489001D01*
X300500Y9489001D01*
X300500Y11874072D01*
X12661500Y11874072D01*
X12661500Y10223937D01*
X12676266Y10149699D01*
X12732515Y10065516D01*
X12758124Y10048405D01*
X12816699Y10009266D01*
X12816702Y10009266D01*
X12816703Y10009265D01*
X12841666Y10004300D01*
X12890933Y9994500D01*
X14541066Y9994501D01*
X14615301Y10009266D01*
X14699484Y10065516D01*
X14755734Y10149699D01*
X14770500Y10223933D01*
X14770499Y11049000D01*
X16656398Y11049000D01*
X16676757Y10842284D01*
X16737056Y10643504D01*
X16834969Y10460323D01*
X16834974Y10460316D01*
X16966747Y10299748D01*
X17059124Y10223937D01*
X17127317Y10167973D01*
X17127320Y10167972D01*
X17127322Y10167970D01*
X17310503Y10070057D01*
X17310505Y10070057D01*
X17310508Y10070055D01*
X17509282Y10009758D01*
X17716000Y9989398D01*
X17922718Y10009758D01*
X18121492Y10070055D01*
X18304683Y10167973D01*
X18465252Y10299748D01*
X18597027Y10460317D01*
X18694945Y10643508D01*
X18705712Y10679002D01*
X28571715Y10679002D01*
X28571715Y10678999D01*
X28590771Y10534248D01*
X28590773Y10534243D01*
X28646642Y10399362D01*
X28646642Y10399361D01*
X28646644Y10399358D01*
X28646645Y10399357D01*
X28655650Y10387621D01*
X28735530Y10283521D01*
X28740181Y10278870D01*
X28773666Y10217547D01*
X28776500Y10191189D01*
X28776500Y5186811D01*
X28756815Y5119772D01*
X28740185Y5099134D01*
X28735532Y5094481D01*
X28735527Y5094476D01*
X28735526Y5094474D01*
X28646645Y4978642D01*
X28646643Y4978639D01*
X28590772Y4843755D01*
X28590771Y4843753D01*
X28571715Y4699002D01*
X28571715Y4698999D01*
X28590771Y4554248D01*
X28590773Y4554243D01*
X28646642Y4419362D01*
X28646645Y4419356D01*
X28735525Y4303527D01*
X28735526Y4303526D01*
X28851355Y4214646D01*
X28851361Y4214643D01*
X28901198Y4194000D01*
X28986246Y4158772D01*
X29058623Y4149244D01*
X29130999Y4139715D01*
X29131000Y4139715D01*
X29131001Y4139715D01*
X29183647Y4146646D01*
X29275754Y4158772D01*
X29410643Y4214645D01*
X29526474Y4303526D01*
X29615355Y4419357D01*
X29671228Y4554246D01*
X29690285Y4699000D01*
X29688379Y4713474D01*
X29671228Y4843753D01*
X29671228Y4843754D01*
X29615355Y4978642D01*
X29526474Y5094474D01*
X29526470Y5094478D01*
X29526467Y5094481D01*
X29521815Y5099134D01*
X29488333Y5160459D01*
X29485500Y5186811D01*
X29485500Y10191189D01*
X29505185Y10258228D01*
X29521819Y10278870D01*
X29526469Y10283521D01*
X29526471Y10283524D01*
X29526474Y10283526D01*
X29615355Y10399357D01*
X29671228Y10534246D01*
X29690285Y10679000D01*
X29671228Y10823754D01*
X29615355Y10958642D01*
X29526474Y11074474D01*
X29410643Y11163355D01*
X29410640Y11163356D01*
X29410638Y11163358D01*
X29275757Y11219227D01*
X29275752Y11219229D01*
X29131001Y11238285D01*
X29130999Y11238285D01*
X28986247Y11219229D01*
X28986245Y11219228D01*
X28851361Y11163357D01*
X28735526Y11074474D01*
X28646643Y10958639D01*
X28590772Y10823755D01*
X28590771Y10823753D01*
X28571715Y10679002D01*
X18705712Y10679002D01*
X18755242Y10842282D01*
X18775602Y11049000D01*
X18755242Y11255718D01*
X18694945Y11454492D01*
X18694943Y11454495D01*
X18694943Y11454497D01*
X18597030Y11637678D01*
X18597028Y11637680D01*
X18597027Y11637683D01*
X18526857Y11723186D01*
X18465252Y11798253D01*
X18304684Y11930026D01*
X18304677Y11930031D01*
X18121496Y12027944D01*
X17922716Y12088243D01*
X17716000Y12108602D01*
X17509283Y12088243D01*
X17310503Y12027944D01*
X17127322Y11930031D01*
X17127315Y11930026D01*
X16966747Y11798253D01*
X16834974Y11637685D01*
X16834969Y11637678D01*
X16737056Y11454497D01*
X16676757Y11255717D01*
X16656398Y11049000D01*
X14770499Y11049000D01*
X14770499Y11874066D01*
X14755734Y11948301D01*
X14715882Y12007943D01*
X14699484Y12032485D01*
X14649019Y12066204D01*
X14615301Y12088734D01*
X14615299Y12088735D01*
X14615296Y12088736D01*
X14541069Y12103500D01*
X12890936Y12103500D01*
X12816698Y12088734D01*
X12732515Y12032485D01*
X12676266Y11948301D01*
X12676264Y11948297D01*
X12661500Y11874072D01*
X300500Y11874072D01*
X300500Y20701000D01*
X10566284Y20701000D01*
X10572398Y20654557D01*
X10587060Y20543195D01*
X10587061Y20543191D01*
X10647968Y20396145D01*
X10647969Y20396143D01*
X10647970Y20396142D01*
X10744866Y20269866D01*
X10871142Y20172970D01*
X10871143Y20172970D01*
X10871144Y20172969D01*
X10884693Y20167357D01*
X11018194Y20112060D01*
X11176000Y20091284D01*
X11179892Y20091797D01*
X11183181Y20091284D01*
X11184129Y20091284D01*
X11184129Y20091137D01*
X11248926Y20081037D01*
X11283766Y20056540D01*
X12563539Y18776766D01*
X12597024Y18715443D01*
X12598798Y18672903D01*
X12598284Y18668999D01*
X12619060Y18511195D01*
X12619061Y18511191D01*
X12679968Y18364145D01*
X12679969Y18364143D01*
X12679970Y18364142D01*
X12776866Y18237866D01*
X12903142Y18140970D01*
X13050194Y18080060D01*
X13189640Y18061702D01*
X13207999Y18059284D01*
X13208000Y18059284D01*
X13208001Y18059284D01*
X13224446Y18061450D01*
X13365806Y18080060D01*
X13512858Y18140970D01*
X13639134Y18237866D01*
X13736030Y18364142D01*
X13796940Y18511194D01*
X13817716Y18669000D01*
X13796940Y18826806D01*
X13745847Y18950158D01*
X13736031Y18973856D01*
X13736030Y18973857D01*
X13736030Y18973858D01*
X13639134Y19100134D01*
X13512858Y19197030D01*
X13512857Y19197031D01*
X13512855Y19197032D01*
X13365809Y19257939D01*
X13365807Y19257940D01*
X13365806Y19257940D01*
X13272525Y19270221D01*
X13208001Y19278716D01*
X13208000Y19278716D01*
X13204096Y19278203D01*
X13200802Y19278716D01*
X13199873Y19278716D01*
X13199873Y19278861D01*
X13135062Y19288970D01*
X13100234Y19313461D01*
X11820460Y20593234D01*
X11786975Y20654557D01*
X11785203Y20697106D01*
X11785716Y20701000D01*
X11764940Y20858806D01*
X11704030Y21005858D01*
X11607134Y21132134D01*
X11480858Y21229030D01*
X11480857Y21229031D01*
X11480855Y21229032D01*
X11333809Y21289939D01*
X11333807Y21289940D01*
X11333806Y21289940D01*
X11254903Y21300328D01*
X11176001Y21310716D01*
X11175999Y21310716D01*
X11018194Y21289940D01*
X11018190Y21289939D01*
X10871144Y21229032D01*
X10744866Y21132134D01*
X10647968Y21005856D01*
X10587061Y20858810D01*
X10587060Y20858806D01*
X10569660Y20726639D01*
X10566284Y20701000D01*
X300500Y20701000D01*
X300500Y34417001D01*
X688179Y34417001D01*
X688179Y34417000D01*
X707424Y34197024D01*
X707426Y34197014D01*
X764575Y33983730D01*
X764580Y33983716D01*
X857898Y33783595D01*
X857901Y33783589D01*
X903258Y33718813D01*
X903258Y33718812D01*
X1574000Y34389554D01*
X1574000Y34366840D01*
X1599964Y34269939D01*
X1650124Y34183060D01*
X1721060Y34112124D01*
X1807939Y34061964D01*
X1904840Y34036000D01*
X1927553Y34036000D01*
X1256810Y33365260D01*
X1321590Y33319901D01*
X1321592Y33319900D01*
X1521715Y33226581D01*
X1521729Y33226576D01*
X1735013Y33169427D01*
X1735023Y33169425D01*
X1954999Y33150179D01*
X1955001Y33150179D01*
X2174976Y33169425D01*
X2174986Y33169427D01*
X2388270Y33226576D01*
X2388284Y33226581D01*
X2588407Y33319900D01*
X2588417Y33319906D01*
X2653188Y33365259D01*
X1982448Y34036000D01*
X2005160Y34036000D01*
X2102061Y34061964D01*
X2188940Y34112124D01*
X2259876Y34183060D01*
X2310036Y34269939D01*
X2336000Y34366840D01*
X2336000Y34389553D01*
X3006741Y33718812D01*
X3052094Y33783583D01*
X3052100Y33783593D01*
X3145419Y33983716D01*
X3145424Y33983730D01*
X3202573Y34197014D01*
X3202575Y34197024D01*
X3221821Y34417000D01*
X3221821Y34417001D01*
X3202575Y34636977D01*
X3202573Y34636987D01*
X3145424Y34850271D01*
X3145420Y34850280D01*
X3052096Y35050414D01*
X3006741Y35115189D01*
X3006740Y35115190D01*
X2336000Y34444449D01*
X2336000Y34467160D01*
X2310036Y34564061D01*
X2259876Y34650940D01*
X2188940Y34721876D01*
X2102061Y34772036D01*
X2005160Y34798000D01*
X1982447Y34798000D01*
X2653188Y35468742D01*
X2588411Y35514099D01*
X2588405Y35514102D01*
X2388284Y35607420D01*
X2388270Y35607425D01*
X2174986Y35664574D01*
X2174976Y35664576D01*
X1955001Y35683821D01*
X1954999Y35683821D01*
X1735023Y35664576D01*
X1735013Y35664574D01*
X1521729Y35607425D01*
X1521720Y35607421D01*
X1321590Y35514099D01*
X1256811Y35468742D01*
X1927554Y34798000D01*
X1904840Y34798000D01*
X1807939Y34772036D01*
X1721060Y34721876D01*
X1650124Y34650940D01*
X1599964Y34564061D01*
X1574000Y34467160D01*
X1574000Y34444447D01*
X903258Y35115189D01*
X857901Y35050410D01*
X764579Y34850280D01*
X764575Y34850271D01*
X707426Y34636987D01*
X707424Y34636977D01*
X688179Y34417001D01*
X300500Y34417001D01*
X300500Y36957000D01*
X933582Y36957000D01*
X953208Y36757729D01*
X1011333Y36566119D01*
X1105718Y36389537D01*
X1105720Y36389535D01*
X1105722Y36389531D01*
X1166724Y36315199D01*
X1232747Y36234748D01*
X1282807Y36193666D01*
X1387531Y36107722D01*
X1387534Y36107720D01*
X1387536Y36107719D01*
X1413878Y36093639D01*
X1564120Y36013333D01*
X1755731Y35955208D01*
X1955000Y35935582D01*
X2154269Y35955208D01*
X2345880Y36013333D01*
X2522469Y36107722D01*
X2677252Y36234748D01*
X2804278Y36389531D01*
X2898667Y36566120D01*
X2956792Y36757731D01*
X2976418Y36957000D01*
X2956792Y37156269D01*
X2898667Y37347880D01*
X2804278Y37524469D01*
X2731434Y37613230D01*
X2677252Y37679253D01*
X2596801Y37745276D01*
X2522469Y37806278D01*
X2522465Y37806280D01*
X2522463Y37806282D01*
X2345881Y37900667D01*
X2154271Y37958792D01*
X1955000Y37978418D01*
X1755728Y37958792D01*
X1564118Y37900667D01*
X1387536Y37806282D01*
X1232747Y37679253D01*
X1105718Y37524464D01*
X1011333Y37347882D01*
X953208Y37156272D01*
X933582Y36957000D01*
X300500Y36957000D01*
X300500Y39497000D01*
X933582Y39497000D01*
X953208Y39297729D01*
X1011333Y39106119D01*
X1105718Y38929537D01*
X1105720Y38929535D01*
X1105722Y38929531D01*
X1145140Y38881500D01*
X1232747Y38774748D01*
X1285446Y38731500D01*
X1387531Y38647722D01*
X1387534Y38647720D01*
X1387536Y38647719D01*
X1547976Y38561962D01*
X1564120Y38553333D01*
X1755731Y38495208D01*
X1955000Y38475582D01*
X2154269Y38495208D01*
X2345880Y38553333D01*
X2522469Y38647722D01*
X2677252Y38774748D01*
X2804278Y38929531D01*
X2898667Y39106120D01*
X2956792Y39297731D01*
X2976418Y39497000D01*
X2956792Y39696269D01*
X2898667Y39887880D01*
X2896508Y39891919D01*
X2804281Y40064464D01*
X2804280Y40064466D01*
X2804278Y40064469D01*
X2728644Y40156630D01*
X2677252Y40219253D01*
X2596801Y40285276D01*
X2522469Y40346278D01*
X2522465Y40346280D01*
X2522463Y40346282D01*
X2345881Y40440667D01*
X2154271Y40498792D01*
X1955000Y40518418D01*
X1755728Y40498792D01*
X1564118Y40440667D01*
X1387536Y40346282D01*
X1232747Y40219253D01*
X1105718Y40064464D01*
X1011333Y39887882D01*
X953208Y39696272D01*
X933582Y39497000D01*
X300500Y39497000D01*
X300500Y42037000D01*
X933582Y42037000D01*
X953208Y41837729D01*
X1011333Y41646119D01*
X1105718Y41469537D01*
X1105720Y41469535D01*
X1105722Y41469531D01*
X1166724Y41395199D01*
X1232747Y41314748D01*
X1298770Y41260566D01*
X1387531Y41187722D01*
X1387534Y41187720D01*
X1387536Y41187719D01*
X1555323Y41098035D01*
X1564120Y41093333D01*
X1755731Y41035208D01*
X1955000Y41015582D01*
X2154269Y41035208D01*
X2345880Y41093333D01*
X2522469Y41187722D01*
X2677252Y41314748D01*
X2804278Y41469531D01*
X2898667Y41646120D01*
X2956792Y41837731D01*
X2976418Y42037000D01*
X2956792Y42236269D01*
X2898667Y42427880D01*
X2898666Y42427882D01*
X2804281Y42604464D01*
X2804280Y42604466D01*
X2804278Y42604469D01*
X2731434Y42693230D01*
X2677252Y42759253D01*
X2596801Y42825276D01*
X2522469Y42886278D01*
X2522465Y42886280D01*
X2522463Y42886282D01*
X2345881Y42980667D01*
X2154271Y43038792D01*
X1955000Y43058418D01*
X1755728Y43038792D01*
X1564118Y42980667D01*
X1387536Y42886282D01*
X1232747Y42759253D01*
X1105718Y42604464D01*
X1011333Y42427882D01*
X953208Y42236272D01*
X933582Y42037000D01*
X300500Y42037000D01*
X300500Y44406500D01*
X320185Y44473539D01*
X372989Y44519294D01*
X424500Y44530500D01*
X64345500Y44530500D01*
X64412539Y44510815D01*
G37*
G04 #@! TD.AperFunction*
G04 #@! TA.AperFunction,Conductor*
G36*
X47747240Y18436501D02*
G01*
X47777019Y18373295D01*
X47778500Y18354188D01*
X47778500Y16235811D01*
X47758815Y16168772D01*
X47742185Y16148134D01*
X47737532Y16143481D01*
X47737527Y16143476D01*
X47737526Y16143474D01*
X47692548Y16084857D01*
X47648643Y16027639D01*
X47592772Y15892755D01*
X47592771Y15892753D01*
X47573715Y15748002D01*
X47573715Y15747999D01*
X47592771Y15603248D01*
X47592773Y15603243D01*
X47648642Y15468362D01*
X47648645Y15468356D01*
X47737525Y15352527D01*
X47737526Y15352526D01*
X47853355Y15263646D01*
X47853361Y15263643D01*
X47910948Y15239790D01*
X47988246Y15207772D01*
X48060623Y15198244D01*
X48132999Y15188715D01*
X48133000Y15188715D01*
X48133001Y15188715D01*
X48181251Y15195068D01*
X48277754Y15207772D01*
X48412643Y15263645D01*
X48528474Y15352526D01*
X48617355Y15468357D01*
X48673228Y15603246D01*
X48674561Y15613374D01*
X48702827Y15677269D01*
X48761151Y15715741D01*
X48831016Y15716573D01*
X48890240Y15679501D01*
X48920019Y15616295D01*
X48921500Y15597188D01*
X48921500Y6500813D01*
X48901815Y6433774D01*
X48849011Y6388019D01*
X48779853Y6378075D01*
X48716297Y6407100D01*
X48678523Y6465878D01*
X48674561Y6484628D01*
X48673228Y6494753D01*
X48673228Y6494754D01*
X48617355Y6629642D01*
X48528474Y6745474D01*
X48412643Y6834355D01*
X48412640Y6834356D01*
X48412638Y6834358D01*
X48277757Y6890227D01*
X48277752Y6890229D01*
X48133001Y6909285D01*
X48132999Y6909285D01*
X47988247Y6890229D01*
X47988245Y6890228D01*
X47853361Y6834357D01*
X47853358Y6834356D01*
X47853358Y6834355D01*
X47737526Y6745474D01*
X47696107Y6691495D01*
X47648643Y6629639D01*
X47592772Y6494755D01*
X47592771Y6494753D01*
X47573715Y6350002D01*
X47573715Y6349999D01*
X47592771Y6205248D01*
X47592773Y6205243D01*
X47648642Y6070362D01*
X47648642Y6070361D01*
X47648644Y6070358D01*
X47648645Y6070357D01*
X47730529Y5963644D01*
X47737530Y5954521D01*
X47742181Y5949870D01*
X47775666Y5888547D01*
X47778500Y5862189D01*
X47778500Y4805811D01*
X47758815Y4738772D01*
X47742185Y4718134D01*
X47737532Y4713481D01*
X47737527Y4713476D01*
X47737526Y4713474D01*
X47674241Y4630999D01*
X47648643Y4597639D01*
X47592772Y4462755D01*
X47592771Y4462753D01*
X47573715Y4318002D01*
X47573715Y4317999D01*
X47592771Y4173248D01*
X47592773Y4173243D01*
X47648642Y4038362D01*
X47648645Y4038356D01*
X47737525Y3922527D01*
X47737526Y3922526D01*
X47853355Y3833646D01*
X47853361Y3833643D01*
X47920801Y3805709D01*
X47988246Y3777772D01*
X48060623Y3768244D01*
X48132999Y3758715D01*
X48133000Y3758715D01*
X48133001Y3758715D01*
X48181251Y3765068D01*
X48277754Y3777772D01*
X48412638Y3833643D01*
X48412639Y3833643D01*
X48412639Y3833644D01*
X48412643Y3833645D01*
X48468014Y3876134D01*
X48533182Y3901327D01*
X48601627Y3887289D01*
X48651617Y3838475D01*
X48667500Y3777757D01*
X48667500Y2484201D01*
X48647815Y2417162D01*
X48631181Y2396520D01*
X48477480Y2242819D01*
X48416157Y2209334D01*
X48389799Y2206500D01*
X46409500Y2206500D01*
X46342461Y2226185D01*
X46296706Y2278989D01*
X46285500Y2330500D01*
X46285500Y4786190D01*
X46305185Y4853229D01*
X46357989Y4898984D01*
X46425684Y4909129D01*
X46446531Y4906385D01*
X46481999Y4901715D01*
X46482000Y4901715D01*
X46482001Y4901715D01*
X46530251Y4908068D01*
X46626754Y4920772D01*
X46761643Y4976645D01*
X46877474Y5065526D01*
X46966355Y5181357D01*
X47022228Y5316246D01*
X47041285Y5461000D01*
X47040518Y5466824D01*
X47022228Y5605753D01*
X47022228Y5605754D01*
X46966355Y5740642D01*
X46877474Y5856474D01*
X46866010Y5865271D01*
X46824809Y5921700D01*
X46817500Y5963644D01*
X46817500Y17827031D01*
X46837185Y17894070D01*
X46889989Y17939825D01*
X46957684Y17949970D01*
X46990000Y17945715D01*
X47134754Y17964772D01*
X47269643Y18020645D01*
X47385474Y18109526D01*
X47474355Y18225357D01*
X47530228Y18360246D01*
X47531561Y18370374D01*
X47559827Y18434269D01*
X47618151Y18472741D01*
X47688016Y18473573D01*
X47747240Y18436501D01*
G37*
G04 #@! TD.AperFunction*
G04 #@! TA.AperFunction,Conductor*
G36*
X62990350Y12982986D02*
G01*
X63038163Y12932038D01*
X63051500Y12876094D01*
X63051500Y9110368D01*
X63031815Y9043329D01*
X62979011Y8997574D01*
X62909853Y8987630D01*
X62848836Y9014514D01*
X62761004Y9086595D01*
X62760998Y9086599D01*
X62585808Y9180240D01*
X62490752Y9209075D01*
X62395701Y9237908D01*
X62395699Y9237909D01*
X62395701Y9237909D01*
X62198000Y9257380D01*
X62000300Y9237909D01*
X61810191Y9180240D01*
X61635001Y9086599D01*
X61634995Y9086595D01*
X61556164Y9021900D01*
X61491854Y8994588D01*
X61422987Y9006379D01*
X61371427Y9053532D01*
X61353500Y9117754D01*
X61353500Y12752221D01*
X61373185Y12819260D01*
X61425989Y12865015D01*
X61495147Y12874959D01*
X61529905Y12864603D01*
X61672466Y12798125D01*
X61672475Y12798122D01*
X61884407Y12741336D01*
X61884417Y12741334D01*
X62102999Y12722210D01*
X62103001Y12722210D01*
X62321582Y12741334D01*
X62321592Y12741336D01*
X62533524Y12798122D01*
X62533533Y12798126D01*
X62732392Y12890855D01*
X62856376Y12977669D01*
X62922583Y12999996D01*
X62990350Y12982986D01*
G37*
G04 #@! TD.AperFunction*
G04 #@! TA.AperFunction,Conductor*
G36*
X63019005Y17834168D02*
G01*
X63049721Y17771413D01*
X63051500Y17750485D01*
X63051500Y15085907D01*
X63031815Y15018868D01*
X62979011Y14973113D01*
X62909853Y14963169D01*
X62856377Y14984332D01*
X62732396Y15071144D01*
X62732394Y15071145D01*
X62533533Y15163875D01*
X62533524Y15163879D01*
X62321592Y15220665D01*
X62321582Y15220667D01*
X62103001Y15239790D01*
X62102999Y15239790D01*
X61884417Y15220667D01*
X61884407Y15220665D01*
X61672475Y15163879D01*
X61672461Y15163874D01*
X61529904Y15097398D01*
X61460827Y15086906D01*
X61397043Y15115426D01*
X61358804Y15173903D01*
X61353500Y15209780D01*
X61353500Y17581208D01*
X61373185Y17648247D01*
X61425989Y17694002D01*
X61495147Y17703946D01*
X61535953Y17690566D01*
X61715191Y17594761D01*
X61715193Y17594761D01*
X61715196Y17594759D01*
X61905299Y17537092D01*
X61905298Y17537092D01*
X61923024Y17535347D01*
X62103000Y17517620D01*
X62300701Y17537092D01*
X62490804Y17594759D01*
X62666004Y17688405D01*
X62819568Y17814432D01*
X62831646Y17829149D01*
X62889391Y17868484D01*
X62959236Y17870355D01*
X63019005Y17834168D01*
G37*
G04 #@! TD.AperFunction*
G04 #@! TA.AperFunction,Conductor*
G36*
X47875000Y24704367D02*
G01*
X48088483Y24761567D01*
X48088492Y24761570D01*
X48250264Y24837006D01*
X48319341Y24847498D01*
X48383125Y24818979D01*
X48421365Y24760502D01*
X48421920Y24690635D01*
X48413681Y24671182D01*
X48413755Y24671151D01*
X48354772Y24528755D01*
X48354771Y24528753D01*
X48335715Y24384002D01*
X48335715Y24383999D01*
X48354771Y24239248D01*
X48354773Y24239243D01*
X48410642Y24104362D01*
X48410642Y24104361D01*
X48410644Y24104358D01*
X48410645Y24104357D01*
X48491464Y23999032D01*
X48499530Y23988521D01*
X48504181Y23983870D01*
X48537666Y23922547D01*
X48540500Y23896189D01*
X48540500Y19648475D01*
X48520815Y19581436D01*
X48468011Y19535681D01*
X48398853Y19525737D01*
X48369048Y19533913D01*
X48339627Y19546099D01*
X48277754Y19571728D01*
X48277751Y19571729D01*
X48277752Y19571729D01*
X48133001Y19590785D01*
X48132999Y19590785D01*
X47988247Y19571729D01*
X47988245Y19571728D01*
X47853361Y19515857D01*
X47853358Y19515856D01*
X47853358Y19515855D01*
X47737526Y19426974D01*
X47650425Y19313461D01*
X47648643Y19311139D01*
X47592772Y19176255D01*
X47592771Y19176253D01*
X47591439Y19166128D01*
X47563172Y19102231D01*
X47504848Y19063760D01*
X47434983Y19062929D01*
X47375760Y19100001D01*
X47345981Y19163207D01*
X47344500Y19182313D01*
X47344500Y21623300D01*
X47364185Y21690339D01*
X47380815Y21710977D01*
X47530734Y21860897D01*
X47592057Y21894381D01*
X47618415Y21897215D01*
X47625001Y21897215D01*
X47676211Y21903957D01*
X47769754Y21916272D01*
X47904643Y21972145D01*
X48020474Y22061026D01*
X48109355Y22176857D01*
X48165228Y22311746D01*
X48183418Y22449917D01*
X48184285Y22456499D01*
X48184285Y22456502D01*
X48165228Y22601253D01*
X48165228Y22601254D01*
X48109355Y22736142D01*
X48081401Y22772573D01*
X48030124Y22839399D01*
X48004930Y22904568D01*
X48004500Y22914885D01*
X48004500Y23435036D01*
X48004501Y23435049D01*
X48004501Y23544961D01*
X48003620Y23548251D01*
X47978638Y23641482D01*
X47961040Y23671962D01*
X47961039Y23671964D01*
X47961039Y23671965D01*
X47928678Y23728016D01*
X47928677Y23728017D01*
X47928676Y23728019D01*
X47858019Y23798676D01*
X47858018Y23798677D01*
X47853688Y23803007D01*
X47853677Y23803017D01*
X47124851Y24531843D01*
X47091366Y24593166D01*
X47096350Y24662858D01*
X47138222Y24718791D01*
X47203686Y24743208D01*
X47244625Y24739299D01*
X47375000Y24704366D01*
X47375000Y25601988D01*
X47432007Y25569075D01*
X47559174Y25535000D01*
X47690826Y25535000D01*
X47817993Y25569075D01*
X47875000Y25601988D01*
X47875000Y24704367D01*
G37*
G04 #@! TD.AperFunction*
G04 #@! TA.AperFunction,Conductor*
G36*
X45335000Y24704367D02*
G01*
X45548483Y24761567D01*
X45548492Y24761571D01*
X45762579Y24861401D01*
X45762581Y24861402D01*
X45780373Y24873860D01*
X45846579Y24896189D01*
X45914347Y24879180D01*
X45962161Y24828233D01*
X45975499Y24772287D01*
X45975499Y24715038D01*
X45989169Y24664019D01*
X46001360Y24618523D01*
X46001363Y24618516D01*
X46051321Y24531985D01*
X46051325Y24531980D01*
X46129046Y24454259D01*
X46129052Y24454254D01*
X47209181Y23374125D01*
X47242666Y23312802D01*
X47245500Y23286444D01*
X47245500Y22914885D01*
X47225815Y22847846D01*
X47219876Y22839399D01*
X47140645Y22736143D01*
X47140643Y22736140D01*
X47084772Y22601255D01*
X47084771Y22601253D01*
X47065715Y22456502D01*
X47065715Y22449917D01*
X47046030Y22382878D01*
X47029396Y22362236D01*
X46772332Y22105171D01*
X46706330Y22039170D01*
X46706328Y22039167D01*
X46659659Y21958333D01*
X46656680Y21947215D01*
X46643283Y21897215D01*
X46635500Y21868170D01*
X46635500Y21706701D01*
X46615815Y21639662D01*
X46563011Y21593907D01*
X46493853Y21583963D01*
X46430297Y21612988D01*
X46423819Y21619020D01*
X45680604Y22362235D01*
X45647119Y22423558D01*
X45644285Y22449916D01*
X45644285Y22456502D01*
X45625228Y22601253D01*
X45625228Y22601254D01*
X45569355Y22736142D01*
X45541401Y22772573D01*
X45490124Y22839399D01*
X45464930Y22904568D01*
X45464500Y22914885D01*
X45464500Y23435036D01*
X45464501Y23435049D01*
X45464501Y23544961D01*
X45463620Y23548251D01*
X45438638Y23641482D01*
X45421040Y23671962D01*
X45421039Y23671964D01*
X45421039Y23671965D01*
X45388678Y23728016D01*
X45388677Y23728017D01*
X45388676Y23728019D01*
X45318019Y23798676D01*
X45318018Y23798677D01*
X45313688Y23803007D01*
X45313677Y23803017D01*
X44584851Y24531843D01*
X44551366Y24593166D01*
X44556350Y24662858D01*
X44598222Y24718791D01*
X44663686Y24743208D01*
X44704625Y24739299D01*
X44835000Y24704366D01*
X44835000Y25601988D01*
X44892007Y25569075D01*
X45019174Y25535000D01*
X45150826Y25535000D01*
X45277993Y25569075D01*
X45335000Y25601988D01*
X45335000Y24704367D01*
G37*
G04 #@! TD.AperFunction*
G04 #@! TA.AperFunction,Conductor*
G36*
X3979075Y26227993D02*
G01*
X3945000Y26100826D01*
X3945000Y25969174D01*
X3979075Y25842007D01*
X4011988Y25785000D01*
X2338012Y25785000D01*
X2370925Y25842007D01*
X2405000Y25969174D01*
X2405000Y26100826D01*
X2370925Y26227993D01*
X2338012Y26285000D01*
X4011988Y26285000D01*
X3979075Y26227993D01*
G37*
G04 #@! TD.AperFunction*
G04 #@! TA.AperFunction,Conductor*
G36*
X6519075Y26227993D02*
G01*
X6485000Y26100826D01*
X6485000Y25969174D01*
X6519075Y25842007D01*
X6551988Y25785000D01*
X4878012Y25785000D01*
X4910925Y25842007D01*
X4945000Y25969174D01*
X4945000Y26100826D01*
X4910925Y26227993D01*
X4878012Y26285000D01*
X6551988Y26285000D01*
X6519075Y26227993D01*
G37*
G04 #@! TD.AperFunction*
G04 #@! TA.AperFunction,Conductor*
G36*
X9059075Y26227993D02*
G01*
X9025000Y26100826D01*
X9025000Y25969174D01*
X9059075Y25842007D01*
X9091988Y25785000D01*
X7418012Y25785000D01*
X7450925Y25842007D01*
X7485000Y25969174D01*
X7485000Y26100826D01*
X7450925Y26227993D01*
X7418012Y26285000D01*
X9091988Y26285000D01*
X9059075Y26227993D01*
G37*
G04 #@! TD.AperFunction*
G04 #@! TA.AperFunction,Conductor*
G36*
X11599075Y26227993D02*
G01*
X11565000Y26100826D01*
X11565000Y25969174D01*
X11599075Y25842007D01*
X11631988Y25785000D01*
X9958012Y25785000D01*
X9990925Y25842007D01*
X10025000Y25969174D01*
X10025000Y26100826D01*
X9990925Y26227993D01*
X9958012Y26285000D01*
X11631988Y26285000D01*
X11599075Y26227993D01*
G37*
G04 #@! TD.AperFunction*
G04 #@! TA.AperFunction,Conductor*
G36*
X12873539Y26265315D02*
G01*
X12919294Y26212511D01*
X12930500Y26161000D01*
X12930500Y25909000D01*
X12910815Y25841961D01*
X12858011Y25796206D01*
X12806500Y25785000D01*
X12498012Y25785000D01*
X12530925Y25842007D01*
X12565000Y25969174D01*
X12565000Y26100826D01*
X12530925Y26227993D01*
X12498012Y26285000D01*
X12806500Y26285000D01*
X12873539Y26265315D01*
G37*
G04 #@! TD.AperFunction*
G04 #@! TA.AperFunction,Conductor*
G36*
X14139075Y26227993D02*
G01*
X14105000Y26100826D01*
X14105000Y25969174D01*
X14139075Y25842007D01*
X14171988Y25785000D01*
X13863500Y25785000D01*
X13796461Y25804685D01*
X13750706Y25857489D01*
X13739500Y25909000D01*
X13739500Y26161000D01*
X13759185Y26228039D01*
X13811989Y26273794D01*
X13863500Y26285000D01*
X14171988Y26285000D01*
X14139075Y26227993D01*
G37*
G04 #@! TD.AperFunction*
G04 #@! TA.AperFunction,Conductor*
G36*
X15393539Y26265315D02*
G01*
X15439294Y26212511D01*
X15450500Y26161000D01*
X15450500Y25909000D01*
X15430815Y25841961D01*
X15378011Y25796206D01*
X15326500Y25785000D01*
X15038012Y25785000D01*
X15070925Y25842007D01*
X15105000Y25969174D01*
X15105000Y26100826D01*
X15070925Y26227993D01*
X15038012Y26285000D01*
X15326500Y26285000D01*
X15393539Y26265315D01*
G37*
G04 #@! TD.AperFunction*
G04 #@! TA.AperFunction,Conductor*
G36*
X16679075Y26227993D02*
G01*
X16645000Y26100826D01*
X16645000Y25969174D01*
X16679075Y25842007D01*
X16711988Y25785000D01*
X16383500Y25785000D01*
X16316461Y25804685D01*
X16270706Y25857489D01*
X16259500Y25909000D01*
X16259500Y26161000D01*
X16279185Y26228039D01*
X16331989Y26273794D01*
X16383500Y26285000D01*
X16711988Y26285000D01*
X16679075Y26227993D01*
G37*
G04 #@! TD.AperFunction*
G04 #@! TA.AperFunction,Conductor*
G36*
X17953539Y26265315D02*
G01*
X17999294Y26212511D01*
X18010500Y26161000D01*
X18010500Y25909000D01*
X17990815Y25841961D01*
X17938011Y25796206D01*
X17886500Y25785000D01*
X17578012Y25785000D01*
X17610925Y25842007D01*
X17645000Y25969174D01*
X17645000Y26100826D01*
X17610925Y26227993D01*
X17578012Y26285000D01*
X17886500Y26285000D01*
X17953539Y26265315D01*
G37*
G04 #@! TD.AperFunction*
G04 #@! TA.AperFunction,Conductor*
G36*
X19219075Y26227993D02*
G01*
X19185000Y26100826D01*
X19185000Y25969174D01*
X19219075Y25842007D01*
X19251988Y25785000D01*
X18943500Y25785000D01*
X18876461Y25804685D01*
X18830706Y25857489D01*
X18819500Y25909000D01*
X18819500Y26161000D01*
X18839185Y26228039D01*
X18891989Y26273794D01*
X18943500Y26285000D01*
X19251988Y26285000D01*
X19219075Y26227993D01*
G37*
G04 #@! TD.AperFunction*
G04 #@! TA.AperFunction,Conductor*
G36*
X20493539Y26265315D02*
G01*
X20539294Y26212511D01*
X20550500Y26161000D01*
X20550500Y25909000D01*
X20530815Y25841961D01*
X20478011Y25796206D01*
X20426500Y25785000D01*
X20118012Y25785000D01*
X20150925Y25842007D01*
X20185000Y25969174D01*
X20185000Y26100826D01*
X20150925Y26227993D01*
X20118012Y26285000D01*
X20426500Y26285000D01*
X20493539Y26265315D01*
G37*
G04 #@! TD.AperFunction*
G04 #@! TA.AperFunction,Conductor*
G36*
X21759075Y26227993D02*
G01*
X21725000Y26100826D01*
X21725000Y25969174D01*
X21759075Y25842007D01*
X21791988Y25785000D01*
X21483500Y25785000D01*
X21416461Y25804685D01*
X21370706Y25857489D01*
X21359500Y25909000D01*
X21359500Y26161000D01*
X21379185Y26228039D01*
X21431989Y26273794D01*
X21483500Y26285000D01*
X21791988Y26285000D01*
X21759075Y26227993D01*
G37*
G04 #@! TD.AperFunction*
G04 #@! TA.AperFunction,Conductor*
G36*
X23033539Y26265315D02*
G01*
X23079294Y26212511D01*
X23090500Y26161000D01*
X23090500Y25909000D01*
X23070815Y25841961D01*
X23018011Y25796206D01*
X22966500Y25785000D01*
X22658012Y25785000D01*
X22690925Y25842007D01*
X22725000Y25969174D01*
X22725000Y26100826D01*
X22690925Y26227993D01*
X22658012Y26285000D01*
X22966500Y26285000D01*
X23033539Y26265315D01*
G37*
G04 #@! TD.AperFunction*
G04 #@! TA.AperFunction,Conductor*
G36*
X24299075Y26227993D02*
G01*
X24265000Y26100826D01*
X24265000Y25969174D01*
X24299075Y25842007D01*
X24331988Y25785000D01*
X24023500Y25785000D01*
X23956461Y25804685D01*
X23910706Y25857489D01*
X23899500Y25909000D01*
X23899500Y26161000D01*
X23919185Y26228039D01*
X23971989Y26273794D01*
X24023500Y26285000D01*
X24331988Y26285000D01*
X24299075Y26227993D01*
G37*
G04 #@! TD.AperFunction*
G04 #@! TA.AperFunction,Conductor*
G36*
X25573539Y26265315D02*
G01*
X25619294Y26212511D01*
X25630500Y26161000D01*
X25630500Y25909000D01*
X25610815Y25841961D01*
X25558011Y25796206D01*
X25506500Y25785000D01*
X25198012Y25785000D01*
X25230925Y25842007D01*
X25265000Y25969174D01*
X25265000Y26100826D01*
X25230925Y26227993D01*
X25198012Y26285000D01*
X25506500Y26285000D01*
X25573539Y26265315D01*
G37*
G04 #@! TD.AperFunction*
G04 #@! TA.AperFunction,Conductor*
G36*
X26839075Y26227993D02*
G01*
X26805000Y26100826D01*
X26805000Y25969174D01*
X26839075Y25842007D01*
X26871988Y25785000D01*
X26563500Y25785000D01*
X26496461Y25804685D01*
X26450706Y25857489D01*
X26439500Y25909000D01*
X26439500Y26161000D01*
X26459185Y26228039D01*
X26511989Y26273794D01*
X26563500Y26285000D01*
X26871988Y26285000D01*
X26839075Y26227993D01*
G37*
G04 #@! TD.AperFunction*
G04 #@! TA.AperFunction,Conductor*
G36*
X29379075Y26227993D02*
G01*
X29345000Y26100826D01*
X29345000Y25969174D01*
X29379075Y25842007D01*
X29411988Y25785000D01*
X27738012Y25785000D01*
X27770925Y25842007D01*
X27805000Y25969174D01*
X27805000Y26100826D01*
X27770925Y26227993D01*
X27738012Y26285000D01*
X29411988Y26285000D01*
X29379075Y26227993D01*
G37*
G04 #@! TD.AperFunction*
G04 #@! TA.AperFunction,Conductor*
G36*
X31919075Y26227993D02*
G01*
X31885000Y26100826D01*
X31885000Y25969174D01*
X31919075Y25842007D01*
X31951988Y25785000D01*
X30278012Y25785000D01*
X30310925Y25842007D01*
X30345000Y25969174D01*
X30345000Y26100826D01*
X30310925Y26227993D01*
X30278012Y26285000D01*
X31951988Y26285000D01*
X31919075Y26227993D01*
G37*
G04 #@! TD.AperFunction*
G04 #@! TA.AperFunction,Conductor*
G36*
X34459075Y26227993D02*
G01*
X34425000Y26100826D01*
X34425000Y25969174D01*
X34459075Y25842007D01*
X34491988Y25785000D01*
X32818012Y25785000D01*
X32850925Y25842007D01*
X32885000Y25969174D01*
X32885000Y26100826D01*
X32850925Y26227993D01*
X32818012Y26285000D01*
X34491988Y26285000D01*
X34459075Y26227993D01*
G37*
G04 #@! TD.AperFunction*
G04 #@! TA.AperFunction,Conductor*
G36*
X36999075Y26227993D02*
G01*
X36965000Y26100826D01*
X36965000Y25969174D01*
X36999075Y25842007D01*
X37031988Y25785000D01*
X35358012Y25785000D01*
X35390925Y25842007D01*
X35425000Y25969174D01*
X35425000Y26100826D01*
X35390925Y26227993D01*
X35358012Y26285000D01*
X37031988Y26285000D01*
X36999075Y26227993D01*
G37*
G04 #@! TD.AperFunction*
G04 #@! TA.AperFunction,Conductor*
G36*
X39539075Y26227993D02*
G01*
X39505000Y26100826D01*
X39505000Y25969174D01*
X39539075Y25842007D01*
X39571988Y25785000D01*
X37898012Y25785000D01*
X37930925Y25842007D01*
X37965000Y25969174D01*
X37965000Y26100826D01*
X37930925Y26227993D01*
X37898012Y26285000D01*
X39571988Y26285000D01*
X39539075Y26227993D01*
G37*
G04 #@! TD.AperFunction*
G04 #@! TA.AperFunction,Conductor*
G36*
X40838539Y26265315D02*
G01*
X40884294Y26212511D01*
X40895500Y26161000D01*
X40895500Y25909000D01*
X40875815Y25841961D01*
X40823011Y25796206D01*
X40771500Y25785000D01*
X40438012Y25785000D01*
X40470925Y25842007D01*
X40505000Y25969174D01*
X40505000Y26100826D01*
X40470925Y26227993D01*
X40438012Y26285000D01*
X40771500Y26285000D01*
X40838539Y26265315D01*
G37*
G04 #@! TD.AperFunction*
G04 #@! TA.AperFunction,Conductor*
G36*
X42079075Y26227993D02*
G01*
X42045000Y26100826D01*
X42045000Y25969174D01*
X42079075Y25842007D01*
X42111988Y25785000D01*
X41778500Y25785000D01*
X41711461Y25804685D01*
X41665706Y25857489D01*
X41654500Y25909000D01*
X41654500Y26161000D01*
X41674185Y26228039D01*
X41726989Y26273794D01*
X41778500Y26285000D01*
X42111988Y26285000D01*
X42079075Y26227993D01*
G37*
G04 #@! TD.AperFunction*
G04 #@! TA.AperFunction,Conductor*
G36*
X43378539Y26265315D02*
G01*
X43424294Y26212511D01*
X43435500Y26161000D01*
X43435500Y25909000D01*
X43415815Y25841961D01*
X43363011Y25796206D01*
X43311500Y25785000D01*
X42978012Y25785000D01*
X43010925Y25842007D01*
X43045000Y25969174D01*
X43045000Y26100826D01*
X43010925Y26227993D01*
X42978012Y26285000D01*
X43311500Y26285000D01*
X43378539Y26265315D01*
G37*
G04 #@! TD.AperFunction*
G04 #@! TA.AperFunction,Conductor*
G36*
X44619075Y26227993D02*
G01*
X44585000Y26100826D01*
X44585000Y25969174D01*
X44619075Y25842007D01*
X44651988Y25785000D01*
X44318500Y25785000D01*
X44251461Y25804685D01*
X44205706Y25857489D01*
X44194500Y25909000D01*
X44194500Y26161000D01*
X44214185Y26228039D01*
X44266989Y26273794D01*
X44318500Y26285000D01*
X44651988Y26285000D01*
X44619075Y26227993D01*
G37*
G04 #@! TD.AperFunction*
G04 #@! TA.AperFunction,Conductor*
G36*
X45918539Y26265315D02*
G01*
X45964294Y26212511D01*
X45975500Y26161000D01*
X45975500Y25909000D01*
X45955815Y25841961D01*
X45903011Y25796206D01*
X45851500Y25785000D01*
X45518012Y25785000D01*
X45550925Y25842007D01*
X45585000Y25969174D01*
X45585000Y26100826D01*
X45550925Y26227993D01*
X45518012Y26285000D01*
X45851500Y26285000D01*
X45918539Y26265315D01*
G37*
G04 #@! TD.AperFunction*
G04 #@! TA.AperFunction,Conductor*
G36*
X47159075Y26227993D02*
G01*
X47125000Y26100826D01*
X47125000Y25969174D01*
X47159075Y25842007D01*
X47191988Y25785000D01*
X46858500Y25785000D01*
X46791461Y25804685D01*
X46745706Y25857489D01*
X46734500Y25909000D01*
X46734500Y26161000D01*
X46754185Y26228039D01*
X46806989Y26273794D01*
X46858500Y26285000D01*
X47191988Y26285000D01*
X47159075Y26227993D01*
G37*
G04 #@! TD.AperFunction*
G04 #@! TA.AperFunction,Conductor*
G36*
X48458539Y26265315D02*
G01*
X48504294Y26212511D01*
X48515500Y26161000D01*
X48515500Y25909000D01*
X48495815Y25841961D01*
X48443011Y25796206D01*
X48391500Y25785000D01*
X48058012Y25785000D01*
X48090925Y25842007D01*
X48125000Y25969174D01*
X48125000Y26100826D01*
X48090925Y26227993D01*
X48058012Y26285000D01*
X48391500Y26285000D01*
X48458539Y26265315D01*
G37*
G04 #@! TD.AperFunction*
G04 #@! TA.AperFunction,Conductor*
G36*
X49699075Y26227993D02*
G01*
X49665000Y26100826D01*
X49665000Y25969174D01*
X49699075Y25842007D01*
X49731988Y25785000D01*
X49398500Y25785000D01*
X49331461Y25804685D01*
X49285706Y25857489D01*
X49274500Y25909000D01*
X49274500Y26161000D01*
X49294185Y26228039D01*
X49346989Y26273794D01*
X49398500Y26285000D01*
X49731988Y26285000D01*
X49699075Y26227993D01*
G37*
G04 #@! TD.AperFunction*
G04 #@! TA.AperFunction,Conductor*
G36*
X50998539Y26265315D02*
G01*
X51044294Y26212511D01*
X51055500Y26161000D01*
X51055500Y25909000D01*
X51035815Y25841961D01*
X50983011Y25796206D01*
X50931500Y25785000D01*
X50598012Y25785000D01*
X50630925Y25842007D01*
X50665000Y25969174D01*
X50665000Y26100826D01*
X50630925Y26227993D01*
X50598012Y26285000D01*
X50931500Y26285000D01*
X50998539Y26265315D01*
G37*
G04 #@! TD.AperFunction*
G04 #@! TA.AperFunction,Conductor*
G36*
X52239075Y26227993D02*
G01*
X52205000Y26100826D01*
X52205000Y25969174D01*
X52239075Y25842007D01*
X52271988Y25785000D01*
X51938500Y25785000D01*
X51871461Y25804685D01*
X51825706Y25857489D01*
X51814500Y25909000D01*
X51814500Y26161000D01*
X51834185Y26228039D01*
X51886989Y26273794D01*
X51938500Y26285000D01*
X52271988Y26285000D01*
X52239075Y26227993D01*
G37*
G04 #@! TD.AperFunction*
G04 #@! TA.AperFunction,Conductor*
G36*
X53538539Y26265315D02*
G01*
X53584294Y26212511D01*
X53595500Y26161000D01*
X53595500Y25909000D01*
X53575815Y25841961D01*
X53523011Y25796206D01*
X53471500Y25785000D01*
X53138012Y25785000D01*
X53170925Y25842007D01*
X53205000Y25969174D01*
X53205000Y26100826D01*
X53170925Y26227993D01*
X53138012Y26285000D01*
X53471500Y26285000D01*
X53538539Y26265315D01*
G37*
G04 #@! TD.AperFunction*
G04 #@! TA.AperFunction,Conductor*
G36*
X54779075Y26227993D02*
G01*
X54745000Y26100826D01*
X54745000Y25969174D01*
X54779075Y25842007D01*
X54811988Y25785000D01*
X54478500Y25785000D01*
X54411461Y25804685D01*
X54365706Y25857489D01*
X54354500Y25909000D01*
X54354500Y26161000D01*
X54374185Y26228039D01*
X54426989Y26273794D01*
X54478500Y26285000D01*
X54811988Y26285000D01*
X54779075Y26227993D01*
G37*
G04 #@! TD.AperFunction*
G04 #@! TA.AperFunction,Conductor*
G36*
X56058539Y26265315D02*
G01*
X56104294Y26212511D01*
X56115500Y26161000D01*
X56115500Y25909000D01*
X56095815Y25841961D01*
X56043011Y25796206D01*
X55991500Y25785000D01*
X55678012Y25785000D01*
X55710925Y25842007D01*
X55745000Y25969174D01*
X55745000Y26100826D01*
X55710925Y26227993D01*
X55678012Y26285000D01*
X55991500Y26285000D01*
X56058539Y26265315D01*
G37*
G04 #@! TD.AperFunction*
G04 #@! TA.AperFunction,Conductor*
G36*
X57319075Y26227993D02*
G01*
X57285000Y26100826D01*
X57285000Y25969174D01*
X57319075Y25842007D01*
X57351988Y25785000D01*
X56998500Y25785000D01*
X56931461Y25804685D01*
X56885706Y25857489D01*
X56874500Y25909000D01*
X56874500Y26161000D01*
X56894185Y26228039D01*
X56946989Y26273794D01*
X56998500Y26285000D01*
X57351988Y26285000D01*
X57319075Y26227993D01*
G37*
G04 #@! TD.AperFunction*
G04 #@! TA.AperFunction,Conductor*
G36*
X59859075Y26227993D02*
G01*
X59825000Y26100826D01*
X59825000Y25969174D01*
X59859075Y25842007D01*
X59891988Y25785000D01*
X58218012Y25785000D01*
X58250925Y25842007D01*
X58285000Y25969174D01*
X58285000Y26100826D01*
X58250925Y26227993D01*
X58218012Y26285000D01*
X59891988Y26285000D01*
X59859075Y26227993D01*
G37*
G04 #@! TD.AperFunction*
G04 #@! TA.AperFunction,Conductor*
G36*
X62399075Y26227993D02*
G01*
X62365000Y26100826D01*
X62365000Y25969174D01*
X62399075Y25842007D01*
X62431988Y25785000D01*
X60758012Y25785000D01*
X60790925Y25842007D01*
X60825000Y25969174D01*
X60825000Y26100826D01*
X60790925Y26227993D01*
X60758012Y26285000D01*
X62431988Y26285000D01*
X62399075Y26227993D01*
G37*
G04 #@! TD.AperFunction*
G04 #@! TA.AperFunction,Conductor*
G36*
X40498483Y41510815D02*
G01*
X40519125Y41494181D01*
X40592181Y41421125D01*
X40625666Y41359802D01*
X40628500Y41333444D01*
X40628500Y40217556D01*
X40608815Y40150517D01*
X40556011Y40104762D01*
X40486853Y40094818D01*
X40423297Y40123843D01*
X40416819Y40129875D01*
X39962473Y40584221D01*
X39928988Y40645544D01*
X39927217Y40655702D01*
X39910228Y40784754D01*
X39854355Y40919642D01*
X39765474Y41035474D01*
X39649643Y41124355D01*
X39649640Y41124356D01*
X39649638Y41124358D01*
X39514757Y41180227D01*
X39514752Y41180229D01*
X39370001Y41199285D01*
X39369999Y41199285D01*
X39225247Y41180229D01*
X39225245Y41180228D01*
X39090361Y41124357D01*
X39090358Y41124356D01*
X39090358Y41124355D01*
X38974526Y41035474D01*
X38931999Y40980051D01*
X38885643Y40919639D01*
X38829772Y40784755D01*
X38829771Y40784753D01*
X38810715Y40640002D01*
X38810715Y40639999D01*
X38829771Y40495248D01*
X38829773Y40495243D01*
X38885642Y40360362D01*
X38885645Y40360356D01*
X38974525Y40244527D01*
X38974526Y40244526D01*
X39090355Y40155646D01*
X39090361Y40155643D01*
X39152571Y40129875D01*
X39225246Y40099772D01*
X39354284Y40082784D01*
X39418179Y40054519D01*
X39425779Y40047527D01*
X40204983Y39268323D01*
X40204993Y39268312D01*
X40209323Y39263982D01*
X40209324Y39263981D01*
X40279981Y39193324D01*
X40366518Y39143362D01*
X40366517Y39143362D01*
X40375797Y39140876D01*
X40386915Y39137897D01*
X40463038Y39117499D01*
X40463039Y39117499D01*
X40570558Y39117499D01*
X40570574Y39117500D01*
X59481444Y39117500D01*
X59548483Y39097815D01*
X59569125Y39081181D01*
X60259181Y38391125D01*
X60292666Y38329802D01*
X60295500Y38303444D01*
X60295500Y33478385D01*
X60275815Y33411346D01*
X60269875Y33402898D01*
X60223374Y33342298D01*
X60166946Y33301095D01*
X60097200Y33296941D01*
X60036280Y33331154D01*
X60026630Y33342289D01*
X59970474Y33415474D01*
X59854643Y33504355D01*
X59854640Y33504356D01*
X59854638Y33504358D01*
X59719757Y33560227D01*
X59719752Y33560229D01*
X59575001Y33579285D01*
X59574999Y33579285D01*
X59430247Y33560229D01*
X59430245Y33560228D01*
X59295361Y33504357D01*
X59295358Y33504356D01*
X59295358Y33504355D01*
X59179526Y33415474D01*
X59106191Y33319901D01*
X59090643Y33299639D01*
X59034772Y33164755D01*
X59034771Y33164753D01*
X59015715Y33020002D01*
X59015715Y33019999D01*
X59034771Y32875248D01*
X59034773Y32875243D01*
X59090642Y32740362D01*
X59090645Y32740356D01*
X59179525Y32624527D01*
X59179526Y32624526D01*
X59295355Y32535646D01*
X59295361Y32535643D01*
X59362801Y32507709D01*
X59430246Y32479772D01*
X59559284Y32462784D01*
X59623179Y32434519D01*
X59630779Y32427527D01*
X60028983Y32029323D01*
X60028993Y32029312D01*
X60033323Y32024982D01*
X60033324Y32024981D01*
X60103981Y31954324D01*
X60190518Y31904362D01*
X60190517Y31904362D01*
X60199797Y31901876D01*
X60210915Y31898897D01*
X60287038Y31878499D01*
X60287039Y31878499D01*
X60394558Y31878499D01*
X60394574Y31878500D01*
X61005444Y31878500D01*
X61072483Y31858815D01*
X61093125Y31842181D01*
X63044125Y29891181D01*
X63077610Y29829858D01*
X63072626Y29760166D01*
X63030754Y29704233D01*
X62965290Y29679816D01*
X62956444Y29679500D01*
X62762653Y29679500D01*
X62561444Y29641888D01*
X62561441Y29641888D01*
X62561441Y29641887D01*
X62370575Y29567946D01*
X62370569Y29567943D01*
X62196539Y29460188D01*
X62196537Y29460186D01*
X62045269Y29322288D01*
X61921912Y29158936D01*
X61830673Y28975705D01*
X61774654Y28778817D01*
X61755768Y28575001D01*
X61755768Y28575000D01*
X61774654Y28371184D01*
X61830673Y28174296D01*
X61921912Y27991065D01*
X62045269Y27827713D01*
X62196537Y27689815D01*
X62196539Y27689813D01*
X62370569Y27582058D01*
X62370571Y27582057D01*
X62370573Y27582056D01*
X62421313Y27562399D01*
X62446737Y27552550D01*
X62502139Y27509977D01*
X62525730Y27444211D01*
X62510019Y27376130D01*
X62459996Y27327351D01*
X62434040Y27317149D01*
X62401519Y27308435D01*
X62401507Y27308430D01*
X62187422Y27208601D01*
X62187420Y27208600D01*
X61993926Y27073114D01*
X61993920Y27073109D01*
X61826891Y26906080D01*
X61826890Y26906078D01*
X61696575Y26719969D01*
X61641998Y26676345D01*
X61572499Y26669152D01*
X61510145Y26700674D01*
X61493425Y26719969D01*
X61363109Y26906078D01*
X61363108Y26906080D01*
X61196082Y27073106D01*
X61002578Y27208601D01*
X60788492Y27308430D01*
X60788477Y27308436D01*
X60755960Y27317149D01*
X60696300Y27353514D01*
X60665772Y27416362D01*
X60674067Y27485737D01*
X60718553Y27539614D01*
X60743257Y27552548D01*
X60819427Y27582056D01*
X60993462Y27689814D01*
X61144732Y27827715D01*
X61268088Y27991065D01*
X61359328Y28174299D01*
X61415345Y28371179D01*
X61434232Y28575000D01*
X61415345Y28778821D01*
X61359328Y28975701D01*
X61268088Y29158935D01*
X61208904Y29237307D01*
X61144730Y29322288D01*
X60993462Y29460186D01*
X60993460Y29460188D01*
X60819430Y29567943D01*
X60819424Y29567946D01*
X60644428Y29635739D01*
X60628556Y29641888D01*
X60427347Y29679500D01*
X60222653Y29679500D01*
X60021444Y29641888D01*
X60021441Y29641888D01*
X60021441Y29641887D01*
X59830575Y29567946D01*
X59830569Y29567943D01*
X59656539Y29460188D01*
X59656537Y29460186D01*
X59505269Y29322288D01*
X59381912Y29158936D01*
X59290673Y28975705D01*
X59234654Y28778817D01*
X59215768Y28575001D01*
X59215768Y28575000D01*
X59234654Y28371184D01*
X59290673Y28174296D01*
X59381912Y27991065D01*
X59505269Y27827713D01*
X59656537Y27689815D01*
X59656539Y27689813D01*
X59830569Y27582058D01*
X59830571Y27582057D01*
X59830573Y27582056D01*
X59881313Y27562399D01*
X59906737Y27552550D01*
X59962139Y27509977D01*
X59985730Y27444211D01*
X59970019Y27376130D01*
X59919996Y27327351D01*
X59894040Y27317149D01*
X59861519Y27308435D01*
X59861507Y27308430D01*
X59647422Y27208601D01*
X59647420Y27208600D01*
X59453926Y27073114D01*
X59453920Y27073109D01*
X59286891Y26906080D01*
X59286890Y26906078D01*
X59156575Y26719969D01*
X59101998Y26676345D01*
X59032499Y26669152D01*
X58970145Y26700674D01*
X58953425Y26719969D01*
X58823109Y26906078D01*
X58823108Y26906080D01*
X58656082Y27073106D01*
X58462578Y27208601D01*
X58248492Y27308430D01*
X58248477Y27308436D01*
X58215960Y27317149D01*
X58156300Y27353514D01*
X58125772Y27416362D01*
X58134067Y27485737D01*
X58178553Y27539614D01*
X58203257Y27552548D01*
X58279427Y27582056D01*
X58453462Y27689814D01*
X58604732Y27827715D01*
X58728088Y27991065D01*
X58819328Y28174299D01*
X58875345Y28371179D01*
X58894232Y28575000D01*
X58875345Y28778821D01*
X58819328Y28975701D01*
X58728088Y29158935D01*
X58668904Y29237307D01*
X58604730Y29322288D01*
X58453462Y29460186D01*
X58453460Y29460188D01*
X58279430Y29567943D01*
X58279424Y29567946D01*
X58104428Y29635739D01*
X58088556Y29641888D01*
X57887347Y29679500D01*
X57682653Y29679500D01*
X57481444Y29641888D01*
X57481441Y29641888D01*
X57481441Y29641887D01*
X57290575Y29567946D01*
X57290569Y29567943D01*
X57116539Y29460188D01*
X57116537Y29460186D01*
X56965269Y29322288D01*
X56841912Y29158936D01*
X56750673Y28975705D01*
X56694654Y28778817D01*
X56675768Y28575001D01*
X56675768Y28575000D01*
X56694654Y28371184D01*
X56752201Y28168926D01*
X56751613Y28099059D01*
X56720615Y28047311D01*
X56261983Y27588678D01*
X56191325Y27518021D01*
X56191321Y27518016D01*
X56141361Y27431483D01*
X56141362Y27431483D01*
X56141362Y27431482D01*
X56115499Y27334961D01*
X56115499Y27311718D01*
X56095814Y27244679D01*
X56043010Y27198924D01*
X55973852Y27188980D01*
X55927986Y27207131D01*
X55927271Y27205891D01*
X55922579Y27208600D01*
X55708492Y27308430D01*
X55708477Y27308436D01*
X55675960Y27317149D01*
X55616300Y27353514D01*
X55585772Y27416362D01*
X55594067Y27485737D01*
X55638553Y27539614D01*
X55663257Y27552548D01*
X55739427Y27582056D01*
X55913462Y27689814D01*
X56064732Y27827715D01*
X56188088Y27991065D01*
X56279328Y28174299D01*
X56335345Y28371179D01*
X56354232Y28575000D01*
X56335345Y28778821D01*
X56279328Y28975701D01*
X56188088Y29158935D01*
X56128904Y29237307D01*
X56064730Y29322288D01*
X55913462Y29460186D01*
X55913460Y29460188D01*
X55739430Y29567943D01*
X55739424Y29567946D01*
X55564428Y29635739D01*
X55548556Y29641888D01*
X55347347Y29679500D01*
X55142653Y29679500D01*
X54941444Y29641888D01*
X54941441Y29641888D01*
X54941441Y29641887D01*
X54750575Y29567946D01*
X54750569Y29567943D01*
X54576539Y29460188D01*
X54576537Y29460186D01*
X54425269Y29322288D01*
X54301912Y29158936D01*
X54210673Y28975705D01*
X54154654Y28778817D01*
X54135768Y28575001D01*
X54135768Y28575000D01*
X54154654Y28371184D01*
X54212201Y28168926D01*
X54211613Y28099059D01*
X54180615Y28047311D01*
X53741983Y27608678D01*
X53671325Y27538021D01*
X53671321Y27538016D01*
X53621361Y27451483D01*
X53621362Y27451483D01*
X53621362Y27451482D01*
X53595499Y27354961D01*
X53595499Y27297714D01*
X53575814Y27230675D01*
X53523010Y27184920D01*
X53453852Y27174976D01*
X53400376Y27196138D01*
X53382577Y27208601D01*
X53168492Y27308430D01*
X53168477Y27308436D01*
X53135960Y27317149D01*
X53076300Y27353514D01*
X53045772Y27416362D01*
X53054067Y27485737D01*
X53098553Y27539614D01*
X53123257Y27552548D01*
X53199427Y27582056D01*
X53373462Y27689814D01*
X53524732Y27827715D01*
X53648088Y27991065D01*
X53739328Y28174299D01*
X53795345Y28371179D01*
X53814232Y28575000D01*
X53795345Y28778821D01*
X53739328Y28975701D01*
X53648088Y29158935D01*
X53588904Y29237307D01*
X53524730Y29322288D01*
X53373462Y29460186D01*
X53373460Y29460188D01*
X53199430Y29567943D01*
X53199424Y29567946D01*
X53024428Y29635739D01*
X53008556Y29641888D01*
X52807347Y29679500D01*
X52602653Y29679500D01*
X52401444Y29641888D01*
X52401441Y29641888D01*
X52401441Y29641887D01*
X52210575Y29567946D01*
X52210569Y29567943D01*
X52036539Y29460188D01*
X52036537Y29460186D01*
X51885269Y29322288D01*
X51761912Y29158936D01*
X51670673Y28975705D01*
X51614654Y28778817D01*
X51595768Y28575001D01*
X51595768Y28575000D01*
X51614654Y28371184D01*
X51672201Y28168926D01*
X51671613Y28099059D01*
X51640615Y28047311D01*
X51201983Y27608678D01*
X51131325Y27538021D01*
X51131321Y27538016D01*
X51081361Y27451483D01*
X51081362Y27451483D01*
X51081362Y27451482D01*
X51055499Y27354961D01*
X51055499Y27297714D01*
X51035814Y27230675D01*
X50983010Y27184920D01*
X50913852Y27174976D01*
X50860376Y27196138D01*
X50842577Y27208601D01*
X50628492Y27308430D01*
X50628477Y27308436D01*
X50595960Y27317149D01*
X50536300Y27353514D01*
X50505772Y27416362D01*
X50514067Y27485737D01*
X50558553Y27539614D01*
X50583257Y27552548D01*
X50659427Y27582056D01*
X50833462Y27689814D01*
X50984732Y27827715D01*
X51108088Y27991065D01*
X51199328Y28174299D01*
X51255345Y28371179D01*
X51274232Y28575000D01*
X51255345Y28778821D01*
X51199328Y28975701D01*
X51108088Y29158935D01*
X51048904Y29237307D01*
X50984730Y29322288D01*
X50833462Y29460186D01*
X50833460Y29460188D01*
X50659430Y29567943D01*
X50659424Y29567946D01*
X50484428Y29635739D01*
X50468556Y29641888D01*
X50267347Y29679500D01*
X50062653Y29679500D01*
X49861444Y29641888D01*
X49861441Y29641888D01*
X49861441Y29641887D01*
X49670575Y29567946D01*
X49670569Y29567943D01*
X49496539Y29460188D01*
X49496537Y29460186D01*
X49345269Y29322288D01*
X49221912Y29158936D01*
X49130673Y28975705D01*
X49074654Y28778817D01*
X49055768Y28575001D01*
X49055768Y28575000D01*
X49074654Y28371184D01*
X49132201Y28168926D01*
X49131613Y28099059D01*
X49100615Y28047311D01*
X48661983Y27608678D01*
X48591325Y27538021D01*
X48591321Y27538016D01*
X48541361Y27451483D01*
X48541362Y27451483D01*
X48541362Y27451482D01*
X48515499Y27354961D01*
X48515499Y27297714D01*
X48495814Y27230675D01*
X48443010Y27184920D01*
X48373852Y27174976D01*
X48320376Y27196138D01*
X48302577Y27208601D01*
X48088492Y27308430D01*
X48088477Y27308436D01*
X48055960Y27317149D01*
X47996300Y27353514D01*
X47965772Y27416362D01*
X47974067Y27485737D01*
X48018553Y27539614D01*
X48043257Y27552548D01*
X48119427Y27582056D01*
X48293462Y27689814D01*
X48444732Y27827715D01*
X48568088Y27991065D01*
X48659328Y28174299D01*
X48715345Y28371179D01*
X48734232Y28575000D01*
X48715345Y28778821D01*
X48659328Y28975701D01*
X48568088Y29158935D01*
X48508904Y29237307D01*
X48444730Y29322288D01*
X48293462Y29460186D01*
X48293460Y29460188D01*
X48119430Y29567943D01*
X48119424Y29567946D01*
X47944428Y29635739D01*
X47928556Y29641888D01*
X47727347Y29679500D01*
X47522653Y29679500D01*
X47321444Y29641888D01*
X47321441Y29641888D01*
X47321441Y29641887D01*
X47130575Y29567946D01*
X47130569Y29567943D01*
X46956539Y29460188D01*
X46956537Y29460186D01*
X46805269Y29322288D01*
X46681912Y29158936D01*
X46590673Y28975705D01*
X46534654Y28778817D01*
X46515768Y28575001D01*
X46515768Y28575000D01*
X46534654Y28371184D01*
X46592201Y28168926D01*
X46591613Y28099059D01*
X46560615Y28047311D01*
X46121983Y27608678D01*
X46051325Y27538021D01*
X46051321Y27538016D01*
X46001361Y27451483D01*
X46001362Y27451483D01*
X46001362Y27451482D01*
X45975499Y27354961D01*
X45975499Y27297714D01*
X45955814Y27230675D01*
X45903010Y27184920D01*
X45833852Y27174976D01*
X45780376Y27196138D01*
X45762577Y27208601D01*
X45548492Y27308430D01*
X45548477Y27308436D01*
X45515960Y27317149D01*
X45456300Y27353514D01*
X45425772Y27416362D01*
X45434067Y27485737D01*
X45478553Y27539614D01*
X45503257Y27552548D01*
X45579427Y27582056D01*
X45753462Y27689814D01*
X45904732Y27827715D01*
X46028088Y27991065D01*
X46119328Y28174299D01*
X46175345Y28371179D01*
X46194232Y28575000D01*
X46175345Y28778821D01*
X46119328Y28975701D01*
X46028088Y29158935D01*
X45968904Y29237307D01*
X45904730Y29322288D01*
X45753462Y29460186D01*
X45753460Y29460188D01*
X45579430Y29567943D01*
X45579424Y29567946D01*
X45404428Y29635739D01*
X45388556Y29641888D01*
X45187347Y29679500D01*
X44982653Y29679500D01*
X44781444Y29641888D01*
X44781441Y29641888D01*
X44781441Y29641887D01*
X44590575Y29567946D01*
X44590569Y29567943D01*
X44416539Y29460188D01*
X44416537Y29460186D01*
X44265269Y29322288D01*
X44141912Y29158936D01*
X44050673Y28975705D01*
X43994654Y28778817D01*
X43975768Y28575001D01*
X43975768Y28575000D01*
X43994654Y28371184D01*
X44052201Y28168926D01*
X44051613Y28099059D01*
X44020615Y28047311D01*
X43581983Y27608678D01*
X43511325Y27538021D01*
X43511321Y27538016D01*
X43461361Y27451483D01*
X43461362Y27451483D01*
X43461362Y27451482D01*
X43435499Y27354961D01*
X43435499Y27297714D01*
X43415814Y27230675D01*
X43363010Y27184920D01*
X43293852Y27174976D01*
X43240376Y27196138D01*
X43222577Y27208601D01*
X43008492Y27308430D01*
X43008477Y27308436D01*
X42975960Y27317149D01*
X42916300Y27353514D01*
X42885772Y27416362D01*
X42894067Y27485737D01*
X42938553Y27539614D01*
X42963257Y27552548D01*
X43039427Y27582056D01*
X43213462Y27689814D01*
X43364732Y27827715D01*
X43488088Y27991065D01*
X43579328Y28174299D01*
X43635345Y28371179D01*
X43654232Y28575000D01*
X43635345Y28778821D01*
X43579328Y28975701D01*
X43488088Y29158935D01*
X43428904Y29237307D01*
X43364730Y29322288D01*
X43213462Y29460186D01*
X43213460Y29460188D01*
X43039430Y29567943D01*
X43039424Y29567946D01*
X42864428Y29635739D01*
X42848556Y29641888D01*
X42647347Y29679500D01*
X42442653Y29679500D01*
X42241444Y29641888D01*
X42241441Y29641888D01*
X42241441Y29641887D01*
X42050575Y29567946D01*
X42050569Y29567943D01*
X41876539Y29460188D01*
X41876537Y29460186D01*
X41725269Y29322288D01*
X41601912Y29158936D01*
X41510673Y28975705D01*
X41454654Y28778817D01*
X41435768Y28575001D01*
X41435768Y28575000D01*
X41454654Y28371184D01*
X41512201Y28168926D01*
X41511613Y28099059D01*
X41480615Y28047311D01*
X41041983Y27608678D01*
X40971325Y27538021D01*
X40971321Y27538016D01*
X40921361Y27451483D01*
X40921362Y27451483D01*
X40921362Y27451482D01*
X40895499Y27354961D01*
X40895499Y27297714D01*
X40875814Y27230675D01*
X40823010Y27184920D01*
X40753852Y27174976D01*
X40700376Y27196138D01*
X40682577Y27208601D01*
X40468492Y27308430D01*
X40468477Y27308436D01*
X40435960Y27317149D01*
X40376300Y27353514D01*
X40345772Y27416362D01*
X40354067Y27485737D01*
X40398553Y27539614D01*
X40423257Y27552548D01*
X40499427Y27582056D01*
X40673462Y27689814D01*
X40824732Y27827715D01*
X40948088Y27991065D01*
X41039328Y28174299D01*
X41095345Y28371179D01*
X41114232Y28575000D01*
X41095345Y28778821D01*
X41039328Y28975701D01*
X40948088Y29158935D01*
X40888904Y29237307D01*
X40824730Y29322288D01*
X40673462Y29460186D01*
X40673460Y29460188D01*
X40499430Y29567943D01*
X40499424Y29567946D01*
X40324428Y29635739D01*
X40308556Y29641888D01*
X40107347Y29679500D01*
X39902653Y29679500D01*
X39701444Y29641888D01*
X39701441Y29641888D01*
X39701441Y29641887D01*
X39510575Y29567946D01*
X39510569Y29567943D01*
X39336539Y29460188D01*
X39336537Y29460186D01*
X39185269Y29322288D01*
X39061912Y29158936D01*
X38970673Y28975705D01*
X38914654Y28778817D01*
X38895768Y28575001D01*
X38895768Y28575000D01*
X38914654Y28371184D01*
X38970673Y28174296D01*
X39061912Y27991065D01*
X39185269Y27827713D01*
X39336537Y27689815D01*
X39336539Y27689813D01*
X39510569Y27582058D01*
X39510571Y27582057D01*
X39510573Y27582056D01*
X39561313Y27562399D01*
X39586737Y27552550D01*
X39642139Y27509977D01*
X39665730Y27444211D01*
X39650019Y27376130D01*
X39599996Y27327351D01*
X39574040Y27317149D01*
X39541519Y27308435D01*
X39541507Y27308430D01*
X39327422Y27208601D01*
X39327420Y27208600D01*
X39133926Y27073114D01*
X39133920Y27073109D01*
X38966891Y26906080D01*
X38966890Y26906078D01*
X38836575Y26719969D01*
X38781998Y26676345D01*
X38712499Y26669152D01*
X38650145Y26700674D01*
X38633425Y26719969D01*
X38503109Y26906078D01*
X38503108Y26906080D01*
X38336082Y27073106D01*
X38142578Y27208601D01*
X37928492Y27308430D01*
X37928477Y27308436D01*
X37895960Y27317149D01*
X37836300Y27353514D01*
X37805772Y27416362D01*
X37814067Y27485737D01*
X37858553Y27539614D01*
X37883257Y27552548D01*
X37959427Y27582056D01*
X38133462Y27689814D01*
X38284732Y27827715D01*
X38408088Y27991065D01*
X38499328Y28174299D01*
X38555345Y28371179D01*
X38574232Y28575000D01*
X38555345Y28778821D01*
X38499328Y28975701D01*
X38408088Y29158935D01*
X38348904Y29237307D01*
X38284730Y29322288D01*
X38133462Y29460186D01*
X38133460Y29460188D01*
X37959430Y29567943D01*
X37959424Y29567946D01*
X37784428Y29635739D01*
X37768556Y29641888D01*
X37567347Y29679500D01*
X37362653Y29679500D01*
X37161444Y29641888D01*
X37161441Y29641888D01*
X37161441Y29641887D01*
X36970575Y29567946D01*
X36970569Y29567943D01*
X36796539Y29460188D01*
X36796537Y29460186D01*
X36645269Y29322288D01*
X36521912Y29158936D01*
X36430673Y28975705D01*
X36374654Y28778817D01*
X36355768Y28575001D01*
X36355768Y28575000D01*
X36374654Y28371184D01*
X36430673Y28174296D01*
X36521912Y27991065D01*
X36645269Y27827713D01*
X36796537Y27689815D01*
X36796539Y27689813D01*
X36970569Y27582058D01*
X36970571Y27582057D01*
X36970573Y27582056D01*
X37021313Y27562399D01*
X37046737Y27552550D01*
X37102139Y27509977D01*
X37125730Y27444211D01*
X37110019Y27376130D01*
X37059996Y27327351D01*
X37034040Y27317149D01*
X37001519Y27308435D01*
X37001507Y27308430D01*
X36787422Y27208601D01*
X36787420Y27208600D01*
X36593926Y27073114D01*
X36593920Y27073109D01*
X36426891Y26906080D01*
X36426890Y26906078D01*
X36296575Y26719969D01*
X36241998Y26676345D01*
X36172499Y26669152D01*
X36110145Y26700674D01*
X36093425Y26719969D01*
X35963109Y26906078D01*
X35963108Y26906080D01*
X35796082Y27073106D01*
X35602578Y27208601D01*
X35388492Y27308430D01*
X35388477Y27308436D01*
X35355960Y27317149D01*
X35296300Y27353514D01*
X35265772Y27416362D01*
X35274067Y27485737D01*
X35318553Y27539614D01*
X35343257Y27552548D01*
X35419427Y27582056D01*
X35593462Y27689814D01*
X35744732Y27827715D01*
X35868088Y27991065D01*
X35959328Y28174299D01*
X36015345Y28371179D01*
X36034232Y28575000D01*
X36015345Y28778821D01*
X35959328Y28975701D01*
X35959325Y28975706D01*
X35957798Y28981075D01*
X35958384Y29050943D01*
X35989381Y29102689D01*
X40411821Y33525129D01*
X40473142Y33558612D01*
X40542834Y33553628D01*
X40598767Y33511756D01*
X40623184Y33446292D01*
X40623500Y33437447D01*
X40623500Y33237937D01*
X40638266Y33163699D01*
X40694515Y33079516D01*
X40727683Y33057354D01*
X40778699Y33023266D01*
X40778702Y33023266D01*
X40778703Y33023265D01*
X40795108Y33020002D01*
X40852933Y33008500D01*
X42703066Y33008501D01*
X42777301Y33023266D01*
X42861484Y33079516D01*
X42917734Y33163699D01*
X42932500Y33237933D01*
X42932499Y33926678D01*
X42952183Y33993714D01*
X43004987Y34039469D01*
X43074146Y34049413D01*
X43137702Y34020388D01*
X43175476Y33961610D01*
X43178134Y33950520D01*
X43236846Y33744165D01*
X43236849Y33744159D01*
X43301212Y33614901D01*
X43332219Y33552630D01*
X43461159Y33381886D01*
X43619278Y33237742D01*
X43619283Y33237739D01*
X43619286Y33237737D01*
X43801186Y33125109D01*
X43801187Y33125109D01*
X43801190Y33125107D01*
X44000703Y33047815D01*
X44211020Y33008500D01*
X44211022Y33008500D01*
X44424978Y33008500D01*
X44424980Y33008500D01*
X44635297Y33047815D01*
X44834810Y33125107D01*
X45016722Y33237742D01*
X45174841Y33381886D01*
X45303781Y33552630D01*
X45399151Y33744160D01*
X45399151Y33744163D01*
X45399153Y33744165D01*
X45457703Y33949950D01*
X45457704Y33949953D01*
X45466921Y34049413D01*
X45477446Y34163000D01*
X45466698Y34278983D01*
X45457704Y34376048D01*
X45457703Y34376051D01*
X45399153Y34581836D01*
X45399150Y34581842D01*
X45371691Y34636987D01*
X45303781Y34773370D01*
X45174841Y34944114D01*
X45016722Y35088258D01*
X45016716Y35088262D01*
X45016713Y35088264D01*
X44834813Y35200892D01*
X44834807Y35200894D01*
X44635297Y35278185D01*
X44424980Y35317500D01*
X44211020Y35317500D01*
X44000703Y35278185D01*
X43919514Y35246732D01*
X43801192Y35200894D01*
X43801186Y35200892D01*
X43619286Y35088264D01*
X43619283Y35088262D01*
X43619279Y35088260D01*
X43619278Y35088258D01*
X43577765Y35050414D01*
X43461158Y34944113D01*
X43332219Y34773371D01*
X43236849Y34581842D01*
X43236846Y34581836D01*
X43176727Y34370534D01*
X43175513Y34370880D01*
X43146710Y34314249D01*
X43086394Y34278983D01*
X43016586Y34281924D01*
X42959450Y34322140D01*
X42933127Y34386861D01*
X42932499Y34399325D01*
X42932499Y35088064D01*
X42932499Y35088066D01*
X42917734Y35162301D01*
X42891947Y35200894D01*
X42861484Y35246485D01*
X42811019Y35280204D01*
X42777301Y35302734D01*
X42777299Y35302735D01*
X42777296Y35302736D01*
X42703069Y35317500D01*
X40852936Y35317500D01*
X40778698Y35302734D01*
X40694515Y35246485D01*
X40638266Y35162301D01*
X40638264Y35162297D01*
X40623500Y35088072D01*
X40623500Y34666500D01*
X40603815Y34599461D01*
X40551011Y34553706D01*
X40499500Y34542500D01*
X40463038Y34542500D01*
X40366518Y34516638D01*
X40366515Y34516637D01*
X40279984Y34466679D01*
X40279979Y34466675D01*
X40209322Y34396017D01*
X35449043Y29635739D01*
X35387720Y29602254D01*
X35318028Y29607238D01*
X35316569Y29607793D01*
X35228561Y29641887D01*
X35228556Y29641888D01*
X35027347Y29679500D01*
X34822653Y29679500D01*
X34621444Y29641888D01*
X34621441Y29641888D01*
X34621441Y29641887D01*
X34430575Y29567946D01*
X34430569Y29567943D01*
X34256539Y29460188D01*
X34256537Y29460186D01*
X34105269Y29322288D01*
X33981912Y29158936D01*
X33890673Y28975705D01*
X33834654Y28778817D01*
X33815768Y28575001D01*
X33815768Y28575000D01*
X33834654Y28371184D01*
X33890673Y28174296D01*
X33981912Y27991065D01*
X34105269Y27827713D01*
X34256537Y27689815D01*
X34256539Y27689813D01*
X34430569Y27582058D01*
X34430571Y27582057D01*
X34430573Y27582056D01*
X34481313Y27562399D01*
X34506737Y27552550D01*
X34562139Y27509977D01*
X34585730Y27444211D01*
X34570019Y27376130D01*
X34519996Y27327351D01*
X34494040Y27317149D01*
X34461519Y27308435D01*
X34461507Y27308430D01*
X34247422Y27208601D01*
X34247420Y27208600D01*
X34053926Y27073114D01*
X34053920Y27073109D01*
X33886891Y26906080D01*
X33886890Y26906078D01*
X33756575Y26719969D01*
X33701998Y26676345D01*
X33632499Y26669152D01*
X33570145Y26700674D01*
X33553425Y26719969D01*
X33423109Y26906078D01*
X33423108Y26906080D01*
X33256082Y27073106D01*
X33062578Y27208601D01*
X32848492Y27308430D01*
X32848477Y27308436D01*
X32815960Y27317149D01*
X32756300Y27353514D01*
X32725772Y27416362D01*
X32734067Y27485737D01*
X32778553Y27539614D01*
X32803257Y27552548D01*
X32879427Y27582056D01*
X33053462Y27689814D01*
X33204732Y27827715D01*
X33328088Y27991065D01*
X33419328Y28174299D01*
X33475345Y28371179D01*
X33494232Y28575000D01*
X33475345Y28778821D01*
X33419328Y28975701D01*
X33419325Y28975706D01*
X33417798Y28981075D01*
X33418384Y29050943D01*
X33449381Y29102689D01*
X34385809Y30039116D01*
X34385814Y30039120D01*
X34396017Y30049324D01*
X34396019Y30049324D01*
X34466676Y30119981D01*
X34516638Y30206518D01*
X34522103Y30226916D01*
X34542501Y30303038D01*
X34542501Y30402962D01*
X34542501Y30410557D01*
X34542500Y30410575D01*
X34542500Y35814002D01*
X38556715Y35814002D01*
X38556715Y35813999D01*
X38575771Y35669248D01*
X38575773Y35669243D01*
X38631642Y35534362D01*
X38631645Y35534356D01*
X38720525Y35418527D01*
X38720526Y35418526D01*
X38836355Y35329646D01*
X38836361Y35329643D01*
X38901321Y35302736D01*
X38971246Y35273772D01*
X39043623Y35264244D01*
X39115999Y35254715D01*
X39116000Y35254715D01*
X39116001Y35254715D01*
X39164251Y35261068D01*
X39260754Y35273772D01*
X39395643Y35329645D01*
X39511474Y35418526D01*
X39600355Y35534357D01*
X39656228Y35669246D01*
X39673216Y35798287D01*
X39701482Y35862183D01*
X39708449Y35869757D01*
X39998876Y36160184D01*
X40060198Y36193666D01*
X40086556Y36196500D01*
X49194444Y36196500D01*
X49261483Y36176815D01*
X49282125Y36160181D01*
X52384952Y33057354D01*
X52418437Y32996031D01*
X52420210Y32985858D01*
X52434771Y32875248D01*
X52434773Y32875243D01*
X52490642Y32740362D01*
X52490645Y32740356D01*
X52579525Y32624527D01*
X52579526Y32624526D01*
X52695355Y32535646D01*
X52695361Y32535643D01*
X52762801Y32507709D01*
X52830246Y32479772D01*
X52902623Y32470244D01*
X52974999Y32460715D01*
X52975000Y32460715D01*
X52975001Y32460715D01*
X53023251Y32467068D01*
X53119754Y32479772D01*
X53254643Y32535645D01*
X53370474Y32624526D01*
X53459355Y32740357D01*
X53515228Y32875246D01*
X53529790Y32985858D01*
X53534285Y33019999D01*
X53534285Y33020002D01*
X53515228Y33164753D01*
X53515228Y33164754D01*
X53459355Y33299642D01*
X53370474Y33415474D01*
X53254643Y33504355D01*
X53254640Y33504356D01*
X53254638Y33504358D01*
X53119757Y33560227D01*
X53119755Y33560228D01*
X53119754Y33560228D01*
X53088080Y33564398D01*
X52972288Y33579643D01*
X52908392Y33607910D01*
X52900793Y33614901D01*
X49713746Y36801948D01*
X49713744Y36801951D01*
X49636020Y36879675D01*
X49636015Y36879679D01*
X49549485Y36929637D01*
X49549482Y36929638D01*
X49549478Y36929639D01*
X49529084Y36935104D01*
X49452962Y36955501D01*
X49353038Y36955501D01*
X49345442Y36955501D01*
X49345426Y36955500D01*
X39935574Y36955500D01*
X39935558Y36955501D01*
X39927962Y36955501D01*
X39828038Y36955501D01*
X39751915Y36935104D01*
X39751913Y36935104D01*
X39731519Y36929639D01*
X39644982Y36879677D01*
X39644979Y36879675D01*
X39574322Y36809017D01*
X39171778Y36406474D01*
X39110455Y36372989D01*
X39100282Y36371216D01*
X38971247Y36354229D01*
X38971245Y36354228D01*
X38836361Y36298357D01*
X38720526Y36209474D01*
X38631643Y36093639D01*
X38575772Y35958755D01*
X38575771Y35958753D01*
X38556715Y35814002D01*
X34542500Y35814002D01*
X34542500Y38227001D01*
X35027693Y38227001D01*
X35027693Y38227000D01*
X35046850Y38069219D01*
X35081287Y37978418D01*
X35103213Y37920605D01*
X35193502Y37789799D01*
X35193504Y37789797D01*
X35193506Y37789795D01*
X35312469Y37684402D01*
X35312471Y37684401D01*
X35453207Y37610537D01*
X35530368Y37591519D01*
X35607528Y37572500D01*
X35607529Y37572500D01*
X35766472Y37572500D01*
X35817911Y37585179D01*
X35920793Y37610537D01*
X36061529Y37684401D01*
X36063538Y37686181D01*
X36069335Y37691316D01*
X36132568Y37721037D01*
X36151561Y37722500D01*
X52825667Y37722500D01*
X52892706Y37702815D01*
X52913348Y37686181D01*
X55720181Y34879348D01*
X55753666Y34818025D01*
X55756500Y34791667D01*
X55756500Y33556102D01*
X55736815Y33489063D01*
X55734550Y33485662D01*
X55677214Y33402598D01*
X55620850Y33253982D01*
X55601693Y33096201D01*
X55601693Y33096200D01*
X55620850Y32938419D01*
X55644808Y32875249D01*
X55671966Y32803639D01*
X55677214Y32789803D01*
X55711345Y32740356D01*
X55767502Y32658999D01*
X55767504Y32658997D01*
X55767506Y32658995D01*
X55886469Y32553602D01*
X55886471Y32553601D01*
X56027207Y32479737D01*
X56093716Y32463344D01*
X56181528Y32441700D01*
X56181529Y32441700D01*
X56340472Y32441700D01*
X56391911Y32454379D01*
X56494793Y32479737D01*
X56635529Y32553601D01*
X56754498Y32658999D01*
X56844787Y32789805D01*
X56901149Y32938418D01*
X56920307Y33096200D01*
X56901149Y33253982D01*
X56844787Y33402595D01*
X56787450Y33485662D01*
X56765567Y33552016D01*
X56765500Y33556102D01*
X56765500Y35118417D01*
X56765500Y35118419D01*
X56731119Y35246730D01*
X56698785Y35302734D01*
X56664701Y35361770D01*
X53395770Y38630701D01*
X53366289Y38647722D01*
X53322838Y38672809D01*
X53322837Y38672809D01*
X53280730Y38697119D01*
X53280731Y38697119D01*
X53248652Y38705715D01*
X53152419Y38731500D01*
X53152416Y38731500D01*
X36151561Y38731500D01*
X36084522Y38751185D01*
X36069335Y38762684D01*
X36061530Y38769599D01*
X35920791Y38843464D01*
X35766472Y38881500D01*
X35766471Y38881500D01*
X35607529Y38881500D01*
X35607528Y38881500D01*
X35453208Y38843464D01*
X35312469Y38769599D01*
X35193506Y38664206D01*
X35193500Y38664199D01*
X35103214Y38533398D01*
X35046850Y38384782D01*
X35027693Y38227001D01*
X34542500Y38227001D01*
X34542500Y40939444D01*
X34562185Y41006483D01*
X34578819Y41027125D01*
X35045875Y41494181D01*
X35107198Y41527666D01*
X35133556Y41530500D01*
X40431444Y41530500D01*
X40498483Y41510815D01*
G37*
G04 #@! TD.AperFunction*
M02*
