M48
; DRILL file {KiCad 8.0.7} date 2025-01-10T00:35:50-0600
; FORMAT={-:-/ absolute / inch / decimal}
; #@! TF.CreationDate,2025-01-10T00:35:50-06:00
; #@! TF.GenerationSoftware,Kicad,Pcbnew,8.0.7
; #@! TF.FileFunction,MixedPlating,1,2
FMAT,2
INCH
; #@! TA.AperFunction,Plated,PTH,ViaDrill
T1C0.0118
; #@! TA.AperFunction,Plated,PTH,ViaDrill
T2C0.0157
; #@! TA.AperFunction,Plated,PTH,ViaDrill
T3C0.0197
; #@! TA.AperFunction,Plated,PTH,ComponentDrill
T4C0.0300
; #@! TA.AperFunction,Plated,PTH,ComponentDrill
T5C0.0315
; #@! TA.AperFunction,Plated,PTH,ComponentDrill
T6C0.0354
; #@! TA.AperFunction,Plated,PTH,ComponentDrill
T7C0.0394
; #@! TA.AperFunction,Plated,PTH,ComponentDrill
T8C0.0512
; #@! TA.AperFunction,NonPlated,NPTH,ComponentDrill
T9C0.0354
%
G90
G05
T1
X0.87Y0.8861
X0.87Y0.69
X0.975Y0.8852
X0.975Y0.625
X0.99Y1.555
X0.99Y1.195
X1.025Y1.655
X1.025Y1.2167
X1.075Y0.8861
X1.14Y0.81
X1.1469Y0.4204
X1.1469Y0.185
X1.225Y0.89
X1.275Y0.2186
X1.305Y0.725
X1.305Y0.675
X1.31Y0.78
X1.325Y0.8865
X1.36Y0.52
X1.364Y0.1823
X1.385Y0.0793
X1.4Y0.1823
X1.415Y0.1
X1.475Y0.095
X1.4815Y0.3811
X1.4815Y0.2866
X1.485Y0.805
X1.485Y0.675
X1.51Y0.775
X1.51Y0.575
X1.51Y0.0986
X1.54Y1.41
X1.55Y1.6
X1.55Y0.7701
X1.55Y0.575
X1.59Y0.134
X1.595Y0.85
X1.6154Y0.595
X1.675Y0.8841
X1.68Y0.705
X1.68Y0.6443
X1.6863Y0.6015
X1.73Y1.185
X1.73Y0.25
X1.735Y0.17
X1.755Y0.705
X1.7689Y0.4322
X1.7689Y0.2944
X1.775Y0.8841
X1.775Y0.515
X1.796Y0.727
X1.796Y0.6443
X1.8083Y0.515
X1.83Y0.215
X1.85Y0.7285
X1.875Y0.8841
X1.887Y0.4322
X1.887Y0.3023
X1.895Y0.7493
X1.895Y0.62
X1.895Y0.25
X1.895Y0.17
X1.925Y0.96
X1.93Y0.17
X1.94Y0.2157
X1.97Y0.195
X1.975Y0.8841
X1.975Y0.705
X1.9941Y0.5159
X2.0044Y0.9655
X2.0199Y0.4519
X2.035Y0.73
X2.0406Y0.355
X2.075Y0.8841
X2.0856Y1.3
X2.175Y0.8841
X2.275Y0.8841
X2.2886Y0.195
X2.3455Y1.3
X2.35Y0.925
X2.3888Y1.3
X2.3989Y0.2575
X2.41Y0.93
X2.41Y0.2157
X2.45Y0.93
X2.465Y0.24
T2
X0.44Y0.815
X0.52Y0.735
X0.71Y0.345
X0.98Y0.235
X1.015Y0.575
X1.02Y0.68
T3
X0.095Y0.81
X0.095Y0.585
X0.175Y0.645
X0.175Y0.59
X0.18Y0.8
X0.18Y0.745
X0.183Y0.885
X0.187Y0.505
X0.255Y0.64
X0.255Y0.585
X0.26Y0.8
X0.26Y0.745
X0.525Y1.22
X0.525Y0.875
X0.625Y1.22
X0.625Y0.875
X0.7217Y0.875
X0.725Y1.22
X0.996Y0.458
X1.075Y0.71
X1.171Y0.475
X1.243Y0.29
X1.296Y1.505
X1.405Y1.505
X1.5463Y0.1232
X1.576Y0.4795
X1.576Y0.2551
X1.7Y0.453
X2.115Y0.668
X2.142Y0.473
X2.176Y0.095
X2.2Y0.715
X2.215Y1.303
X2.302Y1.304
X2.445Y0.625
X2.455Y0.455
T4
X0.077Y1.655
X0.077Y1.555
X0.077Y1.455
X0.077Y1.355
T5
X0.1213Y0.3637
X0.1213Y0.285
X0.2Y0.3637
X0.2Y0.285
X0.2787Y0.3637
X0.2787Y0.285
T6
X0.54Y0.435
X0.6975Y0.435
X1.6448Y1.345
X1.645Y1.605
X1.7448Y1.345
X1.745Y1.605
T7
X0.075Y1.125
X0.075Y1.025
X0.175Y1.125
X0.175Y1.025
X0.275Y1.125
X0.275Y1.025
X0.375Y1.125
X0.375Y1.025
X0.475Y1.125
X0.475Y1.025
X0.545Y0.155
X0.575Y1.125
X0.575Y1.025
X0.645Y0.155
X0.675Y1.125
X0.675Y1.025
X0.745Y0.155
X0.775Y1.125
X0.775Y1.025
X0.845Y0.155
X0.875Y1.125
X0.875Y1.025
X0.975Y1.125
X0.975Y1.025
X1.075Y1.125
X1.075Y1.025
X1.175Y1.125
X1.175Y1.025
X1.275Y1.125
X1.275Y1.025
X1.375Y1.125
X1.375Y1.025
X1.475Y1.125
X1.475Y1.025
X1.575Y1.125
X1.575Y1.025
X1.675Y1.125
X1.675Y1.025
X1.775Y1.125
X1.775Y1.025
X1.875Y1.125
X1.875Y1.025
X1.975Y1.125
X1.975Y1.025
X2.075Y1.125
X2.075Y1.025
X2.175Y1.125
X2.175Y1.025
X2.275Y1.125
X2.275Y1.025
X2.375Y1.125
X2.375Y1.025
X2.445Y0.7296
X2.445Y0.5504
X2.4487Y0.3246
X2.4487Y0.1454
X2.475Y1.125
X2.475Y1.025
T8
X2.3466Y0.7778
X2.3466Y0.5022
X2.3503Y0.3728
X2.3503Y0.0972
T9
X2.0541Y1.6696
X2.3691Y1.6696
M30
